%TF.GenerationSoftware,KiCad,Pcbnew,8.0.1*%
%TF.CreationDate,2024-06-01T22:58:48+02:00*%
%TF.ProjectId,vesc6,76657363-362e-46b6-9963-61645f706362,rev?*%
%TF.SameCoordinates,Original*%
%TF.FileFunction,Paste,Bot*%
%TF.FilePolarity,Positive*%
%FSLAX46Y46*%
G04 Gerber Fmt 4.6, Leading zero omitted, Abs format (unit mm)*
G04 Created by KiCad (PCBNEW 8.0.1) date 2024-06-01 22:58:48*
%MOMM*%
%LPD*%
G01*
G04 APERTURE LIST*
G04 Aperture macros list*
%AMRoundRect*
0 Rectangle with rounded corners*
0 $1 Rounding radius*
0 $2 $3 $4 $5 $6 $7 $8 $9 X,Y pos of 4 corners*
0 Add a 4 corners polygon primitive as box body*
4,1,4,$2,$3,$4,$5,$6,$7,$8,$9,$2,$3,0*
0 Add four circle primitives for the rounded corners*
1,1,$1+$1,$2,$3*
1,1,$1+$1,$4,$5*
1,1,$1+$1,$6,$7*
1,1,$1+$1,$8,$9*
0 Add four rect primitives between the rounded corners*
20,1,$1+$1,$2,$3,$4,$5,0*
20,1,$1+$1,$4,$5,$6,$7,0*
20,1,$1+$1,$6,$7,$8,$9,0*
20,1,$1+$1,$8,$9,$2,$3,0*%
G04 Aperture macros list end*
%ADD10RoundRect,0.150000X-0.150000X0.512500X-0.150000X-0.512500X0.150000X-0.512500X0.150000X0.512500X0*%
%ADD11RoundRect,0.100000X0.712500X0.100000X-0.712500X0.100000X-0.712500X-0.100000X0.712500X-0.100000X0*%
%ADD12RoundRect,0.225000X0.225000X0.250000X-0.225000X0.250000X-0.225000X-0.250000X0.225000X-0.250000X0*%
%ADD13RoundRect,0.250000X-0.800000X0.450000X-0.800000X-0.450000X0.800000X-0.450000X0.800000X0.450000X0*%
%ADD14RoundRect,0.200000X0.200000X0.275000X-0.200000X0.275000X-0.200000X-0.275000X0.200000X-0.275000X0*%
%ADD15RoundRect,0.250000X0.450000X0.800000X-0.450000X0.800000X-0.450000X-0.800000X0.450000X-0.800000X0*%
%ADD16RoundRect,0.225000X0.250000X-0.225000X0.250000X0.225000X-0.250000X0.225000X-0.250000X-0.225000X0*%
%ADD17RoundRect,0.100000X0.225000X0.100000X-0.225000X0.100000X-0.225000X-0.100000X0.225000X-0.100000X0*%
%ADD18RoundRect,0.225000X-0.225000X-0.250000X0.225000X-0.250000X0.225000X0.250000X-0.225000X0.250000X0*%
%ADD19RoundRect,0.200000X-0.275000X0.200000X-0.275000X-0.200000X0.275000X-0.200000X0.275000X0.200000X0*%
%ADD20RoundRect,0.250000X-1.000000X1.750000X-1.000000X-1.750000X1.000000X-1.750000X1.000000X1.750000X0*%
%ADD21RoundRect,0.200000X0.275000X-0.200000X0.275000X0.200000X-0.275000X0.200000X-0.275000X-0.200000X0*%
%ADD22RoundRect,0.200000X-0.200000X-0.275000X0.200000X-0.275000X0.200000X0.275000X-0.200000X0.275000X0*%
%ADD23RoundRect,0.135000X1.215000X2.965000X-1.215000X2.965000X-1.215000X-2.965000X1.215000X-2.965000X0*%
%ADD24RoundRect,0.250000X-0.250000X-0.475000X0.250000X-0.475000X0.250000X0.475000X-0.250000X0.475000X0*%
%ADD25RoundRect,0.250000X1.750000X1.000000X-1.750000X1.000000X-1.750000X-1.000000X1.750000X-1.000000X0*%
%ADD26RoundRect,0.250000X0.925000X-0.412500X0.925000X0.412500X-0.925000X0.412500X-0.925000X-0.412500X0*%
%ADD27RoundRect,0.135000X-1.215000X-2.965000X1.215000X-2.965000X1.215000X2.965000X-1.215000X2.965000X0*%
%ADD28RoundRect,0.250000X-1.750000X-1.000000X1.750000X-1.000000X1.750000X1.000000X-1.750000X1.000000X0*%
%ADD29RoundRect,0.250000X0.412500X0.925000X-0.412500X0.925000X-0.412500X-0.925000X0.412500X-0.925000X0*%
%ADD30R,3.600000X1.500000*%
%ADD31R,1.500000X3.600000*%
%ADD32RoundRect,0.250000X-0.412500X-0.925000X0.412500X-0.925000X0.412500X0.925000X-0.412500X0.925000X0*%
%ADD33RoundRect,0.250000X-0.475000X0.250000X-0.475000X-0.250000X0.475000X-0.250000X0.475000X0.250000X0*%
G04 APERTURE END LIST*
D10*
%TO.C,U6*%
X140050000Y-93112500D03*
X141000000Y-93112500D03*
X141950000Y-93112500D03*
X141950000Y-95387500D03*
X140050000Y-95387500D03*
%TD*%
D11*
%TO.C,U10*%
X151112500Y-78025000D03*
X151112500Y-78675000D03*
X151112500Y-79325000D03*
X151112500Y-79975000D03*
X146887500Y-79975000D03*
X146887500Y-79325000D03*
X146887500Y-78675000D03*
X146887500Y-78025000D03*
%TD*%
D12*
%TO.C,C38*%
X143525000Y-81750000D03*
X141975000Y-81750000D03*
%TD*%
%TO.C,C69*%
X122525000Y-81750000D03*
X120975000Y-81750000D03*
%TD*%
D13*
%TO.C,D9*%
X144000000Y-83550000D03*
X144000000Y-87950000D03*
%TD*%
D12*
%TO.C,C59*%
X129525000Y-81750000D03*
X127975000Y-81750000D03*
%TD*%
D14*
%TO.C,R67*%
X116075000Y-92000000D03*
X114425000Y-92000000D03*
%TD*%
%TO.C,R13*%
X164825000Y-110500000D03*
X163175000Y-110500000D03*
%TD*%
D15*
%TO.C,D8*%
X151200000Y-87250000D03*
X146800000Y-87250000D03*
%TD*%
D12*
%TO.C,C71*%
X124275000Y-103750000D03*
X122725000Y-103750000D03*
%TD*%
D16*
%TO.C,C48*%
X148500000Y-112275000D03*
X148500000Y-110725000D03*
%TD*%
D12*
%TO.C,C27*%
X148525000Y-84250000D03*
X146975000Y-84250000D03*
%TD*%
D17*
%TO.C,U8*%
X138700000Y-99350000D03*
X138700000Y-100000000D03*
X138700000Y-100650000D03*
X136800000Y-100650000D03*
X136800000Y-99350000D03*
%TD*%
D18*
%TO.C,C114*%
X127225000Y-93000000D03*
X128775000Y-93000000D03*
%TD*%
D17*
%TO.C,U11*%
X138700000Y-105350000D03*
X138700000Y-106000000D03*
X138700000Y-106650000D03*
X136800000Y-106650000D03*
X136800000Y-105350000D03*
%TD*%
D11*
%TO.C,U12*%
X158112500Y-78025000D03*
X158112500Y-78675000D03*
X158112500Y-79325000D03*
X158112500Y-79975000D03*
X153887500Y-79975000D03*
X153887500Y-79325000D03*
X153887500Y-78675000D03*
X153887500Y-78025000D03*
%TD*%
D19*
%TO.C,R70*%
X131500000Y-101425000D03*
X131500000Y-103075000D03*
%TD*%
D20*
%TO.C,C115*%
X105500000Y-75450000D03*
X105500000Y-81550000D03*
%TD*%
D12*
%TO.C,C60*%
X124275000Y-100500000D03*
X122725000Y-100500000D03*
%TD*%
D16*
%TO.C,C73*%
X116750000Y-112275000D03*
X116750000Y-110725000D03*
%TD*%
D12*
%TO.C,C76*%
X114775000Y-76150000D03*
X113225000Y-76150000D03*
%TD*%
%TO.C,C77*%
X115525000Y-81750000D03*
X113975000Y-81750000D03*
%TD*%
%TO.C,C12*%
X145525000Y-110750000D03*
X143975000Y-110750000D03*
%TD*%
D21*
%TO.C,R65*%
X127000000Y-106075000D03*
X127000000Y-104425000D03*
%TD*%
D12*
%TO.C,C68*%
X121775000Y-76250000D03*
X120225000Y-76250000D03*
%TD*%
D22*
%TO.C,R8*%
X161925000Y-101500000D03*
X163575000Y-101500000D03*
%TD*%
D23*
%TO.C,R53*%
X121150000Y-57000000D03*
X112850000Y-57000000D03*
%TD*%
D14*
%TO.C,R12*%
X164825000Y-112000000D03*
X163175000Y-112000000D03*
%TD*%
D22*
%TO.C,R7*%
X161925000Y-103000000D03*
X163575000Y-103000000D03*
%TD*%
D17*
%TO.C,U9*%
X138700000Y-102350000D03*
X138700000Y-103000000D03*
X138700000Y-103650000D03*
X136800000Y-103650000D03*
X136800000Y-102350000D03*
%TD*%
D24*
%TO.C,C111*%
X126800000Y-88000000D03*
X128700000Y-88000000D03*
%TD*%
D12*
%TO.C,C62*%
X149775000Y-76000000D03*
X148225000Y-76000000D03*
%TD*%
D25*
%TO.C,C58*%
X167050000Y-88500000D03*
X160950000Y-88500000D03*
%TD*%
D16*
%TO.C,C79*%
X118250000Y-112275000D03*
X118250000Y-110725000D03*
%TD*%
D21*
%TO.C,R71*%
X131500000Y-106075000D03*
X131500000Y-104425000D03*
%TD*%
%TO.C,R27*%
X163500000Y-99325000D03*
X163500000Y-97675000D03*
%TD*%
D12*
%TO.C,C63*%
X156775000Y-76000000D03*
X155225000Y-76000000D03*
%TD*%
D22*
%TO.C,R58*%
X122675000Y-105250000D03*
X124325000Y-105250000D03*
%TD*%
D26*
%TO.C,C37*%
X137250000Y-95537500D03*
X137250000Y-92462500D03*
%TD*%
%TO.C,C117*%
X131500000Y-96287500D03*
X131500000Y-93212500D03*
%TD*%
D22*
%TO.C,R6*%
X161925000Y-104500000D03*
X163575000Y-104500000D03*
%TD*%
D18*
%TO.C,C116*%
X130725000Y-98250000D03*
X132275000Y-98250000D03*
%TD*%
D19*
%TO.C,R64*%
X127000000Y-101425000D03*
X127000000Y-103075000D03*
%TD*%
D11*
%TO.C,U19*%
X116112500Y-78025000D03*
X116112500Y-78675000D03*
X116112500Y-79325000D03*
X116112500Y-79975000D03*
X111887500Y-79975000D03*
X111887500Y-79325000D03*
X111887500Y-78675000D03*
X111887500Y-78025000D03*
%TD*%
D27*
%TO.C,R2*%
X148850000Y-57000000D03*
X157150000Y-57000000D03*
%TD*%
D19*
%TO.C,R20*%
X160000000Y-94675000D03*
X160000000Y-96325000D03*
%TD*%
D12*
%TO.C,C44*%
X157775000Y-82000000D03*
X156225000Y-82000000D03*
%TD*%
D19*
%TO.C,R68*%
X129250000Y-101425000D03*
X129250000Y-103075000D03*
%TD*%
D23*
%TO.C,R49*%
X121150000Y-68000000D03*
X112850000Y-68000000D03*
%TD*%
D15*
%TO.C,D10*%
X131450000Y-90500000D03*
X127050000Y-90500000D03*
%TD*%
D22*
%TO.C,R56*%
X122675000Y-102250000D03*
X124325000Y-102250000D03*
%TD*%
D23*
%TO.C,R57*%
X121150000Y-46000000D03*
X112850000Y-46000000D03*
%TD*%
D13*
%TO.C,D4*%
X119000000Y-84550000D03*
X119000000Y-88950000D03*
%TD*%
D21*
%TO.C,R25*%
X161750000Y-99325000D03*
X161750000Y-97675000D03*
%TD*%
D10*
%TO.C,U25*%
X127050000Y-94862500D03*
X128000000Y-94862500D03*
X128950000Y-94862500D03*
X128950000Y-97137500D03*
X127050000Y-97137500D03*
%TD*%
D11*
%TO.C,U7*%
X144112500Y-78025000D03*
X144112500Y-78675000D03*
X144112500Y-79325000D03*
X144112500Y-79975000D03*
X139887500Y-79975000D03*
X139887500Y-79325000D03*
X139887500Y-78675000D03*
X139887500Y-78025000D03*
%TD*%
D28*
%TO.C,C112*%
X102950000Y-88500000D03*
X109050000Y-88500000D03*
%TD*%
D27*
%TO.C,R3*%
X148850000Y-68000000D03*
X157150000Y-68000000D03*
%TD*%
D12*
%TO.C,C52*%
X141775000Y-107000000D03*
X140225000Y-107000000D03*
%TD*%
%TO.C,C102*%
X116525000Y-84500000D03*
X114975000Y-84500000D03*
%TD*%
D27*
%TO.C,R1*%
X148850000Y-46000000D03*
X157150000Y-46000000D03*
%TD*%
D17*
%TO.C,U16*%
X121200000Y-102350000D03*
X121200000Y-103000000D03*
X121200000Y-103650000D03*
X119300000Y-103650000D03*
X119300000Y-102350000D03*
%TD*%
D14*
%TO.C,R23*%
X148075000Y-90250000D03*
X146425000Y-90250000D03*
%TD*%
D17*
%TO.C,U15*%
X121200000Y-99350000D03*
X121200000Y-100000000D03*
X121200000Y-100650000D03*
X119300000Y-100650000D03*
X119300000Y-99350000D03*
%TD*%
D12*
%TO.C,C89*%
X113525000Y-111000000D03*
X111975000Y-111000000D03*
%TD*%
D22*
%TO.C,R40*%
X140175000Y-105500000D03*
X141825000Y-105500000D03*
%TD*%
D19*
%TO.C,R24*%
X161750000Y-94675000D03*
X161750000Y-96325000D03*
%TD*%
D20*
%TO.C,C56*%
X164250000Y-75450000D03*
X164250000Y-81550000D03*
%TD*%
D11*
%TO.C,U13*%
X130112500Y-78025000D03*
X130112500Y-78675000D03*
X130112500Y-79325000D03*
X130112500Y-79975000D03*
X125887500Y-79975000D03*
X125887500Y-79325000D03*
X125887500Y-78675000D03*
X125887500Y-78025000D03*
%TD*%
D16*
%TO.C,C40*%
X147000000Y-112275000D03*
X147000000Y-110725000D03*
%TD*%
%TO.C,C53*%
X150000000Y-112275000D03*
X150000000Y-110725000D03*
%TD*%
D22*
%TO.C,R38*%
X140175000Y-102250000D03*
X141825000Y-102250000D03*
%TD*%
D29*
%TO.C,C34*%
X153537500Y-90750000D03*
X150462500Y-90750000D03*
%TD*%
D16*
%TO.C,C78*%
X122750000Y-108275000D03*
X122750000Y-106725000D03*
%TD*%
D12*
%TO.C,C61*%
X142775000Y-76250000D03*
X141225000Y-76250000D03*
%TD*%
D11*
%TO.C,U17*%
X123112500Y-78025000D03*
X123112500Y-78675000D03*
X123112500Y-79325000D03*
X123112500Y-79975000D03*
X118887500Y-79975000D03*
X118887500Y-79325000D03*
X118887500Y-78675000D03*
X118887500Y-78025000D03*
%TD*%
D21*
%TO.C,R31*%
X105000000Y-110325000D03*
X105000000Y-108675000D03*
%TD*%
D12*
%TO.C,C46*%
X141775000Y-103750000D03*
X140225000Y-103750000D03*
%TD*%
D17*
%TO.C,U18*%
X121200000Y-105350000D03*
X121200000Y-106000000D03*
X121200000Y-106650000D03*
X119300000Y-106650000D03*
X119300000Y-105350000D03*
%TD*%
D22*
%TO.C,R34*%
X140175000Y-99250000D03*
X141825000Y-99250000D03*
%TD*%
D30*
%TO.C,L1*%
X154500000Y-84475000D03*
X154500000Y-87525000D03*
%TD*%
D31*
%TO.C,L2*%
X121725000Y-85750000D03*
X124775000Y-85750000D03*
%TD*%
D18*
%TO.C,C35*%
X140225000Y-91250000D03*
X141775000Y-91250000D03*
%TD*%
D21*
%TO.C,R21*%
X160000000Y-99325000D03*
X160000000Y-97675000D03*
%TD*%
D12*
%TO.C,C39*%
X141775000Y-100750000D03*
X140225000Y-100750000D03*
%TD*%
D16*
%TO.C,C64*%
X115250000Y-112275000D03*
X115250000Y-110725000D03*
%TD*%
D12*
%TO.C,C51*%
X150775000Y-82000000D03*
X149225000Y-82000000D03*
%TD*%
D18*
%TO.C,C36*%
X137225000Y-97250000D03*
X138775000Y-97250000D03*
%TD*%
D19*
%TO.C,R26*%
X163500000Y-94675000D03*
X163500000Y-96325000D03*
%TD*%
D22*
%TO.C,R52*%
X122675000Y-98750000D03*
X124325000Y-98750000D03*
%TD*%
D32*
%TO.C,C113*%
X126962500Y-85250000D03*
X130037500Y-85250000D03*
%TD*%
D12*
%TO.C,C16*%
X128775000Y-76250000D03*
X127225000Y-76250000D03*
%TD*%
D21*
%TO.C,R69*%
X129250000Y-106075000D03*
X129250000Y-104425000D03*
%TD*%
D33*
%TO.C,C33*%
X143750000Y-89800000D03*
X143750000Y-91700000D03*
%TD*%
M02*
