%TF.GenerationSoftware,KiCad,Pcbnew,8.0.1*%
%TF.CreationDate,2024-06-01T22:58:48+02:00*%
%TF.ProjectId,vesc6,76657363-362e-46b6-9963-61645f706362,rev?*%
%TF.SameCoordinates,Original*%
%TF.FileFunction,Legend,Bot*%
%TF.FilePolarity,Positive*%
%FSLAX46Y46*%
G04 Gerber Fmt 4.6, Leading zero omitted, Abs format (unit mm)*
G04 Created by KiCad (PCBNEW 8.0.1) date 2024-06-01 22:58:48*
%MOMM*%
%LPD*%
G01*
G04 APERTURE LIST*
%ADD10C,0.120000*%
%ADD11C,0.150000*%
G04 APERTURE END LIST*
D10*
%TO.C,U6*%
X139440000Y-93450000D02*
X139440000Y-94250000D01*
X139440000Y-95050000D02*
X139440000Y-94250000D01*
X142560000Y-93450000D02*
X142560000Y-94250000D01*
X142560000Y-95050000D02*
X142560000Y-94250000D01*
X139490000Y-92950000D02*
X139160000Y-93190000D01*
X139160000Y-92710000D01*
X139490000Y-92950000D01*
G36*
X139490000Y-92950000D02*
G01*
X139160000Y-93190000D01*
X139160000Y-92710000D01*
X139490000Y-92950000D01*
G37*
%TO.C,U10*%
X147500000Y-77390000D02*
X149000000Y-77390000D01*
X147500000Y-80610000D02*
X149000000Y-80610000D01*
X150500000Y-77390000D02*
X149000000Y-77390000D01*
X150500000Y-80610000D02*
X149000000Y-80610000D01*
X151212500Y-77565000D02*
X150972500Y-77235000D01*
X151452500Y-77235000D01*
X151212500Y-77565000D01*
G36*
X151212500Y-77565000D02*
G01*
X150972500Y-77235000D01*
X151452500Y-77235000D01*
X151212500Y-77565000D01*
G37*
%TO.C,C38*%
X142609420Y-81240000D02*
X142890580Y-81240000D01*
X142609420Y-82260000D02*
X142890580Y-82260000D01*
%TO.C,C69*%
X121609420Y-81240000D02*
X121890580Y-81240000D01*
X121609420Y-82260000D02*
X121890580Y-82260000D01*
%TO.C,D9*%
X142640000Y-87650000D02*
X142640000Y-82590000D01*
X145360000Y-82590000D02*
X142640000Y-82590000D01*
X145360000Y-87650000D02*
X145360000Y-82590000D01*
%TO.C,C59*%
X128609420Y-81240000D02*
X128890580Y-81240000D01*
X128609420Y-82260000D02*
X128890580Y-82260000D01*
%TO.C,C72*%
X121920000Y-35287677D02*
X132080000Y-35287677D01*
X121920000Y-35327677D02*
X132080000Y-35327677D01*
X121920000Y-35367677D02*
X132080000Y-35367677D01*
X121921000Y-35247677D02*
X132079000Y-35247677D01*
X121922000Y-35207677D02*
X132078000Y-35207677D01*
X121923000Y-35167677D02*
X132077000Y-35167677D01*
X121925000Y-35127677D02*
X132075000Y-35127677D01*
X121927000Y-35087677D02*
X132073000Y-35087677D01*
X121930000Y-35047677D02*
X132070000Y-35047677D01*
X121932000Y-35007677D02*
X132068000Y-35007677D01*
X121935000Y-34967677D02*
X132065000Y-34967677D01*
X121938000Y-34927677D02*
X132062000Y-34927677D01*
X121942000Y-34887677D02*
X132058000Y-34887677D01*
X121946000Y-34847677D02*
X132054000Y-34847677D01*
X121950000Y-34807677D02*
X132050000Y-34807677D01*
X121955000Y-34767677D02*
X132045000Y-34767677D01*
X121960000Y-34727677D02*
X132040000Y-34727677D01*
X121965000Y-34687677D02*
X132035000Y-34687677D01*
X121970000Y-34646677D02*
X132030000Y-34646677D01*
X121976000Y-34606677D02*
X132024000Y-34606677D01*
X121982000Y-34566677D02*
X132018000Y-34566677D01*
X121989000Y-34526677D02*
X132011000Y-34526677D01*
X121996000Y-34486677D02*
X132004000Y-34486677D01*
X122003000Y-34446677D02*
X131997000Y-34446677D01*
X122010000Y-34406677D02*
X131990000Y-34406677D01*
X122018000Y-34366677D02*
X131982000Y-34366677D01*
X122026000Y-34326677D02*
X131974000Y-34326677D01*
X122035000Y-34286677D02*
X131965000Y-34286677D01*
X122044000Y-34246677D02*
X131956000Y-34246677D01*
X122053000Y-34206677D02*
X131947000Y-34206677D01*
X122062000Y-34166677D02*
X131938000Y-34166677D01*
X122072000Y-34126677D02*
X131928000Y-34126677D01*
X122082000Y-34086677D02*
X125759000Y-34086677D01*
X122093000Y-34046677D02*
X125759000Y-34046677D01*
X122103000Y-34006677D02*
X125759000Y-34006677D01*
X122115000Y-33966677D02*
X125759000Y-33966677D01*
X122126000Y-33926677D02*
X125759000Y-33926677D01*
X122138000Y-33886677D02*
X125759000Y-33886677D01*
X122150000Y-33846677D02*
X125759000Y-33846677D01*
X122163000Y-33806677D02*
X125759000Y-33806677D01*
X122176000Y-33766677D02*
X125759000Y-33766677D01*
X122189000Y-33726677D02*
X125759000Y-33726677D01*
X122203000Y-33686677D02*
X125759000Y-33686677D01*
X122217000Y-33646677D02*
X125759000Y-33646677D01*
X122232000Y-33606677D02*
X125759000Y-33606677D01*
X122246000Y-33566677D02*
X125759000Y-33566677D01*
X122262000Y-33526677D02*
X125759000Y-33526677D01*
X122277000Y-33486677D02*
X125759000Y-33486677D01*
X122293000Y-33446677D02*
X125759000Y-33446677D01*
X122310000Y-33406677D02*
X125759000Y-33406677D01*
X122326000Y-33366677D02*
X125759000Y-33366677D01*
X122343000Y-33326677D02*
X125759000Y-33326677D01*
X122361000Y-33286677D02*
X125759000Y-33286677D01*
X122379000Y-33246677D02*
X125759000Y-33246677D01*
X122397000Y-33206677D02*
X125759000Y-33206677D01*
X122416000Y-33166677D02*
X125759000Y-33166677D01*
X122436000Y-33126677D02*
X125759000Y-33126677D01*
X122455000Y-33086677D02*
X125759000Y-33086677D01*
X122475000Y-33046677D02*
X125759000Y-33046677D01*
X122496000Y-33006677D02*
X125759000Y-33006677D01*
X122517000Y-32966677D02*
X125759000Y-32966677D01*
X122538000Y-32926677D02*
X125759000Y-32926677D01*
X122560000Y-32886677D02*
X125759000Y-32886677D01*
X122583000Y-32846677D02*
X125759000Y-32846677D01*
X122605000Y-32806677D02*
X125759000Y-32806677D01*
X122629000Y-32766677D02*
X125759000Y-32766677D01*
X122653000Y-32726677D02*
X125759000Y-32726677D01*
X122677000Y-32686677D02*
X125759000Y-32686677D01*
X122702000Y-32646677D02*
X125759000Y-32646677D01*
X122727000Y-32606677D02*
X125759000Y-32606677D01*
X122753000Y-32566677D02*
X125759000Y-32566677D01*
X122779000Y-32526677D02*
X125759000Y-32526677D01*
X122806000Y-32486677D02*
X125759000Y-32486677D01*
X122834000Y-32446677D02*
X125759000Y-32446677D01*
X122862000Y-32406677D02*
X125759000Y-32406677D01*
X122890000Y-32366677D02*
X125759000Y-32366677D01*
X122920000Y-32326677D02*
X125759000Y-32326677D01*
X122950000Y-32286677D02*
X125759000Y-32286677D01*
X122980000Y-32246677D02*
X125759000Y-32246677D01*
X123011000Y-32206677D02*
X125759000Y-32206677D01*
X123043000Y-32166677D02*
X125759000Y-32166677D01*
X123075000Y-32126677D02*
X125759000Y-32126677D01*
X123108000Y-32086677D02*
X125759000Y-32086677D01*
X123142000Y-32046677D02*
X125759000Y-32046677D01*
X123176000Y-32006677D02*
X125759000Y-32006677D01*
X123211000Y-31966677D02*
X125759000Y-31966677D01*
X123247000Y-31926677D02*
X125759000Y-31926677D01*
X123284000Y-31886677D02*
X125759000Y-31886677D01*
X123321000Y-31846677D02*
X125759000Y-31846677D01*
X123360000Y-31806677D02*
X125759000Y-31806677D01*
X123399000Y-31766677D02*
X125759000Y-31766677D01*
X123439000Y-31726677D02*
X125759000Y-31726677D01*
X123480000Y-31686677D02*
X125759000Y-31686677D01*
X123522000Y-31646677D02*
X125759000Y-31646677D01*
X123564000Y-31606677D02*
X130436000Y-31606677D01*
X123608000Y-31566677D02*
X130392000Y-31566677D01*
X123653000Y-31526677D02*
X130347000Y-31526677D01*
X123699000Y-31486677D02*
X130301000Y-31486677D01*
X123746000Y-31446677D02*
X130254000Y-31446677D01*
X123794000Y-31406677D02*
X130206000Y-31406677D01*
X123844000Y-31366677D02*
X130156000Y-31366677D01*
X123894000Y-31326677D02*
X130106000Y-31326677D01*
X123946000Y-31286677D02*
X130054000Y-31286677D01*
X124000000Y-31246677D02*
X130000000Y-31246677D01*
X124055000Y-31206677D02*
X129945000Y-31206677D01*
X124111000Y-31166677D02*
X129889000Y-31166677D01*
X124170000Y-31126677D02*
X129830000Y-31126677D01*
X124230000Y-31086677D02*
X129770000Y-31086677D01*
X124291000Y-31046677D02*
X129709000Y-31046677D01*
X124355000Y-31006677D02*
X129645000Y-31006677D01*
X124421000Y-30966677D02*
X129579000Y-30966677D01*
X124490000Y-30926677D02*
X129510000Y-30926677D01*
X124561000Y-30886677D02*
X129439000Y-30886677D01*
X124635000Y-30846677D02*
X129365000Y-30846677D01*
X124711000Y-30806677D02*
X129289000Y-30806677D01*
X124791000Y-30766677D02*
X129209000Y-30766677D01*
X124875000Y-30726677D02*
X129125000Y-30726677D01*
X124963000Y-30686677D02*
X129037000Y-30686677D01*
X125056000Y-30646677D02*
X128944000Y-30646677D01*
X125154000Y-30606677D02*
X128846000Y-30606677D01*
X125258000Y-30566677D02*
X128742000Y-30566677D01*
X125370000Y-30526677D02*
X128630000Y-30526677D01*
X125490000Y-30486677D02*
X128510000Y-30486677D01*
X125622000Y-30446677D02*
X128378000Y-30446677D01*
X125770000Y-30406677D02*
X128230000Y-30406677D01*
X125938000Y-30366677D02*
X128062000Y-30366677D01*
X126138000Y-30326677D02*
X127862000Y-30326677D01*
X126401000Y-30286677D02*
X127599000Y-30286677D01*
X128241000Y-31646677D02*
X130478000Y-31646677D01*
X128241000Y-31686677D02*
X130520000Y-31686677D01*
X128241000Y-31726677D02*
X130561000Y-31726677D01*
X128241000Y-31766677D02*
X130601000Y-31766677D01*
X128241000Y-31806677D02*
X130640000Y-31806677D01*
X128241000Y-31846677D02*
X130679000Y-31846677D01*
X128241000Y-31886677D02*
X130716000Y-31886677D01*
X128241000Y-31926677D02*
X130753000Y-31926677D01*
X128241000Y-31966677D02*
X130789000Y-31966677D01*
X128241000Y-32006677D02*
X130824000Y-32006677D01*
X128241000Y-32046677D02*
X130858000Y-32046677D01*
X128241000Y-32086677D02*
X130892000Y-32086677D01*
X128241000Y-32126677D02*
X130925000Y-32126677D01*
X128241000Y-32166677D02*
X130957000Y-32166677D01*
X128241000Y-32206677D02*
X130989000Y-32206677D01*
X128241000Y-32246677D02*
X131020000Y-32246677D01*
X128241000Y-32286677D02*
X131050000Y-32286677D01*
X128241000Y-32326677D02*
X131080000Y-32326677D01*
X128241000Y-32366677D02*
X131110000Y-32366677D01*
X128241000Y-32406677D02*
X131138000Y-32406677D01*
X128241000Y-32446677D02*
X131166000Y-32446677D01*
X128241000Y-32486677D02*
X131194000Y-32486677D01*
X128241000Y-32526677D02*
X131221000Y-32526677D01*
X128241000Y-32566677D02*
X131247000Y-32566677D01*
X128241000Y-32606677D02*
X131273000Y-32606677D01*
X128241000Y-32646677D02*
X131298000Y-32646677D01*
X128241000Y-32686677D02*
X131323000Y-32686677D01*
X128241000Y-32726677D02*
X131347000Y-32726677D01*
X128241000Y-32766677D02*
X131371000Y-32766677D01*
X128241000Y-32806677D02*
X131395000Y-32806677D01*
X128241000Y-32846677D02*
X131417000Y-32846677D01*
X128241000Y-32886677D02*
X131440000Y-32886677D01*
X128241000Y-32926677D02*
X131462000Y-32926677D01*
X128241000Y-32966677D02*
X131483000Y-32966677D01*
X128241000Y-33006677D02*
X131504000Y-33006677D01*
X128241000Y-33046677D02*
X131525000Y-33046677D01*
X128241000Y-33086677D02*
X131545000Y-33086677D01*
X128241000Y-33126677D02*
X131564000Y-33126677D01*
X128241000Y-33166677D02*
X131584000Y-33166677D01*
X128241000Y-33206677D02*
X131603000Y-33206677D01*
X128241000Y-33246677D02*
X131621000Y-33246677D01*
X128241000Y-33286677D02*
X131639000Y-33286677D01*
X128241000Y-33326677D02*
X131657000Y-33326677D01*
X128241000Y-33366677D02*
X131674000Y-33366677D01*
X128241000Y-33406677D02*
X131690000Y-33406677D01*
X128241000Y-33446677D02*
X131707000Y-33446677D01*
X128241000Y-33486677D02*
X131723000Y-33486677D01*
X128241000Y-33526677D02*
X131738000Y-33526677D01*
X128241000Y-33566677D02*
X131754000Y-33566677D01*
X128241000Y-33606677D02*
X131768000Y-33606677D01*
X128241000Y-33646677D02*
X131783000Y-33646677D01*
X128241000Y-33686677D02*
X131797000Y-33686677D01*
X128241000Y-33726677D02*
X131811000Y-33726677D01*
X128241000Y-33766677D02*
X131824000Y-33766677D01*
X128241000Y-33806677D02*
X131837000Y-33806677D01*
X128241000Y-33846677D02*
X131850000Y-33846677D01*
X128241000Y-33886677D02*
X131862000Y-33886677D01*
X128241000Y-33926677D02*
X131874000Y-33926677D01*
X128241000Y-33966677D02*
X131885000Y-33966677D01*
X128241000Y-34006677D02*
X131897000Y-34006677D01*
X128241000Y-34046677D02*
X131907000Y-34046677D01*
X128241000Y-34086677D02*
X131918000Y-34086677D01*
X129375000Y-40347323D02*
X130375000Y-40347323D01*
X129875000Y-39847323D02*
X129875000Y-40847323D01*
X132120000Y-35367677D02*
G75*
G02*
X121880000Y-35367677I-5120000J0D01*
G01*
X121880000Y-35367677D02*
G75*
G02*
X132120000Y-35367677I5120000J0D01*
G01*
%TO.C,R67*%
X115012742Y-91477500D02*
X115487258Y-91477500D01*
X115012742Y-92522500D02*
X115487258Y-92522500D01*
%TO.C,R13*%
X163762742Y-109977500D02*
X164237258Y-109977500D01*
X163762742Y-111022500D02*
X164237258Y-111022500D01*
%TO.C,D8*%
X147100000Y-85890000D02*
X152160000Y-85890000D01*
X147100000Y-88610000D02*
X152160000Y-88610000D01*
X152160000Y-88610000D02*
X152160000Y-85890000D01*
%TO.C,C71*%
X123359420Y-103240000D02*
X123640580Y-103240000D01*
X123359420Y-104260000D02*
X123640580Y-104260000D01*
%TO.C,TP1*%
X145950000Y-102750000D02*
G75*
G02*
X144550000Y-102750000I-700000J0D01*
G01*
X144550000Y-102750000D02*
G75*
G02*
X145950000Y-102750000I700000J0D01*
G01*
%TO.C,TP3*%
X147950000Y-108250000D02*
G75*
G02*
X146550000Y-108250000I-700000J0D01*
G01*
X146550000Y-108250000D02*
G75*
G02*
X147950000Y-108250000I700000J0D01*
G01*
%TO.C,C48*%
X147990000Y-111359420D02*
X147990000Y-111640580D01*
X149010000Y-111359420D02*
X149010000Y-111640580D01*
%TO.C,C27*%
X147609420Y-83740000D02*
X147890580Y-83740000D01*
X147609420Y-84760000D02*
X147890580Y-84760000D01*
%TO.C,U8*%
X137050000Y-98840000D02*
X138460000Y-98840000D01*
X137050000Y-101160000D02*
X138450000Y-101160000D01*
X138830000Y-98890000D02*
X138590000Y-98560000D01*
X139070000Y-98560000D01*
X138830000Y-98890000D01*
G36*
X138830000Y-98890000D02*
G01*
X138590000Y-98560000D01*
X139070000Y-98560000D01*
X138830000Y-98890000D01*
G37*
%TO.C,C114*%
X128140580Y-92490000D02*
X127859420Y-92490000D01*
X128140580Y-93510000D02*
X127859420Y-93510000D01*
%TO.C,U11*%
X137050000Y-104840000D02*
X138460000Y-104840000D01*
X137050000Y-107160000D02*
X138450000Y-107160000D01*
X138830000Y-104890000D02*
X138590000Y-104560000D01*
X139070000Y-104560000D01*
X138830000Y-104890000D01*
G36*
X138830000Y-104890000D02*
G01*
X138590000Y-104560000D01*
X139070000Y-104560000D01*
X138830000Y-104890000D01*
G37*
%TO.C,U12*%
X154500000Y-77390000D02*
X156000000Y-77390000D01*
X154500000Y-80610000D02*
X156000000Y-80610000D01*
X157500000Y-77390000D02*
X156000000Y-77390000D01*
X157500000Y-80610000D02*
X156000000Y-80610000D01*
X158212500Y-77565000D02*
X157972500Y-77235000D01*
X158452500Y-77235000D01*
X158212500Y-77565000D01*
G36*
X158212500Y-77565000D02*
G01*
X157972500Y-77235000D01*
X158452500Y-77235000D01*
X158212500Y-77565000D01*
G37*
%TO.C,R70*%
X130977500Y-102487258D02*
X130977500Y-102012742D01*
X132022500Y-102487258D02*
X132022500Y-102012742D01*
%TO.C,C115*%
X101240000Y-75304437D02*
X102304437Y-74240000D01*
X101240000Y-82760000D02*
X101240000Y-75304437D01*
X102990000Y-74000000D02*
X102990000Y-73000000D01*
X103490000Y-73500000D02*
X102490000Y-73500000D01*
X103990000Y-74240000D02*
X102304437Y-74240000D01*
X103990000Y-82760000D02*
X101240000Y-82760000D01*
X107010000Y-74240000D02*
X108695563Y-74240000D01*
X107010000Y-82760000D02*
X109760000Y-82760000D01*
X109760000Y-75304437D02*
X108695563Y-74240000D01*
X109760000Y-82760000D02*
X109760000Y-75304437D01*
%TO.C,C60*%
X123359420Y-99990000D02*
X123640580Y-99990000D01*
X123359420Y-101010000D02*
X123640580Y-101010000D01*
%TO.C,C73*%
X116240000Y-111359420D02*
X116240000Y-111640580D01*
X117260000Y-111359420D02*
X117260000Y-111640580D01*
%TO.C,C76*%
X113859420Y-75640000D02*
X114140580Y-75640000D01*
X113859420Y-76660000D02*
X114140580Y-76660000D01*
%TO.C,C77*%
X114609420Y-81240000D02*
X114890580Y-81240000D01*
X114609420Y-82260000D02*
X114890580Y-82260000D01*
%TO.C,C12*%
X144609420Y-110240000D02*
X144890580Y-110240000D01*
X144609420Y-111260000D02*
X144890580Y-111260000D01*
%TO.C,R65*%
X126477500Y-105012742D02*
X126477500Y-105487258D01*
X127522500Y-105012742D02*
X127522500Y-105487258D01*
%TO.C,C68*%
X120859420Y-75740000D02*
X121140580Y-75740000D01*
X120859420Y-76760000D02*
X121140580Y-76760000D01*
%TO.C,R8*%
X162987258Y-100977500D02*
X162512742Y-100977500D01*
X162987258Y-102022500D02*
X162512742Y-102022500D01*
%TO.C,J1*%
X132865000Y-116145000D02*
X132865000Y-118805000D01*
X132865000Y-116145000D02*
X138005000Y-116145000D01*
X132865000Y-118805000D02*
X138005000Y-118805000D01*
X138005000Y-116145000D02*
X138005000Y-118805000D01*
X139275000Y-116145000D02*
X140605000Y-116145000D01*
X140605000Y-116145000D02*
X140605000Y-117475000D01*
%TO.C,R12*%
X163762742Y-111477500D02*
X164237258Y-111477500D01*
X163762742Y-112522500D02*
X164237258Y-112522500D01*
%TO.C,R7*%
X162987258Y-102477500D02*
X162512742Y-102477500D01*
X162987258Y-103522500D02*
X162512742Y-103522500D01*
%TO.C,U9*%
X137050000Y-101840000D02*
X138460000Y-101840000D01*
X137050000Y-104160000D02*
X138450000Y-104160000D01*
X138830000Y-101890000D02*
X138590000Y-101560000D01*
X139070000Y-101560000D01*
X138830000Y-101890000D01*
G36*
X138830000Y-101890000D02*
G01*
X138590000Y-101560000D01*
X139070000Y-101560000D01*
X138830000Y-101890000D01*
G37*
%TO.C,C111*%
X128011252Y-87265000D02*
X127488748Y-87265000D01*
X128011252Y-88735000D02*
X127488748Y-88735000D01*
%TO.C,C62*%
X148859420Y-75490000D02*
X149140580Y-75490000D01*
X148859420Y-76510000D02*
X149140580Y-76510000D01*
%TO.C,C58*%
X159740000Y-84240000D02*
X167195563Y-84240000D01*
X159740000Y-86990000D02*
X159740000Y-84240000D01*
X159740000Y-90010000D02*
X159740000Y-92760000D01*
X159740000Y-92760000D02*
X167195563Y-92760000D01*
X167195563Y-84240000D02*
X168260000Y-85304437D01*
X167195563Y-92760000D02*
X168260000Y-91695563D01*
X168260000Y-86990000D02*
X168260000Y-85304437D01*
X168260000Y-90010000D02*
X168260000Y-91695563D01*
X168500000Y-85990000D02*
X169500000Y-85990000D01*
X169000000Y-86490000D02*
X169000000Y-85490000D01*
%TO.C,C79*%
X117740000Y-111359420D02*
X117740000Y-111640580D01*
X118760000Y-111359420D02*
X118760000Y-111640580D01*
%TO.C,R71*%
X130977500Y-105012742D02*
X130977500Y-105487258D01*
X132022500Y-105012742D02*
X132022500Y-105487258D01*
%TO.C,R27*%
X162977500Y-98262742D02*
X162977500Y-98737258D01*
X164022500Y-98262742D02*
X164022500Y-98737258D01*
%TO.C,C63*%
X155859420Y-75490000D02*
X156140580Y-75490000D01*
X155859420Y-76510000D02*
X156140580Y-76510000D01*
%TO.C,R58*%
X123737258Y-104727500D02*
X123262742Y-104727500D01*
X123737258Y-105772500D02*
X123262742Y-105772500D01*
%TO.C,C37*%
X135740000Y-92250000D02*
X135740000Y-96460000D01*
X135740000Y-96460000D02*
X138760000Y-96460000D01*
X138760000Y-96460000D02*
X138760000Y-92250000D01*
%TO.C,C117*%
X129990000Y-93000000D02*
X129990000Y-97210000D01*
X129990000Y-97210000D02*
X133010000Y-97210000D01*
X133010000Y-97210000D02*
X133010000Y-93000000D01*
%TO.C,R6*%
X162987258Y-103977500D02*
X162512742Y-103977500D01*
X162987258Y-105022500D02*
X162512742Y-105022500D01*
%TO.C,C45*%
X148670000Y-35287677D02*
X158830000Y-35287677D01*
X148670000Y-35327677D02*
X158830000Y-35327677D01*
X148670000Y-35367677D02*
X158830000Y-35367677D01*
X148671000Y-35247677D02*
X158829000Y-35247677D01*
X148672000Y-35207677D02*
X158828000Y-35207677D01*
X148673000Y-35167677D02*
X158827000Y-35167677D01*
X148675000Y-35127677D02*
X158825000Y-35127677D01*
X148677000Y-35087677D02*
X158823000Y-35087677D01*
X148680000Y-35047677D02*
X158820000Y-35047677D01*
X148682000Y-35007677D02*
X158818000Y-35007677D01*
X148685000Y-34967677D02*
X158815000Y-34967677D01*
X148688000Y-34927677D02*
X158812000Y-34927677D01*
X148692000Y-34887677D02*
X158808000Y-34887677D01*
X148696000Y-34847677D02*
X158804000Y-34847677D01*
X148700000Y-34807677D02*
X158800000Y-34807677D01*
X148705000Y-34767677D02*
X158795000Y-34767677D01*
X148710000Y-34727677D02*
X158790000Y-34727677D01*
X148715000Y-34687677D02*
X158785000Y-34687677D01*
X148720000Y-34646677D02*
X158780000Y-34646677D01*
X148726000Y-34606677D02*
X158774000Y-34606677D01*
X148732000Y-34566677D02*
X158768000Y-34566677D01*
X148739000Y-34526677D02*
X158761000Y-34526677D01*
X148746000Y-34486677D02*
X158754000Y-34486677D01*
X148753000Y-34446677D02*
X158747000Y-34446677D01*
X148760000Y-34406677D02*
X158740000Y-34406677D01*
X148768000Y-34366677D02*
X158732000Y-34366677D01*
X148776000Y-34326677D02*
X158724000Y-34326677D01*
X148785000Y-34286677D02*
X158715000Y-34286677D01*
X148794000Y-34246677D02*
X158706000Y-34246677D01*
X148803000Y-34206677D02*
X158697000Y-34206677D01*
X148812000Y-34166677D02*
X158688000Y-34166677D01*
X148822000Y-34126677D02*
X158678000Y-34126677D01*
X148832000Y-34086677D02*
X152509000Y-34086677D01*
X148843000Y-34046677D02*
X152509000Y-34046677D01*
X148853000Y-34006677D02*
X152509000Y-34006677D01*
X148865000Y-33966677D02*
X152509000Y-33966677D01*
X148876000Y-33926677D02*
X152509000Y-33926677D01*
X148888000Y-33886677D02*
X152509000Y-33886677D01*
X148900000Y-33846677D02*
X152509000Y-33846677D01*
X148913000Y-33806677D02*
X152509000Y-33806677D01*
X148926000Y-33766677D02*
X152509000Y-33766677D01*
X148939000Y-33726677D02*
X152509000Y-33726677D01*
X148953000Y-33686677D02*
X152509000Y-33686677D01*
X148967000Y-33646677D02*
X152509000Y-33646677D01*
X148982000Y-33606677D02*
X152509000Y-33606677D01*
X148996000Y-33566677D02*
X152509000Y-33566677D01*
X149012000Y-33526677D02*
X152509000Y-33526677D01*
X149027000Y-33486677D02*
X152509000Y-33486677D01*
X149043000Y-33446677D02*
X152509000Y-33446677D01*
X149060000Y-33406677D02*
X152509000Y-33406677D01*
X149076000Y-33366677D02*
X152509000Y-33366677D01*
X149093000Y-33326677D02*
X152509000Y-33326677D01*
X149111000Y-33286677D02*
X152509000Y-33286677D01*
X149129000Y-33246677D02*
X152509000Y-33246677D01*
X149147000Y-33206677D02*
X152509000Y-33206677D01*
X149166000Y-33166677D02*
X152509000Y-33166677D01*
X149186000Y-33126677D02*
X152509000Y-33126677D01*
X149205000Y-33086677D02*
X152509000Y-33086677D01*
X149225000Y-33046677D02*
X152509000Y-33046677D01*
X149246000Y-33006677D02*
X152509000Y-33006677D01*
X149267000Y-32966677D02*
X152509000Y-32966677D01*
X149288000Y-32926677D02*
X152509000Y-32926677D01*
X149310000Y-32886677D02*
X152509000Y-32886677D01*
X149333000Y-32846677D02*
X152509000Y-32846677D01*
X149355000Y-32806677D02*
X152509000Y-32806677D01*
X149379000Y-32766677D02*
X152509000Y-32766677D01*
X149403000Y-32726677D02*
X152509000Y-32726677D01*
X149427000Y-32686677D02*
X152509000Y-32686677D01*
X149452000Y-32646677D02*
X152509000Y-32646677D01*
X149477000Y-32606677D02*
X152509000Y-32606677D01*
X149503000Y-32566677D02*
X152509000Y-32566677D01*
X149529000Y-32526677D02*
X152509000Y-32526677D01*
X149556000Y-32486677D02*
X152509000Y-32486677D01*
X149584000Y-32446677D02*
X152509000Y-32446677D01*
X149612000Y-32406677D02*
X152509000Y-32406677D01*
X149640000Y-32366677D02*
X152509000Y-32366677D01*
X149670000Y-32326677D02*
X152509000Y-32326677D01*
X149700000Y-32286677D02*
X152509000Y-32286677D01*
X149730000Y-32246677D02*
X152509000Y-32246677D01*
X149761000Y-32206677D02*
X152509000Y-32206677D01*
X149793000Y-32166677D02*
X152509000Y-32166677D01*
X149825000Y-32126677D02*
X152509000Y-32126677D01*
X149858000Y-32086677D02*
X152509000Y-32086677D01*
X149892000Y-32046677D02*
X152509000Y-32046677D01*
X149926000Y-32006677D02*
X152509000Y-32006677D01*
X149961000Y-31966677D02*
X152509000Y-31966677D01*
X149997000Y-31926677D02*
X152509000Y-31926677D01*
X150034000Y-31886677D02*
X152509000Y-31886677D01*
X150071000Y-31846677D02*
X152509000Y-31846677D01*
X150110000Y-31806677D02*
X152509000Y-31806677D01*
X150149000Y-31766677D02*
X152509000Y-31766677D01*
X150189000Y-31726677D02*
X152509000Y-31726677D01*
X150230000Y-31686677D02*
X152509000Y-31686677D01*
X150272000Y-31646677D02*
X152509000Y-31646677D01*
X150314000Y-31606677D02*
X157186000Y-31606677D01*
X150358000Y-31566677D02*
X157142000Y-31566677D01*
X150403000Y-31526677D02*
X157097000Y-31526677D01*
X150449000Y-31486677D02*
X157051000Y-31486677D01*
X150496000Y-31446677D02*
X157004000Y-31446677D01*
X150544000Y-31406677D02*
X156956000Y-31406677D01*
X150594000Y-31366677D02*
X156906000Y-31366677D01*
X150644000Y-31326677D02*
X156856000Y-31326677D01*
X150696000Y-31286677D02*
X156804000Y-31286677D01*
X150750000Y-31246677D02*
X156750000Y-31246677D01*
X150805000Y-31206677D02*
X156695000Y-31206677D01*
X150861000Y-31166677D02*
X156639000Y-31166677D01*
X150920000Y-31126677D02*
X156580000Y-31126677D01*
X150980000Y-31086677D02*
X156520000Y-31086677D01*
X151041000Y-31046677D02*
X156459000Y-31046677D01*
X151105000Y-31006677D02*
X156395000Y-31006677D01*
X151171000Y-30966677D02*
X156329000Y-30966677D01*
X151240000Y-30926677D02*
X156260000Y-30926677D01*
X151311000Y-30886677D02*
X156189000Y-30886677D01*
X151385000Y-30846677D02*
X156115000Y-30846677D01*
X151461000Y-30806677D02*
X156039000Y-30806677D01*
X151541000Y-30766677D02*
X155959000Y-30766677D01*
X151625000Y-30726677D02*
X155875000Y-30726677D01*
X151713000Y-30686677D02*
X155787000Y-30686677D01*
X151806000Y-30646677D02*
X155694000Y-30646677D01*
X151904000Y-30606677D02*
X155596000Y-30606677D01*
X152008000Y-30566677D02*
X155492000Y-30566677D01*
X152120000Y-30526677D02*
X155380000Y-30526677D01*
X152240000Y-30486677D02*
X155260000Y-30486677D01*
X152372000Y-30446677D02*
X155128000Y-30446677D01*
X152520000Y-30406677D02*
X154980000Y-30406677D01*
X152688000Y-30366677D02*
X154812000Y-30366677D01*
X152888000Y-30326677D02*
X154612000Y-30326677D01*
X153151000Y-30286677D02*
X154349000Y-30286677D01*
X154991000Y-31646677D02*
X157228000Y-31646677D01*
X154991000Y-31686677D02*
X157270000Y-31686677D01*
X154991000Y-31726677D02*
X157311000Y-31726677D01*
X154991000Y-31766677D02*
X157351000Y-31766677D01*
X154991000Y-31806677D02*
X157390000Y-31806677D01*
X154991000Y-31846677D02*
X157429000Y-31846677D01*
X154991000Y-31886677D02*
X157466000Y-31886677D01*
X154991000Y-31926677D02*
X157503000Y-31926677D01*
X154991000Y-31966677D02*
X157539000Y-31966677D01*
X154991000Y-32006677D02*
X157574000Y-32006677D01*
X154991000Y-32046677D02*
X157608000Y-32046677D01*
X154991000Y-32086677D02*
X157642000Y-32086677D01*
X154991000Y-32126677D02*
X157675000Y-32126677D01*
X154991000Y-32166677D02*
X157707000Y-32166677D01*
X154991000Y-32206677D02*
X157739000Y-32206677D01*
X154991000Y-32246677D02*
X157770000Y-32246677D01*
X154991000Y-32286677D02*
X157800000Y-32286677D01*
X154991000Y-32326677D02*
X157830000Y-32326677D01*
X154991000Y-32366677D02*
X157860000Y-32366677D01*
X154991000Y-32406677D02*
X157888000Y-32406677D01*
X154991000Y-32446677D02*
X157916000Y-32446677D01*
X154991000Y-32486677D02*
X157944000Y-32486677D01*
X154991000Y-32526677D02*
X157971000Y-32526677D01*
X154991000Y-32566677D02*
X157997000Y-32566677D01*
X154991000Y-32606677D02*
X158023000Y-32606677D01*
X154991000Y-32646677D02*
X158048000Y-32646677D01*
X154991000Y-32686677D02*
X158073000Y-32686677D01*
X154991000Y-32726677D02*
X158097000Y-32726677D01*
X154991000Y-32766677D02*
X158121000Y-32766677D01*
X154991000Y-32806677D02*
X158145000Y-32806677D01*
X154991000Y-32846677D02*
X158167000Y-32846677D01*
X154991000Y-32886677D02*
X158190000Y-32886677D01*
X154991000Y-32926677D02*
X158212000Y-32926677D01*
X154991000Y-32966677D02*
X158233000Y-32966677D01*
X154991000Y-33006677D02*
X158254000Y-33006677D01*
X154991000Y-33046677D02*
X158275000Y-33046677D01*
X154991000Y-33086677D02*
X158295000Y-33086677D01*
X154991000Y-33126677D02*
X158314000Y-33126677D01*
X154991000Y-33166677D02*
X158334000Y-33166677D01*
X154991000Y-33206677D02*
X158353000Y-33206677D01*
X154991000Y-33246677D02*
X158371000Y-33246677D01*
X154991000Y-33286677D02*
X158389000Y-33286677D01*
X154991000Y-33326677D02*
X158407000Y-33326677D01*
X154991000Y-33366677D02*
X158424000Y-33366677D01*
X154991000Y-33406677D02*
X158440000Y-33406677D01*
X154991000Y-33446677D02*
X158457000Y-33446677D01*
X154991000Y-33486677D02*
X158473000Y-33486677D01*
X154991000Y-33526677D02*
X158488000Y-33526677D01*
X154991000Y-33566677D02*
X158504000Y-33566677D01*
X154991000Y-33606677D02*
X158518000Y-33606677D01*
X154991000Y-33646677D02*
X158533000Y-33646677D01*
X154991000Y-33686677D02*
X158547000Y-33686677D01*
X154991000Y-33726677D02*
X158561000Y-33726677D01*
X154991000Y-33766677D02*
X158574000Y-33766677D01*
X154991000Y-33806677D02*
X158587000Y-33806677D01*
X154991000Y-33846677D02*
X158600000Y-33846677D01*
X154991000Y-33886677D02*
X158612000Y-33886677D01*
X154991000Y-33926677D02*
X158624000Y-33926677D01*
X154991000Y-33966677D02*
X158635000Y-33966677D01*
X154991000Y-34006677D02*
X158647000Y-34006677D01*
X154991000Y-34046677D02*
X158657000Y-34046677D01*
X154991000Y-34086677D02*
X158668000Y-34086677D01*
X156125000Y-40347323D02*
X157125000Y-40347323D01*
X156625000Y-39847323D02*
X156625000Y-40847323D01*
X158870000Y-35367677D02*
G75*
G02*
X148630000Y-35367677I-5120000J0D01*
G01*
X148630000Y-35367677D02*
G75*
G02*
X158870000Y-35367677I5120000J0D01*
G01*
%TO.C,C116*%
X131640580Y-97740000D02*
X131359420Y-97740000D01*
X131640580Y-98760000D02*
X131359420Y-98760000D01*
%TO.C,R64*%
X126477500Y-102487258D02*
X126477500Y-102012742D01*
X127522500Y-102487258D02*
X127522500Y-102012742D01*
%TO.C,U19*%
X112500000Y-77390000D02*
X114000000Y-77390000D01*
X112500000Y-80610000D02*
X114000000Y-80610000D01*
X115500000Y-77390000D02*
X114000000Y-77390000D01*
X115500000Y-80610000D02*
X114000000Y-80610000D01*
X116212500Y-77565000D02*
X115972500Y-77235000D01*
X116452500Y-77235000D01*
X116212500Y-77565000D01*
G36*
X116212500Y-77565000D02*
G01*
X115972500Y-77235000D01*
X116452500Y-77235000D01*
X116212500Y-77565000D01*
G37*
%TO.C,R20*%
X159477500Y-95737258D02*
X159477500Y-95262742D01*
X160522500Y-95737258D02*
X160522500Y-95262742D01*
%TO.C,C44*%
X156859420Y-81490000D02*
X157140580Y-81490000D01*
X156859420Y-82510000D02*
X157140580Y-82510000D01*
%TO.C,TP7*%
X115700000Y-108250000D02*
G75*
G02*
X114300000Y-108250000I-700000J0D01*
G01*
X114300000Y-108250000D02*
G75*
G02*
X115700000Y-108250000I700000J0D01*
G01*
%TO.C,R68*%
X128727500Y-102487258D02*
X128727500Y-102012742D01*
X129772500Y-102487258D02*
X129772500Y-102012742D01*
%TO.C,TP5*%
X113700000Y-102750000D02*
G75*
G02*
X112300000Y-102750000I-700000J0D01*
G01*
X112300000Y-102750000D02*
G75*
G02*
X113700000Y-102750000I700000J0D01*
G01*
%TO.C,TP8*%
X115700000Y-102750000D02*
G75*
G02*
X114300000Y-102750000I-700000J0D01*
G01*
X114300000Y-102750000D02*
G75*
G02*
X115700000Y-102750000I700000J0D01*
G01*
%TO.C,D10*%
X127350000Y-89140000D02*
X132410000Y-89140000D01*
X127350000Y-91860000D02*
X132410000Y-91860000D01*
X132410000Y-91860000D02*
X132410000Y-89140000D01*
%TO.C,R56*%
X123737258Y-101727500D02*
X123262742Y-101727500D01*
X123737258Y-102772500D02*
X123262742Y-102772500D01*
%TO.C,J3*%
X100090000Y-93140000D02*
X100090000Y-94390000D01*
X100190000Y-94900000D02*
X100190000Y-95200000D01*
X100190000Y-95200000D02*
X100390000Y-95200000D01*
X100290000Y-94900000D02*
X100290000Y-95200000D01*
X100390000Y-93440000D02*
X100390000Y-107560000D01*
X100390000Y-94900000D02*
X100190000Y-94900000D01*
X100390000Y-105000000D02*
X101000000Y-105000000D01*
X100390000Y-107560000D02*
X105110000Y-107560000D01*
X101000000Y-94050000D02*
X101000000Y-96000000D01*
X101000000Y-96000000D02*
X100390000Y-96000000D01*
X101000000Y-105000000D02*
X101000000Y-106950000D01*
X101000000Y-106950000D02*
X104500000Y-106950000D01*
X101340000Y-93140000D02*
X100090000Y-93140000D01*
X101700000Y-94050000D02*
X101700000Y-93440000D01*
X101700000Y-106950000D02*
X101700000Y-107560000D01*
X103000000Y-94050000D02*
X103000000Y-93440000D01*
X103000000Y-106950000D02*
X103000000Y-107560000D01*
X104000000Y-96400000D02*
X104500000Y-96400000D01*
X104000000Y-96500000D02*
X104500000Y-96500000D01*
X104000000Y-96600000D02*
X104000000Y-96400000D01*
X104000000Y-98400000D02*
X104500000Y-98400000D01*
X104000000Y-98500000D02*
X104500000Y-98500000D01*
X104000000Y-98600000D02*
X104000000Y-98400000D01*
X104000000Y-100400000D02*
X104500000Y-100400000D01*
X104000000Y-100500000D02*
X104500000Y-100500000D01*
X104000000Y-100600000D02*
X104000000Y-100400000D01*
X104000000Y-102400000D02*
X104500000Y-102400000D01*
X104000000Y-102500000D02*
X104500000Y-102500000D01*
X104000000Y-102600000D02*
X104000000Y-102400000D01*
X104000000Y-104400000D02*
X104500000Y-104400000D01*
X104000000Y-104500000D02*
X104500000Y-104500000D01*
X104000000Y-104600000D02*
X104000000Y-104400000D01*
X104500000Y-94050000D02*
X101000000Y-94050000D01*
X104500000Y-96600000D02*
X104000000Y-96600000D01*
X104500000Y-98600000D02*
X104000000Y-98600000D01*
X104500000Y-100600000D02*
X104000000Y-100600000D01*
X104500000Y-102600000D02*
X104000000Y-102600000D01*
X104500000Y-104600000D02*
X104000000Y-104600000D01*
X104500000Y-106950000D02*
X104500000Y-94050000D01*
X105110000Y-93440000D02*
X100390000Y-93440000D01*
X105110000Y-107560000D02*
X105110000Y-93440000D01*
%TO.C,D4*%
X117640000Y-88650000D02*
X117640000Y-83590000D01*
X120360000Y-83590000D02*
X117640000Y-83590000D01*
X120360000Y-88650000D02*
X120360000Y-83590000D01*
%TO.C,R25*%
X161227500Y-98262742D02*
X161227500Y-98737258D01*
X162272500Y-98262742D02*
X162272500Y-98737258D01*
%TO.C,TP2*%
X145950000Y-100750000D02*
G75*
G02*
X144550000Y-100750000I-700000J0D01*
G01*
X144550000Y-100750000D02*
G75*
G02*
X145950000Y-100750000I700000J0D01*
G01*
%TO.C,U25*%
X126440000Y-95200000D02*
X126440000Y-96000000D01*
X126440000Y-96800000D02*
X126440000Y-96000000D01*
X129560000Y-95200000D02*
X129560000Y-96000000D01*
X129560000Y-96800000D02*
X129560000Y-96000000D01*
X126490000Y-94700000D02*
X126160000Y-94940000D01*
X126160000Y-94460000D01*
X126490000Y-94700000D01*
G36*
X126490000Y-94700000D02*
G01*
X126160000Y-94940000D01*
X126160000Y-94460000D01*
X126490000Y-94700000D01*
G37*
%TO.C,U7*%
X140500000Y-77390000D02*
X142000000Y-77390000D01*
X140500000Y-80610000D02*
X142000000Y-80610000D01*
X143500000Y-77390000D02*
X142000000Y-77390000D01*
X143500000Y-80610000D02*
X142000000Y-80610000D01*
X144212500Y-77565000D02*
X143972500Y-77235000D01*
X144452500Y-77235000D01*
X144212500Y-77565000D01*
G36*
X144212500Y-77565000D02*
G01*
X143972500Y-77235000D01*
X144452500Y-77235000D01*
X144212500Y-77565000D01*
G37*
%TO.C,C112*%
X101000000Y-90510000D02*
X101000000Y-91510000D01*
X101500000Y-91010000D02*
X100500000Y-91010000D01*
X101740000Y-86990000D02*
X101740000Y-85304437D01*
X101740000Y-90010000D02*
X101740000Y-91695563D01*
X102804437Y-84240000D02*
X101740000Y-85304437D01*
X102804437Y-92760000D02*
X101740000Y-91695563D01*
X110260000Y-84240000D02*
X102804437Y-84240000D01*
X110260000Y-86990000D02*
X110260000Y-84240000D01*
X110260000Y-90010000D02*
X110260000Y-92760000D01*
X110260000Y-92760000D02*
X102804437Y-92760000D01*
%TO.C,C52*%
X140859420Y-106490000D02*
X141140580Y-106490000D01*
X140859420Y-107510000D02*
X141140580Y-107510000D01*
%TO.C,C102*%
X115609420Y-83990000D02*
X115890580Y-83990000D01*
X115609420Y-85010000D02*
X115890580Y-85010000D01*
D11*
%TO.C,J4*%
X100100000Y-112700000D02*
X100100000Y-110700000D01*
X100400000Y-108850000D02*
X100875000Y-108850000D01*
X100400000Y-117150000D02*
X100400000Y-108850000D01*
X100875000Y-117150000D02*
X100400000Y-117150000D01*
X103125000Y-117150000D02*
X103600000Y-117150000D01*
X103600000Y-108850000D02*
X103125000Y-108850000D01*
X103600000Y-117150000D02*
X103600000Y-108850000D01*
D10*
%TO.C,U16*%
X119550000Y-101840000D02*
X120960000Y-101840000D01*
X119550000Y-104160000D02*
X120950000Y-104160000D01*
X121330000Y-101890000D02*
X121090000Y-101560000D01*
X121570000Y-101560000D01*
X121330000Y-101890000D01*
G36*
X121330000Y-101890000D02*
G01*
X121090000Y-101560000D01*
X121570000Y-101560000D01*
X121330000Y-101890000D01*
G37*
%TO.C,R23*%
X147012742Y-89727500D02*
X147487258Y-89727500D01*
X147012742Y-90772500D02*
X147487258Y-90772500D01*
%TO.C,C43*%
X137920000Y-35287677D02*
X148080000Y-35287677D01*
X137920000Y-35327677D02*
X148080000Y-35327677D01*
X137920000Y-35367677D02*
X148080000Y-35367677D01*
X137921000Y-35247677D02*
X148079000Y-35247677D01*
X137922000Y-35207677D02*
X148078000Y-35207677D01*
X137923000Y-35167677D02*
X148077000Y-35167677D01*
X137925000Y-35127677D02*
X148075000Y-35127677D01*
X137927000Y-35087677D02*
X148073000Y-35087677D01*
X137930000Y-35047677D02*
X148070000Y-35047677D01*
X137932000Y-35007677D02*
X148068000Y-35007677D01*
X137935000Y-34967677D02*
X148065000Y-34967677D01*
X137938000Y-34927677D02*
X148062000Y-34927677D01*
X137942000Y-34887677D02*
X148058000Y-34887677D01*
X137946000Y-34847677D02*
X148054000Y-34847677D01*
X137950000Y-34807677D02*
X148050000Y-34807677D01*
X137955000Y-34767677D02*
X148045000Y-34767677D01*
X137960000Y-34727677D02*
X148040000Y-34727677D01*
X137965000Y-34687677D02*
X148035000Y-34687677D01*
X137970000Y-34646677D02*
X148030000Y-34646677D01*
X137976000Y-34606677D02*
X148024000Y-34606677D01*
X137982000Y-34566677D02*
X148018000Y-34566677D01*
X137989000Y-34526677D02*
X148011000Y-34526677D01*
X137996000Y-34486677D02*
X148004000Y-34486677D01*
X138003000Y-34446677D02*
X147997000Y-34446677D01*
X138010000Y-34406677D02*
X147990000Y-34406677D01*
X138018000Y-34366677D02*
X147982000Y-34366677D01*
X138026000Y-34326677D02*
X147974000Y-34326677D01*
X138035000Y-34286677D02*
X147965000Y-34286677D01*
X138044000Y-34246677D02*
X147956000Y-34246677D01*
X138053000Y-34206677D02*
X147947000Y-34206677D01*
X138062000Y-34166677D02*
X147938000Y-34166677D01*
X138072000Y-34126677D02*
X147928000Y-34126677D01*
X138082000Y-34086677D02*
X141759000Y-34086677D01*
X138093000Y-34046677D02*
X141759000Y-34046677D01*
X138103000Y-34006677D02*
X141759000Y-34006677D01*
X138115000Y-33966677D02*
X141759000Y-33966677D01*
X138126000Y-33926677D02*
X141759000Y-33926677D01*
X138138000Y-33886677D02*
X141759000Y-33886677D01*
X138150000Y-33846677D02*
X141759000Y-33846677D01*
X138163000Y-33806677D02*
X141759000Y-33806677D01*
X138176000Y-33766677D02*
X141759000Y-33766677D01*
X138189000Y-33726677D02*
X141759000Y-33726677D01*
X138203000Y-33686677D02*
X141759000Y-33686677D01*
X138217000Y-33646677D02*
X141759000Y-33646677D01*
X138232000Y-33606677D02*
X141759000Y-33606677D01*
X138246000Y-33566677D02*
X141759000Y-33566677D01*
X138262000Y-33526677D02*
X141759000Y-33526677D01*
X138277000Y-33486677D02*
X141759000Y-33486677D01*
X138293000Y-33446677D02*
X141759000Y-33446677D01*
X138310000Y-33406677D02*
X141759000Y-33406677D01*
X138326000Y-33366677D02*
X141759000Y-33366677D01*
X138343000Y-33326677D02*
X141759000Y-33326677D01*
X138361000Y-33286677D02*
X141759000Y-33286677D01*
X138379000Y-33246677D02*
X141759000Y-33246677D01*
X138397000Y-33206677D02*
X141759000Y-33206677D01*
X138416000Y-33166677D02*
X141759000Y-33166677D01*
X138436000Y-33126677D02*
X141759000Y-33126677D01*
X138455000Y-33086677D02*
X141759000Y-33086677D01*
X138475000Y-33046677D02*
X141759000Y-33046677D01*
X138496000Y-33006677D02*
X141759000Y-33006677D01*
X138517000Y-32966677D02*
X141759000Y-32966677D01*
X138538000Y-32926677D02*
X141759000Y-32926677D01*
X138560000Y-32886677D02*
X141759000Y-32886677D01*
X138583000Y-32846677D02*
X141759000Y-32846677D01*
X138605000Y-32806677D02*
X141759000Y-32806677D01*
X138629000Y-32766677D02*
X141759000Y-32766677D01*
X138653000Y-32726677D02*
X141759000Y-32726677D01*
X138677000Y-32686677D02*
X141759000Y-32686677D01*
X138702000Y-32646677D02*
X141759000Y-32646677D01*
X138727000Y-32606677D02*
X141759000Y-32606677D01*
X138753000Y-32566677D02*
X141759000Y-32566677D01*
X138779000Y-32526677D02*
X141759000Y-32526677D01*
X138806000Y-32486677D02*
X141759000Y-32486677D01*
X138834000Y-32446677D02*
X141759000Y-32446677D01*
X138862000Y-32406677D02*
X141759000Y-32406677D01*
X138890000Y-32366677D02*
X141759000Y-32366677D01*
X138920000Y-32326677D02*
X141759000Y-32326677D01*
X138950000Y-32286677D02*
X141759000Y-32286677D01*
X138980000Y-32246677D02*
X141759000Y-32246677D01*
X139011000Y-32206677D02*
X141759000Y-32206677D01*
X139043000Y-32166677D02*
X141759000Y-32166677D01*
X139075000Y-32126677D02*
X141759000Y-32126677D01*
X139108000Y-32086677D02*
X141759000Y-32086677D01*
X139142000Y-32046677D02*
X141759000Y-32046677D01*
X139176000Y-32006677D02*
X141759000Y-32006677D01*
X139211000Y-31966677D02*
X141759000Y-31966677D01*
X139247000Y-31926677D02*
X141759000Y-31926677D01*
X139284000Y-31886677D02*
X141759000Y-31886677D01*
X139321000Y-31846677D02*
X141759000Y-31846677D01*
X139360000Y-31806677D02*
X141759000Y-31806677D01*
X139399000Y-31766677D02*
X141759000Y-31766677D01*
X139439000Y-31726677D02*
X141759000Y-31726677D01*
X139480000Y-31686677D02*
X141759000Y-31686677D01*
X139522000Y-31646677D02*
X141759000Y-31646677D01*
X139564000Y-31606677D02*
X146436000Y-31606677D01*
X139608000Y-31566677D02*
X146392000Y-31566677D01*
X139653000Y-31526677D02*
X146347000Y-31526677D01*
X139699000Y-31486677D02*
X146301000Y-31486677D01*
X139746000Y-31446677D02*
X146254000Y-31446677D01*
X139794000Y-31406677D02*
X146206000Y-31406677D01*
X139844000Y-31366677D02*
X146156000Y-31366677D01*
X139894000Y-31326677D02*
X146106000Y-31326677D01*
X139946000Y-31286677D02*
X146054000Y-31286677D01*
X140000000Y-31246677D02*
X146000000Y-31246677D01*
X140055000Y-31206677D02*
X145945000Y-31206677D01*
X140111000Y-31166677D02*
X145889000Y-31166677D01*
X140170000Y-31126677D02*
X145830000Y-31126677D01*
X140230000Y-31086677D02*
X145770000Y-31086677D01*
X140291000Y-31046677D02*
X145709000Y-31046677D01*
X140355000Y-31006677D02*
X145645000Y-31006677D01*
X140421000Y-30966677D02*
X145579000Y-30966677D01*
X140490000Y-30926677D02*
X145510000Y-30926677D01*
X140561000Y-30886677D02*
X145439000Y-30886677D01*
X140635000Y-30846677D02*
X145365000Y-30846677D01*
X140711000Y-30806677D02*
X145289000Y-30806677D01*
X140791000Y-30766677D02*
X145209000Y-30766677D01*
X140875000Y-30726677D02*
X145125000Y-30726677D01*
X140963000Y-30686677D02*
X145037000Y-30686677D01*
X141056000Y-30646677D02*
X144944000Y-30646677D01*
X141154000Y-30606677D02*
X144846000Y-30606677D01*
X141258000Y-30566677D02*
X144742000Y-30566677D01*
X141370000Y-30526677D02*
X144630000Y-30526677D01*
X141490000Y-30486677D02*
X144510000Y-30486677D01*
X141622000Y-30446677D02*
X144378000Y-30446677D01*
X141770000Y-30406677D02*
X144230000Y-30406677D01*
X141938000Y-30366677D02*
X144062000Y-30366677D01*
X142138000Y-30326677D02*
X143862000Y-30326677D01*
X142401000Y-30286677D02*
X143599000Y-30286677D01*
X144241000Y-31646677D02*
X146478000Y-31646677D01*
X144241000Y-31686677D02*
X146520000Y-31686677D01*
X144241000Y-31726677D02*
X146561000Y-31726677D01*
X144241000Y-31766677D02*
X146601000Y-31766677D01*
X144241000Y-31806677D02*
X146640000Y-31806677D01*
X144241000Y-31846677D02*
X146679000Y-31846677D01*
X144241000Y-31886677D02*
X146716000Y-31886677D01*
X144241000Y-31926677D02*
X146753000Y-31926677D01*
X144241000Y-31966677D02*
X146789000Y-31966677D01*
X144241000Y-32006677D02*
X146824000Y-32006677D01*
X144241000Y-32046677D02*
X146858000Y-32046677D01*
X144241000Y-32086677D02*
X146892000Y-32086677D01*
X144241000Y-32126677D02*
X146925000Y-32126677D01*
X144241000Y-32166677D02*
X146957000Y-32166677D01*
X144241000Y-32206677D02*
X146989000Y-32206677D01*
X144241000Y-32246677D02*
X147020000Y-32246677D01*
X144241000Y-32286677D02*
X147050000Y-32286677D01*
X144241000Y-32326677D02*
X147080000Y-32326677D01*
X144241000Y-32366677D02*
X147110000Y-32366677D01*
X144241000Y-32406677D02*
X147138000Y-32406677D01*
X144241000Y-32446677D02*
X147166000Y-32446677D01*
X144241000Y-32486677D02*
X147194000Y-32486677D01*
X144241000Y-32526677D02*
X147221000Y-32526677D01*
X144241000Y-32566677D02*
X147247000Y-32566677D01*
X144241000Y-32606677D02*
X147273000Y-32606677D01*
X144241000Y-32646677D02*
X147298000Y-32646677D01*
X144241000Y-32686677D02*
X147323000Y-32686677D01*
X144241000Y-32726677D02*
X147347000Y-32726677D01*
X144241000Y-32766677D02*
X147371000Y-32766677D01*
X144241000Y-32806677D02*
X147395000Y-32806677D01*
X144241000Y-32846677D02*
X147417000Y-32846677D01*
X144241000Y-32886677D02*
X147440000Y-32886677D01*
X144241000Y-32926677D02*
X147462000Y-32926677D01*
X144241000Y-32966677D02*
X147483000Y-32966677D01*
X144241000Y-33006677D02*
X147504000Y-33006677D01*
X144241000Y-33046677D02*
X147525000Y-33046677D01*
X144241000Y-33086677D02*
X147545000Y-33086677D01*
X144241000Y-33126677D02*
X147564000Y-33126677D01*
X144241000Y-33166677D02*
X147584000Y-33166677D01*
X144241000Y-33206677D02*
X147603000Y-33206677D01*
X144241000Y-33246677D02*
X147621000Y-33246677D01*
X144241000Y-33286677D02*
X147639000Y-33286677D01*
X144241000Y-33326677D02*
X147657000Y-33326677D01*
X144241000Y-33366677D02*
X147674000Y-33366677D01*
X144241000Y-33406677D02*
X147690000Y-33406677D01*
X144241000Y-33446677D02*
X147707000Y-33446677D01*
X144241000Y-33486677D02*
X147723000Y-33486677D01*
X144241000Y-33526677D02*
X147738000Y-33526677D01*
X144241000Y-33566677D02*
X147754000Y-33566677D01*
X144241000Y-33606677D02*
X147768000Y-33606677D01*
X144241000Y-33646677D02*
X147783000Y-33646677D01*
X144241000Y-33686677D02*
X147797000Y-33686677D01*
X144241000Y-33726677D02*
X147811000Y-33726677D01*
X144241000Y-33766677D02*
X147824000Y-33766677D01*
X144241000Y-33806677D02*
X147837000Y-33806677D01*
X144241000Y-33846677D02*
X147850000Y-33846677D01*
X144241000Y-33886677D02*
X147862000Y-33886677D01*
X144241000Y-33926677D02*
X147874000Y-33926677D01*
X144241000Y-33966677D02*
X147885000Y-33966677D01*
X144241000Y-34006677D02*
X147897000Y-34006677D01*
X144241000Y-34046677D02*
X147907000Y-34046677D01*
X144241000Y-34086677D02*
X147918000Y-34086677D01*
X145375000Y-40347323D02*
X146375000Y-40347323D01*
X145875000Y-39847323D02*
X145875000Y-40847323D01*
X148120000Y-35367677D02*
G75*
G02*
X137880000Y-35367677I-5120000J0D01*
G01*
X137880000Y-35367677D02*
G75*
G02*
X148120000Y-35367677I5120000J0D01*
G01*
%TO.C,U15*%
X119550000Y-98840000D02*
X120960000Y-98840000D01*
X119550000Y-101160000D02*
X120950000Y-101160000D01*
X121330000Y-98890000D02*
X121090000Y-98560000D01*
X121570000Y-98560000D01*
X121330000Y-98890000D01*
G36*
X121330000Y-98890000D02*
G01*
X121090000Y-98560000D01*
X121570000Y-98560000D01*
X121330000Y-98890000D01*
G37*
%TO.C,C89*%
X112609420Y-110490000D02*
X112890580Y-110490000D01*
X112609420Y-111510000D02*
X112890580Y-111510000D01*
%TO.C,R40*%
X141237258Y-104977500D02*
X140762742Y-104977500D01*
X141237258Y-106022500D02*
X140762742Y-106022500D01*
%TO.C,R24*%
X161227500Y-95737258D02*
X161227500Y-95262742D01*
X162272500Y-95737258D02*
X162272500Y-95262742D01*
%TO.C,TP4*%
X147950000Y-102750000D02*
G75*
G02*
X146550000Y-102750000I-700000J0D01*
G01*
X146550000Y-102750000D02*
G75*
G02*
X147950000Y-102750000I700000J0D01*
G01*
%TO.C,C56*%
X159990000Y-75304437D02*
X161054437Y-74240000D01*
X159990000Y-82760000D02*
X159990000Y-75304437D01*
X161740000Y-74000000D02*
X161740000Y-73000000D01*
X162240000Y-73500000D02*
X161240000Y-73500000D01*
X162740000Y-74240000D02*
X161054437Y-74240000D01*
X162740000Y-82760000D02*
X159990000Y-82760000D01*
X165760000Y-74240000D02*
X167445563Y-74240000D01*
X165760000Y-82760000D02*
X168510000Y-82760000D01*
X168510000Y-75304437D02*
X167445563Y-74240000D01*
X168510000Y-82760000D02*
X168510000Y-75304437D01*
%TO.C,U13*%
X126500000Y-77390000D02*
X128000000Y-77390000D01*
X126500000Y-80610000D02*
X128000000Y-80610000D01*
X129500000Y-77390000D02*
X128000000Y-77390000D01*
X129500000Y-80610000D02*
X128000000Y-80610000D01*
X130212500Y-77565000D02*
X129972500Y-77235000D01*
X130452500Y-77235000D01*
X130212500Y-77565000D01*
G36*
X130212500Y-77565000D02*
G01*
X129972500Y-77235000D01*
X130452500Y-77235000D01*
X130212500Y-77565000D01*
G37*
%TO.C,C40*%
X146490000Y-111359420D02*
X146490000Y-111640580D01*
X147510000Y-111359420D02*
X147510000Y-111640580D01*
%TO.C,C53*%
X149490000Y-111359420D02*
X149490000Y-111640580D01*
X150510000Y-111359420D02*
X150510000Y-111640580D01*
%TO.C,C67*%
X100420000Y-35287677D02*
X110580000Y-35287677D01*
X100420000Y-35327677D02*
X110580000Y-35327677D01*
X100420000Y-35367677D02*
X110580000Y-35367677D01*
X100421000Y-35247677D02*
X110579000Y-35247677D01*
X100422000Y-35207677D02*
X110578000Y-35207677D01*
X100423000Y-35167677D02*
X110577000Y-35167677D01*
X100425000Y-35127677D02*
X110575000Y-35127677D01*
X100427000Y-35087677D02*
X110573000Y-35087677D01*
X100430000Y-35047677D02*
X110570000Y-35047677D01*
X100432000Y-35007677D02*
X110568000Y-35007677D01*
X100435000Y-34967677D02*
X110565000Y-34967677D01*
X100438000Y-34927677D02*
X110562000Y-34927677D01*
X100442000Y-34887677D02*
X110558000Y-34887677D01*
X100446000Y-34847677D02*
X110554000Y-34847677D01*
X100450000Y-34807677D02*
X110550000Y-34807677D01*
X100455000Y-34767677D02*
X110545000Y-34767677D01*
X100460000Y-34727677D02*
X110540000Y-34727677D01*
X100465000Y-34687677D02*
X110535000Y-34687677D01*
X100470000Y-34646677D02*
X110530000Y-34646677D01*
X100476000Y-34606677D02*
X110524000Y-34606677D01*
X100482000Y-34566677D02*
X110518000Y-34566677D01*
X100489000Y-34526677D02*
X110511000Y-34526677D01*
X100496000Y-34486677D02*
X110504000Y-34486677D01*
X100503000Y-34446677D02*
X110497000Y-34446677D01*
X100510000Y-34406677D02*
X110490000Y-34406677D01*
X100518000Y-34366677D02*
X110482000Y-34366677D01*
X100526000Y-34326677D02*
X110474000Y-34326677D01*
X100535000Y-34286677D02*
X110465000Y-34286677D01*
X100544000Y-34246677D02*
X110456000Y-34246677D01*
X100553000Y-34206677D02*
X110447000Y-34206677D01*
X100562000Y-34166677D02*
X110438000Y-34166677D01*
X100572000Y-34126677D02*
X110428000Y-34126677D01*
X100582000Y-34086677D02*
X104259000Y-34086677D01*
X100593000Y-34046677D02*
X104259000Y-34046677D01*
X100603000Y-34006677D02*
X104259000Y-34006677D01*
X100615000Y-33966677D02*
X104259000Y-33966677D01*
X100626000Y-33926677D02*
X104259000Y-33926677D01*
X100638000Y-33886677D02*
X104259000Y-33886677D01*
X100650000Y-33846677D02*
X104259000Y-33846677D01*
X100663000Y-33806677D02*
X104259000Y-33806677D01*
X100676000Y-33766677D02*
X104259000Y-33766677D01*
X100689000Y-33726677D02*
X104259000Y-33726677D01*
X100703000Y-33686677D02*
X104259000Y-33686677D01*
X100717000Y-33646677D02*
X104259000Y-33646677D01*
X100732000Y-33606677D02*
X104259000Y-33606677D01*
X100746000Y-33566677D02*
X104259000Y-33566677D01*
X100762000Y-33526677D02*
X104259000Y-33526677D01*
X100777000Y-33486677D02*
X104259000Y-33486677D01*
X100793000Y-33446677D02*
X104259000Y-33446677D01*
X100810000Y-33406677D02*
X104259000Y-33406677D01*
X100826000Y-33366677D02*
X104259000Y-33366677D01*
X100843000Y-33326677D02*
X104259000Y-33326677D01*
X100861000Y-33286677D02*
X104259000Y-33286677D01*
X100879000Y-33246677D02*
X104259000Y-33246677D01*
X100897000Y-33206677D02*
X104259000Y-33206677D01*
X100916000Y-33166677D02*
X104259000Y-33166677D01*
X100936000Y-33126677D02*
X104259000Y-33126677D01*
X100955000Y-33086677D02*
X104259000Y-33086677D01*
X100975000Y-33046677D02*
X104259000Y-33046677D01*
X100996000Y-33006677D02*
X104259000Y-33006677D01*
X101017000Y-32966677D02*
X104259000Y-32966677D01*
X101038000Y-32926677D02*
X104259000Y-32926677D01*
X101060000Y-32886677D02*
X104259000Y-32886677D01*
X101083000Y-32846677D02*
X104259000Y-32846677D01*
X101105000Y-32806677D02*
X104259000Y-32806677D01*
X101129000Y-32766677D02*
X104259000Y-32766677D01*
X101153000Y-32726677D02*
X104259000Y-32726677D01*
X101177000Y-32686677D02*
X104259000Y-32686677D01*
X101202000Y-32646677D02*
X104259000Y-32646677D01*
X101227000Y-32606677D02*
X104259000Y-32606677D01*
X101253000Y-32566677D02*
X104259000Y-32566677D01*
X101279000Y-32526677D02*
X104259000Y-32526677D01*
X101306000Y-32486677D02*
X104259000Y-32486677D01*
X101334000Y-32446677D02*
X104259000Y-32446677D01*
X101362000Y-32406677D02*
X104259000Y-32406677D01*
X101390000Y-32366677D02*
X104259000Y-32366677D01*
X101420000Y-32326677D02*
X104259000Y-32326677D01*
X101450000Y-32286677D02*
X104259000Y-32286677D01*
X101480000Y-32246677D02*
X104259000Y-32246677D01*
X101511000Y-32206677D02*
X104259000Y-32206677D01*
X101543000Y-32166677D02*
X104259000Y-32166677D01*
X101575000Y-32126677D02*
X104259000Y-32126677D01*
X101608000Y-32086677D02*
X104259000Y-32086677D01*
X101642000Y-32046677D02*
X104259000Y-32046677D01*
X101676000Y-32006677D02*
X104259000Y-32006677D01*
X101711000Y-31966677D02*
X104259000Y-31966677D01*
X101747000Y-31926677D02*
X104259000Y-31926677D01*
X101784000Y-31886677D02*
X104259000Y-31886677D01*
X101821000Y-31846677D02*
X104259000Y-31846677D01*
X101860000Y-31806677D02*
X104259000Y-31806677D01*
X101899000Y-31766677D02*
X104259000Y-31766677D01*
X101939000Y-31726677D02*
X104259000Y-31726677D01*
X101980000Y-31686677D02*
X104259000Y-31686677D01*
X102022000Y-31646677D02*
X104259000Y-31646677D01*
X102064000Y-31606677D02*
X108936000Y-31606677D01*
X102108000Y-31566677D02*
X108892000Y-31566677D01*
X102153000Y-31526677D02*
X108847000Y-31526677D01*
X102199000Y-31486677D02*
X108801000Y-31486677D01*
X102246000Y-31446677D02*
X108754000Y-31446677D01*
X102294000Y-31406677D02*
X108706000Y-31406677D01*
X102344000Y-31366677D02*
X108656000Y-31366677D01*
X102394000Y-31326677D02*
X108606000Y-31326677D01*
X102446000Y-31286677D02*
X108554000Y-31286677D01*
X102500000Y-31246677D02*
X108500000Y-31246677D01*
X102555000Y-31206677D02*
X108445000Y-31206677D01*
X102611000Y-31166677D02*
X108389000Y-31166677D01*
X102670000Y-31126677D02*
X108330000Y-31126677D01*
X102730000Y-31086677D02*
X108270000Y-31086677D01*
X102791000Y-31046677D02*
X108209000Y-31046677D01*
X102855000Y-31006677D02*
X108145000Y-31006677D01*
X102921000Y-30966677D02*
X108079000Y-30966677D01*
X102990000Y-30926677D02*
X108010000Y-30926677D01*
X103061000Y-30886677D02*
X107939000Y-30886677D01*
X103135000Y-30846677D02*
X107865000Y-30846677D01*
X103211000Y-30806677D02*
X107789000Y-30806677D01*
X103291000Y-30766677D02*
X107709000Y-30766677D01*
X103375000Y-30726677D02*
X107625000Y-30726677D01*
X103463000Y-30686677D02*
X107537000Y-30686677D01*
X103556000Y-30646677D02*
X107444000Y-30646677D01*
X103654000Y-30606677D02*
X107346000Y-30606677D01*
X103758000Y-30566677D02*
X107242000Y-30566677D01*
X103870000Y-30526677D02*
X107130000Y-30526677D01*
X103990000Y-30486677D02*
X107010000Y-30486677D01*
X104122000Y-30446677D02*
X106878000Y-30446677D01*
X104270000Y-30406677D02*
X106730000Y-30406677D01*
X104438000Y-30366677D02*
X106562000Y-30366677D01*
X104638000Y-30326677D02*
X106362000Y-30326677D01*
X104901000Y-30286677D02*
X106099000Y-30286677D01*
X106741000Y-31646677D02*
X108978000Y-31646677D01*
X106741000Y-31686677D02*
X109020000Y-31686677D01*
X106741000Y-31726677D02*
X109061000Y-31726677D01*
X106741000Y-31766677D02*
X109101000Y-31766677D01*
X106741000Y-31806677D02*
X109140000Y-31806677D01*
X106741000Y-31846677D02*
X109179000Y-31846677D01*
X106741000Y-31886677D02*
X109216000Y-31886677D01*
X106741000Y-31926677D02*
X109253000Y-31926677D01*
X106741000Y-31966677D02*
X109289000Y-31966677D01*
X106741000Y-32006677D02*
X109324000Y-32006677D01*
X106741000Y-32046677D02*
X109358000Y-32046677D01*
X106741000Y-32086677D02*
X109392000Y-32086677D01*
X106741000Y-32126677D02*
X109425000Y-32126677D01*
X106741000Y-32166677D02*
X109457000Y-32166677D01*
X106741000Y-32206677D02*
X109489000Y-32206677D01*
X106741000Y-32246677D02*
X109520000Y-32246677D01*
X106741000Y-32286677D02*
X109550000Y-32286677D01*
X106741000Y-32326677D02*
X109580000Y-32326677D01*
X106741000Y-32366677D02*
X109610000Y-32366677D01*
X106741000Y-32406677D02*
X109638000Y-32406677D01*
X106741000Y-32446677D02*
X109666000Y-32446677D01*
X106741000Y-32486677D02*
X109694000Y-32486677D01*
X106741000Y-32526677D02*
X109721000Y-32526677D01*
X106741000Y-32566677D02*
X109747000Y-32566677D01*
X106741000Y-32606677D02*
X109773000Y-32606677D01*
X106741000Y-32646677D02*
X109798000Y-32646677D01*
X106741000Y-32686677D02*
X109823000Y-32686677D01*
X106741000Y-32726677D02*
X109847000Y-32726677D01*
X106741000Y-32766677D02*
X109871000Y-32766677D01*
X106741000Y-32806677D02*
X109895000Y-32806677D01*
X106741000Y-32846677D02*
X109917000Y-32846677D01*
X106741000Y-32886677D02*
X109940000Y-32886677D01*
X106741000Y-32926677D02*
X109962000Y-32926677D01*
X106741000Y-32966677D02*
X109983000Y-32966677D01*
X106741000Y-33006677D02*
X110004000Y-33006677D01*
X106741000Y-33046677D02*
X110025000Y-33046677D01*
X106741000Y-33086677D02*
X110045000Y-33086677D01*
X106741000Y-33126677D02*
X110064000Y-33126677D01*
X106741000Y-33166677D02*
X110084000Y-33166677D01*
X106741000Y-33206677D02*
X110103000Y-33206677D01*
X106741000Y-33246677D02*
X110121000Y-33246677D01*
X106741000Y-33286677D02*
X110139000Y-33286677D01*
X106741000Y-33326677D02*
X110157000Y-33326677D01*
X106741000Y-33366677D02*
X110174000Y-33366677D01*
X106741000Y-33406677D02*
X110190000Y-33406677D01*
X106741000Y-33446677D02*
X110207000Y-33446677D01*
X106741000Y-33486677D02*
X110223000Y-33486677D01*
X106741000Y-33526677D02*
X110238000Y-33526677D01*
X106741000Y-33566677D02*
X110254000Y-33566677D01*
X106741000Y-33606677D02*
X110268000Y-33606677D01*
X106741000Y-33646677D02*
X110283000Y-33646677D01*
X106741000Y-33686677D02*
X110297000Y-33686677D01*
X106741000Y-33726677D02*
X110311000Y-33726677D01*
X106741000Y-33766677D02*
X110324000Y-33766677D01*
X106741000Y-33806677D02*
X110337000Y-33806677D01*
X106741000Y-33846677D02*
X110350000Y-33846677D01*
X106741000Y-33886677D02*
X110362000Y-33886677D01*
X106741000Y-33926677D02*
X110374000Y-33926677D01*
X106741000Y-33966677D02*
X110385000Y-33966677D01*
X106741000Y-34006677D02*
X110397000Y-34006677D01*
X106741000Y-34046677D02*
X110407000Y-34046677D01*
X106741000Y-34086677D02*
X110418000Y-34086677D01*
X107875000Y-40347323D02*
X108875000Y-40347323D01*
X108375000Y-39847323D02*
X108375000Y-40847323D01*
X110620000Y-35367677D02*
G75*
G02*
X100380000Y-35367677I-5120000J0D01*
G01*
X100380000Y-35367677D02*
G75*
G02*
X110620000Y-35367677I5120000J0D01*
G01*
%TO.C,R38*%
X141237258Y-101727500D02*
X140762742Y-101727500D01*
X141237258Y-102772500D02*
X140762742Y-102772500D01*
%TO.C,C34*%
X150250000Y-92260000D02*
X154460000Y-92260000D01*
X154460000Y-89240000D02*
X150250000Y-89240000D01*
X154460000Y-92260000D02*
X154460000Y-89240000D01*
%TO.C,C78*%
X122240000Y-107359420D02*
X122240000Y-107640580D01*
X123260000Y-107359420D02*
X123260000Y-107640580D01*
%TO.C,C61*%
X141859420Y-75740000D02*
X142140580Y-75740000D01*
X141859420Y-76760000D02*
X142140580Y-76760000D01*
%TO.C,U17*%
X119500000Y-77390000D02*
X121000000Y-77390000D01*
X119500000Y-80610000D02*
X121000000Y-80610000D01*
X122500000Y-77390000D02*
X121000000Y-77390000D01*
X122500000Y-80610000D02*
X121000000Y-80610000D01*
X123212500Y-77565000D02*
X122972500Y-77235000D01*
X123452500Y-77235000D01*
X123212500Y-77565000D01*
G36*
X123212500Y-77565000D02*
G01*
X122972500Y-77235000D01*
X123452500Y-77235000D01*
X123212500Y-77565000D01*
G37*
D11*
%TO.C,J6*%
X165600000Y-112700000D02*
X165600000Y-110700000D01*
X165900000Y-108850000D02*
X166375000Y-108850000D01*
X165900000Y-117150000D02*
X165900000Y-108850000D01*
X166375000Y-117150000D02*
X165900000Y-117150000D01*
X168625000Y-117150000D02*
X169100000Y-117150000D01*
X169100000Y-108850000D02*
X168625000Y-108850000D01*
X169100000Y-117150000D02*
X169100000Y-108850000D01*
D10*
%TO.C,R31*%
X104477500Y-109262742D02*
X104477500Y-109737258D01*
X105522500Y-109262742D02*
X105522500Y-109737258D01*
%TO.C,C46*%
X140859420Y-103240000D02*
X141140580Y-103240000D01*
X140859420Y-104260000D02*
X141140580Y-104260000D01*
%TO.C,U18*%
X119550000Y-104840000D02*
X120960000Y-104840000D01*
X119550000Y-107160000D02*
X120950000Y-107160000D01*
X121330000Y-104890000D02*
X121090000Y-104560000D01*
X121570000Y-104560000D01*
X121330000Y-104890000D01*
G36*
X121330000Y-104890000D02*
G01*
X121090000Y-104560000D01*
X121570000Y-104560000D01*
X121330000Y-104890000D01*
G37*
%TO.C,J2*%
X164890000Y-93440000D02*
X164890000Y-107560000D01*
X164890000Y-107560000D02*
X169610000Y-107560000D01*
X165500000Y-94050000D02*
X165500000Y-106950000D01*
X165500000Y-96400000D02*
X166000000Y-96400000D01*
X165500000Y-98400000D02*
X166000000Y-98400000D01*
X165500000Y-100400000D02*
X166000000Y-100400000D01*
X165500000Y-102400000D02*
X166000000Y-102400000D01*
X165500000Y-104400000D02*
X166000000Y-104400000D01*
X165500000Y-106950000D02*
X169000000Y-106950000D01*
X166000000Y-96400000D02*
X166000000Y-96600000D01*
X166000000Y-96500000D02*
X165500000Y-96500000D01*
X166000000Y-96600000D02*
X165500000Y-96600000D01*
X166000000Y-98400000D02*
X166000000Y-98600000D01*
X166000000Y-98500000D02*
X165500000Y-98500000D01*
X166000000Y-98600000D02*
X165500000Y-98600000D01*
X166000000Y-100400000D02*
X166000000Y-100600000D01*
X166000000Y-100500000D02*
X165500000Y-100500000D01*
X166000000Y-100600000D02*
X165500000Y-100600000D01*
X166000000Y-102400000D02*
X166000000Y-102600000D01*
X166000000Y-102500000D02*
X165500000Y-102500000D01*
X166000000Y-102600000D02*
X165500000Y-102600000D01*
X166000000Y-104400000D02*
X166000000Y-104600000D01*
X166000000Y-104500000D02*
X165500000Y-104500000D01*
X166000000Y-104600000D02*
X165500000Y-104600000D01*
X167000000Y-94050000D02*
X167000000Y-93440000D01*
X167000000Y-106950000D02*
X167000000Y-107560000D01*
X168300000Y-94050000D02*
X168300000Y-93440000D01*
X168300000Y-106950000D02*
X168300000Y-107560000D01*
X168660000Y-107860000D02*
X169910000Y-107860000D01*
X169000000Y-94050000D02*
X165500000Y-94050000D01*
X169000000Y-96000000D02*
X169000000Y-94050000D01*
X169000000Y-105000000D02*
X169610000Y-105000000D01*
X169000000Y-106950000D02*
X169000000Y-105000000D01*
X169610000Y-93440000D02*
X164890000Y-93440000D01*
X169610000Y-96000000D02*
X169000000Y-96000000D01*
X169610000Y-106100000D02*
X169810000Y-106100000D01*
X169610000Y-107560000D02*
X169610000Y-93440000D01*
X169710000Y-106100000D02*
X169710000Y-105800000D01*
X169810000Y-105800000D02*
X169610000Y-105800000D01*
X169810000Y-106100000D02*
X169810000Y-105800000D01*
X169910000Y-107860000D02*
X169910000Y-106610000D01*
%TO.C,R34*%
X141237258Y-98727500D02*
X140762742Y-98727500D01*
X141237258Y-99772500D02*
X140762742Y-99772500D01*
%TO.C,L1*%
X152390000Y-84640000D02*
X152390000Y-83615000D01*
X152390000Y-87360000D02*
X152390000Y-88385000D01*
X153415000Y-83615000D02*
X152390000Y-83615000D01*
X153415000Y-88385000D02*
X152390000Y-88385000D01*
X155585000Y-83615000D02*
X156610000Y-83615000D01*
X155585000Y-88385000D02*
X156610000Y-88385000D01*
X156610000Y-84640000D02*
X156610000Y-83615000D01*
X156610000Y-87360000D02*
X156610000Y-88385000D01*
%TO.C,L2*%
X120865000Y-84665000D02*
X120865000Y-83640000D01*
X120865000Y-86835000D02*
X120865000Y-87860000D01*
X121890000Y-83640000D02*
X120865000Y-83640000D01*
X121890000Y-87860000D02*
X120865000Y-87860000D01*
X124610000Y-83640000D02*
X125635000Y-83640000D01*
X124610000Y-87860000D02*
X125635000Y-87860000D01*
X125635000Y-84665000D02*
X125635000Y-83640000D01*
X125635000Y-86835000D02*
X125635000Y-87860000D01*
%TO.C,TP6*%
X113700000Y-100750000D02*
G75*
G02*
X112300000Y-100750000I-700000J0D01*
G01*
X112300000Y-100750000D02*
G75*
G02*
X113700000Y-100750000I700000J0D01*
G01*
%TO.C,C70*%
X111170000Y-35287677D02*
X121330000Y-35287677D01*
X111170000Y-35327677D02*
X121330000Y-35327677D01*
X111170000Y-35367677D02*
X121330000Y-35367677D01*
X111171000Y-35247677D02*
X121329000Y-35247677D01*
X111172000Y-35207677D02*
X121328000Y-35207677D01*
X111173000Y-35167677D02*
X121327000Y-35167677D01*
X111175000Y-35127677D02*
X121325000Y-35127677D01*
X111177000Y-35087677D02*
X121323000Y-35087677D01*
X111180000Y-35047677D02*
X121320000Y-35047677D01*
X111182000Y-35007677D02*
X121318000Y-35007677D01*
X111185000Y-34967677D02*
X121315000Y-34967677D01*
X111188000Y-34927677D02*
X121312000Y-34927677D01*
X111192000Y-34887677D02*
X121308000Y-34887677D01*
X111196000Y-34847677D02*
X121304000Y-34847677D01*
X111200000Y-34807677D02*
X121300000Y-34807677D01*
X111205000Y-34767677D02*
X121295000Y-34767677D01*
X111210000Y-34727677D02*
X121290000Y-34727677D01*
X111215000Y-34687677D02*
X121285000Y-34687677D01*
X111220000Y-34646677D02*
X121280000Y-34646677D01*
X111226000Y-34606677D02*
X121274000Y-34606677D01*
X111232000Y-34566677D02*
X121268000Y-34566677D01*
X111239000Y-34526677D02*
X121261000Y-34526677D01*
X111246000Y-34486677D02*
X121254000Y-34486677D01*
X111253000Y-34446677D02*
X121247000Y-34446677D01*
X111260000Y-34406677D02*
X121240000Y-34406677D01*
X111268000Y-34366677D02*
X121232000Y-34366677D01*
X111276000Y-34326677D02*
X121224000Y-34326677D01*
X111285000Y-34286677D02*
X121215000Y-34286677D01*
X111294000Y-34246677D02*
X121206000Y-34246677D01*
X111303000Y-34206677D02*
X121197000Y-34206677D01*
X111312000Y-34166677D02*
X121188000Y-34166677D01*
X111322000Y-34126677D02*
X121178000Y-34126677D01*
X111332000Y-34086677D02*
X115009000Y-34086677D01*
X111343000Y-34046677D02*
X115009000Y-34046677D01*
X111353000Y-34006677D02*
X115009000Y-34006677D01*
X111365000Y-33966677D02*
X115009000Y-33966677D01*
X111376000Y-33926677D02*
X115009000Y-33926677D01*
X111388000Y-33886677D02*
X115009000Y-33886677D01*
X111400000Y-33846677D02*
X115009000Y-33846677D01*
X111413000Y-33806677D02*
X115009000Y-33806677D01*
X111426000Y-33766677D02*
X115009000Y-33766677D01*
X111439000Y-33726677D02*
X115009000Y-33726677D01*
X111453000Y-33686677D02*
X115009000Y-33686677D01*
X111467000Y-33646677D02*
X115009000Y-33646677D01*
X111482000Y-33606677D02*
X115009000Y-33606677D01*
X111496000Y-33566677D02*
X115009000Y-33566677D01*
X111512000Y-33526677D02*
X115009000Y-33526677D01*
X111527000Y-33486677D02*
X115009000Y-33486677D01*
X111543000Y-33446677D02*
X115009000Y-33446677D01*
X111560000Y-33406677D02*
X115009000Y-33406677D01*
X111576000Y-33366677D02*
X115009000Y-33366677D01*
X111593000Y-33326677D02*
X115009000Y-33326677D01*
X111611000Y-33286677D02*
X115009000Y-33286677D01*
X111629000Y-33246677D02*
X115009000Y-33246677D01*
X111647000Y-33206677D02*
X115009000Y-33206677D01*
X111666000Y-33166677D02*
X115009000Y-33166677D01*
X111686000Y-33126677D02*
X115009000Y-33126677D01*
X111705000Y-33086677D02*
X115009000Y-33086677D01*
X111725000Y-33046677D02*
X115009000Y-33046677D01*
X111746000Y-33006677D02*
X115009000Y-33006677D01*
X111767000Y-32966677D02*
X115009000Y-32966677D01*
X111788000Y-32926677D02*
X115009000Y-32926677D01*
X111810000Y-32886677D02*
X115009000Y-32886677D01*
X111833000Y-32846677D02*
X115009000Y-32846677D01*
X111855000Y-32806677D02*
X115009000Y-32806677D01*
X111879000Y-32766677D02*
X115009000Y-32766677D01*
X111903000Y-32726677D02*
X115009000Y-32726677D01*
X111927000Y-32686677D02*
X115009000Y-32686677D01*
X111952000Y-32646677D02*
X115009000Y-32646677D01*
X111977000Y-32606677D02*
X115009000Y-32606677D01*
X112003000Y-32566677D02*
X115009000Y-32566677D01*
X112029000Y-32526677D02*
X115009000Y-32526677D01*
X112056000Y-32486677D02*
X115009000Y-32486677D01*
X112084000Y-32446677D02*
X115009000Y-32446677D01*
X112112000Y-32406677D02*
X115009000Y-32406677D01*
X112140000Y-32366677D02*
X115009000Y-32366677D01*
X112170000Y-32326677D02*
X115009000Y-32326677D01*
X112200000Y-32286677D02*
X115009000Y-32286677D01*
X112230000Y-32246677D02*
X115009000Y-32246677D01*
X112261000Y-32206677D02*
X115009000Y-32206677D01*
X112293000Y-32166677D02*
X115009000Y-32166677D01*
X112325000Y-32126677D02*
X115009000Y-32126677D01*
X112358000Y-32086677D02*
X115009000Y-32086677D01*
X112392000Y-32046677D02*
X115009000Y-32046677D01*
X112426000Y-32006677D02*
X115009000Y-32006677D01*
X112461000Y-31966677D02*
X115009000Y-31966677D01*
X112497000Y-31926677D02*
X115009000Y-31926677D01*
X112534000Y-31886677D02*
X115009000Y-31886677D01*
X112571000Y-31846677D02*
X115009000Y-31846677D01*
X112610000Y-31806677D02*
X115009000Y-31806677D01*
X112649000Y-31766677D02*
X115009000Y-31766677D01*
X112689000Y-31726677D02*
X115009000Y-31726677D01*
X112730000Y-31686677D02*
X115009000Y-31686677D01*
X112772000Y-31646677D02*
X115009000Y-31646677D01*
X112814000Y-31606677D02*
X119686000Y-31606677D01*
X112858000Y-31566677D02*
X119642000Y-31566677D01*
X112903000Y-31526677D02*
X119597000Y-31526677D01*
X112949000Y-31486677D02*
X119551000Y-31486677D01*
X112996000Y-31446677D02*
X119504000Y-31446677D01*
X113044000Y-31406677D02*
X119456000Y-31406677D01*
X113094000Y-31366677D02*
X119406000Y-31366677D01*
X113144000Y-31326677D02*
X119356000Y-31326677D01*
X113196000Y-31286677D02*
X119304000Y-31286677D01*
X113250000Y-31246677D02*
X119250000Y-31246677D01*
X113305000Y-31206677D02*
X119195000Y-31206677D01*
X113361000Y-31166677D02*
X119139000Y-31166677D01*
X113420000Y-31126677D02*
X119080000Y-31126677D01*
X113480000Y-31086677D02*
X119020000Y-31086677D01*
X113541000Y-31046677D02*
X118959000Y-31046677D01*
X113605000Y-31006677D02*
X118895000Y-31006677D01*
X113671000Y-30966677D02*
X118829000Y-30966677D01*
X113740000Y-30926677D02*
X118760000Y-30926677D01*
X113811000Y-30886677D02*
X118689000Y-30886677D01*
X113885000Y-30846677D02*
X118615000Y-30846677D01*
X113961000Y-30806677D02*
X118539000Y-30806677D01*
X114041000Y-30766677D02*
X118459000Y-30766677D01*
X114125000Y-30726677D02*
X118375000Y-30726677D01*
X114213000Y-30686677D02*
X118287000Y-30686677D01*
X114306000Y-30646677D02*
X118194000Y-30646677D01*
X114404000Y-30606677D02*
X118096000Y-30606677D01*
X114508000Y-30566677D02*
X117992000Y-30566677D01*
X114620000Y-30526677D02*
X117880000Y-30526677D01*
X114740000Y-30486677D02*
X117760000Y-30486677D01*
X114872000Y-30446677D02*
X117628000Y-30446677D01*
X115020000Y-30406677D02*
X117480000Y-30406677D01*
X115188000Y-30366677D02*
X117312000Y-30366677D01*
X115388000Y-30326677D02*
X117112000Y-30326677D01*
X115651000Y-30286677D02*
X116849000Y-30286677D01*
X117491000Y-31646677D02*
X119728000Y-31646677D01*
X117491000Y-31686677D02*
X119770000Y-31686677D01*
X117491000Y-31726677D02*
X119811000Y-31726677D01*
X117491000Y-31766677D02*
X119851000Y-31766677D01*
X117491000Y-31806677D02*
X119890000Y-31806677D01*
X117491000Y-31846677D02*
X119929000Y-31846677D01*
X117491000Y-31886677D02*
X119966000Y-31886677D01*
X117491000Y-31926677D02*
X120003000Y-31926677D01*
X117491000Y-31966677D02*
X120039000Y-31966677D01*
X117491000Y-32006677D02*
X120074000Y-32006677D01*
X117491000Y-32046677D02*
X120108000Y-32046677D01*
X117491000Y-32086677D02*
X120142000Y-32086677D01*
X117491000Y-32126677D02*
X120175000Y-32126677D01*
X117491000Y-32166677D02*
X120207000Y-32166677D01*
X117491000Y-32206677D02*
X120239000Y-32206677D01*
X117491000Y-32246677D02*
X120270000Y-32246677D01*
X117491000Y-32286677D02*
X120300000Y-32286677D01*
X117491000Y-32326677D02*
X120330000Y-32326677D01*
X117491000Y-32366677D02*
X120360000Y-32366677D01*
X117491000Y-32406677D02*
X120388000Y-32406677D01*
X117491000Y-32446677D02*
X120416000Y-32446677D01*
X117491000Y-32486677D02*
X120444000Y-32486677D01*
X117491000Y-32526677D02*
X120471000Y-32526677D01*
X117491000Y-32566677D02*
X120497000Y-32566677D01*
X117491000Y-32606677D02*
X120523000Y-32606677D01*
X117491000Y-32646677D02*
X120548000Y-32646677D01*
X117491000Y-32686677D02*
X120573000Y-32686677D01*
X117491000Y-32726677D02*
X120597000Y-32726677D01*
X117491000Y-32766677D02*
X120621000Y-32766677D01*
X117491000Y-32806677D02*
X120645000Y-32806677D01*
X117491000Y-32846677D02*
X120667000Y-32846677D01*
X117491000Y-32886677D02*
X120690000Y-32886677D01*
X117491000Y-32926677D02*
X120712000Y-32926677D01*
X117491000Y-32966677D02*
X120733000Y-32966677D01*
X117491000Y-33006677D02*
X120754000Y-33006677D01*
X117491000Y-33046677D02*
X120775000Y-33046677D01*
X117491000Y-33086677D02*
X120795000Y-33086677D01*
X117491000Y-33126677D02*
X120814000Y-33126677D01*
X117491000Y-33166677D02*
X120834000Y-33166677D01*
X117491000Y-33206677D02*
X120853000Y-33206677D01*
X117491000Y-33246677D02*
X120871000Y-33246677D01*
X117491000Y-33286677D02*
X120889000Y-33286677D01*
X117491000Y-33326677D02*
X120907000Y-33326677D01*
X117491000Y-33366677D02*
X120924000Y-33366677D01*
X117491000Y-33406677D02*
X120940000Y-33406677D01*
X117491000Y-33446677D02*
X120957000Y-33446677D01*
X117491000Y-33486677D02*
X120973000Y-33486677D01*
X117491000Y-33526677D02*
X120988000Y-33526677D01*
X117491000Y-33566677D02*
X121004000Y-33566677D01*
X117491000Y-33606677D02*
X121018000Y-33606677D01*
X117491000Y-33646677D02*
X121033000Y-33646677D01*
X117491000Y-33686677D02*
X121047000Y-33686677D01*
X117491000Y-33726677D02*
X121061000Y-33726677D01*
X117491000Y-33766677D02*
X121074000Y-33766677D01*
X117491000Y-33806677D02*
X121087000Y-33806677D01*
X117491000Y-33846677D02*
X121100000Y-33846677D01*
X117491000Y-33886677D02*
X121112000Y-33886677D01*
X117491000Y-33926677D02*
X121124000Y-33926677D01*
X117491000Y-33966677D02*
X121135000Y-33966677D01*
X117491000Y-34006677D02*
X121147000Y-34006677D01*
X117491000Y-34046677D02*
X121157000Y-34046677D01*
X117491000Y-34086677D02*
X121168000Y-34086677D01*
X118625000Y-40347323D02*
X119625000Y-40347323D01*
X119125000Y-39847323D02*
X119125000Y-40847323D01*
X121370000Y-35367677D02*
G75*
G02*
X111130000Y-35367677I-5120000J0D01*
G01*
X111130000Y-35367677D02*
G75*
G02*
X121370000Y-35367677I5120000J0D01*
G01*
%TO.C,C35*%
X141140580Y-90740000D02*
X140859420Y-90740000D01*
X141140580Y-91760000D02*
X140859420Y-91760000D01*
%TO.C,R21*%
X159477500Y-98262742D02*
X159477500Y-98737258D01*
X160522500Y-98262742D02*
X160522500Y-98737258D01*
%TO.C,C39*%
X140859420Y-100240000D02*
X141140580Y-100240000D01*
X140859420Y-101260000D02*
X141140580Y-101260000D01*
%TO.C,C64*%
X114740000Y-111359420D02*
X114740000Y-111640580D01*
X115760000Y-111359420D02*
X115760000Y-111640580D01*
%TO.C,C51*%
X149859420Y-81490000D02*
X150140580Y-81490000D01*
X149859420Y-82510000D02*
X150140580Y-82510000D01*
%TO.C,C36*%
X138140580Y-96740000D02*
X137859420Y-96740000D01*
X138140580Y-97760000D02*
X137859420Y-97760000D01*
%TO.C,C47*%
X159420000Y-35287677D02*
X169580000Y-35287677D01*
X159420000Y-35327677D02*
X169580000Y-35327677D01*
X159420000Y-35367677D02*
X169580000Y-35367677D01*
X159421000Y-35247677D02*
X169579000Y-35247677D01*
X159422000Y-35207677D02*
X169578000Y-35207677D01*
X159423000Y-35167677D02*
X169577000Y-35167677D01*
X159425000Y-35127677D02*
X169575000Y-35127677D01*
X159427000Y-35087677D02*
X169573000Y-35087677D01*
X159430000Y-35047677D02*
X169570000Y-35047677D01*
X159432000Y-35007677D02*
X169568000Y-35007677D01*
X159435000Y-34967677D02*
X169565000Y-34967677D01*
X159438000Y-34927677D02*
X169562000Y-34927677D01*
X159442000Y-34887677D02*
X169558000Y-34887677D01*
X159446000Y-34847677D02*
X169554000Y-34847677D01*
X159450000Y-34807677D02*
X169550000Y-34807677D01*
X159455000Y-34767677D02*
X169545000Y-34767677D01*
X159460000Y-34727677D02*
X169540000Y-34727677D01*
X159465000Y-34687677D02*
X169535000Y-34687677D01*
X159470000Y-34646677D02*
X169530000Y-34646677D01*
X159476000Y-34606677D02*
X169524000Y-34606677D01*
X159482000Y-34566677D02*
X169518000Y-34566677D01*
X159489000Y-34526677D02*
X169511000Y-34526677D01*
X159496000Y-34486677D02*
X169504000Y-34486677D01*
X159503000Y-34446677D02*
X169497000Y-34446677D01*
X159510000Y-34406677D02*
X169490000Y-34406677D01*
X159518000Y-34366677D02*
X169482000Y-34366677D01*
X159526000Y-34326677D02*
X169474000Y-34326677D01*
X159535000Y-34286677D02*
X169465000Y-34286677D01*
X159544000Y-34246677D02*
X169456000Y-34246677D01*
X159553000Y-34206677D02*
X169447000Y-34206677D01*
X159562000Y-34166677D02*
X169438000Y-34166677D01*
X159572000Y-34126677D02*
X169428000Y-34126677D01*
X159582000Y-34086677D02*
X163259000Y-34086677D01*
X159593000Y-34046677D02*
X163259000Y-34046677D01*
X159603000Y-34006677D02*
X163259000Y-34006677D01*
X159615000Y-33966677D02*
X163259000Y-33966677D01*
X159626000Y-33926677D02*
X163259000Y-33926677D01*
X159638000Y-33886677D02*
X163259000Y-33886677D01*
X159650000Y-33846677D02*
X163259000Y-33846677D01*
X159663000Y-33806677D02*
X163259000Y-33806677D01*
X159676000Y-33766677D02*
X163259000Y-33766677D01*
X159689000Y-33726677D02*
X163259000Y-33726677D01*
X159703000Y-33686677D02*
X163259000Y-33686677D01*
X159717000Y-33646677D02*
X163259000Y-33646677D01*
X159732000Y-33606677D02*
X163259000Y-33606677D01*
X159746000Y-33566677D02*
X163259000Y-33566677D01*
X159762000Y-33526677D02*
X163259000Y-33526677D01*
X159777000Y-33486677D02*
X163259000Y-33486677D01*
X159793000Y-33446677D02*
X163259000Y-33446677D01*
X159810000Y-33406677D02*
X163259000Y-33406677D01*
X159826000Y-33366677D02*
X163259000Y-33366677D01*
X159843000Y-33326677D02*
X163259000Y-33326677D01*
X159861000Y-33286677D02*
X163259000Y-33286677D01*
X159879000Y-33246677D02*
X163259000Y-33246677D01*
X159897000Y-33206677D02*
X163259000Y-33206677D01*
X159916000Y-33166677D02*
X163259000Y-33166677D01*
X159936000Y-33126677D02*
X163259000Y-33126677D01*
X159955000Y-33086677D02*
X163259000Y-33086677D01*
X159975000Y-33046677D02*
X163259000Y-33046677D01*
X159996000Y-33006677D02*
X163259000Y-33006677D01*
X160017000Y-32966677D02*
X163259000Y-32966677D01*
X160038000Y-32926677D02*
X163259000Y-32926677D01*
X160060000Y-32886677D02*
X163259000Y-32886677D01*
X160083000Y-32846677D02*
X163259000Y-32846677D01*
X160105000Y-32806677D02*
X163259000Y-32806677D01*
X160129000Y-32766677D02*
X163259000Y-32766677D01*
X160153000Y-32726677D02*
X163259000Y-32726677D01*
X160177000Y-32686677D02*
X163259000Y-32686677D01*
X160202000Y-32646677D02*
X163259000Y-32646677D01*
X160227000Y-32606677D02*
X163259000Y-32606677D01*
X160253000Y-32566677D02*
X163259000Y-32566677D01*
X160279000Y-32526677D02*
X163259000Y-32526677D01*
X160306000Y-32486677D02*
X163259000Y-32486677D01*
X160334000Y-32446677D02*
X163259000Y-32446677D01*
X160362000Y-32406677D02*
X163259000Y-32406677D01*
X160390000Y-32366677D02*
X163259000Y-32366677D01*
X160420000Y-32326677D02*
X163259000Y-32326677D01*
X160450000Y-32286677D02*
X163259000Y-32286677D01*
X160480000Y-32246677D02*
X163259000Y-32246677D01*
X160511000Y-32206677D02*
X163259000Y-32206677D01*
X160543000Y-32166677D02*
X163259000Y-32166677D01*
X160575000Y-32126677D02*
X163259000Y-32126677D01*
X160608000Y-32086677D02*
X163259000Y-32086677D01*
X160642000Y-32046677D02*
X163259000Y-32046677D01*
X160676000Y-32006677D02*
X163259000Y-32006677D01*
X160711000Y-31966677D02*
X163259000Y-31966677D01*
X160747000Y-31926677D02*
X163259000Y-31926677D01*
X160784000Y-31886677D02*
X163259000Y-31886677D01*
X160821000Y-31846677D02*
X163259000Y-31846677D01*
X160860000Y-31806677D02*
X163259000Y-31806677D01*
X160899000Y-31766677D02*
X163259000Y-31766677D01*
X160939000Y-31726677D02*
X163259000Y-31726677D01*
X160980000Y-31686677D02*
X163259000Y-31686677D01*
X161022000Y-31646677D02*
X163259000Y-31646677D01*
X161064000Y-31606677D02*
X167936000Y-31606677D01*
X161108000Y-31566677D02*
X167892000Y-31566677D01*
X161153000Y-31526677D02*
X167847000Y-31526677D01*
X161199000Y-31486677D02*
X167801000Y-31486677D01*
X161246000Y-31446677D02*
X167754000Y-31446677D01*
X161294000Y-31406677D02*
X167706000Y-31406677D01*
X161344000Y-31366677D02*
X167656000Y-31366677D01*
X161394000Y-31326677D02*
X167606000Y-31326677D01*
X161446000Y-31286677D02*
X167554000Y-31286677D01*
X161500000Y-31246677D02*
X167500000Y-31246677D01*
X161555000Y-31206677D02*
X167445000Y-31206677D01*
X161611000Y-31166677D02*
X167389000Y-31166677D01*
X161670000Y-31126677D02*
X167330000Y-31126677D01*
X161730000Y-31086677D02*
X167270000Y-31086677D01*
X161791000Y-31046677D02*
X167209000Y-31046677D01*
X161855000Y-31006677D02*
X167145000Y-31006677D01*
X161921000Y-30966677D02*
X167079000Y-30966677D01*
X161990000Y-30926677D02*
X167010000Y-30926677D01*
X162061000Y-30886677D02*
X166939000Y-30886677D01*
X162135000Y-30846677D02*
X166865000Y-30846677D01*
X162211000Y-30806677D02*
X166789000Y-30806677D01*
X162291000Y-30766677D02*
X166709000Y-30766677D01*
X162375000Y-30726677D02*
X166625000Y-30726677D01*
X162463000Y-30686677D02*
X166537000Y-30686677D01*
X162556000Y-30646677D02*
X166444000Y-30646677D01*
X162654000Y-30606677D02*
X166346000Y-30606677D01*
X162758000Y-30566677D02*
X166242000Y-30566677D01*
X162870000Y-30526677D02*
X166130000Y-30526677D01*
X162990000Y-30486677D02*
X166010000Y-30486677D01*
X163122000Y-30446677D02*
X165878000Y-30446677D01*
X163270000Y-30406677D02*
X165730000Y-30406677D01*
X163438000Y-30366677D02*
X165562000Y-30366677D01*
X163638000Y-30326677D02*
X165362000Y-30326677D01*
X163901000Y-30286677D02*
X165099000Y-30286677D01*
X165741000Y-31646677D02*
X167978000Y-31646677D01*
X165741000Y-31686677D02*
X168020000Y-31686677D01*
X165741000Y-31726677D02*
X168061000Y-31726677D01*
X165741000Y-31766677D02*
X168101000Y-31766677D01*
X165741000Y-31806677D02*
X168140000Y-31806677D01*
X165741000Y-31846677D02*
X168179000Y-31846677D01*
X165741000Y-31886677D02*
X168216000Y-31886677D01*
X165741000Y-31926677D02*
X168253000Y-31926677D01*
X165741000Y-31966677D02*
X168289000Y-31966677D01*
X165741000Y-32006677D02*
X168324000Y-32006677D01*
X165741000Y-32046677D02*
X168358000Y-32046677D01*
X165741000Y-32086677D02*
X168392000Y-32086677D01*
X165741000Y-32126677D02*
X168425000Y-32126677D01*
X165741000Y-32166677D02*
X168457000Y-32166677D01*
X165741000Y-32206677D02*
X168489000Y-32206677D01*
X165741000Y-32246677D02*
X168520000Y-32246677D01*
X165741000Y-32286677D02*
X168550000Y-32286677D01*
X165741000Y-32326677D02*
X168580000Y-32326677D01*
X165741000Y-32366677D02*
X168610000Y-32366677D01*
X165741000Y-32406677D02*
X168638000Y-32406677D01*
X165741000Y-32446677D02*
X168666000Y-32446677D01*
X165741000Y-32486677D02*
X168694000Y-32486677D01*
X165741000Y-32526677D02*
X168721000Y-32526677D01*
X165741000Y-32566677D02*
X168747000Y-32566677D01*
X165741000Y-32606677D02*
X168773000Y-32606677D01*
X165741000Y-32646677D02*
X168798000Y-32646677D01*
X165741000Y-32686677D02*
X168823000Y-32686677D01*
X165741000Y-32726677D02*
X168847000Y-32726677D01*
X165741000Y-32766677D02*
X168871000Y-32766677D01*
X165741000Y-32806677D02*
X168895000Y-32806677D01*
X165741000Y-32846677D02*
X168917000Y-32846677D01*
X165741000Y-32886677D02*
X168940000Y-32886677D01*
X165741000Y-32926677D02*
X168962000Y-32926677D01*
X165741000Y-32966677D02*
X168983000Y-32966677D01*
X165741000Y-33006677D02*
X169004000Y-33006677D01*
X165741000Y-33046677D02*
X169025000Y-33046677D01*
X165741000Y-33086677D02*
X169045000Y-33086677D01*
X165741000Y-33126677D02*
X169064000Y-33126677D01*
X165741000Y-33166677D02*
X169084000Y-33166677D01*
X165741000Y-33206677D02*
X169103000Y-33206677D01*
X165741000Y-33246677D02*
X169121000Y-33246677D01*
X165741000Y-33286677D02*
X169139000Y-33286677D01*
X165741000Y-33326677D02*
X169157000Y-33326677D01*
X165741000Y-33366677D02*
X169174000Y-33366677D01*
X165741000Y-33406677D02*
X169190000Y-33406677D01*
X165741000Y-33446677D02*
X169207000Y-33446677D01*
X165741000Y-33486677D02*
X169223000Y-33486677D01*
X165741000Y-33526677D02*
X169238000Y-33526677D01*
X165741000Y-33566677D02*
X169254000Y-33566677D01*
X165741000Y-33606677D02*
X169268000Y-33606677D01*
X165741000Y-33646677D02*
X169283000Y-33646677D01*
X165741000Y-33686677D02*
X169297000Y-33686677D01*
X165741000Y-33726677D02*
X169311000Y-33726677D01*
X165741000Y-33766677D02*
X169324000Y-33766677D01*
X165741000Y-33806677D02*
X169337000Y-33806677D01*
X165741000Y-33846677D02*
X169350000Y-33846677D01*
X165741000Y-33886677D02*
X169362000Y-33886677D01*
X165741000Y-33926677D02*
X169374000Y-33926677D01*
X165741000Y-33966677D02*
X169385000Y-33966677D01*
X165741000Y-34006677D02*
X169397000Y-34006677D01*
X165741000Y-34046677D02*
X169407000Y-34046677D01*
X165741000Y-34086677D02*
X169418000Y-34086677D01*
X166875000Y-40347323D02*
X167875000Y-40347323D01*
X167375000Y-39847323D02*
X167375000Y-40847323D01*
X169620000Y-35367677D02*
G75*
G02*
X159380000Y-35367677I-5120000J0D01*
G01*
X159380000Y-35367677D02*
G75*
G02*
X169620000Y-35367677I5120000J0D01*
G01*
%TO.C,R26*%
X162977500Y-95737258D02*
X162977500Y-95262742D01*
X164022500Y-95737258D02*
X164022500Y-95262742D01*
%TO.C,R52*%
X123737258Y-98227500D02*
X123262742Y-98227500D01*
X123737258Y-99272500D02*
X123262742Y-99272500D01*
%TO.C,C113*%
X126040000Y-83740000D02*
X126040000Y-86760000D01*
X126040000Y-86760000D02*
X130250000Y-86760000D01*
X130250000Y-83740000D02*
X126040000Y-83740000D01*
%TO.C,C16*%
X127859420Y-75740000D02*
X128140580Y-75740000D01*
X127859420Y-76760000D02*
X128140580Y-76760000D01*
%TO.C,R69*%
X128727500Y-105012742D02*
X128727500Y-105487258D01*
X129772500Y-105012742D02*
X129772500Y-105487258D01*
%TO.C,C33*%
X143015000Y-91011252D02*
X143015000Y-90488748D01*
X144485000Y-91011252D02*
X144485000Y-90488748D01*
%TD*%
M02*
