M48
; DRILL file {KiCad 8.0.1} date 2024-06-01T22:58:49+0200
; FORMAT={-:-/ absolute / inch / decimal}
; #@! TF.CreationDate,2024-06-01T22:58:49+02:00
; #@! TF.GenerationSoftware,Kicad,Pcbnew,8.0.1
; #@! TF.FileFunction,Plated,1,4,PTH
FMAT,2
INCH
; #@! TA.AperFunction,Plated,PTH,ViaDrill
T1C0.0079
; #@! TA.AperFunction,Plated,PTH,ViaDrill
T2C0.0118
; #@! TA.AperFunction,Plated,PTH,ViaDrill
T3C0.0157
; #@! TA.AperFunction,Plated,PTH,ComponentDrill
T4C0.0173
; #@! TA.AperFunction,Plated,PTH,ComponentDrill
T5C0.0197
; #@! TA.AperFunction,Plated,PTH,ComponentDrill
T6C0.0256
; #@! TA.AperFunction,Plated,PTH,ComponentDrill
T7C0.0295
; #@! TA.AperFunction,Plated,PTH,ComponentDrill
T8C0.0394
; #@! TA.AperFunction,Plated,PTH,ComponentDrill
T9C0.0531
; #@! TA.AperFunction,Plated,PTH,ComponentDrill
T10C0.1457
%
G90
G05
T1
X4.0945Y-4.2717
X4.1043Y-3.8386
X4.1535Y-3.6516
X4.1535Y-3.8976
X4.1535Y-3.937
X4.1535Y-3.9862
X4.1535Y-4.0945
X4.2126Y-4.1535
X4.2323Y-4.311
X4.3007Y-4.2491
X4.3012Y-4.2224
X4.3602Y-3.9504
X4.3996Y-4.002
X4.3996Y-4.0256
X4.3996Y-4.0531
X4.3996Y-4.0768
X4.4094Y-4.1929
X4.4193Y-3.9764
X4.4291Y-4.1043
X4.4439Y-4.1289
X4.4488Y-4.4094
X4.498Y-4.311
X4.5148Y-3.9961
X4.5197Y-3.8681
X4.5404Y-3.9961
X4.5453Y-3.8681
X4.5472Y-3.6732
X4.5571Y-4.311
X4.5669Y-3.5689
X4.5689Y-3.8681
X4.5728Y-3.9705
X4.5827Y-3.6732
X4.5866Y-4.311
X4.6063Y-3.6732
X4.6161Y-4.311
X4.6337Y-3.6734
X4.6457Y-3.3858
X4.6555Y-3.9764
X4.6555Y-4.0
X4.6555Y-4.0236
X4.6555Y-4.2815
X4.6575Y-3.8681
X4.6614Y-3.6732
X4.6732Y-4.3012
X4.6811Y-3.8681
X4.685Y-4.0059
X4.7047Y-3.8681
X4.7047Y-4.3012
X4.7146Y-3.9665
X4.7146Y-4.0945
X4.7146Y-4.1831
X4.7146Y-4.4488
X4.7362Y-4.3012
X4.7441Y-3.3876
X4.7441Y-3.6703
X4.7441Y-4.1535
X4.7461Y-3.9075
X4.7539Y-4.0256
X4.7638Y-3.5748
X4.7874Y-3.5748
X4.8031Y-3.6693
X4.8215Y-3.5747
X4.8268Y-3.6693
X4.8425Y-3.3858
X4.8425Y-3.9222
X4.8504Y-3.6693
X4.8622Y-4.1063
X4.8622Y-4.1339
X4.8622Y-4.1634
X4.9016Y-4.2028
X4.9213Y-3.873
X4.9213Y-4.1831
X4.9311Y-4.0256
X4.9311Y-4.1437
X4.9409Y-3.9764
X4.9606Y-3.9567
X4.9902Y-3.9439
X5.0Y-4.0876
X5.0295Y-4.3406
X5.0591Y-3.8681
X5.0886Y-4.0876
X5.1772Y-3.8386
X5.1772Y-4.0876
X5.1772Y-4.3307
X5.2067Y-3.9272
X5.2461Y-4.3209
X5.4035Y-4.3209
X5.438Y-3.8681
X5.4921Y-3.9114
X5.4921Y-4.0295
X5.4921Y-4.1476
X5.502Y-3.8386
X5.5512Y-3.1496
X5.5512Y-3.9075
X5.5512Y-4.0256
X5.5512Y-4.1437
X5.6496Y-3.1791
X5.6594Y-4.1043
X5.6693Y-3.9961
X5.6693Y-4.0256
X5.6693Y-4.0512
X5.6693Y-4.0748
X5.6693Y-4.1496
X5.6693Y-4.1732
X5.6799Y-3.9749
X5.691Y-4.309
X5.7087Y-4.4193
X5.7136Y-4.3159
X5.7638Y-3.1654
X5.7874Y-3.9665
X5.7874Y-4.315
X5.7912Y-3.9899
X5.8172Y-3.9963
X5.8214Y-4.3044
X5.8287Y-3.6791
X5.8425Y-4.315
X5.8465Y-3.9764
X5.8486Y-4.1598
X5.8563Y-3.6843
X5.8661Y-3.5728
X5.8661Y-3.9961
X5.8661Y-4.1417
X5.8661Y-4.3228
X5.876Y-3.6713
X5.8858Y-3.9764
X5.8898Y-4.315
X5.9027Y-3.6734
X5.9055Y-3.9961
X5.9227Y-3.8682
X5.9291Y-3.6772
X5.9449Y-3.376
X5.9463Y-3.8674
X5.9547Y-3.6713
X5.9547Y-4.2913
X5.9632Y-3.2175
X5.9698Y-3.8654
X5.9759Y-4.3019
X5.9969Y-4.3126
X6.0138Y-4.0945
X6.0138Y-4.124
X6.0433Y-3.376
X6.0535Y-3.6709
X6.0912Y-3.5709
X6.0984Y-3.6713
X6.1122Y-4.1535
X6.1142Y-3.1447
X6.1171Y-3.5728
X6.122Y-3.6713
X6.1407Y-3.5728
X6.1417Y-3.376
X6.1457Y-3.6713
X6.2303Y-3.2579
X6.25Y-3.2579
X6.2992Y-3.75
X6.2992Y-3.8159
X6.3681Y-3.75
X6.3681Y-3.8159
X6.378Y-4.3671
X6.378Y-4.3927
X6.4075Y-4.0256
X6.4075Y-4.0551
X6.4075Y-4.0846
X6.4173Y-3.9596
X6.4331Y-3.6614
X6.437Y-3.75
X6.437Y-3.8159
X6.5453Y-4.0531
T2
X3.9744Y-4.6831
X4.0138Y-4.6831
X4.0354Y-3.0512
X4.0354Y-3.1594
X4.0531Y-4.6831
X4.0709Y-3.5748
X4.0925Y-4.6831
X4.1024Y-3.5748
X4.1319Y-3.3445
X4.1319Y-3.3839
X4.1319Y-4.5256
X4.1319Y-4.565
X4.1319Y-4.6043
X4.1319Y-4.6437
X4.1319Y-4.6831
X4.1339Y-3.5748
X4.1713Y-3.3445
X4.1713Y-3.3839
X4.1713Y-4.5256
X4.1713Y-4.565
X4.1713Y-4.6043
X4.1713Y-4.6437
X4.1713Y-4.6831
X4.1929Y-4.3406
X4.1929Y-4.3996
X4.2106Y-3.3445
X4.2106Y-3.3839
X4.2106Y-4.5256
X4.2106Y-4.565
X4.2106Y-4.6043
X4.2106Y-4.6437
X4.2106Y-4.6831
X4.25Y-3.3445
X4.25Y-3.3839
X4.25Y-4.5256
X4.25Y-4.565
X4.25Y-4.6043
X4.25Y-4.6437
X4.25Y-4.6831
X4.252Y-3.7992
X4.252Y-4.2126
X4.2598Y-3.9921
X4.2598Y-4.0315
X4.2598Y-4.0709
X4.2598Y-4.1102
X4.2598Y-4.1496
X4.2894Y-3.0295
X4.2894Y-3.3445
X4.2894Y-3.3839
X4.2894Y-4.5256
X4.2894Y-4.565
X4.2894Y-4.6043
X4.2894Y-4.6437
X4.2894Y-4.6831
X4.2913Y-3.9606
X4.311Y-3.2087
X4.311Y-3.248
X4.311Y-3.2874
X4.311Y-4.5079
X4.3287Y-4.6831
X4.3504Y-4.4882
X4.3898Y-2.9429
X4.3898Y-4.4685
X4.3898Y-4.685
X4.4094Y-3.7598
X4.4291Y-3.2185
X4.4291Y-4.4685
X4.4291Y-4.685
X4.4469Y-3.4626
X4.4469Y-3.502
X4.4488Y-3.1693
X4.4488Y-3.4252
X4.4488Y-3.5433
X4.4685Y-4.4685
X4.4685Y-4.685
X4.4862Y-3.4626
X4.4862Y-3.502
X4.4882Y-3.061
X4.4882Y-3.4252
X4.4882Y-3.5433
X4.5079Y-4.685
X4.5111Y-3.275
X4.5256Y-3.4626
X4.5256Y-3.502
X4.5276Y-3.4252
X4.5276Y-3.5433
X4.5472Y-3.2579
X4.5472Y-4.685
X4.5571Y-3.3681
X4.5669Y-4.4685
X4.5768Y-3.002
X4.5866Y-4.685
X4.6156Y-3.0019
X4.626Y-4.685
X4.6408Y-3.1697
X4.6457Y-2.94
X4.6457Y-4.4882
X4.6555Y-2.9823
X4.6654Y-4.6654
X4.6831Y-4.6831
X4.685Y-4.5079
X4.685Y-4.5472
X4.685Y-4.5866
X4.685Y-4.626
X4.6891Y-2.9823
X4.7047Y-3.8189
X4.7146Y-1.6732
X4.7146Y-1.7126
X4.7146Y-1.752
X4.7146Y-1.7913
X4.7146Y-1.8307
X4.7146Y-1.8701
X4.7146Y-1.9094
X4.7146Y-1.9488
X4.7146Y-2.1063
X4.7146Y-2.1457
X4.7146Y-2.185
X4.7146Y-2.2244
X4.7146Y-2.2638
X4.7146Y-2.3031
X4.7146Y-2.3425
X4.7146Y-2.3819
X4.7146Y-2.5394
X4.7146Y-2.5787
X4.7146Y-2.6181
X4.7146Y-2.6575
X4.7146Y-2.6969
X4.7146Y-2.7362
X4.7146Y-2.7756
X4.7146Y-2.815
X4.7224Y-4.5256
X4.7224Y-4.565
X4.7224Y-4.6043
X4.7224Y-4.6437
X4.7224Y-4.6831
X4.7343Y-3.2382
X4.7441Y-3.7795
X4.7539Y-1.6732
X4.7539Y-1.7126
X4.7539Y-1.752
X4.7539Y-1.7913
X4.7539Y-1.8307
X4.7539Y-1.8701
X4.7539Y-1.9094
X4.7539Y-1.9488
X4.7539Y-2.1063
X4.7539Y-2.1457
X4.7539Y-2.185
X4.7539Y-2.2244
X4.7539Y-2.2638
X4.7539Y-2.3031
X4.7539Y-2.3425
X4.7539Y-2.3819
X4.7539Y-2.5394
X4.7539Y-2.5787
X4.7539Y-2.6181
X4.7539Y-2.6575
X4.7539Y-2.6969
X4.7539Y-2.7362
X4.7539Y-2.7756
X4.7539Y-2.815
X4.7618Y-4.5256
X4.7618Y-4.565
X4.7618Y-4.6043
X4.7618Y-4.6437
X4.7618Y-4.6831
X4.7933Y-1.6732
X4.7933Y-1.7126
X4.7933Y-1.752
X4.7933Y-1.7913
X4.7933Y-1.8307
X4.7933Y-1.8701
X4.7933Y-1.9094
X4.7933Y-1.9488
X4.7933Y-2.1063
X4.7933Y-2.1457
X4.7933Y-2.185
X4.7933Y-2.2244
X4.7933Y-2.2638
X4.7933Y-2.3031
X4.7933Y-2.3425
X4.7933Y-2.3819
X4.7933Y-2.5394
X4.7933Y-2.5787
X4.7933Y-2.6181
X4.7933Y-2.6575
X4.7933Y-2.6969
X4.7933Y-2.7362
X4.7933Y-2.7756
X4.7933Y-2.815
X4.8012Y-4.5256
X4.8012Y-4.565
X4.8012Y-4.6043
X4.8012Y-4.6437
X4.8012Y-4.6831
X4.8327Y-1.6732
X4.8327Y-1.7126
X4.8327Y-1.752
X4.8327Y-1.7913
X4.8327Y-1.8307
X4.8327Y-1.8701
X4.8327Y-1.9094
X4.8327Y-1.9488
X4.8327Y-2.1063
X4.8327Y-2.1457
X4.8327Y-2.185
X4.8327Y-2.2244
X4.8327Y-2.2638
X4.8327Y-2.3031
X4.8327Y-2.3425
X4.8327Y-2.3819
X4.8327Y-2.5394
X4.8327Y-2.5787
X4.8327Y-2.6181
X4.8327Y-2.6575
X4.8327Y-2.6969
X4.8327Y-2.7362
X4.8327Y-2.7756
X4.8327Y-2.815
X4.8406Y-4.5256
X4.8406Y-4.565
X4.8406Y-4.6043
X4.8406Y-4.6437
X4.8406Y-4.6831
X4.8425Y-3.8386
X4.8799Y-4.5256
X4.8799Y-4.565
X4.8799Y-4.6043
X4.8799Y-4.6437
X4.8799Y-4.6831
X4.9193Y-4.5256
X4.9193Y-4.565
X4.9193Y-4.6043
X4.9193Y-4.6437
X4.9193Y-4.6831
X4.9213Y-4.3898
X4.9409Y-3.5335
X4.9409Y-3.563
X4.9409Y-3.75
X4.9508Y-3.4941
X4.9587Y-4.5256
X4.9587Y-4.565
X4.9587Y-4.6043
X4.9587Y-4.6437
X4.9587Y-4.6831
X4.9606Y-4.0945
X4.9941Y-3.2382
X4.998Y-4.565
X4.998Y-4.6043
X4.998Y-4.6437
X4.998Y-4.6831
X5.0Y-3.1693
X5.0374Y-4.6437
X5.0374Y-4.6831
X5.0591Y-3.376
X5.0689Y-3.5433
X5.0689Y-3.5925
X5.0709Y-4.3701
X5.0768Y-4.6437
X5.0768Y-4.6831
X5.1102Y-4.3701
X5.1161Y-4.6437
X5.1161Y-4.6831
X5.1215Y-3.8368
X5.1555Y-2.9508
X5.1555Y-2.9902
X5.1555Y-4.6437
X5.1555Y-4.6831
X5.1575Y-3.9075
X5.1949Y-2.9114
X5.1949Y-2.9508
X5.1949Y-2.9902
X5.1949Y-3.4626
X5.1949Y-4.6437
X5.1949Y-4.6831
X5.2343Y-2.7933
X5.2343Y-2.8327
X5.2343Y-2.872
X5.2343Y-2.9114
X5.2343Y-2.9508
X5.2343Y-2.9902
X5.2343Y-3.0295
X5.2343Y-3.0689
X5.2343Y-3.1083
X5.2343Y-3.1476
X5.2343Y-3.187
X5.2343Y-3.2264
X5.2343Y-3.2657
X5.2343Y-3.3051
X5.2343Y-3.3445
X5.2343Y-3.3839
X5.2343Y-3.4232
X5.2343Y-3.4626
X5.2736Y-2.7933
X5.2736Y-2.8327
X5.2736Y-2.872
X5.2736Y-2.9114
X5.2736Y-2.9508
X5.2736Y-2.9902
X5.2736Y-3.187
X5.2736Y-3.2264
X5.2736Y-3.2657
X5.2736Y-3.3051
X5.2736Y-3.3445
X5.2736Y-3.3839
X5.2736Y-3.4232
X5.2736Y-3.4626
X5.2736Y-3.502
X5.2736Y-3.5413
X5.2736Y-3.5807
X5.2992Y-3.6535
X5.2992Y-3.7008
X5.2992Y-3.748
X5.2992Y-3.8031
X5.313Y-2.7933
X5.313Y-2.8327
X5.313Y-2.872
X5.313Y-2.9114
X5.313Y-2.9508
X5.313Y-2.9902
X5.313Y-3.187
X5.313Y-3.2264
X5.313Y-3.2657
X5.313Y-3.3051
X5.313Y-3.3445
X5.313Y-3.3839
X5.313Y-3.4232
X5.313Y-3.4626
X5.313Y-3.502
X5.313Y-3.5413
X5.3356Y-4.1339
X5.3524Y-2.7933
X5.3524Y-2.8327
X5.3524Y-2.872
X5.3524Y-2.9114
X5.3524Y-2.9508
X5.3524Y-2.9902
X5.3524Y-3.187
X5.3524Y-3.2264
X5.3524Y-3.2657
X5.3524Y-3.3051
X5.3524Y-3.3445
X5.3524Y-3.3839
X5.3524Y-3.4232
X5.3524Y-3.4626
X5.3524Y-3.502
X5.3524Y-3.5413
X5.3524Y-4.0807
X5.3858Y-4.3701
X5.3917Y-2.7933
X5.3917Y-2.8327
X5.3917Y-2.872
X5.3917Y-2.9114
X5.3917Y-2.9508
X5.3917Y-2.9902
X5.3917Y-3.0295
X5.3917Y-3.0689
X5.3917Y-3.1083
X5.3917Y-3.1476
X5.3917Y-3.187
X5.3917Y-3.2264
X5.3917Y-3.2657
X5.3917Y-3.3051
X5.3917Y-3.3445
X5.3917Y-3.3839
X5.3917Y-3.4232
X5.3917Y-3.4626
X5.3917Y-3.502
X5.3917Y-3.5413
X5.4311Y-2.9114
X5.4311Y-2.9508
X5.4311Y-2.9902
X5.4311Y-3.2264
X5.4311Y-3.2657
X5.4311Y-3.3051
X5.4311Y-3.3445
X5.4311Y-3.3839
X5.4311Y-3.4232
X5.4311Y-3.4626
X5.4311Y-3.502
X5.4311Y-3.5413
X5.4409Y-4.3701
X5.4705Y-2.9508
X5.4705Y-2.9902
X5.4705Y-3.2264
X5.4705Y-3.2657
X5.4705Y-3.3051
X5.4705Y-3.3445
X5.4705Y-3.3839
X5.4705Y-3.4232
X5.4705Y-3.4626
X5.4705Y-3.502
X5.5039Y-4.3701
X5.5315Y-4.5256
X5.5709Y-4.5276
X5.5709Y-4.5669
X5.5709Y-4.6063
X5.5709Y-4.6457
X5.5886Y-4.6831
X5.5906Y-3.2598
X5.5906Y-4.4882
X5.6299Y-4.4685
X5.6299Y-4.685
X5.6693Y-3.8031
X5.6693Y-4.4685
X5.6693Y-4.685
X5.7087Y-4.4685
X5.7087Y-4.685
X5.7283Y-3.0118
X5.748Y-4.685
X5.7874Y-4.685
X5.7972Y-1.6732
X5.7972Y-1.7126
X5.7972Y-1.752
X5.7972Y-1.7913
X5.7972Y-1.8307
X5.7972Y-1.8701
X5.7972Y-1.9094
X5.7972Y-1.9488
X5.7972Y-2.1063
X5.7972Y-2.1457
X5.7972Y-2.185
X5.7972Y-2.2244
X5.7972Y-2.2638
X5.7972Y-2.3031
X5.7972Y-2.3425
X5.7972Y-2.3819
X5.7972Y-2.5787
X5.7972Y-2.6181
X5.7972Y-2.6575
X5.7972Y-2.6969
X5.7972Y-2.7362
X5.7972Y-2.7756
X5.8268Y-3.2362
X5.8268Y-3.2756
X5.8268Y-4.4685
X5.8268Y-4.685
X5.8366Y-1.6732
X5.8366Y-1.7126
X5.8366Y-1.752
X5.8366Y-1.7913
X5.8366Y-1.8307
X5.8366Y-1.8701
X5.8366Y-1.9094
X5.8366Y-1.9488
X5.8366Y-2.1063
X5.8366Y-2.1457
X5.8366Y-2.185
X5.8366Y-2.2244
X5.8366Y-2.2638
X5.8366Y-2.3031
X5.8366Y-2.3425
X5.8366Y-2.3819
X5.8366Y-2.5394
X5.8366Y-2.5787
X5.8366Y-2.6181
X5.8366Y-2.6575
X5.8366Y-2.6969
X5.8366Y-2.7362
X5.8366Y-2.7756
X5.8366Y-2.815
X5.8465Y-3.4252
X5.8465Y-3.4646
X5.8465Y-3.5039
X5.8556Y-3.2625
X5.8583Y-3.3701
X5.8661Y-3.0512
X5.8661Y-4.685
X5.876Y-1.6732
X5.876Y-1.7126
X5.876Y-1.752
X5.876Y-1.7913
X5.876Y-1.8307
X5.876Y-1.8701
X5.876Y-1.9094
X5.876Y-1.9488
X5.876Y-2.1063
X5.876Y-2.1457
X5.876Y-2.185
X5.876Y-2.2244
X5.876Y-2.2638
X5.876Y-2.3031
X5.876Y-2.3425
X5.876Y-2.3819
X5.876Y-2.5394
X5.876Y-2.5787
X5.876Y-2.6181
X5.876Y-2.6575
X5.876Y-2.6969
X5.876Y-2.7362
X5.876Y-2.7756
X5.876Y-2.815
X5.8858Y-4.4882
X5.9055Y-4.685
X5.9154Y-1.6732
X5.9154Y-1.7126
X5.9154Y-1.752
X5.9154Y-1.7913
X5.9154Y-1.8307
X5.9154Y-1.8701
X5.9154Y-1.9094
X5.9154Y-1.9488
X5.9154Y-2.1063
X5.9154Y-2.1457
X5.9154Y-2.185
X5.9154Y-2.2244
X5.9154Y-2.2638
X5.9154Y-2.3031
X5.9154Y-2.3425
X5.9154Y-2.3819
X5.9154Y-2.5394
X5.9154Y-2.5787
X5.9154Y-2.6181
X5.9154Y-2.6575
X5.9154Y-2.6969
X5.9154Y-2.7362
X5.9154Y-2.7756
X5.9154Y-2.815
X5.9252Y-4.5079
X5.9429Y-4.6831
X5.9449Y-3.0413
X5.9646Y-3.0118
X5.9646Y-4.5276
X5.9646Y-4.5669
X5.9646Y-4.6063
X5.9646Y-4.6457
X5.9764Y-4.4724
X5.9823Y-4.6831
X6.0001Y-3.5719
X6.0217Y-4.565
X6.0217Y-4.6043
X6.0217Y-4.6437
X6.0217Y-4.6831
X6.0236Y-2.9232
X6.0531Y-3.0118
X6.061Y-4.5256
X6.061Y-4.565
X6.061Y-4.6043
X6.061Y-4.6437
X6.061Y-4.6831
X6.0631Y-2.9819
X6.0866Y-3.9055
X6.0876Y-3.2457
X6.1004Y-4.5256
X6.1004Y-4.565
X6.1004Y-4.6043
X6.1004Y-4.6437
X6.1004Y-4.6831
X6.122Y-3.878
X6.1398Y-4.5256
X6.1398Y-4.565
X6.1398Y-4.6043
X6.1398Y-4.6437
X6.1398Y-4.6831
X6.1417Y-4.1969
X6.1614Y-3.8386
X6.1791Y-4.5256
X6.1791Y-4.565
X6.1791Y-4.6043
X6.1791Y-4.6437
X6.1791Y-4.6831
X6.2008Y-3.5039
X6.2008Y-3.7992
X6.2008Y-4.0748
X6.2008Y-4.1142
X6.2008Y-4.3898
X6.2008Y-4.4291
X6.2185Y-4.5256
X6.2185Y-4.565
X6.2185Y-4.6043
X6.2185Y-4.6437
X6.2185Y-4.6831
X6.2402Y-2.9921
X6.2402Y-3.5433
X6.2402Y-4.3898
X6.2579Y-4.5256
X6.2579Y-4.565
X6.2579Y-4.6043
X6.2579Y-4.6437
X6.2579Y-4.6831
X6.2598Y-4.0748
X6.2677Y-4.0236
X6.2795Y-3.3858
X6.2972Y-4.5256
X6.2972Y-4.565
X6.2972Y-4.6043
X6.2972Y-4.6437
X6.2972Y-4.6831
X6.3287Y-3.1004
X6.3287Y-3.1398
X6.3287Y-3.1791
X6.3287Y-3.2185
X6.3366Y-4.5256
X6.3366Y-4.565
X6.3366Y-4.6043
X6.3366Y-4.6437
X6.3366Y-4.6831
X6.376Y-4.5256
X6.376Y-4.565
X6.376Y-4.6043
X6.376Y-4.6437
X6.376Y-4.6831
X6.378Y-3.563
X6.3976Y-3.3465
X6.4094Y-4.2047
X6.4154Y-3.3839
X6.4154Y-4.5256
X6.4154Y-4.565
X6.4154Y-4.6043
X6.4154Y-4.6437
X6.4154Y-4.6831
X6.4173Y-3.563
X6.4331Y-3.6063
X6.4547Y-3.3445
X6.4547Y-3.3839
X6.4547Y-4.5256
X6.4547Y-4.565
X6.4547Y-4.6043
X6.4547Y-4.6437
X6.4547Y-4.6831
X6.4803Y-3.4882
X6.4941Y-3.3445
X6.4941Y-3.3839
X6.4941Y-4.5256
X6.4941Y-4.565
X6.4941Y-4.6043
X6.4941Y-4.6437
X6.4941Y-4.6831
X6.5335Y-4.6831
X6.5512Y-4.126
X6.5728Y-2.9508
X6.5728Y-2.9902
X6.5728Y-4.6831
X6.6122Y-2.9508
X6.6122Y-2.9902
X6.6122Y-3.0295
X6.6122Y-4.6831
X6.6457Y-3.5709
X6.6457Y-3.6004
X6.6457Y-3.6299
X6.6516Y-2.9508
X6.6516Y-2.9902
X6.6516Y-3.0295
X6.6516Y-3.1476
X6.6516Y-3.187
X6.6516Y-3.2264
X6.6516Y-3.2657
X6.6516Y-3.3051
X6.6516Y-3.3445
X6.6516Y-3.3839
X6.6516Y-4.6831
T3
X4.3671Y-2.8415
X4.3701Y-1.9783
X4.3701Y-2.4114
X4.9213Y-1.9685
X4.9213Y-2.4016
X5.1181Y-1.624
X5.1181Y-1.6634
X5.1181Y-1.7028
X5.1181Y-1.7421
X5.1181Y-1.7815
X5.1181Y-1.8209
X5.1181Y-1.8602
X5.1181Y-1.8996
X5.1181Y-1.939
X5.1181Y-1.9783
X5.1181Y-2.0177
X5.1181Y-2.0571
X5.1181Y-2.0965
X5.1181Y-2.1358
X5.1181Y-2.1752
X5.1181Y-2.2146
X5.1181Y-2.2539
X5.1181Y-2.2933
X5.1181Y-2.3327
X5.1181Y-2.4213
X5.1181Y-2.4803
X5.1181Y-2.5394
X5.1181Y-2.5984
X5.1181Y-2.6575
X5.1181Y-2.7165
X5.1181Y-2.7756
X5.1181Y-2.8346
X5.1772Y-2.4213
X5.1772Y-2.4803
X5.1772Y-2.7165
X5.1772Y-2.7756
X5.1772Y-2.8346
X5.2362Y-2.4213
X5.2953Y-2.4213
X5.3346Y-2.4213
X5.3614Y-3.8268
X5.3615Y-3.8661
X5.3937Y-2.4213
X5.4528Y-2.4213
X5.4528Y-2.4803
X5.4528Y-2.7165
X5.4528Y-2.7756
X5.4528Y-2.8346
X5.5118Y-1.624
X5.5118Y-1.6634
X5.5118Y-1.7028
X5.5118Y-1.7421
X5.5118Y-1.7815
X5.5118Y-1.8209
X5.5118Y-1.8602
X5.5118Y-1.8996
X5.5118Y-1.939
X5.5118Y-1.9783
X5.5118Y-2.0177
X5.5118Y-2.0571
X5.5118Y-2.0965
X5.5118Y-2.1358
X5.5118Y-2.1752
X5.5118Y-2.2146
X5.5118Y-2.2539
X5.5118Y-2.2933
X5.5118Y-2.3327
X5.5118Y-2.4213
X5.5118Y-2.4803
X5.5118Y-2.5394
X5.5118Y-2.5984
X5.5118Y-2.6575
X5.5118Y-2.7165
X5.5118Y-2.7756
X5.5118Y-2.8346
X5.6892Y-3.1852
X5.7087Y-1.7126
X5.7087Y-2.1063
X5.748Y-2.5098
X6.25Y-1.6457
X6.25Y-2.0768
X6.25Y-2.5118
X6.3666Y-3.2879
X6.3976Y-4.1535
X6.4016Y-2.9685
X6.4488Y-3.0728
T4
X4.0071Y-4.3976
X4.0071Y-4.4488
X4.0071Y-4.5
X4.0465Y-4.4232
X4.0465Y-4.4744
X6.5858Y-4.3976
X6.5858Y-4.4488
X6.5858Y-4.5
X6.6252Y-4.4232
X6.6252Y-4.4744
T5
X5.2057Y-2.5886
X5.2377Y-2.5113
X5.2377Y-2.6658
X5.315Y-2.4793
X5.315Y-2.6978
X5.3922Y-2.5113
X5.3922Y-2.6658
X5.4242Y-2.5886
T6
X4.7874Y-4.4488
X4.8374Y-4.4488
X6.0472Y-4.4488
X6.0972Y-4.4488
T7
X4.0236Y-3.7598
X4.0236Y-3.8386
X4.0236Y-3.9173
X4.0236Y-3.9961
X4.0236Y-4.0748
X4.0236Y-4.1535
X6.6063Y-3.7598
X6.6063Y-3.8386
X6.6063Y-3.9173
X6.6063Y-3.9961
X6.6063Y-4.0748
X6.6063Y-4.1535
T8
X4.1535Y-1.294
X4.1535Y-1.4909
X4.5768Y-1.294
X4.5768Y-1.4909
X5.0Y-1.294
X5.0Y-1.4909
X5.2833Y-4.625
X5.3833Y-4.625
X5.4833Y-4.625
X5.6299Y-1.294
X5.6299Y-1.4909
X6.0531Y-1.294
X6.0531Y-1.4909
X6.4764Y-1.294
X6.4764Y-1.4909
T9
X4.0157Y-4.3081
X4.0157Y-4.5896
X6.5945Y-4.3081
X6.5945Y-4.5896
T10
X5.315Y-2.5886
M30
