M48
; DRILL file {KiCad 7.0.10} date Mo 05 Feb 2024 19:27:10
; FORMAT={-:-/ absolute / inch / decimal}
; #@! TF.CreationDate,2024-02-05T19:27:10+01:00
; #@! TF.GenerationSoftware,Kicad,Pcbnew,7.0.10
; #@! TF.FileFunction,Plated,1,4,PTH
FMAT,2
INCH
; #@! TA.AperFunction,Plated,PTH,ViaDrill
T1C0.0079
; #@! TA.AperFunction,Plated,PTH,ViaDrill
T2C0.0118
; #@! TA.AperFunction,Plated,PTH,ViaDrill
T3C0.0157
; #@! TA.AperFunction,Plated,PTH,ComponentDrill
T4C0.0173
; #@! TA.AperFunction,Plated,PTH,ComponentDrill
T5C0.0256
; #@! TA.AperFunction,Plated,PTH,ComponentDrill
T6C0.0295
; #@! TA.AperFunction,Plated,PTH,ComponentDrill
T7C0.0394
; #@! TA.AperFunction,Plated,PTH,ComponentDrill
T8C0.0531
%
G90
G05
T1
X8.0945Y-1.5138
X8.0945Y-1.7165
X8.0984Y-1.622
X8.1083Y-1.5748
X8.1102Y-1.841
X8.1191Y-1.7933
X8.126Y-1.622
X8.128Y-2.1496
X8.1339Y-1.8268
X8.1339Y-2.7657
X8.1378Y-1.5748
X8.1403Y-1.7486
X8.1415Y-1.7772
X8.1417Y-1.7165
T2
X6.0138Y-2.1063
X6.0138Y-2.1457
X6.0394Y-1.2441
X6.0394Y-1.3228
X6.0531Y-2.1063
X6.0531Y-2.1457
X6.0925Y-2.1063
X6.0925Y-2.1457
X6.1319Y-2.1063
X6.1319Y-2.1457
X6.1417Y-1.2165
X6.1417Y-1.2677
X6.1713Y-2.1063
X6.1713Y-2.1457
X6.2106Y-2.1063
X6.2106Y-2.1457
X6.3937Y-1.3228
X6.4055Y-1.2441
X6.4862Y-2.1043
X6.4862Y-2.1437
X6.497Y-1.2146
X6.497Y-1.2657
X6.5256Y-2.1043
X6.5256Y-2.1437
X6.565Y-2.1043
X6.565Y-2.1437
X6.6043Y-2.1043
X6.6043Y-2.1437
X6.6437Y-2.1043
X6.6437Y-2.1437
X6.6831Y-2.1043
X6.6831Y-2.1437
X6.748Y-1.3228
X6.752Y-1.2441
X6.8514Y-1.2185
X6.8514Y-1.2697
X6.9587Y-2.1024
X6.9587Y-2.1417
X6.998Y-2.1024
X6.998Y-2.1417
X7.0374Y-2.1024
X7.0374Y-2.1417
X7.0768Y-2.1024
X7.0768Y-2.1417
X7.1161Y-2.1024
X7.1161Y-2.1417
X7.1555Y-2.1024
X7.1555Y-2.1417
X7.5679Y-1.5837
X7.5689Y-1.7303
X7.5689Y-1.878
X7.5906Y-2.378
X7.6358Y-2.4695
X7.6378Y-2.3425
X7.6477Y-2.7254
X7.6545Y-1.4921
X7.6732Y-2.6821
X7.7047Y-2.4695
X7.7067Y-2.3425
X7.7283Y-2.2244
X7.7579Y-2.733
X7.7736Y-2.4695
X7.7756Y-2.3425
X7.7835Y-2.6821
X7.7913Y-2.2638
X7.7992Y-1.5433
X7.815Y-2.9134
X7.815Y-2.9724
X7.8189Y-2.6575
X7.8189Y-2.7333
X7.8386Y-2.4016
X7.874Y-2.7333
X7.8905Y-2.2244
X7.8976Y-2.6821
X7.9744Y-2.5276
X7.9823Y-2.6024
X7.9843Y-2.4094
X7.9853Y-2.374
X7.992Y-2.4611
X8.0112Y-2.3931
X8.0118Y-2.5512
X8.0118Y-2.5827
X8.0463Y-2.4331
X8.0647Y-2.4661
X8.065Y-2.2047
X8.1024Y-2.4685
X8.1071Y-2.2037
X8.1083Y-2.1722
X8.1102Y-3.0512
X8.126Y-2.315
X8.126Y-2.3465
X8.126Y-2.378
X8.1299Y-2.5906
X8.1629Y-2.0841
X8.1693Y-2.5906
X8.2047Y-2.5906
X8.2402Y-2.6181
X8.2402Y-2.6528
X8.2697Y-2.6358
X8.2953Y-2.7854
X8.3012Y-2.6575
X8.3051Y-3.0394
X8.3051Y-3.189
X8.3169Y-1.8307
X8.3169Y-2.0374
X8.3169Y-2.4681
X8.3189Y-2.4291
X8.3366Y-2.6575
X8.3504Y-2.0394
X8.354Y-2.1332
X8.4094Y-2.1339
X8.4173Y-2.7913
X8.4173Y-2.8583
X8.4252Y-2.4902
X8.4252Y-2.7165
X8.4449Y-1.8307
X8.4449Y-2.0374
X8.4488Y-2.5335
X8.4626Y-2.1339
X8.4803Y-2.0394
X8.4882Y-2.2953
X8.5039Y-2.3917
X8.5728Y-1.8307
X8.5728Y-2.0374
X8.6063Y-2.0394
T3
X6.0079Y-1.4409
X6.0079Y-1.4902
X6.0079Y-1.5394
X6.0079Y-1.5886
X6.0571Y-1.4409
X6.0571Y-1.4902
X6.0571Y-1.5394
X6.0571Y-1.5886
X6.1063Y-1.4409
X6.1063Y-1.4902
X6.1063Y-1.5394
X6.1063Y-1.5886
X6.1555Y-1.4409
X6.1555Y-1.4902
X6.1555Y-1.5394
X6.1555Y-1.5886
X6.2047Y-1.4409
X6.2047Y-1.4902
X6.2047Y-1.5394
X6.2047Y-1.5886
X6.2539Y-1.4409
X6.2539Y-1.4902
X6.2539Y-1.5394
X6.2539Y-1.5886
X6.4173Y-1.4862
X6.4803Y-1.4409
X6.4803Y-1.4902
X6.4803Y-1.5394
X6.4803Y-1.5886
X6.5295Y-1.4409
X6.5295Y-1.4902
X6.5295Y-1.5394
X6.5295Y-1.5886
X6.5787Y-1.4409
X6.5787Y-1.4902
X6.5787Y-1.5394
X6.5787Y-1.5886
X6.628Y-1.4409
X6.628Y-1.4902
X6.628Y-1.5394
X6.628Y-1.5886
X6.6772Y-1.4409
X6.6772Y-1.4902
X6.6772Y-1.5394
X6.6772Y-1.5886
X6.7264Y-1.4409
X6.7264Y-1.4902
X6.7264Y-1.5394
X6.7264Y-1.5886
X6.8898Y-1.4862
X6.9528Y-1.4409
X6.9528Y-1.4902
X6.9528Y-1.5394
X6.9528Y-1.5886
X7.002Y-1.4409
X7.002Y-1.4902
X7.002Y-1.5394
X7.002Y-1.5886
X7.0512Y-1.4409
X7.0512Y-1.4902
X7.0512Y-1.5394
X7.0512Y-1.5886
X7.1004Y-1.4409
X7.1004Y-1.4902
X7.1004Y-1.5394
X7.1004Y-1.5886
X7.1496Y-1.4409
X7.1496Y-1.4902
X7.1496Y-1.5394
X7.1496Y-1.5886
X7.1988Y-1.4409
X7.1988Y-1.4902
X7.1988Y-1.5394
X7.1988Y-1.5886
X7.3583Y-1.6575
X7.4173Y-1.5571
X7.4291Y-1.6634
X7.4291Y-1.8307
X7.6378Y-1.378
X7.6772Y-1.378
X7.687Y-1.5256
X7.7224Y-1.5256
X7.7441Y-2.8189
X8.1791Y-1.2323
X8.1791Y-1.2717
X8.4094Y-2.0709
X8.4843Y-1.5354
X8.4843Y-1.5748
X8.5925Y-1.7028
X8.6063Y-2.1339
X8.6319Y-1.7028
T4
X7.6396Y-2.9567
X7.6396Y-3.0079
X7.6789Y-2.9311
X7.6789Y-2.9823
X7.6789Y-3.0335
T5
X8.3366Y-2.7197
X8.3366Y-2.7697
T6
X8.6122Y-2.2047
X8.6122Y-2.2835
X8.6122Y-2.3622
X8.6122Y-2.4409
X8.6122Y-2.5197
X8.6122Y-2.5984
T7
X8.622Y-2.9882
X8.622Y-3.0882
X8.622Y-3.1882
T8
X7.6703Y-2.8415
X7.6703Y-3.123
M30
