%TF.GenerationSoftware,KiCad,Pcbnew,7.0.10*%
%TF.CreationDate,2024-02-05T19:27:08+01:00*%
%TF.ProjectId,vesc6,76657363-362e-46b6-9963-61645f706362,rev?*%
%TF.SameCoordinates,Original*%
%TF.FileFunction,Soldermask,Bot*%
%TF.FilePolarity,Negative*%
%FSLAX46Y46*%
G04 Gerber Fmt 4.6, Leading zero omitted, Abs format (unit mm)*
G04 Created by KiCad (PCBNEW 7.0.10) date 2024-02-05 19:27:08*
%MOMM*%
%LPD*%
G01*
G04 APERTURE LIST*
G04 Aperture macros list*
%AMRoundRect*
0 Rectangle with rounded corners*
0 $1 Rounding radius*
0 $2 $3 $4 $5 $6 $7 $8 $9 X,Y pos of 4 corners*
0 Add a 4 corners polygon primitive as box body*
4,1,4,$2,$3,$4,$5,$6,$7,$8,$9,$2,$3,0*
0 Add four circle primitives for the rounded corners*
1,1,$1+$1,$2,$3*
1,1,$1+$1,$4,$5*
1,1,$1+$1,$6,$7*
1,1,$1+$1,$8,$9*
0 Add four rect primitives between the rounded corners*
20,1,$1+$1,$2,$3,$4,$5,0*
20,1,$1+$1,$4,$5,$6,$7,0*
20,1,$1+$1,$6,$7,$8,$9,0*
20,1,$1+$1,$8,$9,$2,$3,0*%
%AMFreePoly0*
4,1,30,0.400000,-4.000000,-0.400000,-4.000000,-2.400000,-4.000000,-2.400000,-3.200000,-0.400000,-3.200000,-0.400000,-2.800000,-2.400000,-2.800000,-2.400000,-2.000000,-0.400000,-2.000000,-0.400000,-1.600000,-2.400000,-1.600000,-2.400000,-0.800000,-0.400000,-0.800000,-0.400000,-0.400000,-2.400000,-0.400000,-2.400000,0.400000,-0.400000,0.400000,-0.400000,0.800000,-2.400000,0.800000,-2.400000,1.600000,
-0.400000,1.600000,-0.400000,2.000000,-2.400000,2.000000,-2.400000,2.800000,-0.400000,2.800000,-0.400000,3.200000,-2.400000,3.200000,-2.400000,4.000000,0.400000,4.000000,0.400000,-4.000000,0.400000,-4.000000,$1*%
%AMFreePoly1*
4,1,13,2.850000,-5.050000,1.450000,-5.050000,1.450000,-4.350000,-1.450000,-4.350000,-1.450000,-4.850000,-5.150000,-4.850000,-5.150000,4.850000,-1.450000,4.850000,-1.450000,4.350000,1.450000,4.350000,1.450000,5.050000,2.850000,5.050000,2.850000,-5.050000,2.850000,-5.050000,$1*%
G04 Aperture macros list end*
%ADD10R,1.000000X1.000000*%
%ADD11O,1.000000X1.000000*%
%ADD12R,1.700000X1.700000*%
%ADD13O,1.700000X1.700000*%
%ADD14RoundRect,0.250000X-0.625000X0.350000X-0.625000X-0.350000X0.625000X-0.350000X0.625000X0.350000X0*%
%ADD15O,1.750000X1.200000*%
%ADD16R,0.840000X0.840000*%
%ADD17C,0.840000*%
%ADD18C,1.850000*%
%ADD19RoundRect,0.225000X-0.250000X0.225000X-0.250000X-0.225000X0.250000X-0.225000X0.250000X0.225000X0*%
%ADD20RoundRect,0.200000X0.200000X0.275000X-0.200000X0.275000X-0.200000X-0.275000X0.200000X-0.275000X0*%
%ADD21RoundRect,0.200000X0.275000X-0.200000X0.275000X0.200000X-0.275000X0.200000X-0.275000X-0.200000X0*%
%ADD22RoundRect,0.150000X-0.512500X-0.150000X0.512500X-0.150000X0.512500X0.150000X-0.512500X0.150000X0*%
%ADD23R,2.950000X1.450000*%
%ADD24R,0.700000X1.450000*%
%ADD25RoundRect,0.250000X0.412500X0.925000X-0.412500X0.925000X-0.412500X-0.925000X0.412500X-0.925000X0*%
%ADD26RoundRect,0.225000X0.250000X-0.225000X0.250000X0.225000X-0.250000X0.225000X-0.250000X-0.225000X0*%
%ADD27RoundRect,0.250000X-0.800000X0.450000X-0.800000X-0.450000X0.800000X-0.450000X0.800000X0.450000X0*%
%ADD28RoundRect,0.250000X0.450000X0.800000X-0.450000X0.800000X-0.450000X-0.800000X0.450000X-0.800000X0*%
%ADD29RoundRect,0.250000X-0.250000X-0.475000X0.250000X-0.475000X0.250000X0.475000X-0.250000X0.475000X0*%
%ADD30RoundRect,0.225000X0.225000X0.250000X-0.225000X0.250000X-0.225000X-0.250000X0.225000X-0.250000X0*%
%ADD31RoundRect,0.250000X-0.650000X0.325000X-0.650000X-0.325000X0.650000X-0.325000X0.650000X0.325000X0*%
%ADD32R,1.500000X3.600000*%
%ADD33R,0.400000X0.650000*%
%ADD34R,0.800000X2.800000*%
%ADD35FreePoly0,90.000000*%
%ADD36FreePoly1,90.000000*%
%ADD37RoundRect,0.200000X-0.275000X0.200000X-0.275000X-0.200000X0.275000X-0.200000X0.275000X0.200000X0*%
%ADD38R,1.550000X0.300000*%
%ADD39R,3.610000X6.350000*%
%ADD40RoundRect,0.250000X0.650000X-0.325000X0.650000X0.325000X-0.650000X0.325000X-0.650000X-0.325000X0*%
%ADD41RoundRect,0.250000X0.475000X-0.250000X0.475000X0.250000X-0.475000X0.250000X-0.475000X-0.250000X0*%
%ADD42RoundRect,0.225000X-0.225000X-0.250000X0.225000X-0.250000X0.225000X0.250000X-0.225000X0.250000X0*%
%ADD43R,1.500000X1.000000*%
%ADD44RoundRect,0.250000X0.250000X0.475000X-0.250000X0.475000X-0.250000X-0.475000X0.250000X-0.475000X0*%
%ADD45RoundRect,0.150000X-0.825000X-0.150000X0.825000X-0.150000X0.825000X0.150000X-0.825000X0.150000X0*%
%ADD46RoundRect,0.200000X-0.200000X-0.275000X0.200000X-0.275000X0.200000X0.275000X-0.200000X0.275000X0*%
G04 APERTURE END LIST*
D10*
%TO.C,TH1*%
X211750000Y-70350000D03*
D11*
X211750000Y-69080000D03*
%TD*%
D12*
%TO.C,J1*%
X219000000Y-80980000D03*
D13*
X219000000Y-78440000D03*
X219000000Y-75900000D03*
%TD*%
D14*
%TO.C,J2*%
X218750000Y-56000000D03*
D15*
X218750000Y-58000000D03*
X218750000Y-60000000D03*
X218750000Y-62000000D03*
X218750000Y-64000000D03*
X218750000Y-66000000D03*
%TD*%
D16*
%TO.C,J6*%
X195045000Y-74450000D03*
D17*
X194045000Y-75100000D03*
X195045000Y-75750000D03*
X194045000Y-76400000D03*
X195045000Y-77050000D03*
D18*
X194825000Y-72175000D03*
X194825000Y-79325000D03*
%TD*%
D19*
%TO.C,C57*%
X206750000Y-78320000D03*
X206750000Y-79870000D03*
%TD*%
D20*
%TO.C,R36*%
X191325000Y-42250000D03*
X189675000Y-42250000D03*
%TD*%
D21*
%TO.C,R11*%
X216800000Y-63025000D03*
X216800000Y-61375000D03*
%TD*%
D22*
%TO.C,U6*%
X216362500Y-38450000D03*
X216362500Y-37500000D03*
X216362500Y-36550000D03*
X218637500Y-36550000D03*
X218637500Y-38450000D03*
%TD*%
D23*
%TO.C,R39*%
X178000000Y-33650000D03*
D24*
X175675000Y-33650000D03*
X175675000Y-31350000D03*
D23*
X178000000Y-31350000D03*
%TD*%
D21*
%TO.C,R43*%
X216500000Y-80125000D03*
X216500000Y-78475000D03*
%TD*%
%TO.C,R34*%
X217750000Y-49075000D03*
X217750000Y-47425000D03*
%TD*%
D25*
%TO.C,C34*%
X213537500Y-34000000D03*
X210462500Y-34000000D03*
%TD*%
D20*
%TO.C,R37*%
X191325000Y-44000000D03*
X189675000Y-44000000D03*
%TD*%
D26*
%TO.C,C53*%
X208200000Y-68375000D03*
X208200000Y-66825000D03*
%TD*%
D20*
%TO.C,R30*%
X214825000Y-66000000D03*
X213175000Y-66000000D03*
%TD*%
D26*
%TO.C,C40*%
X205200000Y-68375000D03*
X205200000Y-66825000D03*
%TD*%
D27*
%TO.C,D9*%
X217000000Y-28300000D03*
X217000000Y-32700000D03*
%TD*%
D28*
%TO.C,D8*%
X207700000Y-29000000D03*
X203300000Y-29000000D03*
%TD*%
D23*
%TO.C,R35*%
X169000000Y-33650000D03*
D24*
X166675000Y-33650000D03*
X166675000Y-31350000D03*
D23*
X169000000Y-31350000D03*
%TD*%
D29*
%TO.C,C17*%
X209750000Y-40750000D03*
X211650000Y-40750000D03*
%TD*%
D30*
%TO.C,C24*%
X198025000Y-34500000D03*
X196475000Y-34500000D03*
%TD*%
D31*
%TO.C,C25*%
X194000000Y-49775000D03*
X194000000Y-52725000D03*
%TD*%
D29*
%TO.C,C16*%
X209750000Y-42750000D03*
X211650000Y-42750000D03*
%TD*%
D30*
%TO.C,C19*%
X204775000Y-33000000D03*
X203225000Y-33000000D03*
%TD*%
D32*
%TO.C,L1*%
X210475000Y-29500000D03*
X213525000Y-29500000D03*
%TD*%
D33*
%TO.C,U8*%
X217850000Y-50800000D03*
X218500000Y-50800000D03*
X219150000Y-50800000D03*
X219150000Y-52700000D03*
X217850000Y-52700000D03*
%TD*%
D23*
%TO.C,R31*%
X160000000Y-33650000D03*
D24*
X157675000Y-33650000D03*
X157675000Y-31350000D03*
D23*
X160000000Y-31350000D03*
%TD*%
D34*
%TO.C,Q7*%
X185200000Y-49250000D03*
D35*
X180400000Y-48250000D03*
D36*
X181000000Y-40200000D03*
%TD*%
D34*
%TO.C,Q5*%
X173200000Y-49250000D03*
D35*
X168400000Y-48250000D03*
D36*
X169000000Y-40200000D03*
%TD*%
D37*
%TO.C,R18*%
X210250000Y-37175000D03*
X210250000Y-38825000D03*
%TD*%
D19*
%TO.C,C52*%
X212750000Y-47475000D03*
X212750000Y-49025000D03*
%TD*%
D30*
%TO.C,C15*%
X204775000Y-31500000D03*
X203225000Y-31500000D03*
%TD*%
D38*
%TO.C,U3*%
X204250000Y-36000000D03*
X204250000Y-36500000D03*
X204250000Y-37000000D03*
X204250000Y-37500000D03*
X204250000Y-38000000D03*
X204250000Y-38500000D03*
X204250000Y-39000000D03*
X204250000Y-39500000D03*
X204250000Y-40000000D03*
X204250000Y-40500000D03*
X204250000Y-41000000D03*
X204250000Y-41500000D03*
X204250000Y-42000000D03*
X204250000Y-42500000D03*
X204250000Y-43000000D03*
X204250000Y-43500000D03*
X204250000Y-44000000D03*
X204250000Y-44500000D03*
X204250000Y-45000000D03*
X204250000Y-45500000D03*
X204250000Y-46000000D03*
X204250000Y-46500000D03*
X204250000Y-47000000D03*
X204250000Y-47500000D03*
X204250000Y-48000000D03*
X204250000Y-48500000D03*
X204250000Y-49000000D03*
X204250000Y-49500000D03*
X196750000Y-49500000D03*
X196750000Y-49000000D03*
X196750000Y-48500000D03*
X196750000Y-48000000D03*
X196750000Y-47500000D03*
X196750000Y-47000000D03*
X196750000Y-46500000D03*
X196750000Y-46000000D03*
X196750000Y-45500000D03*
X196750000Y-45000000D03*
X196750000Y-44500000D03*
X196750000Y-44000000D03*
X196750000Y-43500000D03*
X196750000Y-43000000D03*
X196750000Y-42500000D03*
X196750000Y-42000000D03*
X196750000Y-41500000D03*
X196750000Y-41000000D03*
X196750000Y-40500000D03*
X196750000Y-40000000D03*
X196750000Y-39500000D03*
X196750000Y-39000000D03*
X196750000Y-38500000D03*
X196750000Y-38000000D03*
X196750000Y-37500000D03*
X196750000Y-37000000D03*
X196750000Y-36500000D03*
X196750000Y-36000000D03*
D39*
X200500000Y-42750000D03*
%TD*%
D20*
%TO.C,R42*%
X191325000Y-47500000D03*
X189675000Y-47500000D03*
%TD*%
D40*
%TO.C,C32*%
X194250000Y-36475000D03*
X194250000Y-33525000D03*
%TD*%
D41*
%TO.C,C30*%
X193000000Y-47700000D03*
X193000000Y-45800000D03*
%TD*%
D19*
%TO.C,C3*%
X216800000Y-64425000D03*
X216800000Y-65975000D03*
%TD*%
D20*
%TO.C,R32*%
X191325000Y-38750000D03*
X189675000Y-38750000D03*
%TD*%
D21*
%TO.C,R23*%
X207250000Y-38825000D03*
X207250000Y-37175000D03*
%TD*%
D19*
%TO.C,C26*%
X193950000Y-63950000D03*
X193950000Y-65500000D03*
%TD*%
%TO.C,C22*%
X207950000Y-42225000D03*
X207950000Y-43775000D03*
%TD*%
D20*
%TO.C,R33*%
X191325000Y-40500000D03*
X189675000Y-40500000D03*
%TD*%
D42*
%TO.C,C35*%
X216225000Y-34750000D03*
X217775000Y-34750000D03*
%TD*%
%TO.C,C12*%
X207075000Y-70750000D03*
X208625000Y-70750000D03*
%TD*%
D37*
%TO.C,R19*%
X206250000Y-31425000D03*
X206250000Y-33075000D03*
%TD*%
D33*
%TO.C,U5*%
X193650000Y-67275000D03*
X194300000Y-67275000D03*
X194950000Y-67275000D03*
X194950000Y-69175000D03*
X193650000Y-69175000D03*
%TD*%
D43*
%TO.C,SW1*%
X216200000Y-57300000D03*
X216200000Y-56000000D03*
X216200000Y-54700000D03*
%TD*%
D19*
%TO.C,C39*%
X219250000Y-47475000D03*
X219250000Y-49025000D03*
%TD*%
D20*
%TO.C,R41*%
X191325000Y-45750000D03*
X189675000Y-45750000D03*
%TD*%
D44*
%TO.C,C33*%
X213950000Y-37000000D03*
X212050000Y-37000000D03*
%TD*%
D25*
%TO.C,C37*%
X217037500Y-41000000D03*
X213962500Y-41000000D03*
%TD*%
D44*
%TO.C,C21*%
X205950000Y-51200000D03*
X204050000Y-51200000D03*
%TD*%
D26*
%TO.C,C48*%
X206700000Y-68375000D03*
X206700000Y-66825000D03*
%TD*%
D21*
%TO.C,R40*%
X211250000Y-49075000D03*
X211250000Y-47425000D03*
%TD*%
D41*
%TO.C,C28*%
X193000000Y-40200000D03*
X193000000Y-38300000D03*
%TD*%
D33*
%TO.C,U9*%
X214600000Y-50800000D03*
X215250000Y-50800000D03*
X215900000Y-50800000D03*
X215900000Y-52700000D03*
X214600000Y-52700000D03*
%TD*%
D21*
%TO.C,R38*%
X214500000Y-49075000D03*
X214500000Y-47425000D03*
%TD*%
D19*
%TO.C,C20*%
X197450000Y-63950000D03*
X197450000Y-65500000D03*
%TD*%
D29*
%TO.C,C18*%
X206550000Y-48000000D03*
X208450000Y-48000000D03*
%TD*%
D33*
%TO.C,U4*%
X196450000Y-67275000D03*
X197100000Y-67275000D03*
X197750000Y-67275000D03*
X197750000Y-69175000D03*
X196450000Y-69175000D03*
%TD*%
D19*
%TO.C,C46*%
X216000000Y-47475000D03*
X216000000Y-49025000D03*
%TD*%
D26*
%TO.C,C36*%
X219000000Y-42025000D03*
X219000000Y-40475000D03*
%TD*%
D37*
%TO.C,R17*%
X208750000Y-37175000D03*
X208750000Y-38825000D03*
%TD*%
D45*
%TO.C,U14*%
X209025000Y-81000000D03*
X209025000Y-79730000D03*
X209025000Y-78460000D03*
X209025000Y-77190000D03*
X213975000Y-77190000D03*
X213975000Y-78460000D03*
X213975000Y-79730000D03*
X213975000Y-81000000D03*
%TD*%
D33*
%TO.C,U2*%
X199300000Y-67275000D03*
X199950000Y-67275000D03*
X200600000Y-67275000D03*
X200600000Y-69175000D03*
X199300000Y-69175000D03*
%TD*%
D40*
%TO.C,C31*%
X191750000Y-36475000D03*
X191750000Y-33525000D03*
%TD*%
D19*
%TO.C,C23*%
X195700000Y-63950000D03*
X195700000Y-65500000D03*
%TD*%
D34*
%TO.C,Q3*%
X161200000Y-49250000D03*
D35*
X156400000Y-48250000D03*
D36*
X157000000Y-40200000D03*
%TD*%
D33*
%TO.C,U11*%
X211350000Y-50800000D03*
X212000000Y-50800000D03*
X212650000Y-50800000D03*
X212650000Y-52700000D03*
X211350000Y-52700000D03*
%TD*%
D41*
%TO.C,C29*%
X193000000Y-43950000D03*
X193000000Y-42050000D03*
%TD*%
D46*
%TO.C,R22*%
X203175000Y-34500000D03*
X204825000Y-34500000D03*
%TD*%
G36*
X161943039Y-26319685D02*
G01*
X161988794Y-26372489D01*
X162000000Y-26424000D01*
X162000000Y-29926000D01*
X161980315Y-29993039D01*
X161927511Y-30038794D01*
X161876000Y-30050000D01*
X158124000Y-30050000D01*
X158056961Y-30030315D01*
X158011206Y-29977511D01*
X158000000Y-29926000D01*
X158000000Y-26424000D01*
X158019685Y-26356961D01*
X158072489Y-26311206D01*
X158124000Y-26300000D01*
X161876000Y-26300000D01*
X161943039Y-26319685D01*
G37*
G36*
X169443039Y-51519685D02*
G01*
X169488794Y-51572489D01*
X169500000Y-51624000D01*
X169500000Y-54376000D01*
X169480315Y-54443039D01*
X169427511Y-54488794D01*
X169376000Y-54500000D01*
X167124000Y-54500000D01*
X167056961Y-54480315D01*
X167011206Y-54427511D01*
X167000000Y-54376000D01*
X167000000Y-51624000D01*
X167019685Y-51556961D01*
X167072489Y-51511206D01*
X167124000Y-51500000D01*
X169376000Y-51500000D01*
X169443039Y-51519685D01*
G37*
G36*
X170943039Y-26369685D02*
G01*
X170988794Y-26422489D01*
X171000000Y-26474000D01*
X171000000Y-29976000D01*
X170980315Y-30043039D01*
X170927511Y-30088794D01*
X170876000Y-30100000D01*
X167124000Y-30100000D01*
X167056961Y-30080315D01*
X167011206Y-30027511D01*
X167000000Y-29976000D01*
X167000000Y-26474000D01*
X167019685Y-26406961D01*
X167072489Y-26361206D01*
X167124000Y-26350000D01*
X170876000Y-26350000D01*
X170943039Y-26369685D01*
G37*
G36*
X182443039Y-51519685D02*
G01*
X182488794Y-51572489D01*
X182500000Y-51624000D01*
X182500000Y-54376000D01*
X182480315Y-54443039D01*
X182427511Y-54488794D01*
X182376000Y-54500000D01*
X178124000Y-54500000D01*
X178056961Y-54480315D01*
X178011206Y-54427511D01*
X178000000Y-54376000D01*
X178000000Y-51624000D01*
X178019685Y-51556961D01*
X178072489Y-51511206D01*
X178124000Y-51500000D01*
X182376000Y-51500000D01*
X182443039Y-51519685D01*
G37*
G36*
X156443039Y-51519685D02*
G01*
X156488794Y-51572489D01*
X156500000Y-51624000D01*
X156500000Y-54376000D01*
X156480315Y-54443039D01*
X156427511Y-54488794D01*
X156376000Y-54500000D01*
X154124000Y-54500000D01*
X154056961Y-54480315D01*
X154011206Y-54427511D01*
X154000000Y-54376000D01*
X154000000Y-51624000D01*
X154019685Y-51556961D01*
X154072489Y-51511206D01*
X154124000Y-51500000D01*
X156376000Y-51500000D01*
X156443039Y-51519685D01*
G37*
G36*
X179943039Y-26369685D02*
G01*
X179988794Y-26422489D01*
X180000000Y-26474000D01*
X180000000Y-29976000D01*
X179980315Y-30043039D01*
X179927511Y-30088794D01*
X179876000Y-30100000D01*
X176124000Y-30100000D01*
X176056961Y-30080315D01*
X176011206Y-30027511D01*
X176000000Y-29976000D01*
X176000000Y-26474000D01*
X176019685Y-26406961D01*
X176072489Y-26361206D01*
X176124000Y-26350000D01*
X179876000Y-26350000D01*
X179943039Y-26369685D01*
G37*
M02*
