%TF.GenerationSoftware,KiCad,Pcbnew,7.0.10*%
%TF.CreationDate,2024-02-05T19:27:08+01:00*%
%TF.ProjectId,vesc6,76657363-362e-46b6-9963-61645f706362,rev?*%
%TF.SameCoordinates,Original*%
%TF.FileFunction,Legend,Bot*%
%TF.FilePolarity,Positive*%
%FSLAX46Y46*%
G04 Gerber Fmt 4.6, Leading zero omitted, Abs format (unit mm)*
G04 Created by KiCad (PCBNEW 7.0.10) date 2024-02-05 19:27:08*
%MOMM*%
%LPD*%
G01*
G04 APERTURE LIST*
%ADD10C,0.120000*%
%ADD11C,0.100000*%
%ADD12C,0.150000*%
G04 APERTURE END LIST*
D10*
%TO.C,C57*%
X207260000Y-78954420D02*
X207260000Y-79235580D01*
X206240000Y-78954420D02*
X206240000Y-79235580D01*
%TO.C,R36*%
X190737258Y-42772500D02*
X190262742Y-42772500D01*
X190737258Y-41727500D02*
X190262742Y-41727500D01*
%TO.C,R11*%
X216277500Y-62437258D02*
X216277500Y-61962742D01*
X217322500Y-62437258D02*
X217322500Y-61962742D01*
%TO.C,U6*%
X217500000Y-35940000D02*
X216700000Y-35940000D01*
X217500000Y-35940000D02*
X218300000Y-35940000D01*
X217500000Y-39060000D02*
X215700000Y-39060000D01*
X217500000Y-39060000D02*
X218300000Y-39060000D01*
D11*
%TO.C,R39*%
X175400000Y-32500000D02*
X176200000Y-32500000D01*
X176250000Y-32000000D02*
X176250000Y-30500000D01*
X176250000Y-34500000D02*
X176250000Y-33000000D01*
X179750000Y-32750000D02*
X179750000Y-32250000D01*
D10*
%TO.C,R43*%
X215977500Y-79537258D02*
X215977500Y-79062742D01*
X217022500Y-79537258D02*
X217022500Y-79062742D01*
%TO.C,R34*%
X217227500Y-48487258D02*
X217227500Y-48012742D01*
X218272500Y-48487258D02*
X218272500Y-48012742D01*
%TO.C,C34*%
X214460000Y-35510000D02*
X210250000Y-35510000D01*
X214460000Y-32490000D02*
X214460000Y-35510000D01*
X210250000Y-32490000D02*
X214460000Y-32490000D01*
%TO.C,R37*%
X190737258Y-44522500D02*
X190262742Y-44522500D01*
X190737258Y-43477500D02*
X190262742Y-43477500D01*
%TO.C,C53*%
X207690000Y-67740580D02*
X207690000Y-67459420D01*
X208710000Y-67740580D02*
X208710000Y-67459420D01*
%TO.C,R30*%
X214237258Y-66522500D02*
X213762742Y-66522500D01*
X214237258Y-65477500D02*
X213762742Y-65477500D01*
%TO.C,C40*%
X204690000Y-67740580D02*
X204690000Y-67459420D01*
X205710000Y-67740580D02*
X205710000Y-67459420D01*
%TO.C,D9*%
X218360000Y-27340000D02*
X218360000Y-32400000D01*
X215640000Y-27340000D02*
X218360000Y-27340000D01*
X215640000Y-27340000D02*
X215640000Y-32400000D01*
%TO.C,D8*%
X208660000Y-30360000D02*
X203600000Y-30360000D01*
X208660000Y-27640000D02*
X208660000Y-30360000D01*
X208660000Y-27640000D02*
X203600000Y-27640000D01*
D11*
%TO.C,R35*%
X166400000Y-32500000D02*
X167200000Y-32500000D01*
X167250000Y-32000000D02*
X167250000Y-30500000D01*
X167250000Y-34500000D02*
X167250000Y-33000000D01*
X170750000Y-32750000D02*
X170750000Y-32250000D01*
D10*
%TO.C,C17*%
X210438748Y-40015000D02*
X210961252Y-40015000D01*
X210438748Y-41485000D02*
X210961252Y-41485000D01*
%TO.C,C24*%
X197390580Y-35010000D02*
X197109420Y-35010000D01*
X197390580Y-33990000D02*
X197109420Y-33990000D01*
%TO.C,C25*%
X194910000Y-50538748D02*
X194910000Y-51961252D01*
X193090000Y-50538748D02*
X193090000Y-51961252D01*
%TO.C,C16*%
X210438748Y-42015000D02*
X210961252Y-42015000D01*
X210438748Y-43485000D02*
X210961252Y-43485000D01*
%TO.C,C19*%
X204140580Y-33510000D02*
X203859420Y-33510000D01*
X204140580Y-32490000D02*
X203859420Y-32490000D01*
%TO.C,L1*%
X209615000Y-27390000D02*
X209615000Y-28415000D01*
X209615000Y-27390000D02*
X210640000Y-27390000D01*
X209615000Y-31610000D02*
X209615000Y-30585000D01*
X209615000Y-31610000D02*
X210640000Y-31610000D01*
X214385000Y-27390000D02*
X213360000Y-27390000D01*
X214385000Y-27390000D02*
X214385000Y-28415000D01*
X214385000Y-31610000D02*
X213360000Y-31610000D01*
X214385000Y-31610000D02*
X214385000Y-30585000D01*
%TO.C,U8*%
X219660000Y-51050000D02*
X219660000Y-52450000D01*
X217340000Y-52450000D02*
X217340000Y-50550000D01*
D11*
%TO.C,R31*%
X157400000Y-32500000D02*
X158200000Y-32500000D01*
X158250000Y-32000000D02*
X158250000Y-30500000D01*
X158250000Y-34500000D02*
X158250000Y-33000000D01*
X161750000Y-32750000D02*
X161750000Y-32250000D01*
D10*
%TO.C,Q7*%
X175940000Y-49200000D02*
X175940000Y-38930000D01*
X186060000Y-38930000D02*
X186060000Y-50600000D01*
%TO.C,Q5*%
X163940000Y-49200000D02*
X163940000Y-38930000D01*
X174060000Y-38930000D02*
X174060000Y-50600000D01*
%TO.C,R18*%
X210772500Y-37762742D02*
X210772500Y-38237258D01*
X209727500Y-37762742D02*
X209727500Y-38237258D01*
%TO.C,C52*%
X213260000Y-48109420D02*
X213260000Y-48390580D01*
X212240000Y-48109420D02*
X212240000Y-48390580D01*
%TO.C,C15*%
X204140580Y-32010000D02*
X203859420Y-32010000D01*
X204140580Y-30990000D02*
X203859420Y-30990000D01*
D12*
%TO.C,U3*%
X204750000Y-35550000D02*
X197325000Y-35550000D01*
X203675000Y-49875000D02*
X203675000Y-49867500D01*
X203675000Y-49875000D02*
X197325000Y-49875000D01*
X197325000Y-49875000D02*
X197325000Y-49867500D01*
X197325000Y-35625000D02*
X197325000Y-35632500D01*
D10*
%TO.C,R42*%
X190737258Y-48022500D02*
X190262742Y-48022500D01*
X190737258Y-46977500D02*
X190262742Y-46977500D01*
%TO.C,C32*%
X193340000Y-35711252D02*
X193340000Y-34288748D01*
X195160000Y-35711252D02*
X195160000Y-34288748D01*
%TO.C,C30*%
X192265000Y-47011252D02*
X192265000Y-46488748D01*
X193735000Y-47011252D02*
X193735000Y-46488748D01*
%TO.C,C3*%
X217310000Y-65059420D02*
X217310000Y-65340580D01*
X216290000Y-65059420D02*
X216290000Y-65340580D01*
%TO.C,R32*%
X190737258Y-39272500D02*
X190262742Y-39272500D01*
X190737258Y-38227500D02*
X190262742Y-38227500D01*
%TO.C,R23*%
X206727500Y-38237258D02*
X206727500Y-37762742D01*
X207772500Y-38237258D02*
X207772500Y-37762742D01*
%TO.C,C26*%
X194460000Y-64584420D02*
X194460000Y-64865580D01*
X193440000Y-64584420D02*
X193440000Y-64865580D01*
%TO.C,C22*%
X208460000Y-42859420D02*
X208460000Y-43140580D01*
X207440000Y-42859420D02*
X207440000Y-43140580D01*
%TO.C,R33*%
X190737258Y-41022500D02*
X190262742Y-41022500D01*
X190737258Y-39977500D02*
X190262742Y-39977500D01*
%TO.C,C35*%
X216859420Y-34240000D02*
X217140580Y-34240000D01*
X216859420Y-35260000D02*
X217140580Y-35260000D01*
%TO.C,C12*%
X207709420Y-70240000D02*
X207990580Y-70240000D01*
X207709420Y-71260000D02*
X207990580Y-71260000D01*
%TO.C,R19*%
X206772500Y-32012742D02*
X206772500Y-32487258D01*
X205727500Y-32012742D02*
X205727500Y-32487258D01*
%TO.C,U5*%
X195460000Y-67525000D02*
X195460000Y-68925000D01*
X193140000Y-68925000D02*
X193140000Y-67025000D01*
%TO.C,SW1*%
X215200000Y-58050000D02*
X217200000Y-58050000D01*
X217200000Y-58050000D02*
X217200000Y-53950000D01*
X214700000Y-57600000D02*
X214700000Y-57000000D01*
X215000000Y-57300000D02*
X214700000Y-57600000D01*
X215000000Y-57300000D02*
X214700000Y-57000000D01*
X215200000Y-53950000D02*
X215200000Y-58050000D01*
X217200000Y-53950000D02*
X215200000Y-53950000D01*
%TO.C,C39*%
X219760000Y-48109420D02*
X219760000Y-48390580D01*
X218740000Y-48109420D02*
X218740000Y-48390580D01*
%TO.C,R41*%
X190737258Y-46272500D02*
X190262742Y-46272500D01*
X190737258Y-45227500D02*
X190262742Y-45227500D01*
%TO.C,C33*%
X213261252Y-37735000D02*
X212738748Y-37735000D01*
X213261252Y-36265000D02*
X212738748Y-36265000D01*
%TO.C,C37*%
X217960000Y-42510000D02*
X213750000Y-42510000D01*
X217960000Y-39490000D02*
X217960000Y-42510000D01*
X213750000Y-39490000D02*
X217960000Y-39490000D01*
%TO.C,C21*%
X205261252Y-51935000D02*
X204738748Y-51935000D01*
X205261252Y-50465000D02*
X204738748Y-50465000D01*
%TO.C,C48*%
X206190000Y-67740580D02*
X206190000Y-67459420D01*
X207210000Y-67740580D02*
X207210000Y-67459420D01*
%TO.C,R40*%
X210727500Y-48487258D02*
X210727500Y-48012742D01*
X211772500Y-48487258D02*
X211772500Y-48012742D01*
%TO.C,C28*%
X192265000Y-39511252D02*
X192265000Y-38988748D01*
X193735000Y-39511252D02*
X193735000Y-38988748D01*
%TO.C,U9*%
X216410000Y-51050000D02*
X216410000Y-52450000D01*
X214090000Y-52450000D02*
X214090000Y-50550000D01*
%TO.C,R38*%
X213977500Y-48487258D02*
X213977500Y-48012742D01*
X215022500Y-48487258D02*
X215022500Y-48012742D01*
%TO.C,C20*%
X197960000Y-64584420D02*
X197960000Y-64865580D01*
X196940000Y-64584420D02*
X196940000Y-64865580D01*
%TO.C,C18*%
X207238748Y-47265000D02*
X207761252Y-47265000D01*
X207238748Y-48735000D02*
X207761252Y-48735000D01*
%TO.C,U4*%
X198260000Y-67525000D02*
X198260000Y-68925000D01*
X195940000Y-68925000D02*
X195940000Y-67025000D01*
%TO.C,C46*%
X216510000Y-48109420D02*
X216510000Y-48390580D01*
X215490000Y-48109420D02*
X215490000Y-48390580D01*
%TO.C,C36*%
X218490000Y-41390580D02*
X218490000Y-41109420D01*
X219510000Y-41390580D02*
X219510000Y-41109420D01*
%TO.C,R17*%
X209272500Y-37762742D02*
X209272500Y-38237258D01*
X208227500Y-37762742D02*
X208227500Y-38237258D01*
%TO.C,U14*%
X211500000Y-76535000D02*
X209550000Y-76535000D01*
X211500000Y-76535000D02*
X213450000Y-76535000D01*
X211500000Y-81655000D02*
X208050000Y-81655000D01*
X211500000Y-81655000D02*
X213450000Y-81655000D01*
%TO.C,U2*%
X201110000Y-67525000D02*
X201110000Y-68925000D01*
X198790000Y-68925000D02*
X198790000Y-67025000D01*
%TO.C,C31*%
X190840000Y-35711252D02*
X190840000Y-34288748D01*
X192660000Y-35711252D02*
X192660000Y-34288748D01*
%TO.C,C23*%
X196210000Y-64584420D02*
X196210000Y-64865580D01*
X195190000Y-64584420D02*
X195190000Y-64865580D01*
%TO.C,Q3*%
X151940000Y-49200000D02*
X151940000Y-38930000D01*
X162060000Y-38930000D02*
X162060000Y-50600000D01*
%TO.C,U11*%
X213160000Y-51050000D02*
X213160000Y-52450000D01*
X210840000Y-52450000D02*
X210840000Y-50550000D01*
%TO.C,C29*%
X192265000Y-43261252D02*
X192265000Y-42738748D01*
X193735000Y-43261252D02*
X193735000Y-42738748D01*
%TO.C,R22*%
X203762742Y-33977500D02*
X204237258Y-33977500D01*
X203762742Y-35022500D02*
X204237258Y-35022500D01*
%TD*%
M02*
