%TF.GenerationSoftware,KiCad,Pcbnew,7.0.10*%
%TF.CreationDate,2024-02-05T19:27:08+01:00*%
%TF.ProjectId,vesc6,76657363-362e-46b6-9963-61645f706362,rev?*%
%TF.SameCoordinates,Original*%
%TF.FileFunction,Copper,L2,Inr*%
%TF.FilePolarity,Positive*%
%FSLAX46Y46*%
G04 Gerber Fmt 4.6, Leading zero omitted, Abs format (unit mm)*
G04 Created by KiCad (PCBNEW 7.0.10) date 2024-02-05 19:27:08*
%MOMM*%
%LPD*%
G01*
G04 APERTURE LIST*
G04 Aperture macros list*
%AMRoundRect*
0 Rectangle with rounded corners*
0 $1 Rounding radius*
0 $2 $3 $4 $5 $6 $7 $8 $9 X,Y pos of 4 corners*
0 Add a 4 corners polygon primitive as box body*
4,1,4,$2,$3,$4,$5,$6,$7,$8,$9,$2,$3,0*
0 Add four circle primitives for the rounded corners*
1,1,$1+$1,$2,$3*
1,1,$1+$1,$4,$5*
1,1,$1+$1,$6,$7*
1,1,$1+$1,$8,$9*
0 Add four rect primitives between the rounded corners*
20,1,$1+$1,$2,$3,$4,$5,0*
20,1,$1+$1,$4,$5,$6,$7,0*
20,1,$1+$1,$6,$7,$8,$9,0*
20,1,$1+$1,$8,$9,$2,$3,0*%
G04 Aperture macros list end*
%TA.AperFunction,ComponentPad*%
%ADD10R,1.000000X1.000000*%
%TD*%
%TA.AperFunction,ComponentPad*%
%ADD11O,1.000000X1.000000*%
%TD*%
%TA.AperFunction,ComponentPad*%
%ADD12R,1.700000X1.700000*%
%TD*%
%TA.AperFunction,ComponentPad*%
%ADD13O,1.700000X1.700000*%
%TD*%
%TA.AperFunction,ComponentPad*%
%ADD14RoundRect,0.250000X-0.625000X0.350000X-0.625000X-0.350000X0.625000X-0.350000X0.625000X0.350000X0*%
%TD*%
%TA.AperFunction,ComponentPad*%
%ADD15O,1.750000X1.200000*%
%TD*%
%TA.AperFunction,ComponentPad*%
%ADD16R,0.840000X0.840000*%
%TD*%
%TA.AperFunction,ComponentPad*%
%ADD17C,0.840000*%
%TD*%
%TA.AperFunction,ComponentPad*%
%ADD18C,1.850000*%
%TD*%
%TA.AperFunction,ViaPad*%
%ADD19C,0.600000*%
%TD*%
%TA.AperFunction,ViaPad*%
%ADD20C,0.800000*%
%TD*%
%TA.AperFunction,ViaPad*%
%ADD21C,0.500000*%
%TD*%
%TA.AperFunction,Conductor*%
%ADD22C,0.250000*%
%TD*%
%TA.AperFunction,Conductor*%
%ADD23C,1.200000*%
%TD*%
%TA.AperFunction,Conductor*%
%ADD24C,0.400000*%
%TD*%
%TA.AperFunction,Conductor*%
%ADD25C,0.800000*%
%TD*%
%TA.AperFunction,Conductor*%
%ADD26C,0.600000*%
%TD*%
G04 APERTURE END LIST*
D10*
%TO.N,/VESC_Right/3.3V*%
%TO.C,TH1*%
X211750000Y-70350000D03*
D11*
%TO.N,/VESC_Right/MCU/ADC_TEMP*%
X211750000Y-69080000D03*
%TD*%
D12*
%TO.N,/VESC_Right/CAN_H*%
%TO.C,J1*%
X219000000Y-80980000D03*
D13*
%TO.N,/VESC_Right/CAN_L*%
X219000000Y-78440000D03*
%TO.N,GND*%
X219000000Y-75900000D03*
%TD*%
D14*
%TO.N,Net-(J2-Pin_1)*%
%TO.C,J2*%
X218750000Y-56000000D03*
D15*
%TO.N,/VESC_Right/MCU/HALL_1*%
X218750000Y-58000000D03*
%TO.N,/VESC_Right/MCU/HALL_2*%
X218750000Y-60000000D03*
%TO.N,/VESC_Right/MCU/HALL_3*%
X218750000Y-62000000D03*
%TO.N,/VESC_Right/MCU/TEMP_MOTOR*%
X218750000Y-64000000D03*
%TO.N,GND*%
X218750000Y-66000000D03*
%TD*%
D16*
%TO.N,Net-(J6-VBUS)*%
%TO.C,J6*%
X195045000Y-74450000D03*
D17*
%TO.N,Net-(J6-D-)*%
X194045000Y-75100000D03*
%TO.N,Net-(J6-D+)*%
X195045000Y-75750000D03*
%TO.N,unconnected-(J6-ID-Pad4)*%
X194045000Y-76400000D03*
%TO.N,GND*%
X195045000Y-77050000D03*
D18*
X194825000Y-72175000D03*
X194825000Y-79325000D03*
%TD*%
D19*
%TO.N,GND*%
X177750000Y-54400000D03*
X178750000Y-53400000D03*
X178750000Y-54400000D03*
X154750000Y-53500000D03*
X179750000Y-53400000D03*
X154750000Y-54500000D03*
X166750000Y-54450000D03*
X200600000Y-68125000D03*
X180750000Y-54400000D03*
X156750000Y-53500000D03*
X152750000Y-54500000D03*
X194900000Y-68125000D03*
X176750000Y-53400000D03*
X153750000Y-54500000D03*
X181750000Y-54400000D03*
X177750000Y-53400000D03*
X176750000Y-54400000D03*
X169750000Y-53450000D03*
X181750000Y-53400000D03*
X167750000Y-54450000D03*
X156750000Y-54500000D03*
X164750000Y-54450000D03*
X197700000Y-68125000D03*
X168750000Y-54450000D03*
X157750000Y-53500000D03*
X155750000Y-54500000D03*
X164750000Y-53450000D03*
X157750000Y-54500000D03*
X179750000Y-54400000D03*
X169750000Y-54450000D03*
X152750000Y-53500000D03*
X165750000Y-53450000D03*
X180750000Y-53400000D03*
X167750000Y-53450000D03*
X155750000Y-53500000D03*
X153750000Y-53500000D03*
X168750000Y-53450000D03*
X165750000Y-54450000D03*
X166750000Y-53450000D03*
%TO.N,/VESC_Right/MCU/TEMP_MOTOR*%
X214000000Y-63250000D03*
D20*
%TO.N,/VESC_Right/3.3V*%
X219250000Y-43250000D03*
D19*
X214000000Y-69000000D03*
X198100000Y-39200000D03*
X218600000Y-51800000D03*
X171500000Y-31600000D03*
X200419830Y-56500000D03*
X194250500Y-69225000D03*
X206000000Y-77500000D03*
X216000000Y-60750000D03*
X197050500Y-69417883D03*
D20*
X218250000Y-43250000D03*
D19*
X212100000Y-51800000D03*
X198600000Y-69425000D03*
X162700000Y-31600000D03*
X215400000Y-51800000D03*
X210700000Y-70750000D03*
X153400000Y-31600000D03*
X214600000Y-64350000D03*
X198600000Y-67500000D03*
X215600000Y-58300000D03*
%TO.N,/VESC_Right/MCU/NRST*%
X203500000Y-64800000D03*
X197900000Y-57500000D03*
D21*
X206600000Y-70250000D03*
D19*
%TO.N,/VESC_Right/DRV8301/SENS_A*%
X197450000Y-62725000D03*
X209301887Y-67381997D03*
%TO.N,/VESC_Right/DRV8301/SENS_B*%
X195700000Y-62725000D03*
X210050000Y-66950000D03*
D20*
%TO.N,/VESC_Right/DRV8301/Supply_Filterted*%
X195000000Y-35000000D03*
X194000000Y-35000000D03*
D19*
%TO.N,/VESC_Right/DRV8301/SENS_C*%
X193950000Y-62725000D03*
X210850000Y-67500000D03*
D20*
%TO.N,Net-(D8-K)*%
X195250000Y-38750000D03*
X207750000Y-31300000D03*
X207750000Y-32300000D03*
X196150000Y-38750000D03*
D19*
%TO.N,Net-(U3-BST_BK)*%
X194425000Y-37900000D03*
D20*
%TO.N,/VESC_Right/SH_A*%
X153850000Y-36600000D03*
X155100000Y-40350000D03*
X156350000Y-40350000D03*
X152600000Y-36600000D03*
X155100000Y-36600000D03*
X157600000Y-36600000D03*
X155100000Y-37850000D03*
X153850000Y-40350000D03*
X153850000Y-39100000D03*
X152600000Y-37850000D03*
X158850000Y-40350000D03*
X156350000Y-39100000D03*
X152600000Y-39100000D03*
X157600000Y-37850000D03*
X155100000Y-39100000D03*
X158850000Y-36600000D03*
X158850000Y-39100000D03*
X158850000Y-37850000D03*
X156350000Y-36600000D03*
X157600000Y-40350000D03*
D19*
X197500000Y-59500000D03*
D20*
X156350000Y-37850000D03*
X152600000Y-40350000D03*
D19*
X192225000Y-40225000D03*
D20*
X157600000Y-39100000D03*
X153850000Y-37850000D03*
%TO.N,/VESC_Right/DRV8301/SH_B*%
X164600000Y-39100000D03*
X165850000Y-36600000D03*
X164600000Y-37850000D03*
X165850000Y-37850000D03*
X168350000Y-40350000D03*
D19*
X192250000Y-43950000D03*
D20*
X168350000Y-37850000D03*
X165850000Y-40350000D03*
X167100000Y-39100000D03*
X169600000Y-36600000D03*
X164600000Y-40350000D03*
X169600000Y-40350000D03*
X169600000Y-39100000D03*
X167100000Y-36600000D03*
X165850000Y-39100000D03*
X168350000Y-36600000D03*
D19*
X195750000Y-59500000D03*
D20*
X169600000Y-37850000D03*
X170850000Y-36600000D03*
X167100000Y-40350000D03*
X170850000Y-40350000D03*
X168350000Y-39100000D03*
X170850000Y-37850000D03*
X170850000Y-39100000D03*
X164600000Y-36600000D03*
X167100000Y-37850000D03*
%TO.N,/VESC_Right/DRV8301/SH_C*%
X182850000Y-40350000D03*
X179100000Y-40350000D03*
X181600000Y-36600000D03*
X180350000Y-36600000D03*
X177850000Y-40350000D03*
X180350000Y-40350000D03*
X180350000Y-37850000D03*
X179100000Y-39100000D03*
X181600000Y-37850000D03*
X182850000Y-36600000D03*
X177850000Y-39100000D03*
X182850000Y-39100000D03*
D19*
X192250000Y-47700000D03*
D20*
X177850000Y-37850000D03*
X176600000Y-40350000D03*
X180350000Y-39100000D03*
X175000000Y-37750000D03*
X176600000Y-39100000D03*
X176600000Y-36600000D03*
X181600000Y-39100000D03*
X182850000Y-37850000D03*
X179100000Y-36600000D03*
X177850000Y-36600000D03*
D19*
X194000000Y-59500000D03*
D20*
X188700000Y-42250000D03*
X181600000Y-40350000D03*
X179100000Y-37850000D03*
X176600000Y-37850000D03*
%TO.N,/VESC_Right/5V*%
X196700000Y-71600000D03*
X218600000Y-54200000D03*
X215500000Y-39000000D03*
X215500000Y-40000000D03*
D19*
X192800000Y-60400000D03*
%TO.N,/VESC_Right/MCU/CURRENT_1*%
X206500000Y-65800000D03*
X217750000Y-51750000D03*
%TO.N,/VESC_Right/MCU/CURRENT_2*%
X214500000Y-51750000D03*
X207500000Y-65800000D03*
%TO.N,/VESC_Right/MCU/CURRENT_3*%
X211250000Y-51750000D03*
X208400000Y-65800000D03*
D20*
%TO.N,Net-(J2-Pin_1)*%
X213600000Y-52600000D03*
D19*
%TO.N,/VESC_Right/MCU/HALL_3*%
X212191084Y-54182039D03*
%TO.N,/VESC_Right/MCU/HALL_2*%
X213600000Y-54200000D03*
%TO.N,/VESC_Right/MCU/HALL_1*%
X214949998Y-54200000D03*
%TO.N,/VESC_Right/DRV8301/SENS_SUPPLY*%
X199100000Y-61000000D03*
X209300000Y-66500000D03*
X196300000Y-56500000D03*
D20*
%TO.N,Net-(Q2-G)*%
X163000000Y-37750000D03*
X188400000Y-39550000D03*
%TO.N,Net-(Q6-G)*%
X186900000Y-42100000D03*
X188700000Y-46500000D03*
D19*
%TO.N,/VESC_Right/MCU/USB_D_P*%
X198500000Y-75500000D03*
X204843649Y-62638514D03*
%TO.N,/VESC_Right/MCU/USB_D_N*%
X198500000Y-74000000D03*
X205800000Y-62700000D03*
%TO.N,/VESC_Right/MCU/LED_GREEN*%
X213800000Y-72600000D03*
X211250000Y-62690456D03*
%TO.N,/VESC_Right/MCU/LED_RED*%
X213800000Y-70900000D03*
X211300000Y-61700000D03*
%TO.N,/VESC_Right/MCU/ADC_TEMP*%
X211750000Y-67500000D03*
%TO.N,/VESC_Right/Power/C_A*%
X217750000Y-46500000D03*
X153400000Y-33600000D03*
%TO.N,/VESC_Right/Power/C_B*%
X214500000Y-46500000D03*
X162400000Y-33600000D03*
%TO.N,/VESC_Right/Power/C_C*%
X171400000Y-33600000D03*
X211250000Y-46500000D03*
%TO.N,/VESC_Right/DRV8301/SENS_FILTERED*%
X200000000Y-69425000D03*
%TO.N,/VESC_Right/DRV8301/INL_A*%
X206400000Y-60400000D03*
D21*
X206763909Y-44413909D03*
D19*
%TO.N,/VESC_Right/DRV8301/INL_B*%
X206400000Y-59599997D03*
D21*
X206226055Y-45550000D03*
D19*
%TO.N,/VESC_Right/DRV8301/INL_C*%
X206400000Y-58799994D03*
D21*
X206000000Y-46760723D03*
%TO.N,/VESC_Right/DRV8301/CS*%
X206700000Y-40000000D03*
X206450000Y-54600000D03*
D19*
%TO.N,/VESC_Right/DRV8301/INH_A*%
X205950981Y-55174043D03*
D21*
X206800000Y-43600000D03*
%TO.N,/VESC_Right/DRV8301/INH_B*%
X206794004Y-45140634D03*
D19*
X205920797Y-55972975D03*
%TO.N,/VESC_Right/DRV8301/INH_C*%
X204850000Y-56000000D03*
D21*
X206600000Y-46400000D03*
D19*
%TO.N,/VESC_Right/DRV8301/SCLK*%
X202825500Y-60300000D03*
D21*
X205700000Y-41200000D03*
D19*
%TO.N,/VESC_Right/MCU/CURR_FILTER_ON*%
X202800000Y-61200000D03*
X207336397Y-52936397D03*
%TO.N,/VESC_Right/DRV8301/SDO*%
X203484256Y-60785514D03*
D21*
X206400000Y-41200000D03*
D19*
%TO.N,/VESC_Right/DRV8301/SDI*%
X202997239Y-62510819D03*
D21*
X205950500Y-40000000D03*
%TO.N,/VESC_Right/DRV8301/EN_GATE*%
X205600000Y-43599500D03*
D19*
X204375000Y-61800000D03*
D21*
%TO.N,/VESC_Right/DRV8301/FAULT*%
X205600000Y-38450500D03*
D19*
X202550000Y-64200000D03*
%TO.N,/VESC_Right/CAN/RX*%
X203500000Y-65600003D03*
X210950000Y-77200000D03*
%TO.N,/VESC_Right/CAN/TX*%
X202750000Y-66100000D03*
X210950000Y-81000000D03*
%TO.N,Net-(U7-IN-)*%
X156000000Y-30900000D03*
%TO.N,Net-(U7-IN+)*%
X156000000Y-32200000D03*
%TO.N,Net-(U10-IN-)*%
X165025000Y-30850000D03*
%TO.N,Net-(U10-IN+)*%
X165025000Y-32150000D03*
%TO.N,Net-(U12-IN-)*%
X174025000Y-30950000D03*
%TO.N,Net-(U12-IN+)*%
X174025000Y-32250000D03*
%TD*%
D22*
%TO.N,/VESC_Right/MCU/NRST*%
X201750000Y-63350000D02*
X201100000Y-62700000D01*
X201100000Y-62700000D02*
X201100000Y-60300000D01*
X203500000Y-64800000D02*
X203475000Y-64825000D01*
X201750000Y-64283884D02*
X201750000Y-63350000D01*
X201100000Y-60300000D02*
X198300000Y-57500000D01*
X202291116Y-64825000D02*
X201750000Y-64283884D01*
X203475000Y-64825000D02*
X202291116Y-64825000D01*
X198300000Y-57500000D02*
X197900000Y-57500000D01*
%TO.N,/VESC_Right/DRV8301/SENS_A*%
X209183884Y-67500000D02*
X202300000Y-67500000D01*
X209301887Y-67381997D02*
X209183884Y-67500000D01*
X202300000Y-67500000D02*
X197525000Y-62725000D01*
X197525000Y-62725000D02*
X197450000Y-62725000D01*
%TO.N,/VESC_Right/DRV8301/SENS_B*%
X210050000Y-66950000D02*
X210050000Y-67570611D01*
X210050000Y-67570611D02*
X209576031Y-68044580D01*
X202144580Y-68044580D02*
X197450000Y-63350000D01*
X197450000Y-63350000D02*
X196325000Y-63350000D01*
X209576031Y-68044580D02*
X202144580Y-68044580D01*
X196325000Y-63350000D02*
X195700000Y-62725000D01*
%TO.N,/VESC_Right/DRV8301/SENS_C*%
X209855420Y-68494580D02*
X201844580Y-68494580D01*
X201225000Y-67866116D02*
X197358884Y-64000000D01*
X197358884Y-64000000D02*
X195225000Y-64000000D01*
X201844580Y-68494580D02*
X201225000Y-67875000D01*
X201225000Y-67875000D02*
X201225000Y-67866116D01*
X210850000Y-67500000D02*
X209855420Y-68494580D01*
X195225000Y-64000000D02*
X193950000Y-62725000D01*
D23*
%TO.N,Net-(D8-K)*%
X196150000Y-37050000D02*
X196150000Y-38750000D01*
X196150000Y-38750000D02*
X195250000Y-38750000D01*
X200900000Y-32300000D02*
X196150000Y-37050000D01*
X207750000Y-32300000D02*
X200900000Y-32300000D01*
X207750000Y-32300000D02*
X207750000Y-31300000D01*
D24*
%TO.N,/VESC_Right/SH_A*%
X192975000Y-49450000D02*
X169700000Y-49450000D01*
X160600000Y-40350000D02*
X158850000Y-40350000D01*
X194025000Y-48400000D02*
X192975000Y-49450000D01*
X194025000Y-42025000D02*
X194025000Y-48400000D01*
X192225000Y-40225000D02*
X194025000Y-42025000D01*
X169700000Y-49450000D02*
X160600000Y-40350000D01*
%TO.N,/VESC_Right/DRV8301/SH_B*%
X192250000Y-43950000D02*
X193150000Y-44850000D01*
X192575000Y-48625000D02*
X180875000Y-48625000D01*
X193150000Y-48050000D02*
X192575000Y-48625000D01*
X193150000Y-44850000D02*
X193150000Y-48050000D01*
X180875000Y-48625000D02*
X172600000Y-40350000D01*
X172600000Y-40350000D02*
X170850000Y-40350000D01*
D25*
%TO.N,/VESC_Right/DRV8301/SH_C*%
X175300000Y-35850000D02*
X186500000Y-35850000D01*
D24*
X184300000Y-44900000D02*
X184300000Y-40250000D01*
D25*
X175000000Y-37750000D02*
X175000000Y-36150000D01*
X187100000Y-36450000D02*
X187100000Y-40650000D01*
D24*
X187100000Y-47700000D02*
X184300000Y-44900000D01*
D25*
X187100000Y-40650000D02*
X188700000Y-42250000D01*
D24*
X182950000Y-40250000D02*
X182850000Y-40350000D01*
D25*
X186500000Y-35850000D02*
X187100000Y-36450000D01*
X175000000Y-36150000D02*
X175300000Y-35850000D01*
D24*
X184300000Y-40250000D02*
X182950000Y-40250000D01*
X192250000Y-47700000D02*
X187100000Y-47700000D01*
D25*
%TO.N,/VESC_Right/5V*%
X215500000Y-39000000D02*
X215500000Y-42800000D01*
X215500000Y-42800000D02*
X217000000Y-44300000D01*
X219400000Y-53400000D02*
X218600000Y-54200000D01*
X217000000Y-44300000D02*
X219900000Y-47200000D01*
X219900000Y-47200000D02*
X219900000Y-53400000D01*
X219900000Y-53400000D02*
X219400000Y-53400000D01*
D22*
%TO.N,/VESC_Right/MCU/CURRENT_1*%
X206500000Y-65550000D02*
X208800000Y-63250000D01*
X208800000Y-63250000D02*
X208800000Y-51600000D01*
X209900000Y-50500000D02*
X216500000Y-50500000D01*
X216500000Y-50500000D02*
X217750000Y-51750000D01*
X206500000Y-65800000D02*
X206500000Y-65550000D01*
X208800000Y-51600000D02*
X209900000Y-50500000D01*
%TO.N,/VESC_Right/MCU/CURRENT_2*%
X209400000Y-51850000D02*
X210125000Y-51125000D01*
X207500000Y-65800000D02*
X207500000Y-65600000D01*
X207500000Y-65600000D02*
X209400000Y-63700000D01*
X209400000Y-63700000D02*
X209400000Y-51850000D01*
X213875000Y-51125000D02*
X214500000Y-51750000D01*
X210125000Y-51125000D02*
X213875000Y-51125000D01*
%TO.N,/VESC_Right/MCU/CURRENT_3*%
X210000000Y-64500000D02*
X210000000Y-52300000D01*
X210550000Y-51750000D02*
X211250000Y-51750000D01*
X208700000Y-65800000D02*
X210000000Y-64500000D01*
X210000000Y-52300000D02*
X210550000Y-51750000D01*
X208400000Y-65800000D02*
X208700000Y-65800000D01*
D26*
%TO.N,Net-(J2-Pin_1)*%
X214200000Y-53200000D02*
X215950000Y-53200000D01*
X213600000Y-52600000D02*
X214200000Y-53200000D01*
X215950000Y-53200000D02*
X218750000Y-56000000D01*
D22*
%TO.N,/VESC_Right/MCU/HALL_3*%
X212834045Y-54825000D02*
X213425000Y-54825000D01*
X213425000Y-54825000D02*
X216800000Y-58200000D01*
X216800000Y-60400000D02*
X218400000Y-62000000D01*
X218400000Y-62000000D02*
X218750000Y-62000000D01*
X212191084Y-54182039D02*
X212834045Y-54825000D01*
X216800000Y-58200000D02*
X216800000Y-60400000D01*
%TO.N,/VESC_Right/MCU/HALL_2*%
X217400000Y-59200000D02*
X218200000Y-60000000D01*
X213600000Y-54200000D02*
X217400000Y-58000000D01*
X217400000Y-58000000D02*
X217400000Y-59200000D01*
X218200000Y-60000000D02*
X218750000Y-60000000D01*
%TO.N,/VESC_Right/MCU/HALL_1*%
X218566046Y-58000000D02*
X218750000Y-58000000D01*
X214949998Y-54383952D02*
X218566046Y-58000000D01*
X214949998Y-54200000D02*
X214949998Y-54383952D01*
%TO.N,/VESC_Right/DRV8301/SENS_SUPPLY*%
X208750000Y-67050000D02*
X202486396Y-67050000D01*
X209300000Y-66500000D02*
X208750000Y-67050000D01*
X199100000Y-63663604D02*
X199100000Y-61000000D01*
X199100000Y-60216116D02*
X196300000Y-57416116D01*
X202486396Y-67050000D02*
X199100000Y-63663604D01*
X199100000Y-61000000D02*
X199100000Y-60216116D01*
X196300000Y-57416116D02*
X196300000Y-56500000D01*
D25*
%TO.N,Net-(Q2-G)*%
X187000000Y-34500000D02*
X188400000Y-35900000D01*
X163000000Y-35700000D02*
X164200000Y-34500000D01*
X188400000Y-35900000D02*
X188400000Y-39550000D01*
X163000000Y-37750000D02*
X163000000Y-35700000D01*
X164200000Y-34500000D02*
X187000000Y-34500000D01*
%TO.N,Net-(Q6-G)*%
X188700000Y-43900000D02*
X186900000Y-42100000D01*
X188700000Y-46500000D02*
X188700000Y-43900000D01*
D22*
%TO.N,/VESC_Right/MCU/LED_GREEN*%
X212900000Y-69600000D02*
X212900000Y-64340456D01*
X213800000Y-72600000D02*
X212900000Y-71700000D01*
X212900000Y-64340456D02*
X211250000Y-62690456D01*
X212900000Y-71700000D02*
X212900000Y-69600000D01*
%TO.N,/VESC_Right/MCU/LED_RED*%
X213375000Y-70475000D02*
X213375000Y-63775000D01*
X213800000Y-70900000D02*
X213375000Y-70475000D01*
X213375000Y-63775000D02*
X211300000Y-61700000D01*
%TO.N,/VESC_Right/Power/C_A*%
X216950000Y-45700000D02*
X217750000Y-46500000D01*
X210100000Y-28300000D02*
X213600000Y-31800000D01*
X155100000Y-32900000D02*
X155100000Y-29600000D01*
X213600000Y-45400000D02*
X213900000Y-45700000D01*
X213600000Y-31800000D02*
X213600000Y-45400000D01*
X213900000Y-45700000D02*
X216950000Y-45700000D01*
X154400000Y-33600000D02*
X155100000Y-32900000D01*
X153400000Y-33600000D02*
X154400000Y-33600000D01*
X155100000Y-29600000D02*
X156400000Y-28300000D01*
X156400000Y-28300000D02*
X210100000Y-28300000D01*
%TO.N,/VESC_Right/Power/C_B*%
X209650000Y-29100000D02*
X212700000Y-32150000D01*
X163900000Y-30200000D02*
X165100000Y-29000000D01*
X212700000Y-32150000D02*
X212700000Y-45800000D01*
X213400000Y-46500000D02*
X214500000Y-46500000D01*
X162900000Y-33600000D02*
X163900000Y-32600000D01*
X163900000Y-32600000D02*
X163900000Y-30200000D01*
X162400000Y-33600000D02*
X162900000Y-33600000D01*
X165100000Y-29000000D02*
X209550000Y-29000000D01*
X212700000Y-45800000D02*
X213400000Y-46500000D01*
X209550000Y-29000000D02*
X209650000Y-29100000D01*
%TO.N,/VESC_Right/Power/C_C*%
X173600000Y-29700000D02*
X208900000Y-29700000D01*
X211900000Y-46100000D02*
X211500000Y-46500000D01*
X172400000Y-30900000D02*
X173600000Y-29700000D01*
X171400000Y-33600000D02*
X171800000Y-33600000D01*
X208900000Y-29700000D02*
X211900000Y-32700000D01*
X211900000Y-32700000D02*
X211900000Y-46100000D01*
X211500000Y-46500000D02*
X211250000Y-46500000D01*
X172400000Y-33000000D02*
X172400000Y-30900000D01*
X171800000Y-33600000D02*
X172400000Y-33000000D01*
%TO.N,/VESC_Right/DRV8301/INL_A*%
X203294830Y-57994830D02*
X203294830Y-47505170D01*
X205700000Y-60400000D02*
X203294830Y-57994830D01*
X206400000Y-60400000D02*
X205700000Y-60400000D01*
X203294830Y-47505170D02*
X206386091Y-44413909D01*
X206386091Y-44413909D02*
X206763909Y-44413909D01*
%TO.N,/VESC_Right/DRV8301/INL_B*%
X205599997Y-59599997D02*
X203744830Y-57744830D01*
X203744830Y-48032281D02*
X206226055Y-45551056D01*
X203744830Y-57744830D02*
X203744830Y-48032281D01*
X206400000Y-59599997D02*
X205599997Y-59599997D01*
X206226055Y-45551056D02*
X206226055Y-45550000D01*
%TO.N,/VESC_Right/DRV8301/INL_C*%
X204194830Y-48565893D02*
X206000000Y-46760723D01*
X206400000Y-58799994D02*
X205499994Y-58799994D01*
X204194830Y-57494830D02*
X204194830Y-48565893D01*
X205499994Y-58799994D02*
X204194830Y-57494830D01*
%TO.N,/VESC_Right/DRV8301/CS*%
X208100000Y-40400000D02*
X207700000Y-40000000D01*
X206200000Y-54350000D02*
X206200000Y-49300000D01*
X206200000Y-49300000D02*
X208100000Y-47400000D01*
X207700000Y-40000000D02*
X206700000Y-40000000D01*
X208100000Y-47400000D02*
X208100000Y-40400000D01*
X206450000Y-54600000D02*
X206200000Y-54350000D01*
%TO.N,/VESC_Right/DRV8301/INH_A*%
X207625000Y-44425000D02*
X207625000Y-47221688D01*
X207625000Y-47221688D02*
X205700000Y-49146688D01*
X206800000Y-43600000D02*
X207625000Y-44425000D01*
X205700000Y-54923062D02*
X205950981Y-55174043D01*
X205700000Y-49146688D02*
X205700000Y-54923062D01*
%TO.N,/VESC_Right/DRV8301/INH_B*%
X207175000Y-45521630D02*
X206794004Y-45140634D01*
X205200000Y-55306946D02*
X205200000Y-49010292D01*
X207175000Y-47035292D02*
X207175000Y-45521630D01*
X205866029Y-55972975D02*
X205200000Y-55306946D01*
X205920797Y-55972975D02*
X205866029Y-55972975D01*
X205200000Y-49010292D02*
X207175000Y-47035292D01*
%TO.N,/VESC_Right/DRV8301/INH_C*%
X206600000Y-46400000D02*
X206600000Y-46973896D01*
X204700000Y-55850000D02*
X204850000Y-56000000D01*
X206600000Y-46973896D02*
X204700000Y-48873896D01*
X204700000Y-48873896D02*
X204700000Y-55850000D01*
%TO.N,/VESC_Right/DRV8301/SCLK*%
X201944830Y-58922038D02*
X201944830Y-44955170D01*
X202825500Y-59802708D02*
X201944830Y-58922038D01*
X202825500Y-60300000D02*
X202825500Y-59802708D01*
X201944830Y-44955170D02*
X205700000Y-41200000D01*
%TO.N,/VESC_Right/MCU/CURR_FILTER_ON*%
X204400000Y-63500000D02*
X206300000Y-63500000D01*
X206300000Y-63500000D02*
X207336397Y-62463603D01*
X202800000Y-61200000D02*
X203700000Y-62100000D01*
X203700000Y-62800000D02*
X204400000Y-63500000D01*
X207336397Y-62463603D02*
X207336397Y-52936397D01*
X203700000Y-62100000D02*
X203700000Y-62800000D01*
%TO.N,/VESC_Right/DRV8301/SDO*%
X202394830Y-58644830D02*
X202394830Y-45318343D01*
X203484256Y-60785514D02*
X203484256Y-59734256D01*
X206400000Y-41313173D02*
X206400000Y-41200000D01*
X203484256Y-59734256D02*
X202394830Y-58644830D01*
X202394830Y-45318343D02*
X206400000Y-41313173D01*
%TO.N,/VESC_Right/DRV8301/SDI*%
X202150000Y-61663580D02*
X202150000Y-59763604D01*
X201494830Y-44455670D02*
X205950500Y-40000000D01*
X202150000Y-59763604D02*
X201494830Y-59108434D01*
X202997239Y-62510819D02*
X202150000Y-61663580D01*
X201494830Y-59108434D02*
X201494830Y-44455670D01*
%TO.N,/VESC_Right/DRV8301/EN_GATE*%
X202844830Y-58458434D02*
X202844830Y-46354670D01*
X204375000Y-59988604D02*
X202844830Y-58458434D01*
X202844830Y-46354670D02*
X205600000Y-43599500D01*
X204375000Y-61800000D02*
X204375000Y-59988604D01*
%TO.N,/VESC_Right/DRV8301/FAULT*%
X205375500Y-38675000D02*
X205600000Y-38450500D01*
X205375500Y-39938604D02*
X205375500Y-38675000D01*
X201044830Y-59294830D02*
X201044830Y-44269274D01*
X202550000Y-63200000D02*
X201681802Y-62331802D01*
X201681802Y-62331802D02*
X201681802Y-59931802D01*
X201681802Y-59931802D02*
X201044830Y-59294830D01*
X201044830Y-44269274D02*
X205375500Y-39938604D01*
X202550000Y-64200000D02*
X202550000Y-63200000D01*
%TD*%
%TA.AperFunction,Conductor*%
%TO.N,/VESC_Right/SH_A*%
G36*
X160459191Y-36018907D02*
G01*
X160495155Y-36068407D01*
X160500000Y-36099000D01*
X160500000Y-39500000D01*
X161201000Y-39500000D01*
X161259191Y-39518907D01*
X161295155Y-39568407D01*
X161300000Y-39599000D01*
X161300000Y-40901000D01*
X161281093Y-40959191D01*
X161231593Y-40995155D01*
X161201000Y-41000000D01*
X152099000Y-41000000D01*
X152040809Y-40981093D01*
X152004845Y-40931593D01*
X152000000Y-40901000D01*
X152000000Y-36099000D01*
X152018907Y-36040809D01*
X152068407Y-36004845D01*
X152099000Y-36000000D01*
X160401000Y-36000000D01*
X160459191Y-36018907D01*
G37*
%TD.AperFunction*%
%TD*%
%TA.AperFunction,Conductor*%
%TO.N,GND*%
G36*
X193000000Y-27824500D02*
G01*
X156461771Y-27824500D01*
X156440727Y-27822237D01*
X156434271Y-27820833D01*
X156434270Y-27820833D01*
X156386526Y-27824248D01*
X156379463Y-27824500D01*
X156365980Y-27824500D01*
X156352642Y-27826417D01*
X156345626Y-27827172D01*
X156297889Y-27830587D01*
X156297883Y-27830588D01*
X156291690Y-27832898D01*
X156271202Y-27838127D01*
X156264665Y-27839067D01*
X156264654Y-27839070D01*
X156221131Y-27858946D01*
X156214604Y-27861650D01*
X156169771Y-27878371D01*
X156164479Y-27882333D01*
X156146294Y-27893123D01*
X156140282Y-27895869D01*
X156104123Y-27927200D01*
X156098629Y-27931628D01*
X156087818Y-27939721D01*
X156078281Y-27949258D01*
X156073117Y-27954066D01*
X156036943Y-27985413D01*
X156033375Y-27990965D01*
X156020097Y-28007442D01*
X154807442Y-29220097D01*
X154790965Y-29233375D01*
X154785413Y-29236943D01*
X154754066Y-29273117D01*
X154749258Y-29278281D01*
X154739721Y-29287818D01*
X154731628Y-29298629D01*
X154727200Y-29304123D01*
X154695869Y-29340282D01*
X154693123Y-29346294D01*
X154682333Y-29364479D01*
X154678371Y-29369772D01*
X154678370Y-29369774D01*
X154661648Y-29414606D01*
X154658945Y-29421133D01*
X154639068Y-29464657D01*
X154638127Y-29471203D01*
X154632899Y-29491688D01*
X154630589Y-29497881D01*
X154630588Y-29497886D01*
X154627172Y-29545621D01*
X154626419Y-29552633D01*
X154624500Y-29565989D01*
X154624500Y-29579466D01*
X154624248Y-29586529D01*
X154620833Y-29634271D01*
X154622237Y-29640727D01*
X154624500Y-29661771D01*
X154624500Y-32662033D01*
X154605593Y-32720224D01*
X154595504Y-32732037D01*
X154232037Y-33095504D01*
X154177520Y-33123281D01*
X154162033Y-33124500D01*
X153881783Y-33124500D01*
X153823592Y-33105593D01*
X153816134Y-33099603D01*
X153772241Y-33060718D01*
X153772240Y-33060717D01*
X153657889Y-33000700D01*
X153632364Y-32987303D01*
X153478987Y-32949500D01*
X153478985Y-32949500D01*
X153321015Y-32949500D01*
X153321012Y-32949500D01*
X153167635Y-32987303D01*
X153027758Y-33060718D01*
X152909515Y-33165471D01*
X152819780Y-33295476D01*
X152763763Y-33443182D01*
X152763762Y-33443183D01*
X152744722Y-33599998D01*
X152744722Y-33600001D01*
X152763762Y-33756816D01*
X152763765Y-33756825D01*
X152805130Y-33865894D01*
X152808087Y-33927008D01*
X152774557Y-33978188D01*
X152717347Y-33999884D01*
X152712564Y-34000000D01*
X151099500Y-34000000D01*
X151041309Y-33981093D01*
X151005345Y-33931593D01*
X151000500Y-33901000D01*
X151000500Y-31600001D01*
X152744722Y-31600001D01*
X152763762Y-31756816D01*
X152763763Y-31756818D01*
X152797387Y-31845477D01*
X152819780Y-31904523D01*
X152909515Y-32034528D01*
X152909516Y-32034529D01*
X152909517Y-32034530D01*
X153027760Y-32139283D01*
X153167635Y-32212696D01*
X153321015Y-32250500D01*
X153321018Y-32250500D01*
X153478982Y-32250500D01*
X153478985Y-32250500D01*
X153632365Y-32212696D01*
X153772240Y-32139283D01*
X153890483Y-32034530D01*
X153980220Y-31904523D01*
X154036237Y-31756818D01*
X154055278Y-31600000D01*
X154054534Y-31593876D01*
X154038563Y-31462340D01*
X154036237Y-31443182D01*
X153980220Y-31295477D01*
X153890483Y-31165470D01*
X153772240Y-31060717D01*
X153676395Y-31010413D01*
X153632364Y-30987303D01*
X153478987Y-30949500D01*
X153478985Y-30949500D01*
X153321015Y-30949500D01*
X153321012Y-30949500D01*
X153167635Y-30987303D01*
X153027758Y-31060718D01*
X152909515Y-31165471D01*
X152819780Y-31295476D01*
X152763763Y-31443182D01*
X152763762Y-31443183D01*
X152744722Y-31599998D01*
X152744722Y-31600001D01*
X151000500Y-31600001D01*
X151000500Y-26099500D01*
X151019407Y-26041309D01*
X151068907Y-26005345D01*
X151099500Y-26000500D01*
X193000000Y-26000500D01*
X193000000Y-27824500D01*
G37*
%TD.AperFunction*%
%TA.AperFunction,Conductor*%
G36*
X193000000Y-34000000D02*
G01*
X187607726Y-34000000D01*
X187549535Y-33981093D01*
X187544090Y-33976838D01*
X187510839Y-33948937D01*
X187504471Y-33943103D01*
X187499774Y-33938406D01*
X187477978Y-33921173D01*
X187475140Y-33918928D01*
X187472983Y-33917172D01*
X187415214Y-33868698D01*
X187415212Y-33868697D01*
X187415210Y-33868695D01*
X187415206Y-33868692D01*
X187414365Y-33868270D01*
X187397417Y-33857473D01*
X187396682Y-33856892D01*
X187396673Y-33856886D01*
X187328372Y-33825037D01*
X187325782Y-33823783D01*
X187258437Y-33789962D01*
X187258436Y-33789961D01*
X187258433Y-33789960D01*
X187258428Y-33789958D01*
X187258426Y-33789958D01*
X187257523Y-33789744D01*
X187238525Y-33783140D01*
X187237677Y-33782744D01*
X187237670Y-33782742D01*
X187163849Y-33767499D01*
X187161040Y-33766876D01*
X187103088Y-33753142D01*
X187087721Y-33749500D01*
X187087720Y-33749500D01*
X187086791Y-33749500D01*
X187066771Y-33747455D01*
X187065854Y-33747265D01*
X186990526Y-33749458D01*
X186987646Y-33749500D01*
X172561966Y-33749500D01*
X172503775Y-33730593D01*
X172467811Y-33681093D01*
X172467811Y-33619907D01*
X172491962Y-33580497D01*
X172629276Y-33443182D01*
X172692554Y-33379903D01*
X172709038Y-33366622D01*
X172714589Y-33363055D01*
X172745940Y-33326871D01*
X172750730Y-33321727D01*
X172760279Y-33312180D01*
X172768377Y-33301359D01*
X172772783Y-33295893D01*
X172804130Y-33259718D01*
X172806872Y-33253713D01*
X172817672Y-33235510D01*
X172821629Y-33230226D01*
X172838354Y-33185380D01*
X172841055Y-33178862D01*
X172860929Y-33135346D01*
X172860928Y-33135346D01*
X172860931Y-33135342D01*
X172861870Y-33128803D01*
X172867105Y-33108295D01*
X172869411Y-33102115D01*
X172872825Y-33054380D01*
X172873581Y-33047356D01*
X172875308Y-33035343D01*
X172875500Y-33034011D01*
X172875500Y-33020532D01*
X172875752Y-33013469D01*
X172877389Y-32990578D01*
X172879167Y-32965729D01*
X172877762Y-32959269D01*
X172875500Y-32938226D01*
X172875500Y-31137966D01*
X172894407Y-31079775D01*
X172904496Y-31067963D01*
X173214851Y-30757607D01*
X173269368Y-30729829D01*
X173329800Y-30739400D01*
X173373065Y-30782665D01*
X173383133Y-30839542D01*
X173369722Y-30949997D01*
X173369722Y-30950001D01*
X173388762Y-31106816D01*
X173388763Y-31106818D01*
X173400576Y-31137966D01*
X173444780Y-31254523D01*
X173534515Y-31384528D01*
X173534516Y-31384529D01*
X173534517Y-31384530D01*
X173652760Y-31489283D01*
X173696691Y-31512340D01*
X173739430Y-31556125D01*
X173748270Y-31616668D01*
X173719835Y-31670845D01*
X173696691Y-31687660D01*
X173652758Y-31710718D01*
X173534515Y-31815471D01*
X173444780Y-31945476D01*
X173388763Y-32093182D01*
X173388762Y-32093183D01*
X173369722Y-32249998D01*
X173369722Y-32250001D01*
X173388762Y-32406816D01*
X173388763Y-32406817D01*
X173444780Y-32554523D01*
X173534515Y-32684528D01*
X173534516Y-32684529D01*
X173534517Y-32684530D01*
X173652760Y-32789283D01*
X173792635Y-32862696D01*
X173946015Y-32900500D01*
X173946018Y-32900500D01*
X174103982Y-32900500D01*
X174103985Y-32900500D01*
X174257365Y-32862696D01*
X174397240Y-32789283D01*
X174515483Y-32684530D01*
X174605220Y-32554523D01*
X174661237Y-32406818D01*
X174680217Y-32250500D01*
X174680278Y-32250001D01*
X174680278Y-32249998D01*
X174661237Y-32093183D01*
X174661237Y-32093182D01*
X174605220Y-31945477D01*
X174515483Y-31815470D01*
X174397240Y-31710717D01*
X174353306Y-31687658D01*
X174310570Y-31643876D01*
X174301729Y-31583333D01*
X174330163Y-31529156D01*
X174353305Y-31512342D01*
X174397240Y-31489283D01*
X174515483Y-31384530D01*
X174605220Y-31254523D01*
X174661237Y-31106818D01*
X174680278Y-30950000D01*
X174680217Y-30949500D01*
X174661808Y-30797885D01*
X174661237Y-30793182D01*
X174605220Y-30645477D01*
X174530304Y-30536942D01*
X174515484Y-30515471D01*
X174397241Y-30410718D01*
X174397240Y-30410717D01*
X174304722Y-30362159D01*
X174261985Y-30318376D01*
X174253144Y-30257832D01*
X174281579Y-30203655D01*
X174336427Y-30176539D01*
X174350731Y-30175500D01*
X193000000Y-30175500D01*
X193000000Y-34000000D01*
G37*
%TD.AperFunction*%
%TD*%
%TA.AperFunction,Conductor*%
%TO.N,GND*%
G36*
X220958691Y-26019407D02*
G01*
X220994655Y-26068907D01*
X220999500Y-26099500D01*
X220999500Y-85900500D01*
X220980593Y-85958691D01*
X220931093Y-85994655D01*
X220900500Y-85999500D01*
X192099500Y-85999500D01*
X192041309Y-85980593D01*
X192005345Y-85931093D01*
X192000500Y-85900500D01*
X192000500Y-81854672D01*
X217899500Y-81854672D01*
X217899501Y-81854684D01*
X217914033Y-81927736D01*
X217914035Y-81927742D01*
X217969397Y-82010599D01*
X217969399Y-82010601D01*
X218052260Y-82065966D01*
X218107808Y-82077015D01*
X218125315Y-82080498D01*
X218125320Y-82080498D01*
X218125326Y-82080500D01*
X218125327Y-82080500D01*
X219874673Y-82080500D01*
X219874674Y-82080500D01*
X219947740Y-82065966D01*
X220030601Y-82010601D01*
X220085966Y-81927740D01*
X220100500Y-81854674D01*
X220100500Y-80105326D01*
X220085966Y-80032260D01*
X220030601Y-79949399D01*
X220030599Y-79949397D01*
X219947742Y-79894035D01*
X219947740Y-79894034D01*
X219947737Y-79894033D01*
X219947736Y-79894033D01*
X219874684Y-79879501D01*
X219874674Y-79879500D01*
X218125326Y-79879500D01*
X218125325Y-79879500D01*
X218125315Y-79879501D01*
X218052263Y-79894033D01*
X218052257Y-79894035D01*
X217969400Y-79949397D01*
X217969397Y-79949400D01*
X217914035Y-80032257D01*
X217914033Y-80032263D01*
X217899501Y-80105315D01*
X217899500Y-80105327D01*
X217899500Y-81854672D01*
X192000500Y-81854672D01*
X192000500Y-81000000D01*
X210394750Y-81000000D01*
X210413669Y-81143708D01*
X210413670Y-81143709D01*
X210469139Y-81277625D01*
X210557379Y-81392621D01*
X210672375Y-81480861D01*
X210806291Y-81536330D01*
X210950000Y-81555250D01*
X211093709Y-81536330D01*
X211227625Y-81480861D01*
X211342621Y-81392621D01*
X211430861Y-81277625D01*
X211486330Y-81143709D01*
X211505250Y-81000000D01*
X211486330Y-80856291D01*
X211430861Y-80722375D01*
X211342621Y-80607379D01*
X211227625Y-80519139D01*
X211227621Y-80519137D01*
X211093709Y-80463670D01*
X211093708Y-80463669D01*
X210950000Y-80444750D01*
X210806291Y-80463669D01*
X210806290Y-80463670D01*
X210672378Y-80519137D01*
X210672374Y-80519139D01*
X210557381Y-80607377D01*
X210557377Y-80607381D01*
X210469139Y-80722374D01*
X210469137Y-80722378D01*
X210413670Y-80856290D01*
X210413669Y-80856291D01*
X210394750Y-80999999D01*
X210394750Y-81000000D01*
X192000500Y-81000000D01*
X192000500Y-79325000D01*
X193644966Y-79325000D01*
X193665058Y-79541830D01*
X193724652Y-79751279D01*
X193821711Y-79946200D01*
X193821716Y-79946209D01*
X193879622Y-80022888D01*
X194239881Y-79662627D01*
X194265406Y-79711260D01*
X194374104Y-79833956D01*
X194486174Y-79911312D01*
X194124327Y-80273160D01*
X194299015Y-80381322D01*
X194502070Y-80459987D01*
X194716120Y-80500000D01*
X194933880Y-80500000D01*
X195147929Y-80459987D01*
X195350986Y-80381322D01*
X195350991Y-80381319D01*
X195525672Y-80273161D01*
X195163824Y-79911313D01*
X195275896Y-79833956D01*
X195384594Y-79711260D01*
X195410117Y-79662628D01*
X195770377Y-80022888D01*
X195828281Y-79946213D01*
X195828286Y-79946204D01*
X195925347Y-79751279D01*
X195984941Y-79541830D01*
X196005033Y-79325000D01*
X195984941Y-79108169D01*
X195925347Y-78898720D01*
X195828288Y-78703799D01*
X195828283Y-78703790D01*
X195770377Y-78627110D01*
X195410117Y-78987369D01*
X195384594Y-78938740D01*
X195275896Y-78816044D01*
X195163822Y-78738686D01*
X195462509Y-78440000D01*
X217894785Y-78440000D01*
X217913603Y-78643083D01*
X217969418Y-78839250D01*
X218060327Y-79021821D01*
X218183236Y-79184579D01*
X218333959Y-79321981D01*
X218507363Y-79429348D01*
X218697544Y-79503024D01*
X218898024Y-79540500D01*
X219101976Y-79540500D01*
X219302456Y-79503024D01*
X219492637Y-79429348D01*
X219666041Y-79321981D01*
X219816764Y-79184579D01*
X219939673Y-79021821D01*
X220030582Y-78839250D01*
X220086397Y-78643083D01*
X220105215Y-78440000D01*
X220086397Y-78236917D01*
X220030582Y-78040750D01*
X219939673Y-77858179D01*
X219816764Y-77695421D01*
X219666041Y-77558019D01*
X219492637Y-77450652D01*
X219302456Y-77376976D01*
X219302455Y-77376975D01*
X219302453Y-77376975D01*
X219101976Y-77339500D01*
X218898024Y-77339500D01*
X218697546Y-77376975D01*
X218676240Y-77385229D01*
X218507363Y-77450652D01*
X218333959Y-77558019D01*
X218183237Y-77695420D01*
X218060328Y-77858177D01*
X218060323Y-77858186D01*
X217969419Y-78040747D01*
X217969418Y-78040750D01*
X217913603Y-78236917D01*
X217894785Y-78440000D01*
X195462509Y-78440000D01*
X195525672Y-78376837D01*
X195350988Y-78268678D01*
X195350986Y-78268677D01*
X195147929Y-78190012D01*
X194933880Y-78150000D01*
X194716120Y-78150000D01*
X194502070Y-78190012D01*
X194299013Y-78268677D01*
X194299011Y-78268678D01*
X194124326Y-78376837D01*
X194486175Y-78738686D01*
X194374104Y-78816044D01*
X194265406Y-78938740D01*
X194239882Y-78987371D01*
X193879621Y-78627110D01*
X193821720Y-78703784D01*
X193821711Y-78703799D01*
X193724652Y-78898720D01*
X193665058Y-79108169D01*
X193644966Y-79325000D01*
X192000500Y-79325000D01*
X192000500Y-77631414D01*
X194711073Y-77631414D01*
X194805668Y-77681061D01*
X194805671Y-77681062D01*
X194963644Y-77719999D01*
X194963650Y-77720000D01*
X195126350Y-77720000D01*
X195126355Y-77719999D01*
X195284328Y-77681062D01*
X195284331Y-77681061D01*
X195378926Y-77631414D01*
X195247512Y-77500000D01*
X205444750Y-77500000D01*
X205463669Y-77643708D01*
X205463670Y-77643709D01*
X205519139Y-77777625D01*
X205607379Y-77892621D01*
X205722375Y-77980861D01*
X205856291Y-78036330D01*
X206000000Y-78055250D01*
X206143709Y-78036330D01*
X206277625Y-77980861D01*
X206392621Y-77892621D01*
X206480861Y-77777625D01*
X206536330Y-77643709D01*
X206555250Y-77500000D01*
X206536330Y-77356291D01*
X206480861Y-77222375D01*
X206463692Y-77200000D01*
X210394750Y-77200000D01*
X210413669Y-77343708D01*
X210413670Y-77343709D01*
X210457966Y-77450652D01*
X210469139Y-77477625D01*
X210557379Y-77592621D01*
X210672375Y-77680861D01*
X210806291Y-77736330D01*
X210950000Y-77755250D01*
X211093709Y-77736330D01*
X211227625Y-77680861D01*
X211342621Y-77592621D01*
X211430861Y-77477625D01*
X211486330Y-77343709D01*
X211505250Y-77200000D01*
X211486330Y-77056291D01*
X211430861Y-76922375D01*
X211342621Y-76807379D01*
X211227625Y-76719139D01*
X211227621Y-76719137D01*
X211093709Y-76663670D01*
X211093708Y-76663669D01*
X210950000Y-76644750D01*
X210806291Y-76663669D01*
X210806290Y-76663670D01*
X210672378Y-76719137D01*
X210672374Y-76719139D01*
X210557381Y-76807377D01*
X210557377Y-76807381D01*
X210469139Y-76922374D01*
X210469137Y-76922378D01*
X210413670Y-77056290D01*
X210413669Y-77056291D01*
X210394750Y-77199999D01*
X210394750Y-77200000D01*
X206463692Y-77200000D01*
X206392621Y-77107379D01*
X206277625Y-77019139D01*
X206277621Y-77019137D01*
X206143709Y-76963670D01*
X206143708Y-76963669D01*
X206000000Y-76944750D01*
X205856291Y-76963669D01*
X205856290Y-76963670D01*
X205722378Y-77019137D01*
X205722374Y-77019139D01*
X205607381Y-77107377D01*
X205607377Y-77107381D01*
X205519139Y-77222374D01*
X205519137Y-77222378D01*
X205463670Y-77356290D01*
X205463669Y-77356291D01*
X205444750Y-77499999D01*
X205444750Y-77500000D01*
X195247512Y-77500000D01*
X195045000Y-77297487D01*
X194711073Y-77631414D01*
X192000500Y-77631414D01*
X192000500Y-76400000D01*
X193369575Y-76400000D01*
X193389202Y-76561638D01*
X193389202Y-76561639D01*
X193446941Y-76713886D01*
X193539435Y-76847888D01*
X193661314Y-76955864D01*
X193719382Y-76986340D01*
X193805491Y-77031533D01*
X193963587Y-77070500D01*
X193963590Y-77070500D01*
X194126410Y-77070500D01*
X194126413Y-77070500D01*
X194256915Y-77038334D01*
X194317939Y-77042766D01*
X194364704Y-77082221D01*
X194378885Y-77122524D01*
X194389690Y-77211517D01*
X194389691Y-77211518D01*
X194447387Y-77363650D01*
X194447390Y-77363654D01*
X194462281Y-77385229D01*
X194826873Y-77020638D01*
X194821317Y-77073510D01*
X194850218Y-77162457D01*
X194912798Y-77231960D01*
X194998238Y-77270000D01*
X195068123Y-77270000D01*
X195136481Y-77255470D01*
X195212144Y-77200498D01*
X195258907Y-77119503D01*
X195266212Y-77050000D01*
X195292487Y-77050000D01*
X195627717Y-77385229D01*
X195642612Y-77363651D01*
X195700308Y-77211518D01*
X195700309Y-77211517D01*
X195719921Y-77050001D01*
X195719921Y-77049998D01*
X195700309Y-76888482D01*
X195700308Y-76888481D01*
X195642612Y-76736348D01*
X195642609Y-76736343D01*
X195627718Y-76714769D01*
X195292487Y-77050000D01*
X195266212Y-77050000D01*
X195268683Y-77026490D01*
X195239782Y-76937543D01*
X195177202Y-76868040D01*
X195091762Y-76830000D01*
X195021877Y-76830000D01*
X195016336Y-76831177D01*
X195045001Y-76802513D01*
X195378925Y-76468585D01*
X195375602Y-76446754D01*
X195373069Y-76444159D01*
X195364228Y-76383615D01*
X195392662Y-76329438D01*
X195415808Y-76312622D01*
X195428685Y-76305864D01*
X195550563Y-76197890D01*
X195635388Y-76075000D01*
X217911504Y-76075000D01*
X217914097Y-76102990D01*
X217969887Y-76299070D01*
X218060750Y-76481548D01*
X218060755Y-76481557D01*
X218183608Y-76644240D01*
X218334266Y-76781582D01*
X218507581Y-76888895D01*
X218507586Y-76888898D01*
X218697683Y-76962541D01*
X218824999Y-76986340D01*
X218825000Y-76986340D01*
X218825000Y-76369753D01*
X218857685Y-76384680D01*
X218964237Y-76400000D01*
X219035763Y-76400000D01*
X219142315Y-76384680D01*
X219175000Y-76369753D01*
X219175000Y-76986340D01*
X219302316Y-76962541D01*
X219492413Y-76888898D01*
X219492418Y-76888895D01*
X219665733Y-76781582D01*
X219816391Y-76644240D01*
X219939244Y-76481557D01*
X219939249Y-76481548D01*
X220030112Y-76299070D01*
X220085902Y-76102990D01*
X220088496Y-76075000D01*
X219469724Y-76075000D01*
X219500000Y-75971889D01*
X219500000Y-75828111D01*
X219469724Y-75725000D01*
X220088496Y-75725000D01*
X220085902Y-75697009D01*
X220030112Y-75500929D01*
X219939249Y-75318451D01*
X219939244Y-75318442D01*
X219816391Y-75155759D01*
X219665733Y-75018417D01*
X219492418Y-74911104D01*
X219492413Y-74911101D01*
X219302316Y-74837458D01*
X219175000Y-74813658D01*
X219175000Y-75430246D01*
X219142315Y-75415320D01*
X219035763Y-75400000D01*
X218964237Y-75400000D01*
X218857685Y-75415320D01*
X218825000Y-75430246D01*
X218825000Y-74813659D01*
X218824999Y-74813658D01*
X218697683Y-74837458D01*
X218507586Y-74911101D01*
X218507581Y-74911104D01*
X218334266Y-75018417D01*
X218183608Y-75155759D01*
X218060755Y-75318442D01*
X218060750Y-75318451D01*
X217969887Y-75500929D01*
X217914097Y-75697009D01*
X217911504Y-75725000D01*
X218530276Y-75725000D01*
X218500000Y-75828111D01*
X218500000Y-75971889D01*
X218530276Y-76075000D01*
X217911504Y-76075000D01*
X195635388Y-76075000D01*
X195643059Y-76063886D01*
X195700798Y-75911640D01*
X195720425Y-75750000D01*
X195700798Y-75588360D01*
X195667288Y-75500000D01*
X197944750Y-75500000D01*
X197963669Y-75643708D01*
X197963670Y-75643709D01*
X198015345Y-75768467D01*
X198019139Y-75777625D01*
X198107379Y-75892621D01*
X198222375Y-75980861D01*
X198356291Y-76036330D01*
X198500000Y-76055250D01*
X198643709Y-76036330D01*
X198777625Y-75980861D01*
X198892621Y-75892621D01*
X198980861Y-75777625D01*
X199036330Y-75643709D01*
X199055250Y-75500000D01*
X199044101Y-75415320D01*
X199036330Y-75356291D01*
X198980861Y-75222375D01*
X198892621Y-75107379D01*
X198777625Y-75019139D01*
X198777621Y-75019137D01*
X198643709Y-74963670D01*
X198643708Y-74963669D01*
X198500000Y-74944750D01*
X198356291Y-74963669D01*
X198356290Y-74963670D01*
X198222378Y-75019137D01*
X198222374Y-75019139D01*
X198107381Y-75107377D01*
X198107377Y-75107381D01*
X198019139Y-75222374D01*
X198019137Y-75222378D01*
X197963670Y-75356290D01*
X197963669Y-75356291D01*
X197944750Y-75499999D01*
X197944750Y-75500000D01*
X195667288Y-75500000D01*
X195643059Y-75436114D01*
X195587961Y-75356290D01*
X195550564Y-75302111D01*
X195521306Y-75276191D01*
X195490287Y-75223451D01*
X195496192Y-75162551D01*
X195536766Y-75116753D01*
X195553947Y-75110207D01*
X195553735Y-75109695D01*
X195562734Y-75105967D01*
X195562740Y-75105966D01*
X195645601Y-75050601D01*
X195700966Y-74967740D01*
X195715500Y-74894674D01*
X195715500Y-74005326D01*
X195714440Y-74000000D01*
X197944750Y-74000000D01*
X197963669Y-74143708D01*
X197963670Y-74143709D01*
X198019139Y-74277625D01*
X198107379Y-74392621D01*
X198222375Y-74480861D01*
X198356291Y-74536330D01*
X198500000Y-74555250D01*
X198643709Y-74536330D01*
X198777625Y-74480861D01*
X198892621Y-74392621D01*
X198980861Y-74277625D01*
X199036330Y-74143709D01*
X199055250Y-74000000D01*
X199036330Y-73856291D01*
X198980861Y-73722375D01*
X198892621Y-73607379D01*
X198777625Y-73519139D01*
X198777621Y-73519137D01*
X198643709Y-73463670D01*
X198643708Y-73463669D01*
X198500000Y-73444750D01*
X198356291Y-73463669D01*
X198356290Y-73463670D01*
X198222378Y-73519137D01*
X198222374Y-73519139D01*
X198107381Y-73607377D01*
X198107377Y-73607381D01*
X198019139Y-73722374D01*
X198019137Y-73722378D01*
X197963670Y-73856290D01*
X197963669Y-73856291D01*
X197944750Y-73999999D01*
X197944750Y-74000000D01*
X195714440Y-74000000D01*
X195714440Y-73999999D01*
X195712015Y-73987808D01*
X195700966Y-73932260D01*
X195650206Y-73856291D01*
X195645602Y-73849400D01*
X195645599Y-73849397D01*
X195562742Y-73794035D01*
X195562740Y-73794034D01*
X195562737Y-73794033D01*
X195562736Y-73794033D01*
X195489684Y-73779501D01*
X195489674Y-73779500D01*
X194600326Y-73779500D01*
X194600325Y-73779500D01*
X194600315Y-73779501D01*
X194527263Y-73794033D01*
X194527257Y-73794035D01*
X194444400Y-73849397D01*
X194444397Y-73849400D01*
X194389035Y-73932257D01*
X194389033Y-73932263D01*
X194374501Y-74005315D01*
X194374500Y-74005327D01*
X194374500Y-74364283D01*
X194355593Y-74422474D01*
X194306093Y-74458438D01*
X194251809Y-74460406D01*
X194126418Y-74429500D01*
X194126413Y-74429500D01*
X193963587Y-74429500D01*
X193963584Y-74429500D01*
X193805491Y-74468466D01*
X193805489Y-74468467D01*
X193661314Y-74544135D01*
X193539435Y-74652111D01*
X193446941Y-74786113D01*
X193405770Y-74894674D01*
X193389202Y-74938360D01*
X193369575Y-75100000D01*
X193389202Y-75261640D01*
X193425098Y-75356290D01*
X193446941Y-75413886D01*
X193539435Y-75547888D01*
X193539436Y-75547889D01*
X193539437Y-75547890D01*
X193661315Y-75655864D01*
X193673655Y-75662341D01*
X193716393Y-75706125D01*
X193725233Y-75766669D01*
X193696798Y-75820845D01*
X193673657Y-75837658D01*
X193661315Y-75844136D01*
X193661313Y-75844137D01*
X193661312Y-75844138D01*
X193539435Y-75952111D01*
X193446941Y-76086113D01*
X193389202Y-76238360D01*
X193389202Y-76238361D01*
X193369575Y-76399999D01*
X193369575Y-76400000D01*
X192000500Y-76400000D01*
X192000500Y-72175000D01*
X193644966Y-72175000D01*
X193665058Y-72391830D01*
X193724652Y-72601279D01*
X193821711Y-72796200D01*
X193821716Y-72796209D01*
X193879622Y-72872888D01*
X194239881Y-72512627D01*
X194265406Y-72561260D01*
X194374104Y-72683956D01*
X194486174Y-72761312D01*
X194124327Y-73123160D01*
X194299015Y-73231322D01*
X194502070Y-73309987D01*
X194716120Y-73350000D01*
X194933880Y-73350000D01*
X195147929Y-73309987D01*
X195350986Y-73231322D01*
X195350991Y-73231319D01*
X195525672Y-73123161D01*
X195163824Y-72761313D01*
X195275896Y-72683956D01*
X195384594Y-72561260D01*
X195410117Y-72512628D01*
X195770377Y-72872888D01*
X195828281Y-72796213D01*
X195828286Y-72796204D01*
X195925347Y-72601279D01*
X195984941Y-72391830D01*
X196005033Y-72175000D01*
X195993207Y-72047377D01*
X196006665Y-71987690D01*
X196052635Y-71947312D01*
X196113559Y-71941666D01*
X196166167Y-71972909D01*
X196173261Y-71982004D01*
X196209515Y-72034528D01*
X196209516Y-72034529D01*
X196209517Y-72034530D01*
X196327760Y-72139283D01*
X196467635Y-72212696D01*
X196621015Y-72250500D01*
X196621018Y-72250500D01*
X196778982Y-72250500D01*
X196778985Y-72250500D01*
X196932365Y-72212696D01*
X197072240Y-72139283D01*
X197190483Y-72034530D01*
X197280220Y-71904523D01*
X197336237Y-71756818D01*
X197355278Y-71600000D01*
X197349666Y-71553784D01*
X197336237Y-71443183D01*
X197336237Y-71443182D01*
X197280220Y-71295477D01*
X197190483Y-71165470D01*
X197072240Y-71060717D01*
X196956555Y-71000000D01*
X196932364Y-70987303D01*
X196778987Y-70949500D01*
X196778985Y-70949500D01*
X196621015Y-70949500D01*
X196621012Y-70949500D01*
X196467635Y-70987303D01*
X196327758Y-71060718D01*
X196209515Y-71165471D01*
X196119780Y-71295476D01*
X196063763Y-71443182D01*
X196063763Y-71443183D01*
X196046584Y-71584659D01*
X196020800Y-71640146D01*
X195967326Y-71669881D01*
X195906587Y-71662505D01*
X195861783Y-71620837D01*
X195859684Y-71616852D01*
X195828285Y-71553794D01*
X195828283Y-71553790D01*
X195770377Y-71477110D01*
X195410117Y-71837369D01*
X195384594Y-71788740D01*
X195275896Y-71666044D01*
X195163822Y-71588686D01*
X195525672Y-71226837D01*
X195350988Y-71118678D01*
X195350986Y-71118677D01*
X195147929Y-71040012D01*
X194933880Y-71000000D01*
X194716120Y-71000000D01*
X194502070Y-71040012D01*
X194299013Y-71118677D01*
X194299011Y-71118678D01*
X194124326Y-71226837D01*
X194486175Y-71588686D01*
X194374104Y-71666044D01*
X194265406Y-71788740D01*
X194239882Y-71837371D01*
X193879621Y-71477110D01*
X193821720Y-71553784D01*
X193821711Y-71553799D01*
X193724652Y-71748720D01*
X193665058Y-71958169D01*
X193644966Y-72175000D01*
X192000500Y-72175000D01*
X192000500Y-70250002D01*
X206094353Y-70250002D01*
X206114834Y-70392456D01*
X206174622Y-70523371D01*
X206174623Y-70523373D01*
X206260407Y-70622374D01*
X206268873Y-70632144D01*
X206389942Y-70709950D01*
X206389947Y-70709953D01*
X206496403Y-70741211D01*
X206528035Y-70750499D01*
X206528036Y-70750499D01*
X206528039Y-70750500D01*
X206528041Y-70750500D01*
X206671959Y-70750500D01*
X206671961Y-70750500D01*
X206673664Y-70750000D01*
X210144750Y-70750000D01*
X210163669Y-70893708D01*
X210163670Y-70893709D01*
X210207696Y-71000000D01*
X210219139Y-71027625D01*
X210307379Y-71142621D01*
X210422375Y-71230861D01*
X210556291Y-71286330D01*
X210700000Y-71305250D01*
X210843709Y-71286330D01*
X210977625Y-71230861D01*
X211092621Y-71142621D01*
X211100755Y-71132019D01*
X211151178Y-71097362D01*
X211198615Y-71095187D01*
X211225318Y-71100499D01*
X211225324Y-71100499D01*
X211225326Y-71100500D01*
X211225327Y-71100500D01*
X212274673Y-71100500D01*
X212274674Y-71100500D01*
X212347740Y-71085966D01*
X212347746Y-71085962D01*
X212370499Y-71070760D01*
X212429387Y-71054151D01*
X212486790Y-71075329D01*
X212520783Y-71126202D01*
X212524500Y-71153075D01*
X212524500Y-71650789D01*
X212522393Y-71671103D01*
X212519633Y-71684266D01*
X212523740Y-71717217D01*
X212524500Y-71729461D01*
X212524500Y-71731119D01*
X212528003Y-71752116D01*
X212528592Y-71756159D01*
X212535133Y-71808624D01*
X212537371Y-71816144D01*
X212539935Y-71823611D01*
X212565088Y-71870091D01*
X212566959Y-71873726D01*
X212590175Y-71921213D01*
X212594736Y-71927601D01*
X212599579Y-71933823D01*
X212599581Y-71933826D01*
X212638473Y-71969629D01*
X212641400Y-71972437D01*
X213217316Y-72548353D01*
X213245093Y-72602870D01*
X213245465Y-72605434D01*
X213263670Y-72743708D01*
X213263670Y-72743709D01*
X213307696Y-72850000D01*
X213319139Y-72877625D01*
X213407379Y-72992621D01*
X213522375Y-73080861D01*
X213656291Y-73136330D01*
X213800000Y-73155250D01*
X213943709Y-73136330D01*
X214077625Y-73080861D01*
X214192621Y-72992621D01*
X214280861Y-72877625D01*
X214336330Y-72743709D01*
X214355250Y-72600000D01*
X214348450Y-72548353D01*
X214336330Y-72456291D01*
X214280861Y-72322375D01*
X214192621Y-72207379D01*
X214077625Y-72119139D01*
X214077621Y-72119137D01*
X213943709Y-72063670D01*
X213805435Y-72045465D01*
X213750210Y-72019124D01*
X213748354Y-72017316D01*
X213304496Y-71573458D01*
X213276719Y-71518941D01*
X213275500Y-71503454D01*
X213275500Y-71392178D01*
X213294407Y-71333987D01*
X213343907Y-71298023D01*
X213405093Y-71298023D01*
X213434766Y-71313636D01*
X213461288Y-71333987D01*
X213522369Y-71380857D01*
X213522371Y-71380858D01*
X213522375Y-71380861D01*
X213656291Y-71436330D01*
X213800000Y-71455250D01*
X213943709Y-71436330D01*
X214077625Y-71380861D01*
X214192621Y-71292621D01*
X214280861Y-71177625D01*
X214336330Y-71043709D01*
X214355250Y-70900000D01*
X214336330Y-70756291D01*
X214280861Y-70622375D01*
X214192621Y-70507379D01*
X214077625Y-70419139D01*
X214077621Y-70419137D01*
X214013206Y-70392456D01*
X213943709Y-70363670D01*
X213922795Y-70360916D01*
X213836577Y-70349565D01*
X213781352Y-70323223D01*
X213752158Y-70269452D01*
X213750500Y-70251412D01*
X213750500Y-69635290D01*
X213769407Y-69577099D01*
X213818907Y-69541135D01*
X213862421Y-69537137D01*
X214000000Y-69555250D01*
X214143709Y-69536330D01*
X214277625Y-69480861D01*
X214392621Y-69392621D01*
X214480861Y-69277625D01*
X214536330Y-69143709D01*
X214555250Y-69000000D01*
X214536330Y-68856291D01*
X214480861Y-68722375D01*
X214392621Y-68607379D01*
X214277625Y-68519139D01*
X214277621Y-68519137D01*
X214143709Y-68463670D01*
X214143708Y-68463669D01*
X214000000Y-68444750D01*
X213999999Y-68444750D01*
X213862422Y-68462862D01*
X213802261Y-68451712D01*
X213760144Y-68407329D01*
X213750500Y-68364709D01*
X213750500Y-66175000D01*
X217641433Y-66175000D01*
X217680713Y-66316469D01*
X217680715Y-66316473D01*
X217767318Y-66479825D01*
X217887007Y-66620732D01*
X217887012Y-66620738D01*
X218034191Y-66732621D01*
X218034193Y-66732622D01*
X218201989Y-66810253D01*
X218201991Y-66810254D01*
X218382561Y-66850000D01*
X218574999Y-66850000D01*
X218575000Y-66849999D01*
X218575000Y-66336404D01*
X218687424Y-66375000D01*
X218781073Y-66375000D01*
X218873446Y-66359586D01*
X218925000Y-66331685D01*
X218925000Y-66849999D01*
X218925001Y-66850000D01*
X219071084Y-66850000D01*
X219208804Y-66835021D01*
X219384010Y-66775987D01*
X219542429Y-66680670D01*
X219676658Y-66553522D01*
X219780411Y-66400498D01*
X219848848Y-66228734D01*
X219857657Y-66175000D01*
X219082727Y-66175000D01*
X219118551Y-66093330D01*
X219128886Y-65968605D01*
X219098163Y-65847281D01*
X219083606Y-65825000D01*
X219858566Y-65825000D01*
X219858566Y-65824999D01*
X219819286Y-65683530D01*
X219819284Y-65683526D01*
X219732681Y-65520174D01*
X219612992Y-65379267D01*
X219612987Y-65379261D01*
X219465808Y-65267378D01*
X219465806Y-65267377D01*
X219298010Y-65189746D01*
X219298008Y-65189745D01*
X219117439Y-65150000D01*
X218925001Y-65150000D01*
X218925000Y-65150001D01*
X218925000Y-65663595D01*
X218812576Y-65625000D01*
X218718927Y-65625000D01*
X218626554Y-65640414D01*
X218575000Y-65668314D01*
X218575000Y-65150001D01*
X218574999Y-65150000D01*
X218428916Y-65150000D01*
X218291195Y-65164978D01*
X218115989Y-65224012D01*
X217957570Y-65319329D01*
X217823341Y-65446477D01*
X217719588Y-65599501D01*
X217651151Y-65771265D01*
X217642342Y-65824999D01*
X217642343Y-65825000D01*
X218417273Y-65825000D01*
X218381449Y-65906670D01*
X218371114Y-66031395D01*
X218401837Y-66152719D01*
X218416394Y-66175000D01*
X217641433Y-66175000D01*
X213750500Y-66175000D01*
X213750500Y-63885290D01*
X213769407Y-63827099D01*
X213818907Y-63791135D01*
X213862421Y-63787137D01*
X214000000Y-63805250D01*
X214124867Y-63788810D01*
X214185025Y-63799960D01*
X214227143Y-63844342D01*
X214235129Y-63905003D01*
X214210585Y-63951661D01*
X214211329Y-63952232D01*
X214208009Y-63956558D01*
X214207798Y-63956960D01*
X214207381Y-63957377D01*
X214207380Y-63957378D01*
X214207379Y-63957379D01*
X214174069Y-64000788D01*
X214119139Y-64072374D01*
X214119137Y-64072378D01*
X214063670Y-64206290D01*
X214063669Y-64206291D01*
X214044750Y-64349999D01*
X214044750Y-64350000D01*
X214063669Y-64493708D01*
X214063670Y-64493709D01*
X214116437Y-64621103D01*
X214119139Y-64627625D01*
X214207379Y-64742621D01*
X214322375Y-64830861D01*
X214456291Y-64886330D01*
X214600000Y-64905250D01*
X214743709Y-64886330D01*
X214877625Y-64830861D01*
X214992621Y-64742621D01*
X215080861Y-64627625D01*
X215136330Y-64493709D01*
X215155250Y-64350000D01*
X215150860Y-64316659D01*
X215136330Y-64206291D01*
X215080861Y-64072375D01*
X214992621Y-63957379D01*
X214987804Y-63953683D01*
X217620740Y-63953683D01*
X217630755Y-64138407D01*
X217680203Y-64316504D01*
X217680247Y-64316661D01*
X217680250Y-64316667D01*
X217766899Y-64480103D01*
X217766900Y-64480104D01*
X217886661Y-64621098D01*
X217886666Y-64621103D01*
X218033932Y-64733052D01*
X218033934Y-64733053D01*
X218033935Y-64733053D01*
X218033936Y-64733054D01*
X218201833Y-64810732D01*
X218382503Y-64850500D01*
X218382507Y-64850500D01*
X219071112Y-64850500D01*
X219071113Y-64850500D01*
X219208910Y-64835514D01*
X219384221Y-64776444D01*
X219490640Y-64712414D01*
X219542733Y-64681072D01*
X219542733Y-64681071D01*
X219542736Y-64681070D01*
X219677041Y-64553849D01*
X219758829Y-64433219D01*
X219780857Y-64400732D01*
X219780858Y-64400730D01*
X219849331Y-64228875D01*
X219879260Y-64046317D01*
X219869245Y-63861593D01*
X219819754Y-63683341D01*
X219733100Y-63519896D01*
X219625706Y-63393462D01*
X219613338Y-63378901D01*
X219613333Y-63378896D01*
X219466067Y-63266947D01*
X219466065Y-63266946D01*
X219298170Y-63189269D01*
X219298168Y-63189268D01*
X219241010Y-63176687D01*
X219117497Y-63149500D01*
X218428887Y-63149500D01*
X218291090Y-63164486D01*
X218236790Y-63182782D01*
X218115780Y-63223555D01*
X218115777Y-63223556D01*
X217957266Y-63318927D01*
X217957262Y-63318931D01*
X217822960Y-63446149D01*
X217719142Y-63599267D01*
X217650669Y-63771124D01*
X217631953Y-63885290D01*
X217620740Y-63953683D01*
X214987804Y-63953683D01*
X214877625Y-63869139D01*
X214877621Y-63869137D01*
X214743709Y-63813670D01*
X214743708Y-63813669D01*
X214600000Y-63794750D01*
X214599999Y-63794750D01*
X214475134Y-63811189D01*
X214414973Y-63800039D01*
X214372856Y-63755657D01*
X214364870Y-63694995D01*
X214389417Y-63648341D01*
X214388671Y-63647768D01*
X214392006Y-63643420D01*
X214392215Y-63643025D01*
X214392612Y-63642627D01*
X214392621Y-63642621D01*
X214480861Y-63527625D01*
X214536330Y-63393709D01*
X214555250Y-63250000D01*
X214554590Y-63244990D01*
X214536330Y-63106291D01*
X214480861Y-62972375D01*
X214392621Y-62857379D01*
X214277625Y-62769139D01*
X214277621Y-62769137D01*
X214143709Y-62713670D01*
X214143708Y-62713669D01*
X214000000Y-62694750D01*
X213856291Y-62713669D01*
X213856290Y-62713670D01*
X213722378Y-62769137D01*
X213722374Y-62769139D01*
X213607381Y-62857377D01*
X213607377Y-62857381D01*
X213519139Y-62972374D01*
X213519137Y-62972378D01*
X213463670Y-63106290D01*
X213463669Y-63106293D01*
X213463540Y-63107276D01*
X213463234Y-63107915D01*
X213461990Y-63112561D01*
X213461128Y-63112330D01*
X213437192Y-63162498D01*
X213383418Y-63191687D01*
X213322757Y-63183694D01*
X213295384Y-63164347D01*
X212649566Y-62518529D01*
X211882683Y-61751645D01*
X211854906Y-61697128D01*
X211854534Y-61694563D01*
X211853055Y-61683332D01*
X211836330Y-61556291D01*
X211780861Y-61422375D01*
X211692621Y-61307379D01*
X211577625Y-61219139D01*
X211577621Y-61219137D01*
X211443709Y-61163670D01*
X211443708Y-61163669D01*
X211300000Y-61144750D01*
X211156291Y-61163669D01*
X211156290Y-61163670D01*
X211022378Y-61219137D01*
X211022374Y-61219139D01*
X210907381Y-61307377D01*
X210907377Y-61307381D01*
X210819139Y-61422374D01*
X210819137Y-61422378D01*
X210763670Y-61556290D01*
X210763669Y-61556291D01*
X210744750Y-61699999D01*
X210744750Y-61700000D01*
X210763669Y-61843708D01*
X210763670Y-61843709D01*
X210811169Y-61958385D01*
X210819139Y-61977625D01*
X210907379Y-62092621D01*
X210913741Y-62097503D01*
X210948396Y-62147926D01*
X210946795Y-62209090D01*
X210913742Y-62254585D01*
X210857382Y-62297832D01*
X210857377Y-62297837D01*
X210769139Y-62412830D01*
X210769137Y-62412834D01*
X210713670Y-62546746D01*
X210713669Y-62546747D01*
X210694750Y-62690455D01*
X210694750Y-62690456D01*
X210713669Y-62834164D01*
X210713670Y-62834165D01*
X210750357Y-62922738D01*
X210769139Y-62968081D01*
X210857379Y-63083077D01*
X210972375Y-63171317D01*
X211106291Y-63226786D01*
X211244564Y-63244990D01*
X211299789Y-63271331D01*
X211301646Y-63273139D01*
X212495504Y-64466997D01*
X212523281Y-64521514D01*
X212524500Y-64537001D01*
X212524500Y-68558343D01*
X212505593Y-68616534D01*
X212456093Y-68652498D01*
X212394907Y-68652498D01*
X212345407Y-68616534D01*
X212341677Y-68611018D01*
X212340482Y-68609117D01*
X212340479Y-68609113D01*
X212340478Y-68609112D01*
X212340477Y-68609110D01*
X212220890Y-68489523D01*
X212220887Y-68489521D01*
X212220886Y-68489520D01*
X212077691Y-68399544D01*
X211918065Y-68343688D01*
X211918053Y-68343685D01*
X211750004Y-68324751D01*
X211749996Y-68324751D01*
X211581946Y-68343685D01*
X211581934Y-68343688D01*
X211422309Y-68399544D01*
X211422308Y-68399544D01*
X211279113Y-68489520D01*
X211159520Y-68609113D01*
X211069544Y-68752308D01*
X211069544Y-68752309D01*
X211013688Y-68911934D01*
X211013685Y-68911946D01*
X210994751Y-69079995D01*
X210994751Y-69080004D01*
X211013685Y-69248053D01*
X211013688Y-69248065D01*
X211069544Y-69407690D01*
X211069544Y-69407691D01*
X211134104Y-69510437D01*
X211149054Y-69569768D01*
X211126275Y-69626555D01*
X211105280Y-69645423D01*
X211069401Y-69669396D01*
X211069397Y-69669400D01*
X211014035Y-69752257D01*
X211014033Y-69752263D01*
X210999501Y-69825315D01*
X210999500Y-69825327D01*
X210999500Y-70130037D01*
X210980593Y-70188228D01*
X210931093Y-70224192D01*
X210869907Y-70224192D01*
X210862636Y-70221510D01*
X210843709Y-70213670D01*
X210843706Y-70213669D01*
X210843705Y-70213669D01*
X210700000Y-70194750D01*
X210556291Y-70213669D01*
X210556290Y-70213670D01*
X210422378Y-70269137D01*
X210422374Y-70269139D01*
X210307381Y-70357377D01*
X210307377Y-70357381D01*
X210219139Y-70472374D01*
X210219137Y-70472378D01*
X210163670Y-70606290D01*
X210163669Y-70606291D01*
X210144750Y-70749999D01*
X210144750Y-70750000D01*
X206673664Y-70750000D01*
X206810053Y-70709953D01*
X206931128Y-70632143D01*
X207025377Y-70523373D01*
X207085165Y-70392457D01*
X207105647Y-70250000D01*
X207101936Y-70224192D01*
X207085165Y-70107543D01*
X207025377Y-69976627D01*
X206931128Y-69867857D01*
X206931127Y-69867856D01*
X206931126Y-69867855D01*
X206810057Y-69790049D01*
X206810054Y-69790047D01*
X206810053Y-69790047D01*
X206810050Y-69790046D01*
X206671964Y-69749500D01*
X206671961Y-69749500D01*
X206528039Y-69749500D01*
X206528035Y-69749500D01*
X206389949Y-69790046D01*
X206389942Y-69790049D01*
X206268873Y-69867855D01*
X206174622Y-69976628D01*
X206114834Y-70107543D01*
X206094353Y-70249997D01*
X206094353Y-70250002D01*
X192000500Y-70250002D01*
X192000500Y-69225000D01*
X193695250Y-69225000D01*
X193714169Y-69368708D01*
X193714170Y-69368709D01*
X193760624Y-69480862D01*
X193769639Y-69502625D01*
X193857879Y-69617621D01*
X193972875Y-69705861D01*
X194106791Y-69761330D01*
X194250500Y-69780250D01*
X194394209Y-69761330D01*
X194528125Y-69705861D01*
X194643121Y-69617621D01*
X194731361Y-69502625D01*
X194766462Y-69417883D01*
X196495250Y-69417883D01*
X196514169Y-69561591D01*
X196514170Y-69561592D01*
X196537377Y-69617621D01*
X196569639Y-69695508D01*
X196657879Y-69810504D01*
X196772875Y-69898744D01*
X196906791Y-69954213D01*
X197050500Y-69973133D01*
X197194209Y-69954213D01*
X197328125Y-69898744D01*
X197443121Y-69810504D01*
X197531361Y-69695508D01*
X197586830Y-69561592D01*
X197604813Y-69425000D01*
X198044750Y-69425000D01*
X198063669Y-69568708D01*
X198063670Y-69568709D01*
X198105376Y-69669399D01*
X198119139Y-69702625D01*
X198207379Y-69817621D01*
X198322375Y-69905861D01*
X198456291Y-69961330D01*
X198600000Y-69980250D01*
X198743709Y-69961330D01*
X198877625Y-69905861D01*
X198992621Y-69817621D01*
X199080861Y-69702625D01*
X199136330Y-69568709D01*
X199155250Y-69425000D01*
X199444750Y-69425000D01*
X199463669Y-69568708D01*
X199463670Y-69568709D01*
X199505376Y-69669399D01*
X199519139Y-69702625D01*
X199607379Y-69817621D01*
X199722375Y-69905861D01*
X199856291Y-69961330D01*
X200000000Y-69980250D01*
X200143709Y-69961330D01*
X200277625Y-69905861D01*
X200392621Y-69817621D01*
X200480861Y-69702625D01*
X200536330Y-69568709D01*
X200555250Y-69425000D01*
X200536330Y-69281291D01*
X200480861Y-69147375D01*
X200392621Y-69032379D01*
X200277625Y-68944139D01*
X200277621Y-68944137D01*
X200143709Y-68888670D01*
X200143708Y-68888669D01*
X200000000Y-68869750D01*
X199856291Y-68888669D01*
X199856290Y-68888670D01*
X199722378Y-68944137D01*
X199722374Y-68944139D01*
X199607381Y-69032377D01*
X199607377Y-69032381D01*
X199519139Y-69147374D01*
X199519137Y-69147378D01*
X199463670Y-69281290D01*
X199463669Y-69281291D01*
X199444750Y-69424999D01*
X199444750Y-69425000D01*
X199155250Y-69425000D01*
X199136330Y-69281291D01*
X199080861Y-69147375D01*
X198992621Y-69032379D01*
X198877625Y-68944139D01*
X198877621Y-68944137D01*
X198743709Y-68888670D01*
X198743708Y-68888669D01*
X198600000Y-68869750D01*
X198456291Y-68888669D01*
X198456290Y-68888670D01*
X198322378Y-68944137D01*
X198322374Y-68944139D01*
X198207381Y-69032377D01*
X198207377Y-69032381D01*
X198119139Y-69147374D01*
X198119137Y-69147378D01*
X198063670Y-69281290D01*
X198063669Y-69281291D01*
X198044750Y-69424999D01*
X198044750Y-69425000D01*
X197604813Y-69425000D01*
X197605750Y-69417883D01*
X197586830Y-69274174D01*
X197531361Y-69140258D01*
X197443121Y-69025262D01*
X197328125Y-68937022D01*
X197328121Y-68937020D01*
X197194209Y-68881553D01*
X197194208Y-68881552D01*
X197050500Y-68862633D01*
X196906791Y-68881552D01*
X196906790Y-68881553D01*
X196772878Y-68937020D01*
X196772874Y-68937022D01*
X196657881Y-69025260D01*
X196657877Y-69025264D01*
X196569639Y-69140257D01*
X196569637Y-69140261D01*
X196514170Y-69274173D01*
X196514169Y-69274174D01*
X196495250Y-69417882D01*
X196495250Y-69417883D01*
X194766462Y-69417883D01*
X194786830Y-69368709D01*
X194805750Y-69225000D01*
X194786830Y-69081291D01*
X194731361Y-68947375D01*
X194643121Y-68832379D01*
X194528125Y-68744139D01*
X194528121Y-68744137D01*
X194394209Y-68688670D01*
X194394208Y-68688669D01*
X194250500Y-68669750D01*
X194106791Y-68688669D01*
X194106790Y-68688670D01*
X193972878Y-68744137D01*
X193972874Y-68744139D01*
X193857881Y-68832377D01*
X193857877Y-68832381D01*
X193769639Y-68947374D01*
X193769637Y-68947378D01*
X193714170Y-69081290D01*
X193714169Y-69081291D01*
X193695250Y-69224999D01*
X193695250Y-69225000D01*
X192000500Y-69225000D01*
X192000500Y-67500000D01*
X198044750Y-67500000D01*
X198063669Y-67643708D01*
X198063670Y-67643709D01*
X198119139Y-67777625D01*
X198207379Y-67892621D01*
X198322375Y-67980861D01*
X198456291Y-68036330D01*
X198600000Y-68055250D01*
X198743709Y-68036330D01*
X198877625Y-67980861D01*
X198992621Y-67892621D01*
X199080861Y-67777625D01*
X199136330Y-67643709D01*
X199155250Y-67500000D01*
X199136330Y-67356291D01*
X199080861Y-67222375D01*
X198992621Y-67107379D01*
X198877625Y-67019139D01*
X198877621Y-67019137D01*
X198743709Y-66963670D01*
X198743708Y-66963669D01*
X198600000Y-66944750D01*
X198456291Y-66963669D01*
X198456290Y-66963670D01*
X198322378Y-67019137D01*
X198322374Y-67019139D01*
X198207381Y-67107377D01*
X198207377Y-67107381D01*
X198119139Y-67222374D01*
X198119137Y-67222378D01*
X198063670Y-67356290D01*
X198063669Y-67356291D01*
X198044750Y-67499999D01*
X198044750Y-67500000D01*
X192000500Y-67500000D01*
X192000500Y-60400000D01*
X192244750Y-60400000D01*
X192263669Y-60543708D01*
X192263670Y-60543709D01*
X192318725Y-60676627D01*
X192319139Y-60677625D01*
X192407379Y-60792621D01*
X192522375Y-60880861D01*
X192656291Y-60936330D01*
X192800000Y-60955250D01*
X192943709Y-60936330D01*
X193077625Y-60880861D01*
X193192621Y-60792621D01*
X193280861Y-60677625D01*
X193336330Y-60543709D01*
X193355250Y-60400000D01*
X193354485Y-60394193D01*
X193336330Y-60256291D01*
X193280861Y-60122375D01*
X193192621Y-60007379D01*
X193077625Y-59919139D01*
X193077621Y-59919137D01*
X192943709Y-59863670D01*
X192943708Y-59863669D01*
X192800000Y-59844750D01*
X192656291Y-59863669D01*
X192656290Y-59863670D01*
X192522378Y-59919137D01*
X192522374Y-59919139D01*
X192407381Y-60007377D01*
X192407377Y-60007381D01*
X192319139Y-60122374D01*
X192319137Y-60122378D01*
X192263670Y-60256290D01*
X192263669Y-60256291D01*
X192244750Y-60399999D01*
X192244750Y-60400000D01*
X192000500Y-60400000D01*
X192000500Y-59500000D01*
X193444750Y-59500000D01*
X193463669Y-59643708D01*
X193463670Y-59643709D01*
X193506816Y-59747876D01*
X193519139Y-59777625D01*
X193607379Y-59892621D01*
X193722375Y-59980861D01*
X193856291Y-60036330D01*
X194000000Y-60055250D01*
X194143709Y-60036330D01*
X194277625Y-59980861D01*
X194392621Y-59892621D01*
X194480861Y-59777625D01*
X194536330Y-59643709D01*
X194555250Y-59500000D01*
X195194750Y-59500000D01*
X195213669Y-59643708D01*
X195213670Y-59643709D01*
X195256816Y-59747876D01*
X195269139Y-59777625D01*
X195357379Y-59892621D01*
X195472375Y-59980861D01*
X195606291Y-60036330D01*
X195750000Y-60055250D01*
X195893709Y-60036330D01*
X196027625Y-59980861D01*
X196142621Y-59892621D01*
X196230861Y-59777625D01*
X196286330Y-59643709D01*
X196305250Y-59500000D01*
X196286330Y-59356291D01*
X196230861Y-59222375D01*
X196142621Y-59107379D01*
X196027625Y-59019139D01*
X196027621Y-59019137D01*
X195893709Y-58963670D01*
X195893708Y-58963669D01*
X195750000Y-58944750D01*
X195606291Y-58963669D01*
X195606290Y-58963670D01*
X195472378Y-59019137D01*
X195472374Y-59019139D01*
X195357381Y-59107377D01*
X195357377Y-59107381D01*
X195269139Y-59222374D01*
X195269137Y-59222378D01*
X195213670Y-59356290D01*
X195213669Y-59356291D01*
X195194750Y-59499999D01*
X195194750Y-59500000D01*
X194555250Y-59500000D01*
X194536330Y-59356291D01*
X194480861Y-59222375D01*
X194392621Y-59107379D01*
X194277625Y-59019139D01*
X194277621Y-59019137D01*
X194143709Y-58963670D01*
X194143708Y-58963669D01*
X194000000Y-58944750D01*
X193856291Y-58963669D01*
X193856290Y-58963670D01*
X193722378Y-59019137D01*
X193722374Y-59019139D01*
X193607381Y-59107377D01*
X193607377Y-59107381D01*
X193519139Y-59222374D01*
X193519137Y-59222378D01*
X193463670Y-59356290D01*
X193463669Y-59356291D01*
X193444750Y-59499999D01*
X193444750Y-59500000D01*
X192000500Y-59500000D01*
X192000500Y-55019787D01*
X192000527Y-55019651D01*
X192000539Y-55000002D01*
X192000541Y-55000000D01*
X193000000Y-55000000D01*
X193000000Y-49903762D01*
X193048684Y-49894550D01*
X193052267Y-49893941D01*
X193109287Y-49885348D01*
X193109296Y-49885343D01*
X193116381Y-49883159D01*
X193116512Y-49883584D01*
X193118613Y-49882892D01*
X193118467Y-49882473D01*
X193125463Y-49880024D01*
X193125472Y-49880023D01*
X193176444Y-49853082D01*
X193179740Y-49851419D01*
X193189677Y-49846633D01*
X193231642Y-49826425D01*
X193231646Y-49826421D01*
X193237778Y-49822242D01*
X193238028Y-49822609D01*
X193239832Y-49821329D01*
X193239568Y-49820971D01*
X193245525Y-49816572D01*
X193245538Y-49816566D01*
X193286316Y-49775786D01*
X193288927Y-49773271D01*
X193331194Y-49734055D01*
X193331197Y-49734048D01*
X193335820Y-49728253D01*
X193336166Y-49728529D01*
X193344703Y-49717399D01*
X194321743Y-48740358D01*
X194330003Y-48732978D01*
X194358970Y-48709879D01*
X194391457Y-48662227D01*
X194393559Y-48659266D01*
X194427793Y-48612882D01*
X194427795Y-48612876D01*
X194431263Y-48606316D01*
X194431655Y-48606523D01*
X194432653Y-48604547D01*
X194432254Y-48604355D01*
X194435473Y-48597672D01*
X194452463Y-48542588D01*
X194453612Y-48539092D01*
X194472646Y-48484700D01*
X194472646Y-48484697D01*
X194474026Y-48477407D01*
X194474460Y-48477489D01*
X194474831Y-48475307D01*
X194474394Y-48475242D01*
X194475500Y-48467904D01*
X194475500Y-48410283D01*
X194475569Y-48406582D01*
X194475570Y-48406553D01*
X194477724Y-48348990D01*
X194477722Y-48348982D01*
X194476893Y-48341618D01*
X194477331Y-48341568D01*
X194475500Y-48327657D01*
X194475500Y-42055862D01*
X194476122Y-42044779D01*
X194480270Y-42007965D01*
X194469553Y-41951326D01*
X194468933Y-41947675D01*
X194460348Y-41890715D01*
X194460348Y-41890713D01*
X194460346Y-41890709D01*
X194458160Y-41883622D01*
X194458582Y-41883491D01*
X194457890Y-41881388D01*
X194457474Y-41881534D01*
X194455023Y-41874528D01*
X194428081Y-41823554D01*
X194426425Y-41820274D01*
X194401425Y-41768358D01*
X194401424Y-41768357D01*
X194401424Y-41768356D01*
X194397244Y-41762225D01*
X194397607Y-41761977D01*
X194396324Y-41760169D01*
X194395970Y-41760431D01*
X194391565Y-41754461D01*
X194350811Y-41713707D01*
X194348242Y-41711040D01*
X194309056Y-41668806D01*
X194303258Y-41664183D01*
X194303532Y-41663839D01*
X194292397Y-41655294D01*
X193000000Y-40362897D01*
X193000000Y-37900000D01*
X193869750Y-37900000D01*
X193888669Y-38043708D01*
X193888670Y-38043709D01*
X193943932Y-38177127D01*
X193944139Y-38177625D01*
X194032379Y-38292621D01*
X194147375Y-38380861D01*
X194281291Y-38436330D01*
X194334922Y-38443390D01*
X194390146Y-38469730D01*
X194419342Y-38523501D01*
X194419695Y-38557558D01*
X194415330Y-38584187D01*
X194397794Y-38691157D01*
X194395740Y-38703683D01*
X194405755Y-38888407D01*
X194455246Y-39066659D01*
X194455247Y-39066661D01*
X194455250Y-39066667D01*
X194541899Y-39230103D01*
X194541900Y-39230104D01*
X194661661Y-39371098D01*
X194661666Y-39371103D01*
X194808932Y-39483052D01*
X194808934Y-39483053D01*
X194808935Y-39483053D01*
X194808936Y-39483054D01*
X194976833Y-39560732D01*
X195157503Y-39600500D01*
X196072686Y-39600500D01*
X196088701Y-39601804D01*
X196092499Y-39602426D01*
X196103683Y-39604260D01*
X196170361Y-39600645D01*
X196175720Y-39600500D01*
X196196119Y-39600500D01*
X196216388Y-39598295D01*
X196221714Y-39597860D01*
X196288407Y-39594245D01*
X196303040Y-39590181D01*
X196318805Y-39587156D01*
X196333910Y-39585514D01*
X196397229Y-39564177D01*
X196402288Y-39562625D01*
X196443626Y-39551148D01*
X196466653Y-39544756D01*
X196466656Y-39544754D01*
X196466659Y-39544754D01*
X196480076Y-39537640D01*
X196494833Y-39531291D01*
X196509221Y-39526444D01*
X196566450Y-39492009D01*
X196571092Y-39489385D01*
X196630104Y-39458100D01*
X196641673Y-39448272D01*
X196654715Y-39438904D01*
X196667736Y-39431070D01*
X196716249Y-39385113D01*
X196720187Y-39381581D01*
X196771100Y-39338337D01*
X196780284Y-39326254D01*
X196791012Y-39314295D01*
X196802041Y-39303849D01*
X196839526Y-39248561D01*
X196842636Y-39244230D01*
X196876261Y-39200000D01*
X197544750Y-39200000D01*
X197563669Y-39343708D01*
X197563670Y-39343709D01*
X197611051Y-39458100D01*
X197619139Y-39477625D01*
X197707379Y-39592621D01*
X197822375Y-39680861D01*
X197956291Y-39736330D01*
X198100000Y-39755250D01*
X198243709Y-39736330D01*
X198377625Y-39680861D01*
X198492621Y-39592621D01*
X198580861Y-39477625D01*
X198636330Y-39343709D01*
X198655250Y-39200000D01*
X198654073Y-39191063D01*
X198636330Y-39056291D01*
X198580861Y-38922375D01*
X198492621Y-38807379D01*
X198377625Y-38719139D01*
X198377621Y-38719137D01*
X198243709Y-38663670D01*
X198243708Y-38663669D01*
X198100000Y-38644750D01*
X197956291Y-38663669D01*
X197956290Y-38663670D01*
X197822378Y-38719137D01*
X197822374Y-38719139D01*
X197707381Y-38807377D01*
X197707377Y-38807381D01*
X197619139Y-38922374D01*
X197619137Y-38922378D01*
X197563670Y-39056290D01*
X197563669Y-39056291D01*
X197544750Y-39199999D01*
X197544750Y-39200000D01*
X196876261Y-39200000D01*
X196883054Y-39191064D01*
X196889431Y-39177278D01*
X196897334Y-39163301D01*
X196905858Y-39150730D01*
X196930573Y-39088697D01*
X196932689Y-39083781D01*
X196960729Y-39023175D01*
X196960729Y-39023172D01*
X196960732Y-39023167D01*
X196963997Y-39008328D01*
X196968710Y-38992980D01*
X196974331Y-38978875D01*
X196985134Y-38912970D01*
X196986137Y-38907744D01*
X197000500Y-38842497D01*
X197000500Y-38827313D01*
X197001804Y-38811297D01*
X197004260Y-38796317D01*
X197000645Y-38729638D01*
X197000500Y-38724279D01*
X197000500Y-37443297D01*
X197019407Y-37385106D01*
X197029496Y-37373293D01*
X201223293Y-33179496D01*
X201277810Y-33151719D01*
X201293297Y-33150500D01*
X207672686Y-33150500D01*
X207688701Y-33151804D01*
X207692499Y-33152426D01*
X207703683Y-33154260D01*
X207770361Y-33150645D01*
X207775720Y-33150500D01*
X207796119Y-33150500D01*
X207816388Y-33148295D01*
X207821714Y-33147860D01*
X207888407Y-33144245D01*
X207903040Y-33140181D01*
X207918805Y-33137156D01*
X207933910Y-33135514D01*
X207997229Y-33114177D01*
X208002288Y-33112625D01*
X208043626Y-33101148D01*
X208066653Y-33094756D01*
X208066656Y-33094754D01*
X208066659Y-33094754D01*
X208080076Y-33087640D01*
X208094833Y-33081291D01*
X208109221Y-33076444D01*
X208166450Y-33042009D01*
X208171092Y-33039385D01*
X208230104Y-33008100D01*
X208241673Y-32998272D01*
X208254715Y-32988904D01*
X208267736Y-32981070D01*
X208316249Y-32935113D01*
X208320187Y-32931581D01*
X208371100Y-32888337D01*
X208380284Y-32876254D01*
X208391012Y-32864295D01*
X208402041Y-32853849D01*
X208439526Y-32798561D01*
X208442636Y-32794230D01*
X208483054Y-32741064D01*
X208489431Y-32727278D01*
X208497334Y-32713301D01*
X208505858Y-32700730D01*
X208530573Y-32638697D01*
X208532689Y-32633781D01*
X208560729Y-32573175D01*
X208560729Y-32573172D01*
X208560732Y-32573167D01*
X208563997Y-32558328D01*
X208568710Y-32542980D01*
X208574331Y-32528875D01*
X208574455Y-32528122D01*
X208577671Y-32508498D01*
X208585134Y-32462970D01*
X208586137Y-32457744D01*
X208600500Y-32392497D01*
X208600500Y-32377313D01*
X208601804Y-32361297D01*
X208604260Y-32346317D01*
X208600645Y-32279638D01*
X208600500Y-32274279D01*
X208600500Y-31253887D01*
X208585514Y-31116090D01*
X208526444Y-30940779D01*
X208526443Y-30940777D01*
X208431072Y-30782266D01*
X208431068Y-30782262D01*
X208303850Y-30647960D01*
X208303851Y-30647960D01*
X208150732Y-30544142D01*
X207978875Y-30475669D01*
X207796317Y-30445740D01*
X207796316Y-30445740D01*
X207750136Y-30448243D01*
X207611593Y-30455755D01*
X207433341Y-30505246D01*
X207433340Y-30505246D01*
X207433338Y-30505247D01*
X207433332Y-30505250D01*
X207269896Y-30591899D01*
X207269895Y-30591900D01*
X207128901Y-30711661D01*
X207128896Y-30711666D01*
X207016947Y-30858932D01*
X207016946Y-30858934D01*
X206939269Y-31026829D01*
X206939268Y-31026831D01*
X206939268Y-31026833D01*
X206899500Y-31207503D01*
X206899500Y-31207506D01*
X206899500Y-31350500D01*
X206880593Y-31408691D01*
X206831093Y-31444655D01*
X206800500Y-31449500D01*
X200938584Y-31449500D01*
X200930549Y-31449173D01*
X200876841Y-31444799D01*
X200876831Y-31444799D01*
X200797942Y-31455547D01*
X200795283Y-31455872D01*
X200716090Y-31464486D01*
X200716088Y-31464486D01*
X200716085Y-31464487D01*
X200713973Y-31465199D01*
X200695736Y-31469472D01*
X200693535Y-31469771D01*
X200693533Y-31469772D01*
X200618745Y-31497246D01*
X200616221Y-31498135D01*
X200540779Y-31523555D01*
X200540774Y-31523558D01*
X200538859Y-31524710D01*
X200521996Y-31532791D01*
X200519888Y-31533565D01*
X200519886Y-31533566D01*
X200452785Y-31576455D01*
X200450510Y-31577866D01*
X200382265Y-31618929D01*
X200382261Y-31618932D01*
X200380633Y-31620474D01*
X200365896Y-31631995D01*
X200364012Y-31633199D01*
X200307720Y-31689490D01*
X200305802Y-31691357D01*
X200247958Y-31746151D01*
X200247955Y-31746155D01*
X200246703Y-31748002D01*
X200234774Y-31762436D01*
X195575882Y-36421327D01*
X195569970Y-36426776D01*
X195528906Y-36461656D01*
X195528900Y-36461662D01*
X195480707Y-36525057D01*
X195479058Y-36527166D01*
X195429154Y-36589250D01*
X195428162Y-36591252D01*
X195418294Y-36607163D01*
X195416946Y-36608936D01*
X195416941Y-36608944D01*
X195383489Y-36681247D01*
X195382333Y-36683661D01*
X195346961Y-36754984D01*
X195346425Y-36757143D01*
X195340211Y-36774793D01*
X195339269Y-36776829D01*
X195339265Y-36776840D01*
X195322153Y-36854584D01*
X195321542Y-36857194D01*
X195302315Y-36934508D01*
X195302254Y-36936749D01*
X195299980Y-36955322D01*
X195299500Y-36957503D01*
X195299500Y-37037116D01*
X195299464Y-37039796D01*
X195297307Y-37119433D01*
X195297725Y-37121610D01*
X195299500Y-37140273D01*
X195299500Y-37800538D01*
X195280593Y-37858729D01*
X195231093Y-37894693D01*
X195205857Y-37899393D01*
X195203892Y-37899499D01*
X195142159Y-37906213D01*
X195079563Y-37913020D01*
X195019671Y-37900516D01*
X194978566Y-37855194D01*
X194970708Y-37827523D01*
X194961330Y-37756291D01*
X194905861Y-37622375D01*
X194817621Y-37507379D01*
X194702625Y-37419139D01*
X194702621Y-37419137D01*
X194568709Y-37363670D01*
X194568708Y-37363669D01*
X194425000Y-37344750D01*
X194281291Y-37363669D01*
X194281290Y-37363670D01*
X194147378Y-37419137D01*
X194147374Y-37419139D01*
X194032381Y-37507377D01*
X194032377Y-37507381D01*
X193944139Y-37622374D01*
X193944137Y-37622378D01*
X193888670Y-37756290D01*
X193888669Y-37756291D01*
X193869750Y-37899999D01*
X193869750Y-37900000D01*
X193000000Y-37900000D01*
X193000000Y-35000001D01*
X193344722Y-35000001D01*
X193363762Y-35156816D01*
X193363763Y-35156817D01*
X193419780Y-35304523D01*
X193509515Y-35434528D01*
X193509516Y-35434529D01*
X193509517Y-35434530D01*
X193627760Y-35539283D01*
X193767635Y-35612696D01*
X193921015Y-35650500D01*
X193921018Y-35650500D01*
X194078982Y-35650500D01*
X194078985Y-35650500D01*
X194232365Y-35612696D01*
X194372240Y-35539283D01*
X194434351Y-35484257D01*
X194490445Y-35459823D01*
X194550189Y-35473026D01*
X194565648Y-35484257D01*
X194627760Y-35539283D01*
X194767635Y-35612696D01*
X194921015Y-35650500D01*
X194921018Y-35650500D01*
X195078982Y-35650500D01*
X195078985Y-35650500D01*
X195232365Y-35612696D01*
X195372240Y-35539283D01*
X195490483Y-35434530D01*
X195580220Y-35304523D01*
X195636237Y-35156818D01*
X195655278Y-35000000D01*
X195636237Y-34843182D01*
X195580220Y-34695477D01*
X195535351Y-34630473D01*
X195490484Y-34565471D01*
X195372241Y-34460718D01*
X195372240Y-34460717D01*
X195302302Y-34424010D01*
X195232364Y-34387303D01*
X195078987Y-34349500D01*
X195078985Y-34349500D01*
X194921015Y-34349500D01*
X194921012Y-34349500D01*
X194767635Y-34387303D01*
X194627755Y-34460719D01*
X194565648Y-34515741D01*
X194509554Y-34540176D01*
X194449810Y-34526972D01*
X194434352Y-34515741D01*
X194372244Y-34460719D01*
X194232364Y-34387303D01*
X194078987Y-34349500D01*
X194078985Y-34349500D01*
X193921015Y-34349500D01*
X193921012Y-34349500D01*
X193767635Y-34387303D01*
X193627758Y-34460718D01*
X193509515Y-34565471D01*
X193419780Y-34695476D01*
X193363763Y-34843182D01*
X193363762Y-34843183D01*
X193344722Y-34999998D01*
X193344722Y-35000001D01*
X193000000Y-35000001D01*
X193000000Y-34600000D01*
X192000000Y-34600000D01*
X192000000Y-34000000D01*
X193000000Y-34000000D01*
X193000000Y-30075500D01*
X208703455Y-30075500D01*
X208761646Y-30094407D01*
X208773459Y-30104496D01*
X211495504Y-32826541D01*
X211523281Y-32881058D01*
X211524500Y-32896545D01*
X211524500Y-45869696D01*
X211505593Y-45927887D01*
X211456093Y-45963851D01*
X211399878Y-45965323D01*
X211393708Y-45963669D01*
X211250000Y-45944750D01*
X211106291Y-45963669D01*
X211106290Y-45963670D01*
X210972378Y-46019137D01*
X210972374Y-46019139D01*
X210857381Y-46107377D01*
X210857377Y-46107381D01*
X210769139Y-46222374D01*
X210769137Y-46222378D01*
X210713670Y-46356290D01*
X210713669Y-46356291D01*
X210694750Y-46499999D01*
X210694750Y-46500000D01*
X210713669Y-46643708D01*
X210713670Y-46643709D01*
X210768559Y-46776226D01*
X210769139Y-46777625D01*
X210857379Y-46892621D01*
X210972375Y-46980861D01*
X211106291Y-47036330D01*
X211250000Y-47055250D01*
X211393709Y-47036330D01*
X211527625Y-46980861D01*
X211642621Y-46892621D01*
X211682949Y-46840062D01*
X211718017Y-46811386D01*
X211721211Y-46809826D01*
X211721213Y-46809824D01*
X211727616Y-46805252D01*
X211733822Y-46800422D01*
X211733823Y-46800420D01*
X211733826Y-46800419D01*
X211769629Y-46761525D01*
X211772415Y-46758620D01*
X212130727Y-46400308D01*
X212146577Y-46387438D01*
X212157836Y-46380084D01*
X212178233Y-46353876D01*
X212186359Y-46344677D01*
X212187519Y-46343518D01*
X212199910Y-46326161D01*
X212202305Y-46322948D01*
X212234809Y-46281189D01*
X212234810Y-46281185D01*
X212238542Y-46274289D01*
X212242010Y-46267198D01*
X212257095Y-46216525D01*
X212258333Y-46212665D01*
X212275500Y-46162660D01*
X212276791Y-46154920D01*
X212277766Y-46147092D01*
X212277768Y-46147089D01*
X212277767Y-46147085D01*
X212278782Y-46138951D01*
X212281533Y-46139293D01*
X212294457Y-46093102D01*
X212342428Y-46055123D01*
X212403561Y-46052593D01*
X212446891Y-46077928D01*
X213099687Y-46730724D01*
X213112562Y-46746580D01*
X213119916Y-46757836D01*
X213146120Y-46778231D01*
X213155302Y-46786339D01*
X213156482Y-46787519D01*
X213156485Y-46787521D01*
X213173802Y-46799885D01*
X213177082Y-46802330D01*
X213218814Y-46834811D01*
X213225712Y-46838544D01*
X213232798Y-46842008D01*
X213232801Y-46842010D01*
X213283443Y-46857086D01*
X213287309Y-46858324D01*
X213337340Y-46875500D01*
X213337342Y-46875500D01*
X213345079Y-46876791D01*
X213352904Y-46877766D01*
X213352911Y-46877768D01*
X213405700Y-46875585D01*
X213409791Y-46875500D01*
X214051461Y-46875500D01*
X214109652Y-46894407D01*
X214111685Y-46895925D01*
X214222375Y-46980861D01*
X214356291Y-47036330D01*
X214500000Y-47055250D01*
X214643709Y-47036330D01*
X214777625Y-46980861D01*
X214892621Y-46892621D01*
X214980861Y-46777625D01*
X215036330Y-46643709D01*
X215055250Y-46500000D01*
X215036330Y-46356291D01*
X214980861Y-46222375D01*
X214978378Y-46216380D01*
X214980032Y-46215694D01*
X214969079Y-46164142D01*
X214993971Y-46108249D01*
X215046962Y-46077661D01*
X215067536Y-46075500D01*
X216753456Y-46075500D01*
X216811647Y-46094407D01*
X216823460Y-46104497D01*
X217167316Y-46448354D01*
X217195093Y-46502870D01*
X217195465Y-46505434D01*
X217213670Y-46643708D01*
X217213670Y-46643709D01*
X217268559Y-46776226D01*
X217269139Y-46777625D01*
X217357379Y-46892621D01*
X217472375Y-46980861D01*
X217606291Y-47036330D01*
X217750000Y-47055250D01*
X217893709Y-47036330D01*
X218027625Y-46980861D01*
X218142621Y-46892621D01*
X218230861Y-46777625D01*
X218269883Y-46683415D01*
X218309619Y-46636890D01*
X218369114Y-46622606D01*
X218425642Y-46646020D01*
X218431351Y-46651297D01*
X219220504Y-47440450D01*
X219248281Y-47494967D01*
X219249500Y-47510454D01*
X219249500Y-51450504D01*
X219230593Y-51508695D01*
X219181093Y-51544659D01*
X219119907Y-51544659D01*
X219071958Y-51510772D01*
X219007163Y-51426331D01*
X218992621Y-51407379D01*
X218877625Y-51319139D01*
X218877621Y-51319137D01*
X218743709Y-51263670D01*
X218743708Y-51263669D01*
X218600000Y-51244750D01*
X218456291Y-51263669D01*
X218456290Y-51263670D01*
X218322378Y-51319137D01*
X218322370Y-51319142D01*
X218267847Y-51360979D01*
X218210171Y-51381403D01*
X218151506Y-51364025D01*
X218147312Y-51360979D01*
X218142621Y-51357380D01*
X218142621Y-51357379D01*
X218027625Y-51269139D01*
X218027621Y-51269137D01*
X217893709Y-51213670D01*
X217755435Y-51195465D01*
X217700210Y-51169124D01*
X217698354Y-51167316D01*
X216800311Y-50269273D01*
X216787435Y-50253416D01*
X216780084Y-50242164D01*
X216753888Y-50221775D01*
X216744699Y-50213661D01*
X216743518Y-50212480D01*
X216743514Y-50212477D01*
X216743512Y-50212475D01*
X216726172Y-50200096D01*
X216722886Y-50197646D01*
X216713286Y-50190174D01*
X216709657Y-50187349D01*
X216681190Y-50165191D01*
X216674281Y-50161452D01*
X216667197Y-50157989D01*
X216616551Y-50142911D01*
X216612656Y-50141663D01*
X216562659Y-50124499D01*
X216554923Y-50123208D01*
X216547089Y-50122232D01*
X216547088Y-50122232D01*
X216547086Y-50122232D01*
X216494299Y-50124415D01*
X216490208Y-50124500D01*
X209949211Y-50124500D01*
X209928896Y-50122393D01*
X209915733Y-50119633D01*
X209915732Y-50119633D01*
X209893590Y-50122393D01*
X209882783Y-50123740D01*
X209870539Y-50124500D01*
X209868886Y-50124500D01*
X209864511Y-50125229D01*
X209847881Y-50128004D01*
X209843841Y-50128592D01*
X209791379Y-50135133D01*
X209791376Y-50135133D01*
X209791374Y-50135134D01*
X209791371Y-50135135D01*
X209783849Y-50137374D01*
X209776387Y-50139936D01*
X209729927Y-50165078D01*
X209726293Y-50166948D01*
X209678791Y-50190172D01*
X209672385Y-50194745D01*
X209666171Y-50199582D01*
X209630394Y-50238446D01*
X209627563Y-50241398D01*
X208569271Y-51299689D01*
X208553420Y-51312561D01*
X208542166Y-51319914D01*
X208542158Y-51319921D01*
X208521765Y-51346121D01*
X208513664Y-51355297D01*
X208512485Y-51356475D01*
X208512477Y-51356486D01*
X208500088Y-51373836D01*
X208497646Y-51377110D01*
X208465193Y-51418807D01*
X208461447Y-51425728D01*
X208457989Y-51432801D01*
X208442911Y-51483447D01*
X208441663Y-51487342D01*
X208424500Y-51537338D01*
X208423209Y-51545072D01*
X208422232Y-51552915D01*
X208424415Y-51605699D01*
X208424500Y-51609790D01*
X208424500Y-63053453D01*
X208405593Y-63111644D01*
X208395504Y-63123457D01*
X206269271Y-65249689D01*
X206253420Y-65262561D01*
X206242166Y-65269914D01*
X206242158Y-65269921D01*
X206221765Y-65296121D01*
X206213664Y-65305297D01*
X206212485Y-65306475D01*
X206212472Y-65306491D01*
X206200084Y-65323841D01*
X206197639Y-65327120D01*
X206184177Y-65344415D01*
X206166324Y-65362146D01*
X206107382Y-65407376D01*
X206107377Y-65407381D01*
X206019139Y-65522374D01*
X206019137Y-65522378D01*
X205963670Y-65656290D01*
X205963669Y-65656291D01*
X205944750Y-65799999D01*
X205944750Y-65800000D01*
X205963669Y-65943708D01*
X205963670Y-65943709D01*
X205999999Y-66031418D01*
X206019139Y-66077625D01*
X206107379Y-66192621D01*
X206222375Y-66280861D01*
X206356291Y-66336330D01*
X206500000Y-66355250D01*
X206643709Y-66336330D01*
X206777625Y-66280861D01*
X206892621Y-66192621D01*
X206921458Y-66155039D01*
X206971882Y-66120384D01*
X207033047Y-66121985D01*
X207078542Y-66155040D01*
X207093858Y-66175001D01*
X207107379Y-66192621D01*
X207222375Y-66280861D01*
X207356291Y-66336330D01*
X207500000Y-66355250D01*
X207643709Y-66336330D01*
X207777625Y-66280861D01*
X207889733Y-66194836D01*
X207947408Y-66174413D01*
X208006074Y-66191790D01*
X208010247Y-66194822D01*
X208122375Y-66280861D01*
X208256291Y-66336330D01*
X208400000Y-66355250D01*
X208543709Y-66336330D01*
X208620719Y-66304431D01*
X208681712Y-66299631D01*
X208733881Y-66331600D01*
X208757296Y-66388128D01*
X208756754Y-66408819D01*
X208745465Y-66494564D01*
X208719124Y-66549788D01*
X208717316Y-66551644D01*
X208623459Y-66645503D01*
X208568943Y-66673281D01*
X208553455Y-66674500D01*
X203197236Y-66674500D01*
X203139045Y-66655593D01*
X203103081Y-66606093D01*
X203103081Y-66544907D01*
X203136969Y-66496958D01*
X203137257Y-66496736D01*
X203142621Y-66492621D01*
X203230861Y-66377625D01*
X203286330Y-66243709D01*
X203288495Y-66227261D01*
X203314835Y-66172037D01*
X203368605Y-66142841D01*
X203399564Y-66142030D01*
X203500000Y-66155253D01*
X203643709Y-66136333D01*
X203777625Y-66080864D01*
X203892621Y-65992624D01*
X203980861Y-65877628D01*
X204036330Y-65743712D01*
X204055250Y-65600003D01*
X204050466Y-65563669D01*
X204036330Y-65456294D01*
X203980861Y-65322378D01*
X203980858Y-65322374D01*
X203980857Y-65322372D01*
X203933203Y-65260269D01*
X203912778Y-65202593D01*
X203930155Y-65143927D01*
X203933178Y-65139765D01*
X203980861Y-65077625D01*
X204036330Y-64943709D01*
X204055250Y-64800000D01*
X204053595Y-64787433D01*
X204036330Y-64656291D01*
X203980861Y-64522375D01*
X203892621Y-64407379D01*
X203777625Y-64319139D01*
X203777621Y-64319137D01*
X203643709Y-64263670D01*
X203643708Y-64263669D01*
X203500000Y-64244750D01*
X203356291Y-64263669D01*
X203356290Y-64263670D01*
X203240324Y-64311704D01*
X203179327Y-64316504D01*
X203127158Y-64284535D01*
X203103744Y-64228007D01*
X203104287Y-64207313D01*
X203105250Y-64200000D01*
X203105250Y-64199999D01*
X203086330Y-64056291D01*
X203030861Y-63922375D01*
X202945957Y-63811727D01*
X202925534Y-63754052D01*
X202925500Y-63751460D01*
X202925500Y-63249209D01*
X202927607Y-63228893D01*
X202928726Y-63223555D01*
X202930367Y-63215731D01*
X202927034Y-63188996D01*
X202926260Y-63182782D01*
X202925500Y-63170538D01*
X202925500Y-63164791D01*
X202926996Y-63164791D01*
X202939662Y-63111001D01*
X202986014Y-63071062D01*
X203011370Y-63064208D01*
X203140948Y-63047149D01*
X203274864Y-62991680D01*
X203335861Y-62986880D01*
X203383630Y-63016153D01*
X203384374Y-63015410D01*
X203385598Y-63016634D01*
X203386593Y-63017968D01*
X203388030Y-63018849D01*
X203393316Y-63025611D01*
X203394748Y-63027617D01*
X203399579Y-63033823D01*
X203399581Y-63033826D01*
X203438473Y-63069629D01*
X203441400Y-63072437D01*
X204099687Y-63730724D01*
X204112562Y-63746580D01*
X204119916Y-63757836D01*
X204146120Y-63778231D01*
X204155302Y-63786339D01*
X204156482Y-63787519D01*
X204156485Y-63787521D01*
X204173802Y-63799885D01*
X204177082Y-63802330D01*
X204191652Y-63813670D01*
X204216548Y-63833048D01*
X204218814Y-63834811D01*
X204225712Y-63838544D01*
X204232798Y-63842008D01*
X204232801Y-63842010D01*
X204283443Y-63857086D01*
X204287309Y-63858324D01*
X204337340Y-63875500D01*
X204337342Y-63875500D01*
X204345079Y-63876791D01*
X204352904Y-63877766D01*
X204352911Y-63877768D01*
X204405700Y-63875585D01*
X204409791Y-63875500D01*
X206250789Y-63875500D01*
X206271104Y-63877607D01*
X206275530Y-63878534D01*
X206284268Y-63880367D01*
X206317217Y-63876260D01*
X206329461Y-63875500D01*
X206331114Y-63875500D01*
X206352147Y-63871989D01*
X206356149Y-63871406D01*
X206408626Y-63864866D01*
X206408628Y-63864864D01*
X206416138Y-63862629D01*
X206423606Y-63860065D01*
X206423610Y-63860065D01*
X206426813Y-63858332D01*
X206470070Y-63834922D01*
X206473694Y-63833055D01*
X206521211Y-63809826D01*
X206521215Y-63809821D01*
X206527634Y-63805239D01*
X206533822Y-63800422D01*
X206533823Y-63800420D01*
X206533826Y-63800419D01*
X206569629Y-63761525D01*
X206572415Y-63758620D01*
X207567124Y-62763911D01*
X207582974Y-62751041D01*
X207594233Y-62743687D01*
X207614630Y-62717479D01*
X207622756Y-62708280D01*
X207623917Y-62707120D01*
X207636296Y-62689780D01*
X207638712Y-62686539D01*
X207671206Y-62644792D01*
X207671207Y-62644788D01*
X207674939Y-62637892D01*
X207678403Y-62630806D01*
X207678407Y-62630802D01*
X207693490Y-62580134D01*
X207694722Y-62576290D01*
X207711897Y-62526263D01*
X207711897Y-62526258D01*
X207713187Y-62518529D01*
X207714162Y-62510698D01*
X207714165Y-62510691D01*
X207711982Y-62457902D01*
X207711897Y-62453811D01*
X207711897Y-53384936D01*
X207730804Y-53326745D01*
X207732322Y-53324711D01*
X207817258Y-53214022D01*
X207872727Y-53080106D01*
X207891647Y-52936397D01*
X207889756Y-52922037D01*
X207872727Y-52792688D01*
X207817258Y-52658772D01*
X207729018Y-52543776D01*
X207614022Y-52455536D01*
X207614018Y-52455534D01*
X207480106Y-52400067D01*
X207480105Y-52400066D01*
X207336397Y-52381147D01*
X207192688Y-52400066D01*
X207192687Y-52400067D01*
X207058775Y-52455534D01*
X207058771Y-52455536D01*
X206943778Y-52543774D01*
X206943774Y-52543778D01*
X206855536Y-52658771D01*
X206855534Y-52658775D01*
X206800067Y-52792687D01*
X206800066Y-52792688D01*
X206781147Y-52936396D01*
X206781147Y-52936397D01*
X206800066Y-53080105D01*
X206800067Y-53080106D01*
X206854986Y-53212696D01*
X206855536Y-53214022D01*
X206940439Y-53324670D01*
X206960863Y-53382344D01*
X206960897Y-53384936D01*
X206960897Y-54159892D01*
X206941990Y-54218083D01*
X206892490Y-54254047D01*
X206831304Y-54254047D01*
X206787078Y-54224723D01*
X206781129Y-54217857D01*
X206781127Y-54217856D01*
X206660057Y-54140049D01*
X206660048Y-54140045D01*
X206646606Y-54136098D01*
X206596100Y-54101561D01*
X206575540Y-54043933D01*
X206575500Y-54041109D01*
X206575500Y-49496545D01*
X206594407Y-49438354D01*
X206604496Y-49426541D01*
X207440083Y-48590954D01*
X208330728Y-47700308D01*
X208346574Y-47687441D01*
X208357836Y-47680084D01*
X208378230Y-47653880D01*
X208386356Y-47644681D01*
X208387520Y-47643518D01*
X208399915Y-47626154D01*
X208402343Y-47622899D01*
X208434808Y-47581190D01*
X208438543Y-47574287D01*
X208442006Y-47567203D01*
X208442010Y-47567199D01*
X208457093Y-47516531D01*
X208458325Y-47512687D01*
X208475500Y-47462660D01*
X208475500Y-47462655D01*
X208476790Y-47454926D01*
X208477765Y-47447095D01*
X208477768Y-47447088D01*
X208475585Y-47394299D01*
X208475500Y-47390208D01*
X208475500Y-40449209D01*
X208477607Y-40428893D01*
X208480367Y-40415731D01*
X208476260Y-40382782D01*
X208475500Y-40370538D01*
X208475500Y-40368885D01*
X208474888Y-40365221D01*
X208471988Y-40347845D01*
X208471403Y-40343827D01*
X208469904Y-40331800D01*
X208464865Y-40291374D01*
X208464862Y-40291368D01*
X208462613Y-40283813D01*
X208460066Y-40276392D01*
X208434914Y-40229916D01*
X208433041Y-40226276D01*
X208409827Y-40178791D01*
X208409826Y-40178788D01*
X208409822Y-40178784D01*
X208405255Y-40172387D01*
X208400421Y-40166177D01*
X208400420Y-40166176D01*
X208400419Y-40166174D01*
X208361539Y-40130382D01*
X208358611Y-40127573D01*
X208000311Y-39769273D01*
X207987435Y-39753416D01*
X207980084Y-39742164D01*
X207979947Y-39742057D01*
X207953885Y-39721772D01*
X207944699Y-39713661D01*
X207943518Y-39712480D01*
X207943514Y-39712477D01*
X207943512Y-39712475D01*
X207926172Y-39700096D01*
X207922886Y-39697646D01*
X207881190Y-39665191D01*
X207874281Y-39661452D01*
X207867197Y-39657989D01*
X207816551Y-39642911D01*
X207812656Y-39641663D01*
X207762659Y-39624499D01*
X207754923Y-39623208D01*
X207747089Y-39622232D01*
X207747088Y-39622232D01*
X207747086Y-39622232D01*
X207694299Y-39624415D01*
X207690208Y-39624500D01*
X207070534Y-39624500D01*
X207017011Y-39608784D01*
X206910057Y-39540049D01*
X206910054Y-39540047D01*
X206910053Y-39540047D01*
X206899499Y-39536948D01*
X206771964Y-39499500D01*
X206771961Y-39499500D01*
X206628039Y-39499500D01*
X206628035Y-39499500D01*
X206489949Y-39540046D01*
X206489942Y-39540049D01*
X206378773Y-39611493D01*
X206319598Y-39627048D01*
X206271727Y-39611493D01*
X206160557Y-39540049D01*
X206160554Y-39540047D01*
X206160553Y-39540047D01*
X206149999Y-39536948D01*
X206022464Y-39499500D01*
X206022461Y-39499500D01*
X205878539Y-39499500D01*
X205878537Y-39499500D01*
X205878533Y-39499501D01*
X205877890Y-39499690D01*
X205877330Y-39499674D01*
X205871529Y-39500508D01*
X205871384Y-39499504D01*
X205816729Y-39497942D01*
X205768277Y-39460578D01*
X205751000Y-39404700D01*
X205751000Y-39001044D01*
X205769907Y-38942853D01*
X205804357Y-38914686D01*
X205804097Y-38914281D01*
X205807629Y-38912010D01*
X205808883Y-38910986D01*
X205810044Y-38910455D01*
X205810053Y-38910453D01*
X205814314Y-38907715D01*
X205914729Y-38843182D01*
X205931128Y-38832643D01*
X206025377Y-38723873D01*
X206085165Y-38592957D01*
X206095493Y-38521125D01*
X206105647Y-38450502D01*
X206105647Y-38450497D01*
X206085165Y-38308043D01*
X206025604Y-38177625D01*
X206025377Y-38177127D01*
X205931128Y-38068357D01*
X205931127Y-38068356D01*
X205931126Y-38068355D01*
X205810057Y-37990549D01*
X205810054Y-37990547D01*
X205810053Y-37990547D01*
X205810050Y-37990546D01*
X205671964Y-37950000D01*
X205671961Y-37950000D01*
X205528039Y-37950000D01*
X205528035Y-37950000D01*
X205389949Y-37990546D01*
X205389942Y-37990549D01*
X205268873Y-38068355D01*
X205174622Y-38177128D01*
X205114834Y-38308043D01*
X205102810Y-38391673D01*
X205085385Y-38435116D01*
X205075587Y-38448837D01*
X205073146Y-38452110D01*
X205040693Y-38493807D01*
X205036947Y-38500728D01*
X205033489Y-38507801D01*
X205018411Y-38558447D01*
X205017163Y-38562342D01*
X205000000Y-38612338D01*
X204998709Y-38620072D01*
X204997732Y-38627915D01*
X204999915Y-38680699D01*
X205000000Y-38684790D01*
X205000000Y-39742057D01*
X204981093Y-39800248D01*
X204971004Y-39812061D01*
X200814101Y-43968963D01*
X200798250Y-43981835D01*
X200786996Y-43989188D01*
X200786988Y-43989195D01*
X200766595Y-44015395D01*
X200758494Y-44024571D01*
X200757315Y-44025749D01*
X200757307Y-44025760D01*
X200744918Y-44043110D01*
X200742476Y-44046384D01*
X200710023Y-44088081D01*
X200706277Y-44095002D01*
X200702819Y-44102075D01*
X200687741Y-44152721D01*
X200686493Y-44156616D01*
X200669330Y-44206612D01*
X200668039Y-44214346D01*
X200667062Y-44222189D01*
X200669245Y-44274973D01*
X200669330Y-44279064D01*
X200669330Y-55864709D01*
X200650423Y-55922900D01*
X200600923Y-55958864D01*
X200557408Y-55962862D01*
X200419831Y-55944750D01*
X200419830Y-55944750D01*
X200276121Y-55963669D01*
X200276120Y-55963670D01*
X200142208Y-56019137D01*
X200142204Y-56019139D01*
X200027211Y-56107377D01*
X200027207Y-56107381D01*
X199938969Y-56222374D01*
X199938967Y-56222378D01*
X199883500Y-56356290D01*
X199883499Y-56356291D01*
X199864580Y-56499999D01*
X199864580Y-56500000D01*
X199883499Y-56643708D01*
X199883500Y-56643709D01*
X199938969Y-56777625D01*
X200027209Y-56892621D01*
X200142205Y-56980861D01*
X200276121Y-57036330D01*
X200419829Y-57055250D01*
X200419829Y-57055249D01*
X200419830Y-57055250D01*
X200557408Y-57037137D01*
X200617568Y-57048287D01*
X200659686Y-57092669D01*
X200669330Y-57135290D01*
X200669330Y-59099284D01*
X200650423Y-59157475D01*
X200600923Y-59193439D01*
X200539737Y-59193439D01*
X200500326Y-59169288D01*
X198600311Y-57269273D01*
X198587435Y-57253416D01*
X198580084Y-57242164D01*
X198553888Y-57221775D01*
X198544699Y-57213661D01*
X198543518Y-57212480D01*
X198543514Y-57212477D01*
X198543512Y-57212475D01*
X198526172Y-57200096D01*
X198522886Y-57197646D01*
X198481190Y-57165191D01*
X198474281Y-57161452D01*
X198467197Y-57157989D01*
X198416551Y-57142911D01*
X198412656Y-57141663D01*
X198362659Y-57124499D01*
X198354917Y-57123207D01*
X198338951Y-57121218D01*
X198339201Y-57119204D01*
X198290722Y-57105638D01*
X198285304Y-57101764D01*
X198177625Y-57019139D01*
X198177621Y-57019137D01*
X198043709Y-56963670D01*
X198043708Y-56963669D01*
X197900000Y-56944750D01*
X197756291Y-56963669D01*
X197756290Y-56963670D01*
X197622378Y-57019137D01*
X197622374Y-57019139D01*
X197507381Y-57107377D01*
X197507377Y-57107381D01*
X197419139Y-57222374D01*
X197419137Y-57222378D01*
X197363670Y-57356290D01*
X197363669Y-57356291D01*
X197344750Y-57499999D01*
X197344750Y-57500000D01*
X197363669Y-57643708D01*
X197363670Y-57643709D01*
X197388900Y-57704621D01*
X197393700Y-57765618D01*
X197361731Y-57817787D01*
X197305202Y-57841201D01*
X197245708Y-57826917D01*
X197227432Y-57812510D01*
X196704496Y-57289574D01*
X196676719Y-57235057D01*
X196675500Y-57219570D01*
X196675500Y-56948539D01*
X196694407Y-56890348D01*
X196695925Y-56888314D01*
X196780861Y-56777625D01*
X196836330Y-56643709D01*
X196855250Y-56500000D01*
X196852730Y-56480862D01*
X196836330Y-56356291D01*
X196780861Y-56222375D01*
X196692621Y-56107379D01*
X196577625Y-56019139D01*
X196577621Y-56019137D01*
X196443709Y-55963670D01*
X196443708Y-55963669D01*
X196300000Y-55944750D01*
X196156291Y-55963669D01*
X196156290Y-55963670D01*
X196022378Y-56019137D01*
X196022374Y-56019139D01*
X195907381Y-56107377D01*
X195907377Y-56107381D01*
X195819139Y-56222374D01*
X195819137Y-56222378D01*
X195763670Y-56356290D01*
X195763669Y-56356291D01*
X195744750Y-56499999D01*
X195744750Y-56500000D01*
X195763669Y-56643708D01*
X195763670Y-56643709D01*
X195819139Y-56777625D01*
X195904042Y-56888273D01*
X195924466Y-56945947D01*
X195924500Y-56948539D01*
X195924500Y-57366905D01*
X195922393Y-57387219D01*
X195919633Y-57400382D01*
X195923740Y-57433333D01*
X195924500Y-57445577D01*
X195924500Y-57447235D01*
X195928003Y-57468232D01*
X195928592Y-57472275D01*
X195935133Y-57524740D01*
X195937371Y-57532260D01*
X195939935Y-57539727D01*
X195965088Y-57586207D01*
X195966959Y-57589842D01*
X195990175Y-57637329D01*
X195994736Y-57643717D01*
X195999579Y-57649939D01*
X195999581Y-57649942D01*
X196038473Y-57685745D01*
X196041400Y-57688553D01*
X197227204Y-58874357D01*
X197254981Y-58928874D01*
X197245410Y-58989306D01*
X197217468Y-59022902D01*
X197107385Y-59107373D01*
X197107377Y-59107381D01*
X197019139Y-59222374D01*
X197019137Y-59222378D01*
X196963670Y-59356290D01*
X196963669Y-59356291D01*
X196944750Y-59499999D01*
X196944750Y-59500000D01*
X196963669Y-59643708D01*
X196963670Y-59643709D01*
X197006816Y-59747876D01*
X197019139Y-59777625D01*
X197107379Y-59892621D01*
X197222375Y-59980861D01*
X197356291Y-60036330D01*
X197500000Y-60055250D01*
X197643709Y-60036330D01*
X197777625Y-59980861D01*
X197892621Y-59892621D01*
X197977096Y-59782530D01*
X198027519Y-59747876D01*
X198088684Y-59749477D01*
X198125641Y-59772795D01*
X198695504Y-60342657D01*
X198723281Y-60397174D01*
X198724500Y-60412661D01*
X198724500Y-60551460D01*
X198705593Y-60609651D01*
X198704042Y-60611728D01*
X198619139Y-60722374D01*
X198619137Y-60722378D01*
X198563670Y-60856290D01*
X198563669Y-60856291D01*
X198544750Y-60999999D01*
X198544750Y-61000000D01*
X198563669Y-61143708D01*
X198563670Y-61143709D01*
X198614715Y-61266946D01*
X198619139Y-61277625D01*
X198704042Y-61388273D01*
X198724466Y-61445947D01*
X198724500Y-61448539D01*
X198724500Y-63154454D01*
X198705593Y-63212645D01*
X198656093Y-63248609D01*
X198594907Y-63248609D01*
X198555496Y-63224458D01*
X198021311Y-62690273D01*
X197993534Y-62635756D01*
X197993162Y-62633190D01*
X197993119Y-62632866D01*
X197986330Y-62581291D01*
X197930861Y-62447375D01*
X197842621Y-62332379D01*
X197727625Y-62244139D01*
X197727621Y-62244137D01*
X197593709Y-62188670D01*
X197593708Y-62188669D01*
X197450000Y-62169750D01*
X197306291Y-62188669D01*
X197306290Y-62188670D01*
X197172378Y-62244137D01*
X197172374Y-62244139D01*
X197057381Y-62332377D01*
X197057377Y-62332381D01*
X196969139Y-62447374D01*
X196969137Y-62447378D01*
X196913670Y-62581290D01*
X196913669Y-62581291D01*
X196895128Y-62722128D01*
X196894750Y-62725000D01*
X196912178Y-62857379D01*
X196912863Y-62862578D01*
X196901713Y-62922738D01*
X196857331Y-62964856D01*
X196814710Y-62974500D01*
X196521546Y-62974500D01*
X196463355Y-62955593D01*
X196451542Y-62945504D01*
X196282683Y-62776645D01*
X196254906Y-62722128D01*
X196254534Y-62719563D01*
X196252895Y-62707117D01*
X196236330Y-62581291D01*
X196180861Y-62447375D01*
X196092621Y-62332379D01*
X195977625Y-62244139D01*
X195977621Y-62244137D01*
X195843709Y-62188670D01*
X195843708Y-62188669D01*
X195700000Y-62169750D01*
X195556291Y-62188669D01*
X195556290Y-62188670D01*
X195422378Y-62244137D01*
X195422374Y-62244139D01*
X195307381Y-62332377D01*
X195307377Y-62332381D01*
X195219139Y-62447374D01*
X195219137Y-62447378D01*
X195163670Y-62581290D01*
X195163669Y-62581291D01*
X195144750Y-62724999D01*
X195144750Y-62725000D01*
X195163669Y-62868708D01*
X195163670Y-62868709D01*
X195206042Y-62971007D01*
X195219139Y-63002625D01*
X195307379Y-63117621D01*
X195422375Y-63205861D01*
X195556291Y-63261330D01*
X195694564Y-63279534D01*
X195749789Y-63305875D01*
X195751646Y-63307683D01*
X195899459Y-63455496D01*
X195927236Y-63510013D01*
X195917665Y-63570445D01*
X195874400Y-63613710D01*
X195829455Y-63624500D01*
X195421545Y-63624500D01*
X195363354Y-63605593D01*
X195351541Y-63595504D01*
X194532683Y-62776645D01*
X194504906Y-62722128D01*
X194504534Y-62719563D01*
X194502895Y-62707117D01*
X194486330Y-62581291D01*
X194430861Y-62447375D01*
X194342621Y-62332379D01*
X194227625Y-62244139D01*
X194227621Y-62244137D01*
X194093709Y-62188670D01*
X194093708Y-62188669D01*
X193950000Y-62169750D01*
X193806291Y-62188669D01*
X193806290Y-62188670D01*
X193672378Y-62244137D01*
X193672374Y-62244139D01*
X193557381Y-62332377D01*
X193557377Y-62332381D01*
X193469139Y-62447374D01*
X193469137Y-62447378D01*
X193413670Y-62581290D01*
X193413669Y-62581291D01*
X193394750Y-62724999D01*
X193394750Y-62725000D01*
X193413669Y-62868708D01*
X193413670Y-62868709D01*
X193456042Y-62971007D01*
X193469139Y-63002625D01*
X193557379Y-63117621D01*
X193672375Y-63205861D01*
X193806291Y-63261330D01*
X193944564Y-63279534D01*
X193999789Y-63305875D01*
X194001646Y-63307683D01*
X194924687Y-64230724D01*
X194937562Y-64246580D01*
X194943054Y-64254987D01*
X194944916Y-64257836D01*
X194971120Y-64278231D01*
X194980302Y-64286339D01*
X194981482Y-64287519D01*
X194981485Y-64287521D01*
X194998802Y-64299885D01*
X195002082Y-64302330D01*
X195043814Y-64334811D01*
X195050712Y-64338544D01*
X195057798Y-64342008D01*
X195057801Y-64342010D01*
X195108443Y-64357086D01*
X195112309Y-64358324D01*
X195162340Y-64375500D01*
X195162342Y-64375500D01*
X195170079Y-64376791D01*
X195177904Y-64377766D01*
X195177911Y-64377768D01*
X195230700Y-64375585D01*
X195234791Y-64375500D01*
X197162339Y-64375500D01*
X197220530Y-64394407D01*
X197232343Y-64404496D01*
X200894996Y-68067149D01*
X200913932Y-68093670D01*
X200915175Y-68096214D01*
X200919738Y-68102603D01*
X200924579Y-68108823D01*
X200924581Y-68108826D01*
X200963473Y-68144629D01*
X200966400Y-68147437D01*
X201544267Y-68725304D01*
X201557142Y-68741160D01*
X201564426Y-68752310D01*
X201564496Y-68752416D01*
X201590700Y-68772811D01*
X201599882Y-68780919D01*
X201601062Y-68782099D01*
X201601065Y-68782101D01*
X201618382Y-68794465D01*
X201621662Y-68796910D01*
X201631293Y-68804406D01*
X201661128Y-68827628D01*
X201663394Y-68829391D01*
X201670292Y-68833124D01*
X201677378Y-68836588D01*
X201677381Y-68836590D01*
X201728023Y-68851666D01*
X201731889Y-68852904D01*
X201781920Y-68870080D01*
X201781922Y-68870080D01*
X201789659Y-68871371D01*
X201797484Y-68872346D01*
X201797491Y-68872348D01*
X201850280Y-68870165D01*
X201854371Y-68870080D01*
X209806209Y-68870080D01*
X209826524Y-68872187D01*
X209830950Y-68873114D01*
X209839688Y-68874947D01*
X209872637Y-68870840D01*
X209884881Y-68870080D01*
X209886534Y-68870080D01*
X209907567Y-68866569D01*
X209911569Y-68865986D01*
X209964046Y-68859446D01*
X209964048Y-68859444D01*
X209971558Y-68857209D01*
X209979026Y-68854645D01*
X209979030Y-68854645D01*
X209982233Y-68852912D01*
X210025490Y-68829502D01*
X210029114Y-68827635D01*
X210076631Y-68804406D01*
X210076635Y-68804401D01*
X210083054Y-68799819D01*
X210089242Y-68795002D01*
X210089243Y-68795000D01*
X210089246Y-68794999D01*
X210125049Y-68756105D01*
X210127835Y-68753200D01*
X210798354Y-68082681D01*
X210852869Y-68054906D01*
X210855390Y-68054540D01*
X210993709Y-68036330D01*
X211127625Y-67980861D01*
X211239733Y-67894836D01*
X211297408Y-67874413D01*
X211356074Y-67891790D01*
X211360247Y-67894822D01*
X211472375Y-67980861D01*
X211606291Y-68036330D01*
X211750000Y-68055250D01*
X211893709Y-68036330D01*
X212027625Y-67980861D01*
X212142621Y-67892621D01*
X212230861Y-67777625D01*
X212286330Y-67643709D01*
X212305250Y-67500000D01*
X212286330Y-67356291D01*
X212230861Y-67222375D01*
X212142621Y-67107379D01*
X212027625Y-67019139D01*
X212027621Y-67019137D01*
X211893709Y-66963670D01*
X211893708Y-66963669D01*
X211750000Y-66944750D01*
X211606291Y-66963669D01*
X211606290Y-66963670D01*
X211472378Y-67019137D01*
X211472370Y-67019142D01*
X211360267Y-67105162D01*
X211302592Y-67125586D01*
X211243926Y-67108209D01*
X211239733Y-67105162D01*
X211127629Y-67019142D01*
X211127628Y-67019141D01*
X211127625Y-67019139D01*
X211127622Y-67019138D01*
X211127621Y-67019137D01*
X210993709Y-66963670D01*
X210993708Y-66963669D01*
X210850000Y-66944750D01*
X210849999Y-66944750D01*
X210706893Y-66963590D01*
X210646732Y-66952440D01*
X210604615Y-66908057D01*
X210595818Y-66878359D01*
X210592084Y-66850000D01*
X210586330Y-66806291D01*
X210530861Y-66672375D01*
X210442621Y-66557379D01*
X210327625Y-66469139D01*
X210327621Y-66469137D01*
X210193709Y-66413670D01*
X210193708Y-66413669D01*
X210050000Y-66394750D01*
X210049999Y-66394750D01*
X209937800Y-66409521D01*
X209877639Y-66398371D01*
X209835522Y-66353988D01*
X209833438Y-66349310D01*
X209780861Y-66222375D01*
X209692621Y-66107379D01*
X209577625Y-66019139D01*
X209577621Y-66019137D01*
X209443709Y-65963670D01*
X209310182Y-65946090D01*
X209254957Y-65919749D01*
X209225763Y-65865978D01*
X209233749Y-65805316D01*
X209253096Y-65777939D01*
X210230727Y-64800308D01*
X210246577Y-64787438D01*
X210257836Y-64780084D01*
X210278233Y-64753876D01*
X210286359Y-64744677D01*
X210287520Y-64743517D01*
X210299899Y-64726177D01*
X210302315Y-64722936D01*
X210334809Y-64681189D01*
X210334810Y-64681185D01*
X210338542Y-64674289D01*
X210342010Y-64667198D01*
X210345257Y-64656291D01*
X210357094Y-64616528D01*
X210358332Y-64612666D01*
X210375500Y-64562660D01*
X210375500Y-64562655D01*
X210376795Y-64554897D01*
X210377767Y-64547094D01*
X210377769Y-64547088D01*
X210375585Y-64494285D01*
X210375500Y-64490194D01*
X210375500Y-52496545D01*
X210394407Y-52438354D01*
X210404496Y-52426541D01*
X210676541Y-52154496D01*
X210731058Y-52126719D01*
X210746545Y-52125500D01*
X210801461Y-52125500D01*
X210859652Y-52144407D01*
X210861685Y-52145925D01*
X210972375Y-52230861D01*
X211106291Y-52286330D01*
X211250000Y-52305250D01*
X211393709Y-52286330D01*
X211527625Y-52230861D01*
X211582153Y-52189019D01*
X211639826Y-52168596D01*
X211698492Y-52185973D01*
X211702687Y-52189020D01*
X211707377Y-52192619D01*
X211707379Y-52192621D01*
X211822375Y-52280861D01*
X211956291Y-52336330D01*
X212100000Y-52355250D01*
X212243709Y-52336330D01*
X212377625Y-52280861D01*
X212492621Y-52192621D01*
X212580861Y-52077625D01*
X212636330Y-51943709D01*
X212655250Y-51800000D01*
X212636330Y-51656291D01*
X212628497Y-51637382D01*
X212623699Y-51576388D01*
X212655668Y-51524219D01*
X212712197Y-51500805D01*
X212719963Y-51500500D01*
X213678455Y-51500500D01*
X213736646Y-51519407D01*
X213748459Y-51529496D01*
X213917316Y-51698353D01*
X213945093Y-51752870D01*
X213945465Y-51755434D01*
X213961919Y-51880409D01*
X213950769Y-51940570D01*
X213906387Y-51982688D01*
X213845725Y-51990674D01*
X213838218Y-51988574D01*
X213838179Y-51988737D01*
X213678987Y-51949500D01*
X213678985Y-51949500D01*
X213521015Y-51949500D01*
X213521012Y-51949500D01*
X213367635Y-51987303D01*
X213227758Y-52060718D01*
X213109515Y-52165471D01*
X213019780Y-52295476D01*
X212963763Y-52443182D01*
X212963762Y-52443183D01*
X212944722Y-52599998D01*
X212944722Y-52600001D01*
X212963762Y-52756816D01*
X212963763Y-52756818D01*
X213011208Y-52881921D01*
X213019780Y-52904523D01*
X213109515Y-53034528D01*
X213109516Y-53034529D01*
X213109517Y-53034530D01*
X213227760Y-53139283D01*
X213367635Y-53212696D01*
X213429139Y-53227854D01*
X213475448Y-53253973D01*
X213606411Y-53384936D01*
X213700364Y-53478888D01*
X213728142Y-53533405D01*
X213718571Y-53593837D01*
X213675306Y-53637102D01*
X213617442Y-53647045D01*
X213600005Y-53644750D01*
X213600000Y-53644750D01*
X213456291Y-53663669D01*
X213456290Y-53663670D01*
X213322378Y-53719137D01*
X213322374Y-53719139D01*
X213207381Y-53807377D01*
X213207377Y-53807381D01*
X213119139Y-53922374D01*
X213119137Y-53922378D01*
X213063670Y-54056290D01*
X213063669Y-54056291D01*
X213044750Y-54199999D01*
X213044750Y-54200000D01*
X213052874Y-54261709D01*
X213041724Y-54321870D01*
X212997342Y-54363987D01*
X212936680Y-54371973D01*
X212884717Y-54344635D01*
X212866709Y-54326627D01*
X212773766Y-54233683D01*
X212745990Y-54179168D01*
X212745618Y-54176603D01*
X212740805Y-54140047D01*
X212727414Y-54038330D01*
X212671945Y-53904414D01*
X212583705Y-53789418D01*
X212468709Y-53701178D01*
X212468705Y-53701176D01*
X212334793Y-53645709D01*
X212334792Y-53645708D01*
X212191084Y-53626789D01*
X212047375Y-53645708D01*
X212047374Y-53645709D01*
X211913462Y-53701176D01*
X211913458Y-53701178D01*
X211798465Y-53789416D01*
X211798461Y-53789420D01*
X211710223Y-53904413D01*
X211710221Y-53904417D01*
X211654754Y-54038329D01*
X211654753Y-54038330D01*
X211635834Y-54182038D01*
X211635834Y-54182039D01*
X211654753Y-54325747D01*
X211654754Y-54325748D01*
X211710223Y-54459664D01*
X211798463Y-54574660D01*
X211913459Y-54662900D01*
X212047375Y-54718369D01*
X212185648Y-54736573D01*
X212240873Y-54762914D01*
X212242730Y-54764722D01*
X212533732Y-55055724D01*
X212546607Y-55071580D01*
X212553961Y-55082836D01*
X212580165Y-55103231D01*
X212589347Y-55111339D01*
X212590527Y-55112519D01*
X212590530Y-55112521D01*
X212607847Y-55124885D01*
X212611127Y-55127330D01*
X212634612Y-55145609D01*
X212647845Y-55155909D01*
X212652859Y-55159811D01*
X212659757Y-55163544D01*
X212666843Y-55167008D01*
X212666846Y-55167010D01*
X212717516Y-55182095D01*
X212721351Y-55183323D01*
X212771385Y-55200500D01*
X212771387Y-55200500D01*
X212779121Y-55201791D01*
X212786950Y-55202766D01*
X212786957Y-55202768D01*
X212839746Y-55200585D01*
X212843837Y-55200500D01*
X213228455Y-55200500D01*
X213286646Y-55219407D01*
X213298459Y-55229496D01*
X215646898Y-57577935D01*
X215674674Y-57632450D01*
X215665103Y-57692882D01*
X215621838Y-57736147D01*
X215589816Y-57746090D01*
X215456291Y-57763670D01*
X215456290Y-57763670D01*
X215322378Y-57819137D01*
X215322374Y-57819139D01*
X215207381Y-57907377D01*
X215207377Y-57907381D01*
X215119139Y-58022374D01*
X215119137Y-58022378D01*
X215063670Y-58156290D01*
X215063669Y-58156291D01*
X215044750Y-58299999D01*
X215044750Y-58300000D01*
X215063669Y-58443708D01*
X215063670Y-58443709D01*
X215096251Y-58522369D01*
X215119139Y-58577625D01*
X215207379Y-58692621D01*
X215322375Y-58780861D01*
X215456291Y-58836330D01*
X215600000Y-58855250D01*
X215743709Y-58836330D01*
X215877625Y-58780861D01*
X215992621Y-58692621D01*
X216080861Y-58577625D01*
X216136330Y-58443709D01*
X216153909Y-58310183D01*
X216180250Y-58254959D01*
X216234021Y-58225764D01*
X216294683Y-58233750D01*
X216322061Y-58253098D01*
X216395505Y-58326542D01*
X216423281Y-58381057D01*
X216424500Y-58396544D01*
X216424500Y-60182464D01*
X216405593Y-60240655D01*
X216356093Y-60276619D01*
X216294907Y-60276619D01*
X216283629Y-60271598D01*
X216283620Y-60271622D01*
X216143709Y-60213670D01*
X216143708Y-60213669D01*
X216000000Y-60194750D01*
X215856291Y-60213669D01*
X215856290Y-60213670D01*
X215722378Y-60269137D01*
X215722374Y-60269139D01*
X215607381Y-60357377D01*
X215607377Y-60357381D01*
X215519139Y-60472374D01*
X215519137Y-60472378D01*
X215463670Y-60606290D01*
X215463669Y-60606291D01*
X215444750Y-60749999D01*
X215444750Y-60750000D01*
X215463669Y-60893708D01*
X215463670Y-60893709D01*
X215507696Y-61000000D01*
X215519139Y-61027625D01*
X215607379Y-61142621D01*
X215722375Y-61230861D01*
X215856291Y-61286330D01*
X216000000Y-61305250D01*
X216143709Y-61286330D01*
X216277625Y-61230861D01*
X216392621Y-61142621D01*
X216480861Y-61027625D01*
X216536330Y-60893709D01*
X216536458Y-60892735D01*
X216536760Y-60892101D01*
X216538010Y-60887439D01*
X216538873Y-60887670D01*
X216562796Y-60837512D01*
X216616566Y-60808314D01*
X216677228Y-60816298D01*
X216704615Y-60835652D01*
X217613270Y-61744307D01*
X217641047Y-61798824D01*
X217640962Y-61830326D01*
X217622375Y-61943708D01*
X217620740Y-61953683D01*
X217630755Y-62138407D01*
X217677670Y-62307381D01*
X217680247Y-62316661D01*
X217680250Y-62316667D01*
X217766899Y-62480103D01*
X217766900Y-62480104D01*
X217886661Y-62621098D01*
X217886666Y-62621103D01*
X218033932Y-62733052D01*
X218033934Y-62733053D01*
X218033935Y-62733053D01*
X218033936Y-62733054D01*
X218201833Y-62810732D01*
X218382503Y-62850500D01*
X218382507Y-62850500D01*
X219071112Y-62850500D01*
X219071113Y-62850500D01*
X219208910Y-62835514D01*
X219384221Y-62776444D01*
X219511274Y-62700000D01*
X219542733Y-62681072D01*
X219542733Y-62681071D01*
X219542736Y-62681070D01*
X219677041Y-62553849D01*
X219766183Y-62422374D01*
X219780857Y-62400732D01*
X219782633Y-62396274D01*
X219849331Y-62228875D01*
X219879260Y-62046317D01*
X219869245Y-61861593D01*
X219819754Y-61683341D01*
X219733100Y-61519896D01*
X219613337Y-61378900D01*
X219613333Y-61378896D01*
X219466067Y-61266947D01*
X219466065Y-61266946D01*
X219298170Y-61189269D01*
X219298168Y-61189268D01*
X219262033Y-61181314D01*
X219117497Y-61149500D01*
X218428887Y-61149500D01*
X218291090Y-61164486D01*
X218291088Y-61164486D01*
X218291085Y-61164487D01*
X218203003Y-61194165D01*
X218141821Y-61194827D01*
X218101389Y-61170351D01*
X217204496Y-60273458D01*
X217176719Y-60218941D01*
X217175500Y-60203454D01*
X217175500Y-59745545D01*
X217194407Y-59687354D01*
X217243907Y-59651390D01*
X217305093Y-59651390D01*
X217344504Y-59675541D01*
X217593831Y-59924868D01*
X217621608Y-59979385D01*
X217622682Y-59989512D01*
X217628266Y-60092506D01*
X217630755Y-60138407D01*
X217680246Y-60316659D01*
X217680247Y-60316661D01*
X217680250Y-60316667D01*
X217766899Y-60480103D01*
X217766900Y-60480104D01*
X217886661Y-60621098D01*
X217886666Y-60621103D01*
X218033932Y-60733052D01*
X218033934Y-60733053D01*
X218033935Y-60733053D01*
X218033936Y-60733054D01*
X218201833Y-60810732D01*
X218382503Y-60850500D01*
X218382507Y-60850500D01*
X219071112Y-60850500D01*
X219071113Y-60850500D01*
X219208910Y-60835514D01*
X219384221Y-60776444D01*
X219532018Y-60687519D01*
X219542733Y-60681072D01*
X219542733Y-60681071D01*
X219542736Y-60681070D01*
X219677041Y-60553849D01*
X219780858Y-60400730D01*
X219849331Y-60228875D01*
X219879260Y-60046317D01*
X219869245Y-59861593D01*
X219819754Y-59683341D01*
X219733100Y-59519896D01*
X219613337Y-59378900D01*
X219613333Y-59378896D01*
X219466067Y-59266947D01*
X219466065Y-59266946D01*
X219298170Y-59189269D01*
X219298168Y-59189268D01*
X219235590Y-59175494D01*
X219117497Y-59149500D01*
X218428887Y-59149500D01*
X218291090Y-59164486D01*
X218258420Y-59175494D01*
X218115777Y-59223556D01*
X218081457Y-59244205D01*
X218021848Y-59258002D01*
X217965513Y-59234127D01*
X217960416Y-59229378D01*
X217804496Y-59073458D01*
X217776719Y-59018941D01*
X217775500Y-59003454D01*
X217775500Y-58736211D01*
X217794407Y-58678020D01*
X217843907Y-58642056D01*
X217905093Y-58642056D01*
X217934410Y-58657396D01*
X218033936Y-58733054D01*
X218201833Y-58810732D01*
X218382503Y-58850500D01*
X218382507Y-58850500D01*
X219071112Y-58850500D01*
X219071113Y-58850500D01*
X219208910Y-58835514D01*
X219384221Y-58776444D01*
X219542736Y-58681070D01*
X219677041Y-58553849D01*
X219777565Y-58405587D01*
X219780857Y-58400732D01*
X219782526Y-58396544D01*
X219849331Y-58228875D01*
X219879260Y-58046317D01*
X219869245Y-57861593D01*
X219819754Y-57683341D01*
X219733100Y-57519896D01*
X219613337Y-57378900D01*
X219613333Y-57378896D01*
X219466067Y-57266947D01*
X219466065Y-57266946D01*
X219298170Y-57189269D01*
X219298168Y-57189268D01*
X219262033Y-57181314D01*
X219117497Y-57149500D01*
X218428887Y-57149500D01*
X218311625Y-57162252D01*
X218251733Y-57149748D01*
X218230919Y-57133836D01*
X218116586Y-57019502D01*
X218088809Y-56964986D01*
X218098381Y-56904554D01*
X218141645Y-56861289D01*
X218186586Y-56850499D01*
X219422872Y-56850499D01*
X219482483Y-56844091D01*
X219549907Y-56818943D01*
X219617329Y-56793797D01*
X219617329Y-56793796D01*
X219617331Y-56793796D01*
X219732546Y-56707546D01*
X219818796Y-56592331D01*
X219869091Y-56457483D01*
X219875500Y-56397873D01*
X219875499Y-55602128D01*
X219869091Y-55542517D01*
X219867072Y-55537103D01*
X219818797Y-55407670D01*
X219732549Y-55292458D01*
X219732548Y-55292457D01*
X219732546Y-55292454D01*
X219732541Y-55292450D01*
X219617329Y-55206202D01*
X219482488Y-55155910D01*
X219482483Y-55155909D01*
X219482481Y-55155908D01*
X219482477Y-55155908D01*
X219451249Y-55152550D01*
X219422873Y-55149500D01*
X219422870Y-55149500D01*
X218719033Y-55149500D01*
X218660842Y-55130593D01*
X218649029Y-55120504D01*
X218548029Y-55019504D01*
X218520252Y-54964987D01*
X218529823Y-54904555D01*
X218573088Y-54861290D01*
X218618033Y-54850500D01*
X218678986Y-54850500D01*
X218679639Y-54850420D01*
X218699485Y-54847694D01*
X218701330Y-54847635D01*
X218702569Y-54847597D01*
X218766710Y-54828962D01*
X218770547Y-54827932D01*
X218832365Y-54812696D01*
X218835520Y-54811039D01*
X218853911Y-54803628D01*
X218860398Y-54801744D01*
X218914742Y-54769604D01*
X218919132Y-54767156D01*
X218966192Y-54742457D01*
X218972240Y-54739283D01*
X218977640Y-54734498D01*
X218992907Y-54723378D01*
X219001865Y-54718081D01*
X219043964Y-54675980D01*
X219048305Y-54671895D01*
X219090483Y-54634530D01*
X219096664Y-54625574D01*
X219108134Y-54611811D01*
X219640451Y-54079496D01*
X219694967Y-54051719D01*
X219710454Y-54050500D01*
X219829154Y-54050500D01*
X219847703Y-54052253D01*
X219858830Y-54054376D01*
X219917338Y-54050695D01*
X219923554Y-54050500D01*
X219940924Y-54050500D01*
X219940925Y-54050500D01*
X219958169Y-54048321D01*
X219964335Y-54047738D01*
X220022860Y-54044056D01*
X220033635Y-54040554D01*
X220051816Y-54036490D01*
X220063058Y-54035071D01*
X220117565Y-54013489D01*
X220123410Y-54011385D01*
X220179171Y-53993268D01*
X220188738Y-53987195D01*
X220205335Y-53978738D01*
X220215871Y-53974568D01*
X220263322Y-53940091D01*
X220268413Y-53936631D01*
X220317940Y-53905202D01*
X220325700Y-53896937D01*
X220339670Y-53884622D01*
X220348837Y-53877963D01*
X220386221Y-53832772D01*
X220390298Y-53828148D01*
X220430448Y-53785393D01*
X220435906Y-53775462D01*
X220446374Y-53760058D01*
X220453600Y-53751326D01*
X220453745Y-53751019D01*
X220478559Y-53698285D01*
X220481384Y-53692741D01*
X220509625Y-53641373D01*
X220509625Y-53641370D01*
X220509627Y-53641368D01*
X220512446Y-53630387D01*
X220518755Y-53612863D01*
X220523579Y-53602613D01*
X220534567Y-53545004D01*
X220535915Y-53538978D01*
X220550500Y-53482177D01*
X220550500Y-53470846D01*
X220552254Y-53452291D01*
X220554376Y-53441170D01*
X220550695Y-53382662D01*
X220550500Y-53376446D01*
X220550500Y-47282742D01*
X220552383Y-47265683D01*
X220552760Y-47261701D01*
X220550549Y-47191353D01*
X220550500Y-47188243D01*
X220550500Y-47159081D01*
X220550500Y-47159075D01*
X220549798Y-47153524D01*
X220549067Y-47144224D01*
X220547597Y-47097433D01*
X220547597Y-47097430D01*
X220541125Y-47075153D01*
X220537978Y-47059957D01*
X220535071Y-47036942D01*
X220517825Y-46993385D01*
X220514810Y-46984578D01*
X220501744Y-46939601D01*
X220489931Y-46919627D01*
X220483103Y-46905688D01*
X220477929Y-46892618D01*
X220474569Y-46884130D01*
X220474568Y-46884129D01*
X220447041Y-46846241D01*
X220441929Y-46838460D01*
X220418081Y-46798135D01*
X220418079Y-46798133D01*
X220401677Y-46781730D01*
X220391589Y-46769918D01*
X220377964Y-46751164D01*
X220341882Y-46721314D01*
X220334984Y-46715038D01*
X216869947Y-43250001D01*
X217594722Y-43250001D01*
X217613762Y-43406816D01*
X217613763Y-43406818D01*
X217637398Y-43469139D01*
X217669780Y-43554523D01*
X217759515Y-43684528D01*
X217759516Y-43684529D01*
X217759517Y-43684530D01*
X217877760Y-43789283D01*
X218017635Y-43862696D01*
X218171015Y-43900500D01*
X218171018Y-43900500D01*
X218328982Y-43900500D01*
X218328985Y-43900500D01*
X218482365Y-43862696D01*
X218622240Y-43789283D01*
X218684351Y-43734257D01*
X218740445Y-43709823D01*
X218800189Y-43723026D01*
X218815648Y-43734257D01*
X218877760Y-43789283D01*
X219017635Y-43862696D01*
X219171015Y-43900500D01*
X219171018Y-43900500D01*
X219328982Y-43900500D01*
X219328985Y-43900500D01*
X219482365Y-43862696D01*
X219622240Y-43789283D01*
X219740483Y-43684530D01*
X219830220Y-43554523D01*
X219886237Y-43406818D01*
X219905278Y-43250000D01*
X219902093Y-43223773D01*
X219886237Y-43093183D01*
X219886237Y-43093182D01*
X219830220Y-42945477D01*
X219758053Y-42840925D01*
X219740484Y-42815471D01*
X219653371Y-42738296D01*
X219622240Y-42710717D01*
X219552302Y-42674010D01*
X219482364Y-42637303D01*
X219328987Y-42599500D01*
X219328985Y-42599500D01*
X219171015Y-42599500D01*
X219171012Y-42599500D01*
X219017635Y-42637303D01*
X218877755Y-42710719D01*
X218815648Y-42765741D01*
X218759554Y-42790176D01*
X218699810Y-42776972D01*
X218684352Y-42765741D01*
X218622244Y-42710719D01*
X218482364Y-42637303D01*
X218328987Y-42599500D01*
X218328985Y-42599500D01*
X218171015Y-42599500D01*
X218171012Y-42599500D01*
X218017635Y-42637303D01*
X217877758Y-42710718D01*
X217759515Y-42815471D01*
X217669780Y-42945476D01*
X217613763Y-43093182D01*
X217613762Y-43093183D01*
X217594722Y-43249998D01*
X217594722Y-43250001D01*
X216869947Y-43250001D01*
X216179496Y-42559550D01*
X216151719Y-42505033D01*
X216150500Y-42489546D01*
X216150500Y-40045337D01*
X216151222Y-40033403D01*
X216155278Y-40000000D01*
X216155278Y-39999998D01*
X216151222Y-39966595D01*
X216150500Y-39954662D01*
X216150500Y-39045337D01*
X216151222Y-39033403D01*
X216152464Y-39023175D01*
X216155278Y-39000000D01*
X216151047Y-38965161D01*
X216150523Y-38959458D01*
X216150500Y-38959094D01*
X216150500Y-38959075D01*
X216145580Y-38920131D01*
X216136237Y-38843182D01*
X216136236Y-38843179D01*
X216135956Y-38840869D01*
X216135637Y-38839151D01*
X216135072Y-38836951D01*
X216135071Y-38836942D01*
X216106825Y-38765602D01*
X216106319Y-38764296D01*
X216104170Y-38758630D01*
X216080220Y-38695477D01*
X216080219Y-38695475D01*
X216080217Y-38695470D01*
X216077953Y-38691157D01*
X216075536Y-38685891D01*
X216074568Y-38684130D01*
X216074568Y-38684129D01*
X216033727Y-38627915D01*
X216031614Y-38625007D01*
X216030232Y-38623055D01*
X215990486Y-38565473D01*
X215986513Y-38560989D01*
X215986690Y-38560831D01*
X215978158Y-38551432D01*
X215977962Y-38551162D01*
X215924424Y-38506872D01*
X215921881Y-38504694D01*
X215872242Y-38460718D01*
X215872236Y-38460714D01*
X215871511Y-38460334D01*
X215854417Y-38448957D01*
X215851327Y-38446401D01*
X215851326Y-38446400D01*
X215851323Y-38446398D01*
X215851319Y-38446396D01*
X215791729Y-38418354D01*
X215787874Y-38416437D01*
X215732366Y-38387304D01*
X215728004Y-38386229D01*
X215709547Y-38379684D01*
X215702615Y-38376422D01*
X215702608Y-38376419D01*
X215641488Y-38364760D01*
X215636349Y-38363638D01*
X215578985Y-38349500D01*
X215570846Y-38349500D01*
X215552296Y-38347746D01*
X215541170Y-38345624D01*
X215482662Y-38349305D01*
X215476446Y-38349500D01*
X215421015Y-38349500D01*
X215421005Y-38349501D01*
X215409558Y-38352322D01*
X215392094Y-38355002D01*
X215377141Y-38355943D01*
X215377132Y-38355945D01*
X215324843Y-38372934D01*
X215317948Y-38374902D01*
X215267634Y-38387304D01*
X215253951Y-38394485D01*
X215238541Y-38400977D01*
X215220828Y-38406732D01*
X215177463Y-38434252D01*
X215170427Y-38438322D01*
X215127759Y-38460717D01*
X215127757Y-38460718D01*
X215113467Y-38473377D01*
X215100878Y-38482853D01*
X215082059Y-38494798D01*
X215049385Y-38529591D01*
X215042870Y-38535920D01*
X215009519Y-38565467D01*
X214996597Y-38584187D01*
X214987295Y-38595711D01*
X214969551Y-38614607D01*
X214948304Y-38653254D01*
X214943028Y-38661794D01*
X214919782Y-38695473D01*
X214919781Y-38695475D01*
X214919780Y-38695477D01*
X214910424Y-38720145D01*
X214904615Y-38732724D01*
X214890373Y-38758630D01*
X214880307Y-38797833D01*
X214876986Y-38808312D01*
X214863763Y-38843179D01*
X214860144Y-38872981D01*
X214857757Y-38885661D01*
X214849500Y-38917821D01*
X214849500Y-38954662D01*
X214848778Y-38966595D01*
X214844722Y-38999998D01*
X214844722Y-39000000D01*
X214848778Y-39033403D01*
X214849500Y-39045337D01*
X214849500Y-39954662D01*
X214848778Y-39966595D01*
X214844722Y-39999998D01*
X214844722Y-40000000D01*
X214848778Y-40033403D01*
X214849500Y-40045337D01*
X214849500Y-42717254D01*
X214847612Y-42734352D01*
X214847239Y-42738297D01*
X214849451Y-42808644D01*
X214849500Y-42811754D01*
X214849500Y-42840927D01*
X214850201Y-42846482D01*
X214850931Y-42855763D01*
X214852403Y-42902568D01*
X214852404Y-42902575D01*
X214858872Y-42924841D01*
X214862021Y-42940044D01*
X214864929Y-42963059D01*
X214882169Y-43006603D01*
X214885188Y-43015423D01*
X214898255Y-43060395D01*
X214898256Y-43060399D01*
X214910061Y-43080360D01*
X214916894Y-43094308D01*
X214917825Y-43096659D01*
X214925432Y-43115871D01*
X214925433Y-43115872D01*
X214952961Y-43153764D01*
X214958078Y-43161554D01*
X214981920Y-43201866D01*
X214998318Y-43218264D01*
X215008407Y-43230077D01*
X215022036Y-43248837D01*
X215058116Y-43278684D01*
X215065015Y-43284961D01*
X216935550Y-45155496D01*
X216963327Y-45210013D01*
X216953756Y-45270445D01*
X216910491Y-45313710D01*
X216865546Y-45324500D01*
X214096544Y-45324500D01*
X214038353Y-45305593D01*
X214026539Y-45295502D01*
X214004495Y-45273457D01*
X213976719Y-45218940D01*
X213975500Y-45203455D01*
X213975500Y-31849209D01*
X213977607Y-31828893D01*
X213980367Y-31815731D01*
X213976260Y-31782782D01*
X213975500Y-31770538D01*
X213975500Y-31768885D01*
X213974888Y-31765221D01*
X213971988Y-31747845D01*
X213971403Y-31743827D01*
X213964865Y-31691374D01*
X213964862Y-31691368D01*
X213962613Y-31683813D01*
X213960066Y-31676392D01*
X213936691Y-31633199D01*
X213934904Y-31629897D01*
X213933041Y-31626276D01*
X213909827Y-31578791D01*
X213909826Y-31578788D01*
X213909822Y-31578784D01*
X213905255Y-31572387D01*
X213900421Y-31566177D01*
X213900420Y-31566176D01*
X213900419Y-31566174D01*
X213861539Y-31530382D01*
X213858611Y-31527573D01*
X210400311Y-28069273D01*
X210387435Y-28053416D01*
X210380084Y-28042164D01*
X210353888Y-28021775D01*
X210344699Y-28013661D01*
X210343518Y-28012480D01*
X210343514Y-28012477D01*
X210343512Y-28012475D01*
X210326172Y-28000096D01*
X210322886Y-27997646D01*
X210281190Y-27965191D01*
X210274281Y-27961452D01*
X210267197Y-27957989D01*
X210216551Y-27942911D01*
X210212656Y-27941663D01*
X210162659Y-27924499D01*
X210154923Y-27923208D01*
X210147089Y-27922232D01*
X210147088Y-27922232D01*
X210147086Y-27922232D01*
X210094299Y-27924415D01*
X210090208Y-27924500D01*
X193000000Y-27924500D01*
X193000000Y-26000500D01*
X220900500Y-26000500D01*
X220958691Y-26019407D01*
G37*
%TD.AperFunction*%
%TD*%
%TA.AperFunction,Conductor*%
%TO.N,/VESC_Right/DRV8301/SH_B*%
G36*
X172459191Y-36018907D02*
G01*
X172495155Y-36068407D01*
X172500000Y-36099000D01*
X172500000Y-39500000D01*
X173201000Y-39500000D01*
X173259191Y-39518907D01*
X173295155Y-39568407D01*
X173300000Y-39599000D01*
X173300000Y-40901000D01*
X173281093Y-40959191D01*
X173231593Y-40995155D01*
X173201000Y-41000000D01*
X164099000Y-41000000D01*
X164040809Y-40981093D01*
X164004845Y-40931593D01*
X164000000Y-40901000D01*
X164000000Y-36099000D01*
X164018907Y-36040809D01*
X164068407Y-36004845D01*
X164099000Y-36000000D01*
X172401000Y-36000000D01*
X172459191Y-36018907D01*
G37*
%TD.AperFunction*%
%TD*%
%TA.AperFunction,Conductor*%
%TO.N,/VESC_Right/DRV8301/SH_C*%
G36*
X184459191Y-36018907D02*
G01*
X184495155Y-36068407D01*
X184500000Y-36099000D01*
X184500000Y-40901000D01*
X184481093Y-40959191D01*
X184431593Y-40995155D01*
X184401000Y-41000000D01*
X176099000Y-41000000D01*
X176040809Y-40981093D01*
X176004845Y-40931593D01*
X176000000Y-40901000D01*
X176000000Y-36099000D01*
X176018907Y-36040809D01*
X176068407Y-36004845D01*
X176099000Y-36000000D01*
X184401000Y-36000000D01*
X184459191Y-36018907D01*
G37*
%TD.AperFunction*%
%TD*%
%TA.AperFunction,Conductor*%
%TO.N,GND*%
G36*
X151344788Y-41721353D02*
G01*
X151393808Y-41748480D01*
X151543956Y-41855259D01*
X151543961Y-41855262D01*
X151574409Y-41868695D01*
X151730098Y-41937382D01*
X151788289Y-41956289D01*
X151896594Y-41984917D01*
X151896595Y-41984917D01*
X151896599Y-41984918D01*
X151896598Y-41984918D01*
X152098980Y-42005498D01*
X152099000Y-42005500D01*
X160454597Y-42005500D01*
X160549885Y-42024454D01*
X160630667Y-42078430D01*
X168827450Y-50275213D01*
X168835393Y-50283533D01*
X168887763Y-50340980D01*
X168949805Y-50387832D01*
X168958802Y-50394957D01*
X169018646Y-50444652D01*
X169027938Y-50449827D01*
X169056831Y-50468654D01*
X169065311Y-50475058D01*
X169134928Y-50509723D01*
X169145079Y-50515074D01*
X169213015Y-50552914D01*
X169223090Y-50556290D01*
X169254951Y-50569487D01*
X169264472Y-50574229D01*
X169339287Y-50595515D01*
X169350244Y-50598908D01*
X169400365Y-50615707D01*
X169423963Y-50623617D01*
X169423964Y-50623617D01*
X169423967Y-50623618D01*
X169434491Y-50625085D01*
X169468230Y-50632203D01*
X169478464Y-50635115D01*
X169555904Y-50642290D01*
X169567314Y-50643613D01*
X169644319Y-50654356D01*
X169644322Y-50654355D01*
X169644324Y-50654356D01*
X169721971Y-50650766D01*
X169733471Y-50650500D01*
X192941529Y-50650500D01*
X192953029Y-50650766D01*
X192955148Y-50650863D01*
X193000000Y-50652937D01*
X193000000Y-55000000D01*
X192000541Y-55000000D01*
X192000541Y-54999999D01*
X192000383Y-54999617D01*
X192000382Y-54999616D01*
X192000059Y-54999483D01*
X192000001Y-54999459D01*
X191950586Y-54999459D01*
X191950380Y-54999500D01*
X151249500Y-54999500D01*
X151154212Y-54980546D01*
X151073430Y-54926570D01*
X151019454Y-54845788D01*
X151000500Y-54750500D01*
X151000500Y-41951399D01*
X151019454Y-41856111D01*
X151073430Y-41775329D01*
X151154212Y-41721353D01*
X151249500Y-41702399D01*
X151344788Y-41721353D01*
G37*
%TD.AperFunction*%
%TA.AperFunction,Conductor*%
G36*
X192613868Y-34768684D02*
G01*
X192613866Y-34768691D01*
X192594700Y-35000000D01*
X192613866Y-35231308D01*
X192613868Y-35231315D01*
X192669165Y-35449673D01*
X192670843Y-35456300D01*
X192680093Y-35477387D01*
X192764074Y-35668846D01*
X192891019Y-35863151D01*
X192891022Y-35863155D01*
X193000000Y-35981536D01*
X193000000Y-39180042D01*
X192877741Y-39094436D01*
X192877727Y-39094428D01*
X192671499Y-38998262D01*
X192671496Y-38998261D01*
X192451694Y-38939365D01*
X192451679Y-38939363D01*
X192225006Y-38919532D01*
X192224994Y-38919532D01*
X191998320Y-38939363D01*
X191998305Y-38939365D01*
X191778503Y-38998261D01*
X191778500Y-38998262D01*
X191572272Y-39094428D01*
X191572258Y-39094436D01*
X191385865Y-39224949D01*
X191224949Y-39385865D01*
X191094436Y-39572258D01*
X191094428Y-39572272D01*
X190998262Y-39778500D01*
X190998261Y-39778503D01*
X190939365Y-39998305D01*
X190939363Y-39998320D01*
X190919532Y-40224994D01*
X190919532Y-40225005D01*
X190939363Y-40451679D01*
X190939365Y-40451694D01*
X190998261Y-40671496D01*
X190998262Y-40671499D01*
X191094428Y-40877727D01*
X191094436Y-40877741D01*
X191224949Y-41064134D01*
X191224953Y-41064139D01*
X191385861Y-41225047D01*
X191572266Y-41355568D01*
X191572268Y-41355569D01*
X191572270Y-41355570D01*
X191692752Y-41411752D01*
X191763589Y-41461352D01*
X192529825Y-42227588D01*
X192583801Y-42308370D01*
X192602755Y-42403658D01*
X192583801Y-42498946D01*
X192529825Y-42579728D01*
X192449043Y-42633704D01*
X192353755Y-42652658D01*
X192332058Y-42651711D01*
X192250000Y-42644532D01*
X192249998Y-42644532D01*
X192249996Y-42644532D01*
X192249994Y-42644532D01*
X192023320Y-42664363D01*
X192023305Y-42664365D01*
X191803503Y-42723261D01*
X191803500Y-42723262D01*
X191597272Y-42819428D01*
X191597258Y-42819436D01*
X191410865Y-42949949D01*
X191249949Y-43110865D01*
X191119436Y-43297258D01*
X191119428Y-43297272D01*
X191023262Y-43503500D01*
X191023261Y-43503503D01*
X190964365Y-43723305D01*
X190964363Y-43723320D01*
X190944532Y-43949994D01*
X190944532Y-43950005D01*
X190964363Y-44176679D01*
X190964365Y-44176694D01*
X191023261Y-44396496D01*
X191023262Y-44396499D01*
X191119428Y-44602727D01*
X191119436Y-44602741D01*
X191249949Y-44789134D01*
X191249953Y-44789139D01*
X191410861Y-44950047D01*
X191597266Y-45080568D01*
X191597268Y-45080569D01*
X191597270Y-45080570D01*
X191717752Y-45136752D01*
X191788589Y-45186352D01*
X191876570Y-45274333D01*
X191930546Y-45355115D01*
X191949500Y-45450403D01*
X191949500Y-46246551D01*
X191930546Y-46341839D01*
X191876570Y-46422621D01*
X191805739Y-46472219D01*
X191803505Y-46473260D01*
X191803504Y-46473261D01*
X191797268Y-46476168D01*
X191702901Y-46499263D01*
X191692032Y-46499500D01*
X190349500Y-46499500D01*
X190254212Y-46480546D01*
X190173430Y-46426570D01*
X190119454Y-46345788D01*
X190100500Y-46250500D01*
X190100500Y-43952520D01*
X190101005Y-43936675D01*
X190101192Y-43933733D01*
X190105246Y-43870166D01*
X190094472Y-43769045D01*
X190093972Y-43763817D01*
X190085346Y-43662459D01*
X190085342Y-43662447D01*
X190083558Y-43652034D01*
X190083708Y-43652008D01*
X190082149Y-43643461D01*
X190081999Y-43643491D01*
X190079991Y-43633116D01*
X190079991Y-43633107D01*
X190052288Y-43535279D01*
X190050913Y-43530219D01*
X190043956Y-43503500D01*
X190025275Y-43431751D01*
X190025272Y-43431744D01*
X190021748Y-43421767D01*
X190021894Y-43421715D01*
X190018920Y-43413574D01*
X190018774Y-43413630D01*
X190015039Y-43403735D01*
X190015037Y-43403727D01*
X189971183Y-43311952D01*
X189968969Y-43307189D01*
X189927079Y-43214518D01*
X189921920Y-43205283D01*
X189922053Y-43205208D01*
X189910712Y-43185401D01*
X189908165Y-43180071D01*
X189884182Y-43085923D01*
X189898053Y-42989763D01*
X189924381Y-42936516D01*
X189935924Y-42918849D01*
X189935925Y-42918845D01*
X189936653Y-42917732D01*
X189938701Y-42914274D01*
X189941341Y-42909301D01*
X189941351Y-42909287D01*
X189984921Y-42807173D01*
X189985908Y-42804894D01*
X189995534Y-42782950D01*
X190029157Y-42706300D01*
X190029159Y-42706288D01*
X190031123Y-42700573D01*
X190033304Y-42694900D01*
X190034910Y-42690024D01*
X190034915Y-42690014D01*
X190059745Y-42585606D01*
X190060560Y-42582288D01*
X190086134Y-42481305D01*
X190086135Y-42481298D01*
X190087830Y-42471143D01*
X190088398Y-42471237D01*
X190088819Y-42468600D01*
X190088509Y-42468554D01*
X190090074Y-42458094D01*
X190090074Y-42458090D01*
X190090076Y-42458083D01*
X190096673Y-42354607D01*
X190097001Y-42350136D01*
X190105300Y-42250000D01*
X190105300Y-42239702D01*
X190105560Y-42239702D01*
X190105474Y-42230741D01*
X190105471Y-42230742D01*
X190105246Y-42220179D01*
X190105247Y-42220167D01*
X190094663Y-42120828D01*
X190094124Y-42115139D01*
X190086134Y-42018695D01*
X190086132Y-42018688D01*
X190086132Y-42018685D01*
X190084965Y-42011690D01*
X190080200Y-41985063D01*
X190079992Y-41983108D01*
X190053775Y-41890529D01*
X190051990Y-41883869D01*
X190050731Y-41878896D01*
X190029157Y-41793700D01*
X190028145Y-41791393D01*
X190016586Y-41759195D01*
X190015038Y-41753727D01*
X189975146Y-41670245D01*
X189971794Y-41662927D01*
X189935926Y-41581156D01*
X189935925Y-41581153D01*
X189932514Y-41575932D01*
X189916305Y-41547107D01*
X189912251Y-41538623D01*
X189912247Y-41538617D01*
X189912246Y-41538615D01*
X189860979Y-41466130D01*
X189855829Y-41458558D01*
X189808979Y-41386847D01*
X189802245Y-41379531D01*
X189782146Y-41354667D01*
X189774591Y-41343985D01*
X189714416Y-41283809D01*
X189707291Y-41276383D01*
X189651791Y-41216093D01*
X189651780Y-41216083D01*
X189641017Y-41207706D01*
X189617889Y-41187283D01*
X189359063Y-40928457D01*
X189305087Y-40847675D01*
X189286133Y-40752387D01*
X189305087Y-40657099D01*
X189351936Y-40583747D01*
X189371671Y-40562308D01*
X189390353Y-40544038D01*
X189414755Y-40522564D01*
X189456051Y-40471417D01*
X189466570Y-40459218D01*
X189508979Y-40413153D01*
X189527060Y-40385477D01*
X189541778Y-40365248D01*
X189564523Y-40337080D01*
X189594795Y-40282889D01*
X189603704Y-40268163D01*
X189635924Y-40218849D01*
X189650684Y-40185196D01*
X189661332Y-40163783D01*
X189680790Y-40128954D01*
X189700241Y-40073901D01*
X189706977Y-40056864D01*
X189729157Y-40006300D01*
X189739085Y-39967091D01*
X189745683Y-39945288D01*
X189760211Y-39904171D01*
X189769453Y-39850268D01*
X189773482Y-39831262D01*
X189786134Y-39781305D01*
X189789780Y-39737296D01*
X189792508Y-39715804D01*
X189800500Y-39669200D01*
X189800500Y-39618231D01*
X189801350Y-39597670D01*
X189801375Y-39597367D01*
X189805300Y-39550000D01*
X189801350Y-39502328D01*
X189800500Y-39481768D01*
X189800500Y-35952536D01*
X189801005Y-35936691D01*
X189802635Y-35911127D01*
X189805247Y-35870166D01*
X189794461Y-35768935D01*
X189793973Y-35763831D01*
X189785346Y-35662459D01*
X189785346Y-35662457D01*
X189783558Y-35652029D01*
X189783710Y-35652002D01*
X189782155Y-35643474D01*
X189782003Y-35643504D01*
X189779993Y-35633115D01*
X189779992Y-35633113D01*
X189779992Y-35633108D01*
X189752279Y-35535242D01*
X189750899Y-35530162D01*
X189725277Y-35431758D01*
X189721755Y-35421790D01*
X189721900Y-35421738D01*
X189718918Y-35413573D01*
X189718775Y-35413628D01*
X189715037Y-35403725D01*
X189671179Y-35311940D01*
X189668951Y-35307149D01*
X189638366Y-35239489D01*
X189627077Y-35214514D01*
X189627076Y-35214513D01*
X189627075Y-35214510D01*
X189621916Y-35205275D01*
X189622050Y-35205199D01*
X189617740Y-35197674D01*
X189617608Y-35197752D01*
X189612256Y-35188633D01*
X189612251Y-35188622D01*
X189553516Y-35105576D01*
X189550520Y-35101243D01*
X189493587Y-35017007D01*
X189486940Y-35008776D01*
X189488768Y-35007299D01*
X189445444Y-34939379D01*
X189428519Y-34843710D01*
X189449493Y-34748846D01*
X189505174Y-34669229D01*
X189587084Y-34616981D01*
X189677463Y-34600000D01*
X191999999Y-34600000D01*
X192656585Y-34600000D01*
X192613868Y-34768684D01*
G37*
%TD.AperFunction*%
%TD*%
M02*
