%TF.GenerationSoftware,KiCad,Pcbnew,7.0.10*%
%TF.CreationDate,2024-02-05T19:27:08+01:00*%
%TF.ProjectId,vesc6,76657363-362e-46b6-9963-61645f706362,rev?*%
%TF.SameCoordinates,Original*%
%TF.FileFunction,Copper,L3,Inr*%
%TF.FilePolarity,Positive*%
%FSLAX46Y46*%
G04 Gerber Fmt 4.6, Leading zero omitted, Abs format (unit mm)*
G04 Created by KiCad (PCBNEW 7.0.10) date 2024-02-05 19:27:08*
%MOMM*%
%LPD*%
G01*
G04 APERTURE LIST*
G04 Aperture macros list*
%AMRoundRect*
0 Rectangle with rounded corners*
0 $1 Rounding radius*
0 $2 $3 $4 $5 $6 $7 $8 $9 X,Y pos of 4 corners*
0 Add a 4 corners polygon primitive as box body*
4,1,4,$2,$3,$4,$5,$6,$7,$8,$9,$2,$3,0*
0 Add four circle primitives for the rounded corners*
1,1,$1+$1,$2,$3*
1,1,$1+$1,$4,$5*
1,1,$1+$1,$6,$7*
1,1,$1+$1,$8,$9*
0 Add four rect primitives between the rounded corners*
20,1,$1+$1,$2,$3,$4,$5,0*
20,1,$1+$1,$4,$5,$6,$7,0*
20,1,$1+$1,$6,$7,$8,$9,0*
20,1,$1+$1,$8,$9,$2,$3,0*%
G04 Aperture macros list end*
%TA.AperFunction,ComponentPad*%
%ADD10R,1.000000X1.000000*%
%TD*%
%TA.AperFunction,ComponentPad*%
%ADD11O,1.000000X1.000000*%
%TD*%
%TA.AperFunction,ComponentPad*%
%ADD12R,1.700000X1.700000*%
%TD*%
%TA.AperFunction,ComponentPad*%
%ADD13O,1.700000X1.700000*%
%TD*%
%TA.AperFunction,ComponentPad*%
%ADD14RoundRect,0.250000X-0.625000X0.350000X-0.625000X-0.350000X0.625000X-0.350000X0.625000X0.350000X0*%
%TD*%
%TA.AperFunction,ComponentPad*%
%ADD15O,1.750000X1.200000*%
%TD*%
%TA.AperFunction,ComponentPad*%
%ADD16R,0.840000X0.840000*%
%TD*%
%TA.AperFunction,ComponentPad*%
%ADD17C,0.840000*%
%TD*%
%TA.AperFunction,ComponentPad*%
%ADD18C,1.850000*%
%TD*%
%TA.AperFunction,ViaPad*%
%ADD19C,0.600000*%
%TD*%
%TA.AperFunction,ViaPad*%
%ADD20C,0.800000*%
%TD*%
%TA.AperFunction,ViaPad*%
%ADD21C,0.500000*%
%TD*%
%TA.AperFunction,Conductor*%
%ADD22C,0.400000*%
%TD*%
%TA.AperFunction,Conductor*%
%ADD23C,0.800000*%
%TD*%
%TA.AperFunction,Conductor*%
%ADD24C,0.500000*%
%TD*%
%TA.AperFunction,Conductor*%
%ADD25C,0.250000*%
%TD*%
G04 APERTURE END LIST*
D10*
%TO.N,/VESC_Right/3.3V*%
%TO.C,TH1*%
X211750000Y-70350000D03*
D11*
%TO.N,/VESC_Right/MCU/ADC_TEMP*%
X211750000Y-69080000D03*
%TD*%
D12*
%TO.N,/VESC_Right/CAN_H*%
%TO.C,J1*%
X219000000Y-80980000D03*
D13*
%TO.N,/VESC_Right/CAN_L*%
X219000000Y-78440000D03*
%TO.N,GND*%
X219000000Y-75900000D03*
%TD*%
D14*
%TO.N,Net-(J2-Pin_1)*%
%TO.C,J2*%
X218750000Y-56000000D03*
D15*
%TO.N,/VESC_Right/MCU/HALL_1*%
X218750000Y-58000000D03*
%TO.N,/VESC_Right/MCU/HALL_2*%
X218750000Y-60000000D03*
%TO.N,/VESC_Right/MCU/HALL_3*%
X218750000Y-62000000D03*
%TO.N,/VESC_Right/MCU/TEMP_MOTOR*%
X218750000Y-64000000D03*
%TO.N,GND*%
X218750000Y-66000000D03*
%TD*%
D16*
%TO.N,Net-(J6-VBUS)*%
%TO.C,J6*%
X195045000Y-74450000D03*
D17*
%TO.N,Net-(J6-D-)*%
X194045000Y-75100000D03*
%TO.N,Net-(J6-D+)*%
X195045000Y-75750000D03*
%TO.N,unconnected-(J6-ID-Pad4)*%
X194045000Y-76400000D03*
%TO.N,GND*%
X195045000Y-77050000D03*
D18*
X194825000Y-72175000D03*
X194825000Y-79325000D03*
%TD*%
D19*
%TO.N,GND*%
X177750000Y-54400000D03*
X178750000Y-53400000D03*
X178750000Y-54400000D03*
X154750000Y-53500000D03*
X179750000Y-53400000D03*
X154750000Y-54500000D03*
X166750000Y-54450000D03*
X200600000Y-68125000D03*
X180750000Y-54400000D03*
X156750000Y-53500000D03*
X152750000Y-54500000D03*
X194900000Y-68125000D03*
X176750000Y-53400000D03*
X153750000Y-54500000D03*
X181750000Y-54400000D03*
X177750000Y-53400000D03*
X176750000Y-54400000D03*
X169750000Y-53450000D03*
X181750000Y-53400000D03*
X167750000Y-54450000D03*
X156750000Y-54500000D03*
X164750000Y-54450000D03*
X197700000Y-68125000D03*
X168750000Y-54450000D03*
X157750000Y-53500000D03*
X155750000Y-54500000D03*
X164750000Y-53450000D03*
X157750000Y-54500000D03*
X179750000Y-54400000D03*
X169750000Y-54450000D03*
X152750000Y-53500000D03*
X165750000Y-53450000D03*
X180750000Y-53400000D03*
X167750000Y-53450000D03*
X155750000Y-53500000D03*
X153750000Y-53500000D03*
X168750000Y-53450000D03*
X165750000Y-54450000D03*
X166750000Y-53450000D03*
%TO.N,/VESC_Right/MCU/TEMP_MOTOR*%
X214000000Y-63250000D03*
D20*
%TO.N,/VESC_Right/3.3V*%
X219250000Y-43250000D03*
D19*
X214000000Y-69000000D03*
X198100000Y-39200000D03*
X218600000Y-51800000D03*
X171500000Y-31600000D03*
X200419830Y-56500000D03*
X194250500Y-69225000D03*
X206000000Y-77500000D03*
X216000000Y-60750000D03*
X197050500Y-69417883D03*
D20*
X218250000Y-43250000D03*
D19*
X212100000Y-51800000D03*
X198600000Y-69425000D03*
X162700000Y-31600000D03*
X215400000Y-51800000D03*
X210700000Y-70750000D03*
X153400000Y-31600000D03*
X214600000Y-64350000D03*
X198600000Y-67500000D03*
X215600000Y-58300000D03*
%TO.N,/VESC_Right/MCU/NRST*%
X203500000Y-64800000D03*
X197900000Y-57500000D03*
D21*
X206600000Y-70250000D03*
D19*
%TO.N,/VESC_Right/DRV8301/SENS_A*%
X197450000Y-62725000D03*
X209301887Y-67381997D03*
%TO.N,/VESC_Right/DRV8301/SENS_B*%
X195700000Y-62725000D03*
X210050000Y-66950000D03*
D20*
%TO.N,/VESC_Right/DRV8301/Supply_Filterted*%
X195000000Y-35000000D03*
X194000000Y-35000000D03*
D19*
%TO.N,/VESC_Right/DRV8301/SENS_C*%
X193950000Y-62725000D03*
X210850000Y-67500000D03*
D20*
%TO.N,Net-(D8-K)*%
X195250000Y-38750000D03*
X207750000Y-31300000D03*
X207750000Y-32300000D03*
X196150000Y-38750000D03*
D19*
%TO.N,Net-(U3-BST_BK)*%
X194425000Y-37900000D03*
D20*
%TO.N,/VESC_Right/SH_A*%
X153850000Y-36600000D03*
X155100000Y-40350000D03*
X156350000Y-40350000D03*
X152600000Y-36600000D03*
X155100000Y-36600000D03*
X157600000Y-36600000D03*
X155100000Y-37850000D03*
X153850000Y-40350000D03*
X153850000Y-39100000D03*
X152600000Y-37850000D03*
X158850000Y-40350000D03*
X156350000Y-39100000D03*
X152600000Y-39100000D03*
X157600000Y-37850000D03*
X155100000Y-39100000D03*
X158850000Y-36600000D03*
X158850000Y-39100000D03*
X158850000Y-37850000D03*
X156350000Y-36600000D03*
X157600000Y-40350000D03*
D19*
X197500000Y-59500000D03*
D20*
X156350000Y-37850000D03*
X152600000Y-40350000D03*
D19*
X192225000Y-40225000D03*
D20*
X157600000Y-39100000D03*
X153850000Y-37850000D03*
%TO.N,/VESC_Right/DRV8301/SH_B*%
X164600000Y-39100000D03*
X165850000Y-36600000D03*
X164600000Y-37850000D03*
X165850000Y-37850000D03*
X168350000Y-40350000D03*
D19*
X192250000Y-43950000D03*
D20*
X168350000Y-37850000D03*
X165850000Y-40350000D03*
X167100000Y-39100000D03*
X169600000Y-36600000D03*
X164600000Y-40350000D03*
X169600000Y-40350000D03*
X169600000Y-39100000D03*
X167100000Y-36600000D03*
X165850000Y-39100000D03*
X168350000Y-36600000D03*
D19*
X195750000Y-59500000D03*
D20*
X169600000Y-37850000D03*
X170850000Y-36600000D03*
X167100000Y-40350000D03*
X170850000Y-40350000D03*
X168350000Y-39100000D03*
X170850000Y-37850000D03*
X170850000Y-39100000D03*
X164600000Y-36600000D03*
X167100000Y-37850000D03*
%TO.N,/VESC_Right/DRV8301/SH_C*%
X182850000Y-40350000D03*
X179100000Y-40350000D03*
X181600000Y-36600000D03*
X180350000Y-36600000D03*
X177850000Y-40350000D03*
X180350000Y-40350000D03*
X180350000Y-37850000D03*
X179100000Y-39100000D03*
X181600000Y-37850000D03*
X182850000Y-36600000D03*
X177850000Y-39100000D03*
X182850000Y-39100000D03*
D19*
X192250000Y-47700000D03*
D20*
X177850000Y-37850000D03*
X176600000Y-40350000D03*
X180350000Y-39100000D03*
X175000000Y-37750000D03*
X176600000Y-39100000D03*
X176600000Y-36600000D03*
X181600000Y-39100000D03*
X182850000Y-37850000D03*
X179100000Y-36600000D03*
X177850000Y-36600000D03*
D19*
X194000000Y-59500000D03*
D20*
X188700000Y-42250000D03*
X181600000Y-40350000D03*
X179100000Y-37850000D03*
X176600000Y-37850000D03*
%TO.N,/VESC_Right/5V*%
X196700000Y-71600000D03*
X218600000Y-54200000D03*
X215500000Y-39000000D03*
X215500000Y-40000000D03*
D19*
X192800000Y-60400000D03*
%TO.N,/VESC_Right/MCU/CURRENT_1*%
X206500000Y-65800000D03*
X217750000Y-51750000D03*
%TO.N,/VESC_Right/MCU/CURRENT_2*%
X214500000Y-51750000D03*
X207500000Y-65800000D03*
%TO.N,/VESC_Right/MCU/CURRENT_3*%
X211250000Y-51750000D03*
X208400000Y-65800000D03*
D20*
%TO.N,Net-(J2-Pin_1)*%
X213600000Y-52600000D03*
D19*
%TO.N,/VESC_Right/MCU/HALL_3*%
X212191084Y-54182039D03*
%TO.N,/VESC_Right/MCU/HALL_2*%
X213600000Y-54200000D03*
%TO.N,/VESC_Right/MCU/HALL_1*%
X214949998Y-54200000D03*
%TO.N,/VESC_Right/DRV8301/SENS_SUPPLY*%
X199100000Y-61000000D03*
X209300000Y-66500000D03*
X196300000Y-56500000D03*
D20*
%TO.N,Net-(Q2-G)*%
X163000000Y-37750000D03*
X188400000Y-39550000D03*
%TO.N,Net-(Q6-G)*%
X186900000Y-42100000D03*
X188700000Y-46500000D03*
D19*
%TO.N,/VESC_Right/MCU/USB_D_P*%
X198500000Y-75500000D03*
X204843649Y-62638514D03*
%TO.N,/VESC_Right/MCU/USB_D_N*%
X198500000Y-74000000D03*
X205800000Y-62700000D03*
%TO.N,/VESC_Right/MCU/LED_GREEN*%
X213800000Y-72600000D03*
X211250000Y-62690456D03*
%TO.N,/VESC_Right/MCU/LED_RED*%
X213800000Y-70900000D03*
X211300000Y-61700000D03*
%TO.N,/VESC_Right/MCU/ADC_TEMP*%
X211750000Y-67500000D03*
%TO.N,/VESC_Right/Power/C_A*%
X217750000Y-46500000D03*
X153400000Y-33600000D03*
%TO.N,/VESC_Right/Power/C_B*%
X214500000Y-46500000D03*
X162400000Y-33600000D03*
%TO.N,/VESC_Right/Power/C_C*%
X171400000Y-33600000D03*
X211250000Y-46500000D03*
%TO.N,/VESC_Right/DRV8301/SENS_FILTERED*%
X200000000Y-69425000D03*
%TO.N,/VESC_Right/DRV8301/INL_A*%
X206400000Y-60400000D03*
D21*
X206763909Y-44413909D03*
D19*
%TO.N,/VESC_Right/DRV8301/INL_B*%
X206400000Y-59599997D03*
D21*
X206226055Y-45550000D03*
D19*
%TO.N,/VESC_Right/DRV8301/INL_C*%
X206400000Y-58799994D03*
D21*
X206000000Y-46760723D03*
%TO.N,/VESC_Right/DRV8301/CS*%
X206700000Y-40000000D03*
X206450000Y-54600000D03*
D19*
%TO.N,/VESC_Right/DRV8301/INH_A*%
X205950981Y-55174043D03*
D21*
X206800000Y-43600000D03*
%TO.N,/VESC_Right/DRV8301/INH_B*%
X206794004Y-45140634D03*
D19*
X205920797Y-55972975D03*
%TO.N,/VESC_Right/DRV8301/INH_C*%
X204850000Y-56000000D03*
D21*
X206600000Y-46400000D03*
D19*
%TO.N,/VESC_Right/DRV8301/SCLK*%
X202825500Y-60300000D03*
D21*
X205700000Y-41200000D03*
D19*
%TO.N,/VESC_Right/MCU/CURR_FILTER_ON*%
X202800000Y-61200000D03*
X207336397Y-52936397D03*
%TO.N,/VESC_Right/DRV8301/SDO*%
X203484256Y-60785514D03*
D21*
X206400000Y-41200000D03*
D19*
%TO.N,/VESC_Right/DRV8301/SDI*%
X202997239Y-62510819D03*
D21*
X205950500Y-40000000D03*
%TO.N,/VESC_Right/DRV8301/EN_GATE*%
X205600000Y-43599500D03*
D19*
X204375000Y-61800000D03*
D21*
%TO.N,/VESC_Right/DRV8301/FAULT*%
X205600000Y-38450500D03*
D19*
X202550000Y-64200000D03*
%TO.N,/VESC_Right/CAN/RX*%
X203500000Y-65600003D03*
X210950000Y-77200000D03*
%TO.N,/VESC_Right/CAN/TX*%
X202750000Y-66100000D03*
X210950000Y-81000000D03*
%TO.N,Net-(U7-IN-)*%
X156000000Y-30900000D03*
%TO.N,Net-(U7-IN+)*%
X156000000Y-32200000D03*
%TO.N,Net-(U10-IN-)*%
X165025000Y-30850000D03*
%TO.N,Net-(U10-IN+)*%
X165025000Y-32150000D03*
%TO.N,Net-(U12-IN-)*%
X174025000Y-30950000D03*
%TO.N,Net-(U12-IN+)*%
X174025000Y-32250000D03*
%TD*%
D22*
%TO.N,/VESC_Right/SH_A*%
X197500000Y-59500000D02*
X195500000Y-57500000D01*
X195500000Y-43500000D02*
X192225000Y-40225000D01*
X195500000Y-57500000D02*
X195500000Y-43500000D01*
%TO.N,/VESC_Right/DRV8301/SH_B*%
X194750000Y-46450000D02*
X192250000Y-43950000D01*
X195750000Y-59500000D02*
X194750000Y-58500000D01*
X194750000Y-58500000D02*
X194750000Y-46450000D01*
%TO.N,/VESC_Right/DRV8301/SH_C*%
X194000000Y-59500000D02*
X194000000Y-49450000D01*
X194000000Y-49450000D02*
X192250000Y-47700000D01*
D23*
%TO.N,/VESC_Right/5V*%
X215500000Y-39000000D02*
X215500000Y-40000000D01*
X192800000Y-60400000D02*
X193300000Y-60900000D01*
D24*
X193500000Y-70800000D02*
X192700000Y-70000000D01*
X196700000Y-71600000D02*
X195900000Y-70800000D01*
D23*
X197900000Y-60900000D02*
X199200000Y-59600000D01*
D24*
X195900000Y-70800000D02*
X193500000Y-70800000D01*
D23*
X207889277Y-47610723D02*
X215500000Y-40000000D01*
X193300000Y-60900000D02*
X197900000Y-60900000D01*
X199200000Y-59600000D02*
X199200000Y-54200000D01*
X205789277Y-47610723D02*
X207889277Y-47610723D01*
D24*
X192700000Y-70000000D02*
X192700000Y-60500000D01*
X192700000Y-60500000D02*
X192800000Y-60400000D01*
D23*
X199200000Y-54200000D02*
X205789277Y-47610723D01*
D25*
%TO.N,/VESC_Right/MCU/USB_D_P*%
X204550000Y-68550000D02*
X199725000Y-73375000D01*
X204550000Y-62932163D02*
X204550000Y-68550000D01*
X199725000Y-73375000D02*
X198241116Y-73375000D01*
X197875000Y-73741116D02*
X197875000Y-74875000D01*
X204843649Y-62638514D02*
X204550000Y-62932163D01*
X198241116Y-73375000D02*
X197875000Y-73741116D01*
X197875000Y-74875000D02*
X198500000Y-75500000D01*
%TO.N,/VESC_Right/MCU/USB_D_N*%
X200000000Y-74000000D02*
X198500000Y-74000000D01*
X205800000Y-62700000D02*
X205093347Y-63406653D01*
X205093347Y-68906653D02*
X200000000Y-74000000D01*
X205093347Y-63406653D02*
X205093347Y-68906653D01*
%TO.N,/VESC_Right/CAN/RX*%
X201650000Y-80400000D02*
X197100000Y-75850000D01*
X198064860Y-72650000D02*
X199400000Y-72650000D01*
X210100000Y-80400000D02*
X201650000Y-80400000D01*
X197100000Y-73614860D02*
X198064860Y-72650000D01*
X210950000Y-79550000D02*
X210100000Y-80400000D01*
X199400000Y-72650000D02*
X203500000Y-68550000D01*
X203500000Y-68550000D02*
X203500000Y-65600003D01*
X197100000Y-75850000D02*
X197100000Y-73614860D01*
X210950000Y-77200000D02*
X210950000Y-79550000D01*
%TO.N,/VESC_Right/CAN/TX*%
X199100000Y-72000000D02*
X202750000Y-68350000D01*
X202750000Y-68350000D02*
X202750000Y-66100000D01*
X197800000Y-72000000D02*
X199100000Y-72000000D01*
X201300000Y-81000000D02*
X196500000Y-76200000D01*
X196500000Y-76200000D02*
X196500000Y-73300000D01*
X210950000Y-81000000D02*
X201300000Y-81000000D01*
X196500000Y-73300000D02*
X197800000Y-72000000D01*
%TD*%
%TA.AperFunction,Conductor*%
%TO.N,/VESC_Right/SH_A*%
G36*
X160459191Y-36018907D02*
G01*
X160495155Y-36068407D01*
X160500000Y-36099000D01*
X160500000Y-39500000D01*
X161201000Y-39500000D01*
X161259191Y-39518907D01*
X161295155Y-39568407D01*
X161300000Y-39599000D01*
X161300000Y-40901000D01*
X161281093Y-40959191D01*
X161231593Y-40995155D01*
X161201000Y-41000000D01*
X152099000Y-41000000D01*
X152040809Y-40981093D01*
X152004845Y-40931593D01*
X152000000Y-40901000D01*
X152000000Y-36099000D01*
X152018907Y-36040809D01*
X152068407Y-36004845D01*
X152099000Y-36000000D01*
X160401000Y-36000000D01*
X160459191Y-36018907D01*
G37*
%TD.AperFunction*%
%TD*%
%TA.AperFunction,Conductor*%
%TO.N,GND*%
G36*
X193000000Y-34000000D02*
G01*
X192000000Y-34000000D01*
X192000000Y-33976412D01*
X191996726Y-33969987D01*
X192006297Y-33909555D01*
X192049562Y-33866290D01*
X192094507Y-33855500D01*
X193000000Y-33855500D01*
X193000000Y-34000000D01*
G37*
%TD.AperFunction*%
%TA.AperFunction,Conductor*%
G36*
X193000000Y-29644500D02*
G01*
X151599000Y-29644500D01*
X151543393Y-29648876D01*
X151543388Y-29648876D01*
X151543373Y-29648878D01*
X151512807Y-29653719D01*
X151512801Y-29653720D01*
X151464154Y-29664974D01*
X151359449Y-29717240D01*
X151359446Y-29717242D01*
X151309955Y-29753198D01*
X151309946Y-29753206D01*
X151234793Y-29827126D01*
X151234792Y-29827127D01*
X151187335Y-29918397D01*
X151143715Y-29961303D01*
X151083206Y-29970375D01*
X151028921Y-29942148D01*
X151001594Y-29887404D01*
X151000500Y-29872725D01*
X151000500Y-26099500D01*
X151019407Y-26041309D01*
X151068907Y-26005345D01*
X151099500Y-26000500D01*
X193000000Y-26000500D01*
X193000000Y-29644500D01*
G37*
%TD.AperFunction*%
%TD*%
%TA.AperFunction,Conductor*%
%TO.N,GND*%
G36*
X220958691Y-26019407D02*
G01*
X220994655Y-26068907D01*
X220999500Y-26099500D01*
X220999500Y-85900500D01*
X220980593Y-85958691D01*
X220931093Y-85994655D01*
X220900500Y-85999500D01*
X192099500Y-85999500D01*
X192041309Y-85980593D01*
X192005345Y-85931093D01*
X192000500Y-85900500D01*
X192000500Y-81854672D01*
X217899500Y-81854672D01*
X217899501Y-81854684D01*
X217914033Y-81927736D01*
X217914035Y-81927742D01*
X217969397Y-82010599D01*
X217969399Y-82010601D01*
X218052260Y-82065966D01*
X218107808Y-82077015D01*
X218125315Y-82080498D01*
X218125320Y-82080498D01*
X218125326Y-82080500D01*
X218125327Y-82080500D01*
X219874673Y-82080500D01*
X219874674Y-82080500D01*
X219947740Y-82065966D01*
X220030601Y-82010601D01*
X220085966Y-81927740D01*
X220100500Y-81854674D01*
X220100500Y-80105326D01*
X220085966Y-80032260D01*
X220030601Y-79949399D01*
X220030599Y-79949397D01*
X219947742Y-79894035D01*
X219947740Y-79894034D01*
X219947737Y-79894033D01*
X219947736Y-79894033D01*
X219874684Y-79879501D01*
X219874674Y-79879500D01*
X218125326Y-79879500D01*
X218125325Y-79879500D01*
X218125315Y-79879501D01*
X218052263Y-79894033D01*
X218052257Y-79894035D01*
X217969400Y-79949397D01*
X217969397Y-79949400D01*
X217914035Y-80032257D01*
X217914033Y-80032263D01*
X217899501Y-80105315D01*
X217899500Y-80105327D01*
X217899500Y-81854672D01*
X192000500Y-81854672D01*
X192000500Y-79325000D01*
X193644966Y-79325000D01*
X193665058Y-79541830D01*
X193724652Y-79751279D01*
X193821711Y-79946200D01*
X193821716Y-79946209D01*
X193879622Y-80022888D01*
X194239881Y-79662627D01*
X194265406Y-79711260D01*
X194374104Y-79833956D01*
X194486174Y-79911312D01*
X194124327Y-80273160D01*
X194299015Y-80381322D01*
X194502070Y-80459987D01*
X194716120Y-80500000D01*
X194933880Y-80500000D01*
X195147929Y-80459987D01*
X195350986Y-80381322D01*
X195350991Y-80381319D01*
X195525672Y-80273161D01*
X195163824Y-79911313D01*
X195275896Y-79833956D01*
X195384594Y-79711260D01*
X195410117Y-79662628D01*
X195770377Y-80022888D01*
X195828281Y-79946213D01*
X195828286Y-79946204D01*
X195925347Y-79751279D01*
X195984941Y-79541830D01*
X196005033Y-79325000D01*
X195984941Y-79108169D01*
X195925347Y-78898720D01*
X195828288Y-78703799D01*
X195828283Y-78703790D01*
X195770377Y-78627110D01*
X195410117Y-78987369D01*
X195384594Y-78938740D01*
X195275896Y-78816044D01*
X195163822Y-78738686D01*
X195525672Y-78376837D01*
X195350988Y-78268678D01*
X195350986Y-78268677D01*
X195147929Y-78190012D01*
X194933880Y-78150000D01*
X194716120Y-78150000D01*
X194502070Y-78190012D01*
X194299013Y-78268677D01*
X194299011Y-78268678D01*
X194124326Y-78376837D01*
X194486175Y-78738686D01*
X194374104Y-78816044D01*
X194265406Y-78938740D01*
X194239882Y-78987371D01*
X193879621Y-78627110D01*
X193821720Y-78703784D01*
X193821711Y-78703799D01*
X193724652Y-78898720D01*
X193665058Y-79108169D01*
X193644966Y-79325000D01*
X192000500Y-79325000D01*
X192000500Y-77631414D01*
X194711073Y-77631414D01*
X194805668Y-77681061D01*
X194805671Y-77681062D01*
X194963644Y-77719999D01*
X194963650Y-77720000D01*
X195126350Y-77720000D01*
X195126355Y-77719999D01*
X195284328Y-77681062D01*
X195284331Y-77681061D01*
X195378926Y-77631414D01*
X195045000Y-77297487D01*
X194711073Y-77631414D01*
X192000500Y-77631414D01*
X192000500Y-76400000D01*
X193369575Y-76400000D01*
X193389202Y-76561638D01*
X193389202Y-76561639D01*
X193446941Y-76713886D01*
X193539435Y-76847888D01*
X193661314Y-76955864D01*
X193719382Y-76986340D01*
X193805491Y-77031533D01*
X193963587Y-77070500D01*
X193963590Y-77070500D01*
X194126410Y-77070500D01*
X194126413Y-77070500D01*
X194256915Y-77038334D01*
X194317939Y-77042766D01*
X194364704Y-77082221D01*
X194378885Y-77122524D01*
X194389690Y-77211517D01*
X194389691Y-77211518D01*
X194447387Y-77363650D01*
X194447390Y-77363654D01*
X194462281Y-77385229D01*
X194826873Y-77020638D01*
X194821317Y-77073510D01*
X194850218Y-77162457D01*
X194912798Y-77231960D01*
X194998238Y-77270000D01*
X195068123Y-77270000D01*
X195136481Y-77255470D01*
X195212144Y-77200498D01*
X195258907Y-77119503D01*
X195266212Y-77050000D01*
X195292487Y-77050000D01*
X195627717Y-77385229D01*
X195642612Y-77363651D01*
X195700308Y-77211518D01*
X195700309Y-77211517D01*
X195719921Y-77050001D01*
X195719921Y-77049998D01*
X195700309Y-76888482D01*
X195700308Y-76888481D01*
X195642612Y-76736348D01*
X195642609Y-76736343D01*
X195627718Y-76714769D01*
X195292487Y-77050000D01*
X195266212Y-77050000D01*
X195268683Y-77026490D01*
X195239782Y-76937543D01*
X195177202Y-76868040D01*
X195091762Y-76830000D01*
X195021877Y-76830000D01*
X195016336Y-76831177D01*
X195045001Y-76802513D01*
X195378925Y-76468585D01*
X195375602Y-76446754D01*
X195373069Y-76444159D01*
X195364228Y-76383615D01*
X195392662Y-76329438D01*
X195415808Y-76312622D01*
X195428685Y-76305864D01*
X195550563Y-76197890D01*
X195643059Y-76063886D01*
X195700798Y-75911640D01*
X195720425Y-75750000D01*
X195700798Y-75588360D01*
X195643059Y-75436114D01*
X195587961Y-75356290D01*
X195550564Y-75302111D01*
X195521306Y-75276191D01*
X195490287Y-75223451D01*
X195496192Y-75162551D01*
X195536766Y-75116753D01*
X195553947Y-75110207D01*
X195553735Y-75109695D01*
X195562734Y-75105967D01*
X195562740Y-75105966D01*
X195645601Y-75050601D01*
X195700966Y-74967740D01*
X195715500Y-74894674D01*
X195715500Y-74005326D01*
X195700966Y-73932260D01*
X195645601Y-73849399D01*
X195645599Y-73849397D01*
X195562742Y-73794035D01*
X195562740Y-73794034D01*
X195562737Y-73794033D01*
X195562736Y-73794033D01*
X195489684Y-73779501D01*
X195489674Y-73779500D01*
X194600326Y-73779500D01*
X194600325Y-73779500D01*
X194600315Y-73779501D01*
X194527263Y-73794033D01*
X194527257Y-73794035D01*
X194444400Y-73849397D01*
X194444397Y-73849400D01*
X194389035Y-73932257D01*
X194389033Y-73932263D01*
X194374501Y-74005315D01*
X194374500Y-74005327D01*
X194374500Y-74364283D01*
X194355593Y-74422474D01*
X194306093Y-74458438D01*
X194251809Y-74460406D01*
X194126418Y-74429500D01*
X194126413Y-74429500D01*
X193963587Y-74429500D01*
X193963584Y-74429500D01*
X193805491Y-74468466D01*
X193805489Y-74468467D01*
X193661314Y-74544135D01*
X193539435Y-74652111D01*
X193446941Y-74786113D01*
X193405770Y-74894674D01*
X193389202Y-74938360D01*
X193369575Y-75100000D01*
X193389202Y-75261640D01*
X193425098Y-75356290D01*
X193446941Y-75413886D01*
X193539435Y-75547888D01*
X193539436Y-75547889D01*
X193539437Y-75547890D01*
X193661315Y-75655864D01*
X193673655Y-75662341D01*
X193716393Y-75706125D01*
X193725233Y-75766669D01*
X193696798Y-75820845D01*
X193673657Y-75837658D01*
X193661315Y-75844136D01*
X193661313Y-75844137D01*
X193661312Y-75844138D01*
X193539435Y-75952111D01*
X193446941Y-76086113D01*
X193389202Y-76238360D01*
X193389202Y-76238361D01*
X193369575Y-76399999D01*
X193369575Y-76400000D01*
X192000500Y-76400000D01*
X192000500Y-70007437D01*
X192009274Y-69980430D01*
X192008868Y-69979975D01*
X192000500Y-69940139D01*
X192000500Y-60675328D01*
X192019407Y-60617137D01*
X192068907Y-60581173D01*
X192130093Y-60581173D01*
X192179593Y-60617137D01*
X192194569Y-60647708D01*
X192195569Y-60651150D01*
X192199500Y-60678770D01*
X192199500Y-69935542D01*
X192197238Y-69956586D01*
X192196238Y-69961183D01*
X192188675Y-69974138D01*
X192198248Y-70000374D01*
X192199248Y-70014355D01*
X192199500Y-70021418D01*
X192199500Y-70035799D01*
X192201547Y-70050040D01*
X192202302Y-70057062D01*
X192205908Y-70107483D01*
X192208533Y-70114520D01*
X192213764Y-70135014D01*
X192214834Y-70142454D01*
X192214835Y-70142457D01*
X192235835Y-70188441D01*
X192238539Y-70194970D01*
X192256202Y-70242327D01*
X192256203Y-70242328D01*
X192256204Y-70242331D01*
X192259918Y-70247293D01*
X192260708Y-70248348D01*
X192271501Y-70266538D01*
X192274623Y-70273373D01*
X192307736Y-70311588D01*
X192312140Y-70317052D01*
X192320779Y-70328593D01*
X192320781Y-70328595D01*
X192330962Y-70338777D01*
X192335764Y-70343934D01*
X192368872Y-70382143D01*
X192368873Y-70382144D01*
X192375183Y-70386199D01*
X192391666Y-70399480D01*
X193100518Y-71108332D01*
X193113796Y-71124810D01*
X193117856Y-71131127D01*
X193117857Y-71131128D01*
X193156058Y-71164229D01*
X193161217Y-71169031D01*
X193171407Y-71179221D01*
X193171410Y-71179223D01*
X193182930Y-71187847D01*
X193188432Y-71192281D01*
X193226624Y-71225375D01*
X193226625Y-71225375D01*
X193226627Y-71225377D01*
X193233454Y-71228495D01*
X193251651Y-71239291D01*
X193256131Y-71242644D01*
X193257670Y-71243797D01*
X193305029Y-71261460D01*
X193311560Y-71264165D01*
X193357543Y-71285165D01*
X193364978Y-71286233D01*
X193385484Y-71291468D01*
X193387032Y-71292045D01*
X193392517Y-71294091D01*
X193392515Y-71294091D01*
X193399962Y-71294623D01*
X193442957Y-71297698D01*
X193449953Y-71298451D01*
X193464201Y-71300500D01*
X193478581Y-71300500D01*
X193485644Y-71300752D01*
X193536073Y-71304359D01*
X193542470Y-71302967D01*
X193543410Y-71302763D01*
X193564456Y-71300500D01*
X193814174Y-71300500D01*
X193872365Y-71319407D01*
X193908329Y-71368907D01*
X193908329Y-71430093D01*
X193893178Y-71459161D01*
X193821716Y-71553790D01*
X193821711Y-71553799D01*
X193724652Y-71748720D01*
X193665058Y-71958169D01*
X193644966Y-72175000D01*
X193665058Y-72391830D01*
X193724652Y-72601279D01*
X193821711Y-72796200D01*
X193821716Y-72796209D01*
X193879622Y-72872888D01*
X194239881Y-72512628D01*
X194265406Y-72561260D01*
X194374104Y-72683956D01*
X194486174Y-72761312D01*
X194124327Y-73123160D01*
X194299015Y-73231322D01*
X194502070Y-73309987D01*
X194716120Y-73350000D01*
X194933880Y-73350000D01*
X195147929Y-73309987D01*
X195350986Y-73231322D01*
X195350991Y-73231319D01*
X195525672Y-73123161D01*
X195163824Y-72761313D01*
X195275896Y-72683956D01*
X195384594Y-72561260D01*
X195410117Y-72512630D01*
X195770376Y-72872888D01*
X195828281Y-72796213D01*
X195828286Y-72796204D01*
X195925347Y-72601279D01*
X195984941Y-72391830D01*
X196005033Y-72175000D01*
X195993207Y-72047377D01*
X196006665Y-71987690D01*
X196052635Y-71947312D01*
X196113559Y-71941666D01*
X196166167Y-71972909D01*
X196173261Y-71982004D01*
X196209515Y-72034528D01*
X196209516Y-72034529D01*
X196209517Y-72034530D01*
X196327760Y-72139283D01*
X196467635Y-72212696D01*
X196621015Y-72250500D01*
X196621018Y-72250500D01*
X196779453Y-72250500D01*
X196837644Y-72269407D01*
X196873608Y-72318907D01*
X196873608Y-72380093D01*
X196849457Y-72419504D01*
X196269271Y-72999689D01*
X196253420Y-73012561D01*
X196242166Y-73019914D01*
X196242158Y-73019921D01*
X196221765Y-73046121D01*
X196213664Y-73055297D01*
X196212485Y-73056475D01*
X196212477Y-73056486D01*
X196200088Y-73073836D01*
X196197646Y-73077110D01*
X196165193Y-73118807D01*
X196161447Y-73125728D01*
X196157989Y-73132801D01*
X196142911Y-73183447D01*
X196141663Y-73187342D01*
X196124500Y-73237338D01*
X196123209Y-73245072D01*
X196122232Y-73252915D01*
X196124415Y-73305699D01*
X196124500Y-73309790D01*
X196124500Y-76150789D01*
X196122393Y-76171103D01*
X196119633Y-76184266D01*
X196123740Y-76217217D01*
X196124500Y-76229461D01*
X196124500Y-76231119D01*
X196128003Y-76252116D01*
X196128592Y-76256159D01*
X196135133Y-76308624D01*
X196137371Y-76316144D01*
X196139935Y-76323611D01*
X196165088Y-76370091D01*
X196166959Y-76373726D01*
X196190175Y-76421213D01*
X196194736Y-76427601D01*
X196199579Y-76433823D01*
X196199581Y-76433826D01*
X196238473Y-76469629D01*
X196241400Y-76472437D01*
X200999687Y-81230724D01*
X201012562Y-81246580D01*
X201019916Y-81257836D01*
X201046120Y-81278231D01*
X201055302Y-81286339D01*
X201056482Y-81287519D01*
X201056485Y-81287521D01*
X201073802Y-81299885D01*
X201077082Y-81302330D01*
X201118814Y-81334811D01*
X201125712Y-81338544D01*
X201132798Y-81342008D01*
X201132801Y-81342010D01*
X201183471Y-81357095D01*
X201187306Y-81358323D01*
X201237340Y-81375500D01*
X201237342Y-81375500D01*
X201245076Y-81376791D01*
X201252905Y-81377766D01*
X201252912Y-81377768D01*
X201305701Y-81375585D01*
X201309792Y-81375500D01*
X210501461Y-81375500D01*
X210559652Y-81394407D01*
X210561685Y-81395925D01*
X210672375Y-81480861D01*
X210806291Y-81536330D01*
X210950000Y-81555250D01*
X211093709Y-81536330D01*
X211227625Y-81480861D01*
X211342621Y-81392621D01*
X211430861Y-81277625D01*
X211486330Y-81143709D01*
X211505250Y-81000000D01*
X211486330Y-80856291D01*
X211430861Y-80722375D01*
X211342621Y-80607379D01*
X211227625Y-80519139D01*
X211227621Y-80519137D01*
X211093709Y-80463670D01*
X211093708Y-80463669D01*
X210950000Y-80444750D01*
X210949999Y-80444750D01*
X210820292Y-80461826D01*
X210760131Y-80450676D01*
X210718014Y-80406293D01*
X210710028Y-80345631D01*
X210737364Y-80293672D01*
X211180727Y-79850308D01*
X211196577Y-79837438D01*
X211207836Y-79830084D01*
X211228233Y-79803876D01*
X211236359Y-79794677D01*
X211237520Y-79793517D01*
X211249899Y-79776177D01*
X211252315Y-79772936D01*
X211284809Y-79731189D01*
X211284810Y-79731185D01*
X211288542Y-79724289D01*
X211292010Y-79717198D01*
X211296576Y-79701861D01*
X211307094Y-79666528D01*
X211308332Y-79662666D01*
X211325500Y-79612660D01*
X211325500Y-79612655D01*
X211326795Y-79604897D01*
X211327767Y-79597094D01*
X211327769Y-79597088D01*
X211325585Y-79544285D01*
X211325500Y-79540194D01*
X211325500Y-78440000D01*
X217894785Y-78440000D01*
X217913603Y-78643083D01*
X217969418Y-78839250D01*
X218060327Y-79021821D01*
X218183236Y-79184579D01*
X218333959Y-79321981D01*
X218507363Y-79429348D01*
X218697544Y-79503024D01*
X218898024Y-79540500D01*
X219101976Y-79540500D01*
X219302456Y-79503024D01*
X219492637Y-79429348D01*
X219666041Y-79321981D01*
X219816764Y-79184579D01*
X219939673Y-79021821D01*
X220030582Y-78839250D01*
X220086397Y-78643083D01*
X220105215Y-78440000D01*
X220086397Y-78236917D01*
X220030582Y-78040750D01*
X219939673Y-77858179D01*
X219816764Y-77695421D01*
X219666041Y-77558019D01*
X219492637Y-77450652D01*
X219302456Y-77376976D01*
X219302455Y-77376975D01*
X219302453Y-77376975D01*
X219101976Y-77339500D01*
X218898024Y-77339500D01*
X218697546Y-77376975D01*
X218676240Y-77385229D01*
X218507363Y-77450652D01*
X218333959Y-77558019D01*
X218183237Y-77695420D01*
X218060328Y-77858177D01*
X218060323Y-77858186D01*
X217969419Y-78040747D01*
X217969418Y-78040750D01*
X217913603Y-78236917D01*
X217894785Y-78440000D01*
X211325500Y-78440000D01*
X211325500Y-77648539D01*
X211344407Y-77590348D01*
X211345925Y-77588314D01*
X211430861Y-77477625D01*
X211486330Y-77343709D01*
X211505250Y-77200000D01*
X211486330Y-77056291D01*
X211430861Y-76922375D01*
X211342621Y-76807379D01*
X211227625Y-76719139D01*
X211227621Y-76719137D01*
X211093709Y-76663670D01*
X211093708Y-76663669D01*
X210950000Y-76644750D01*
X210806291Y-76663669D01*
X210806290Y-76663670D01*
X210672378Y-76719137D01*
X210672374Y-76719139D01*
X210557381Y-76807377D01*
X210557377Y-76807381D01*
X210469139Y-76922374D01*
X210469137Y-76922378D01*
X210413670Y-77056290D01*
X210413669Y-77056291D01*
X210394750Y-77199999D01*
X210394750Y-77200000D01*
X210413669Y-77343708D01*
X210413670Y-77343709D01*
X210457966Y-77450652D01*
X210469139Y-77477625D01*
X210554042Y-77588273D01*
X210574466Y-77645947D01*
X210574500Y-77648539D01*
X210574500Y-79353454D01*
X210555593Y-79411645D01*
X210545504Y-79423458D01*
X209973458Y-79995504D01*
X209918941Y-80023281D01*
X209903454Y-80024500D01*
X201846545Y-80024500D01*
X201788354Y-80005593D01*
X201776541Y-79995504D01*
X197504496Y-75723458D01*
X197476719Y-75668941D01*
X197475500Y-75653454D01*
X197475500Y-75245545D01*
X197494407Y-75187354D01*
X197543907Y-75151390D01*
X197605093Y-75151390D01*
X197644504Y-75175541D01*
X197917316Y-75448353D01*
X197945093Y-75502870D01*
X197945465Y-75505434D01*
X197963670Y-75643708D01*
X197963670Y-75643709D01*
X198015345Y-75768467D01*
X198019139Y-75777625D01*
X198107379Y-75892621D01*
X198222375Y-75980861D01*
X198356291Y-76036330D01*
X198500000Y-76055250D01*
X198643709Y-76036330D01*
X198777625Y-75980861D01*
X198892621Y-75892621D01*
X198980861Y-75777625D01*
X199036330Y-75643709D01*
X199055250Y-75500000D01*
X199048450Y-75448353D01*
X199036330Y-75356291D01*
X198980861Y-75222375D01*
X198892621Y-75107379D01*
X198777625Y-75019139D01*
X198777621Y-75019137D01*
X198643709Y-74963670D01*
X198505435Y-74945465D01*
X198450210Y-74919124D01*
X198448354Y-74917316D01*
X198279496Y-74748458D01*
X198251719Y-74693941D01*
X198250500Y-74678454D01*
X198250500Y-74635290D01*
X198269407Y-74577099D01*
X198318907Y-74541135D01*
X198362421Y-74537137D01*
X198500000Y-74555250D01*
X198643709Y-74536330D01*
X198777625Y-74480861D01*
X198888273Y-74395957D01*
X198945947Y-74375534D01*
X198948539Y-74375500D01*
X199950789Y-74375500D01*
X199971104Y-74377607D01*
X199975530Y-74378534D01*
X199984268Y-74380367D01*
X200017217Y-74376260D01*
X200029461Y-74375500D01*
X200031114Y-74375500D01*
X200052147Y-74371989D01*
X200056149Y-74371406D01*
X200108626Y-74364866D01*
X200108628Y-74364864D01*
X200116138Y-74362629D01*
X200123606Y-74360065D01*
X200123610Y-74360065D01*
X200170070Y-74334922D01*
X200173694Y-74333055D01*
X200221211Y-74309826D01*
X200221215Y-74309821D01*
X200227634Y-74305239D01*
X200233822Y-74300422D01*
X200233823Y-74300420D01*
X200233826Y-74300419D01*
X200269629Y-74261525D01*
X200272415Y-74258620D01*
X205075497Y-69455538D01*
X205130013Y-69427763D01*
X205190445Y-69437334D01*
X205233710Y-69480599D01*
X205244500Y-69525544D01*
X205244500Y-70250000D01*
X205244500Y-70780500D01*
X205244500Y-79401000D01*
X205247645Y-79440965D01*
X205252490Y-79471558D01*
X205252492Y-79471570D01*
X205256405Y-79491240D01*
X205298138Y-79581768D01*
X205298141Y-79581773D01*
X205334101Y-79631269D01*
X205334104Y-79631272D01*
X205334105Y-79631273D01*
X205374876Y-79675378D01*
X205461857Y-79724088D01*
X205520048Y-79742995D01*
X205520049Y-79742995D01*
X205520052Y-79742996D01*
X205598997Y-79755500D01*
X205599000Y-79755500D01*
X206900994Y-79755500D01*
X206901000Y-79755500D01*
X206940965Y-79752355D01*
X206971558Y-79747510D01*
X206991239Y-79743595D01*
X207081773Y-79701859D01*
X207127023Y-79668982D01*
X207131269Y-79665898D01*
X207131269Y-79665897D01*
X207131273Y-79665895D01*
X207175378Y-79625124D01*
X207224088Y-79538143D01*
X207242995Y-79479952D01*
X207251010Y-79429348D01*
X207255500Y-79401003D01*
X207255500Y-76075000D01*
X217911504Y-76075000D01*
X217914097Y-76102990D01*
X217969887Y-76299070D01*
X218060750Y-76481548D01*
X218060755Y-76481557D01*
X218183608Y-76644240D01*
X218334266Y-76781582D01*
X218507581Y-76888895D01*
X218507586Y-76888898D01*
X218697683Y-76962541D01*
X218824999Y-76986340D01*
X218825000Y-76986340D01*
X218825000Y-76369753D01*
X218857685Y-76384680D01*
X218964237Y-76400000D01*
X219035763Y-76400000D01*
X219142315Y-76384680D01*
X219175000Y-76369753D01*
X219175000Y-76986340D01*
X219302316Y-76962541D01*
X219492413Y-76888898D01*
X219492418Y-76888895D01*
X219665733Y-76781582D01*
X219816391Y-76644240D01*
X219939244Y-76481557D01*
X219939249Y-76481548D01*
X220030112Y-76299070D01*
X220085902Y-76102990D01*
X220088496Y-76075000D01*
X219469724Y-76075000D01*
X219500000Y-75971889D01*
X219500000Y-75828111D01*
X219469724Y-75725000D01*
X220088496Y-75725000D01*
X220085902Y-75697009D01*
X220030112Y-75500929D01*
X219939249Y-75318451D01*
X219939244Y-75318442D01*
X219816391Y-75155759D01*
X219665733Y-75018417D01*
X219492418Y-74911104D01*
X219492413Y-74911101D01*
X219302316Y-74837458D01*
X219175000Y-74813658D01*
X219175000Y-75430246D01*
X219142315Y-75415320D01*
X219035763Y-75400000D01*
X218964237Y-75400000D01*
X218857685Y-75415320D01*
X218825000Y-75430246D01*
X218825000Y-74813659D01*
X218824999Y-74813658D01*
X218697683Y-74837458D01*
X218507586Y-74911101D01*
X218507581Y-74911104D01*
X218334266Y-75018417D01*
X218183608Y-75155759D01*
X218060755Y-75318442D01*
X218060750Y-75318451D01*
X217969887Y-75500929D01*
X217914097Y-75697009D01*
X217911504Y-75725000D01*
X218530276Y-75725000D01*
X218500000Y-75828111D01*
X218500000Y-75971889D01*
X218530276Y-76075000D01*
X217911504Y-76075000D01*
X207255500Y-76075000D01*
X207255500Y-72600000D01*
X213244750Y-72600000D01*
X213263669Y-72743708D01*
X213263670Y-72743709D01*
X213307696Y-72850000D01*
X213319139Y-72877625D01*
X213407379Y-72992621D01*
X213522375Y-73080861D01*
X213656291Y-73136330D01*
X213800000Y-73155250D01*
X213943709Y-73136330D01*
X214077625Y-73080861D01*
X214192621Y-72992621D01*
X214280861Y-72877625D01*
X214336330Y-72743709D01*
X214355250Y-72600000D01*
X214336330Y-72456291D01*
X214280861Y-72322375D01*
X214192621Y-72207379D01*
X214077625Y-72119139D01*
X214077621Y-72119137D01*
X213943709Y-72063670D01*
X213943708Y-72063669D01*
X213800000Y-72044750D01*
X213656291Y-72063669D01*
X213656290Y-72063670D01*
X213522378Y-72119137D01*
X213522374Y-72119139D01*
X213407381Y-72207377D01*
X213407377Y-72207381D01*
X213319139Y-72322374D01*
X213319137Y-72322378D01*
X213263670Y-72456290D01*
X213263669Y-72456291D01*
X213244750Y-72599999D01*
X213244750Y-72600000D01*
X207255500Y-72600000D01*
X207255500Y-71854500D01*
X207274407Y-71796309D01*
X207323907Y-71760345D01*
X207354500Y-71755500D01*
X213385996Y-71755500D01*
X213461761Y-71744008D01*
X213517835Y-71726597D01*
X213569822Y-71703858D01*
X213644773Y-71638126D01*
X213682020Y-71589584D01*
X213706842Y-71547860D01*
X213716711Y-71531274D01*
X213719064Y-71532674D01*
X213750046Y-71495398D01*
X213809343Y-71480317D01*
X213866180Y-71502970D01*
X213892808Y-71537659D01*
X213913144Y-71581772D01*
X213913145Y-71581773D01*
X213949105Y-71631269D01*
X213949108Y-71631272D01*
X213949109Y-71631273D01*
X213989880Y-71675378D01*
X214076861Y-71724088D01*
X214135052Y-71742995D01*
X214135053Y-71742995D01*
X214135056Y-71742996D01*
X214214001Y-71755500D01*
X214214004Y-71755500D01*
X214900994Y-71755500D01*
X214901000Y-71755500D01*
X214940965Y-71752355D01*
X214971558Y-71747510D01*
X214991239Y-71743595D01*
X215081773Y-71701859D01*
X215131273Y-71665895D01*
X215175378Y-71625124D01*
X215224088Y-71538143D01*
X215242995Y-71479952D01*
X215246288Y-71459161D01*
X215255500Y-71401003D01*
X215255500Y-66175000D01*
X217641433Y-66175000D01*
X217680713Y-66316469D01*
X217680715Y-66316473D01*
X217767318Y-66479825D01*
X217887007Y-66620732D01*
X217887012Y-66620738D01*
X218034191Y-66732621D01*
X218034193Y-66732622D01*
X218201989Y-66810253D01*
X218201991Y-66810254D01*
X218382561Y-66850000D01*
X218574999Y-66850000D01*
X218575000Y-66849999D01*
X218575000Y-66336404D01*
X218687424Y-66375000D01*
X218781073Y-66375000D01*
X218873446Y-66359586D01*
X218925000Y-66331685D01*
X218925000Y-66849999D01*
X218925001Y-66850000D01*
X219071084Y-66850000D01*
X219208804Y-66835021D01*
X219384010Y-66775987D01*
X219542429Y-66680670D01*
X219676658Y-66553522D01*
X219780411Y-66400498D01*
X219848848Y-66228734D01*
X219857657Y-66175000D01*
X219082727Y-66175000D01*
X219118551Y-66093330D01*
X219128886Y-65968605D01*
X219098163Y-65847281D01*
X219083606Y-65825000D01*
X219858566Y-65825000D01*
X219858566Y-65824999D01*
X219819286Y-65683530D01*
X219819284Y-65683526D01*
X219732681Y-65520174D01*
X219612992Y-65379267D01*
X219612987Y-65379261D01*
X219465808Y-65267378D01*
X219465806Y-65267377D01*
X219298010Y-65189746D01*
X219298008Y-65189745D01*
X219117439Y-65150000D01*
X218925001Y-65150000D01*
X218925000Y-65150001D01*
X218925000Y-65663595D01*
X218812576Y-65625000D01*
X218718927Y-65625000D01*
X218626554Y-65640414D01*
X218575000Y-65668314D01*
X218575000Y-65150001D01*
X218574999Y-65150000D01*
X218428916Y-65150000D01*
X218291195Y-65164978D01*
X218115989Y-65224012D01*
X217957570Y-65319329D01*
X217823341Y-65446477D01*
X217719588Y-65599501D01*
X217651151Y-65771265D01*
X217642342Y-65824999D01*
X217642343Y-65825000D01*
X218417273Y-65825000D01*
X218381449Y-65906670D01*
X218371114Y-66031395D01*
X218401837Y-66152719D01*
X218416394Y-66175000D01*
X217641433Y-66175000D01*
X215255500Y-66175000D01*
X215255500Y-65854500D01*
X215274407Y-65796309D01*
X215323907Y-65760345D01*
X215354500Y-65755500D01*
X216400994Y-65755500D01*
X216401000Y-65755500D01*
X216440965Y-65752355D01*
X216471558Y-65747510D01*
X216491239Y-65743595D01*
X216581773Y-65701859D01*
X216631273Y-65665895D01*
X216675378Y-65625124D01*
X216724088Y-65538143D01*
X216742995Y-65479952D01*
X216746742Y-65456294D01*
X216755500Y-65401003D01*
X216755500Y-63953683D01*
X217620740Y-63953683D01*
X217630755Y-64138407D01*
X217680203Y-64316504D01*
X217680247Y-64316661D01*
X217680250Y-64316667D01*
X217766899Y-64480103D01*
X217766900Y-64480104D01*
X217886661Y-64621098D01*
X217886666Y-64621103D01*
X218033932Y-64733052D01*
X218033934Y-64733053D01*
X218033935Y-64733053D01*
X218033936Y-64733054D01*
X218201833Y-64810732D01*
X218382503Y-64850500D01*
X218382507Y-64850500D01*
X219071112Y-64850500D01*
X219071113Y-64850500D01*
X219208910Y-64835514D01*
X219384221Y-64776444D01*
X219530728Y-64688295D01*
X219542733Y-64681072D01*
X219542733Y-64681071D01*
X219542736Y-64681070D01*
X219677041Y-64553849D01*
X219776350Y-64407379D01*
X219780857Y-64400732D01*
X219803577Y-64343709D01*
X219849331Y-64228875D01*
X219879260Y-64046317D01*
X219869245Y-63861593D01*
X219819754Y-63683341D01*
X219733100Y-63519896D01*
X219613337Y-63378900D01*
X219613333Y-63378896D01*
X219466067Y-63266947D01*
X219466065Y-63266946D01*
X219298170Y-63189269D01*
X219298168Y-63189268D01*
X219235063Y-63175378D01*
X219117497Y-63149500D01*
X218428887Y-63149500D01*
X218291090Y-63164486D01*
X218232021Y-63184388D01*
X218115780Y-63223555D01*
X218115777Y-63223556D01*
X217957266Y-63318927D01*
X217957262Y-63318931D01*
X217822960Y-63446149D01*
X217719142Y-63599267D01*
X217666223Y-63732087D01*
X217650669Y-63771125D01*
X217620740Y-63953683D01*
X216755500Y-63953683D01*
X216755500Y-61953683D01*
X217620740Y-61953683D01*
X217630755Y-62138407D01*
X217680246Y-62316659D01*
X217680247Y-62316661D01*
X217680250Y-62316667D01*
X217766899Y-62480103D01*
X217766900Y-62480104D01*
X217886661Y-62621098D01*
X217886666Y-62621103D01*
X218033932Y-62733052D01*
X218033934Y-62733053D01*
X218033935Y-62733053D01*
X218033936Y-62733054D01*
X218201833Y-62810732D01*
X218382503Y-62850500D01*
X218382507Y-62850500D01*
X219071112Y-62850500D01*
X219071113Y-62850500D01*
X219208910Y-62835514D01*
X219384221Y-62776444D01*
X219542736Y-62681070D01*
X219677041Y-62553849D01*
X219780858Y-62400730D01*
X219849331Y-62228875D01*
X219879260Y-62046317D01*
X219869245Y-61861593D01*
X219819754Y-61683341D01*
X219733100Y-61519896D01*
X219613337Y-61378900D01*
X219613333Y-61378896D01*
X219466067Y-61266947D01*
X219466065Y-61266946D01*
X219298170Y-61189269D01*
X219298168Y-61189268D01*
X219262033Y-61181314D01*
X219117497Y-61149500D01*
X218428887Y-61149500D01*
X218291090Y-61164486D01*
X218232021Y-61184388D01*
X218115780Y-61223555D01*
X218115777Y-61223556D01*
X217957266Y-61318927D01*
X217957262Y-61318931D01*
X217822960Y-61446149D01*
X217719142Y-61599267D01*
X217650669Y-61771124D01*
X217650669Y-61771125D01*
X217620740Y-61953683D01*
X216755500Y-61953683D01*
X216755500Y-59953683D01*
X217620740Y-59953683D01*
X217630755Y-60138407D01*
X217661600Y-60249500D01*
X217680247Y-60316661D01*
X217680250Y-60316667D01*
X217766899Y-60480103D01*
X217766900Y-60480104D01*
X217886661Y-60621098D01*
X217886666Y-60621103D01*
X218033932Y-60733052D01*
X218033934Y-60733053D01*
X218033935Y-60733053D01*
X218033936Y-60733054D01*
X218201833Y-60810732D01*
X218382503Y-60850500D01*
X218382507Y-60850500D01*
X219071112Y-60850500D01*
X219071113Y-60850500D01*
X219208910Y-60835514D01*
X219384221Y-60776444D01*
X219542736Y-60681070D01*
X219677041Y-60553849D01*
X219758829Y-60433219D01*
X219780857Y-60400732D01*
X219795816Y-60363188D01*
X219849331Y-60228875D01*
X219879260Y-60046317D01*
X219869245Y-59861593D01*
X219819754Y-59683341D01*
X219733100Y-59519896D01*
X219613337Y-59378900D01*
X219613333Y-59378896D01*
X219466067Y-59266947D01*
X219466065Y-59266946D01*
X219298170Y-59189269D01*
X219298168Y-59189268D01*
X219262033Y-59181314D01*
X219117497Y-59149500D01*
X218428887Y-59149500D01*
X218291090Y-59164486D01*
X218236716Y-59182807D01*
X218115780Y-59223555D01*
X218115777Y-59223556D01*
X217957266Y-59318927D01*
X217957262Y-59318931D01*
X217822960Y-59446149D01*
X217719142Y-59599267D01*
X217650669Y-59771124D01*
X217630751Y-59892621D01*
X217620740Y-59953683D01*
X216755500Y-59953683D01*
X216755500Y-57953683D01*
X217620740Y-57953683D01*
X217630755Y-58138407D01*
X217680246Y-58316659D01*
X217680247Y-58316661D01*
X217680250Y-58316667D01*
X217766899Y-58480103D01*
X217766900Y-58480104D01*
X217886661Y-58621098D01*
X217886666Y-58621103D01*
X218033932Y-58733052D01*
X218033934Y-58733053D01*
X218033935Y-58733053D01*
X218033936Y-58733054D01*
X218201833Y-58810732D01*
X218382503Y-58850500D01*
X218382507Y-58850500D01*
X219071112Y-58850500D01*
X219071113Y-58850500D01*
X219208910Y-58835514D01*
X219384221Y-58776444D01*
X219542736Y-58681070D01*
X219677041Y-58553849D01*
X219780858Y-58400730D01*
X219849331Y-58228875D01*
X219879260Y-58046317D01*
X219869245Y-57861593D01*
X219819754Y-57683341D01*
X219733100Y-57519896D01*
X219613337Y-57378900D01*
X219613333Y-57378896D01*
X219466067Y-57266947D01*
X219466065Y-57266946D01*
X219298170Y-57189269D01*
X219298168Y-57189268D01*
X219262033Y-57181314D01*
X219117497Y-57149500D01*
X218428887Y-57149500D01*
X218291090Y-57164486D01*
X218232021Y-57184388D01*
X218115780Y-57223555D01*
X218115777Y-57223556D01*
X217957266Y-57318927D01*
X217957262Y-57318931D01*
X217822960Y-57446149D01*
X217719142Y-57599267D01*
X217650669Y-57771124D01*
X217630751Y-57892621D01*
X217620740Y-57953683D01*
X216755500Y-57953683D01*
X216755500Y-56397866D01*
X217624500Y-56397866D01*
X217624501Y-56397870D01*
X217630908Y-56457480D01*
X217630909Y-56457485D01*
X217681202Y-56592329D01*
X217767450Y-56707541D01*
X217767454Y-56707546D01*
X217767457Y-56707548D01*
X217767458Y-56707549D01*
X217882670Y-56793797D01*
X218017511Y-56844089D01*
X218017512Y-56844089D01*
X218017517Y-56844091D01*
X218077127Y-56850500D01*
X219422872Y-56850499D01*
X219482483Y-56844091D01*
X219549907Y-56818943D01*
X219617329Y-56793797D01*
X219617329Y-56793796D01*
X219617331Y-56793796D01*
X219732546Y-56707546D01*
X219818796Y-56592331D01*
X219869091Y-56457483D01*
X219875500Y-56397873D01*
X219875499Y-55602128D01*
X219869091Y-55542517D01*
X219867072Y-55537103D01*
X219818797Y-55407670D01*
X219732549Y-55292458D01*
X219732548Y-55292457D01*
X219732546Y-55292454D01*
X219732541Y-55292450D01*
X219617329Y-55206202D01*
X219482488Y-55155910D01*
X219482483Y-55155909D01*
X219482481Y-55155908D01*
X219482477Y-55155908D01*
X219451249Y-55152550D01*
X219422873Y-55149500D01*
X219422870Y-55149500D01*
X218077133Y-55149500D01*
X218077129Y-55149500D01*
X218077128Y-55149501D01*
X218069949Y-55150272D01*
X218017519Y-55155908D01*
X218017514Y-55155909D01*
X217882670Y-55206202D01*
X217767458Y-55292450D01*
X217767450Y-55292458D01*
X217681202Y-55407670D01*
X217630910Y-55542511D01*
X217630908Y-55542522D01*
X217624500Y-55602129D01*
X217624500Y-56397866D01*
X216755500Y-56397866D01*
X216755500Y-53854500D01*
X216774407Y-53796309D01*
X216823907Y-53760345D01*
X216854500Y-53755500D01*
X217929480Y-53755500D01*
X217987671Y-53774407D01*
X218023635Y-53823907D01*
X218023635Y-53885093D01*
X218021656Y-53889784D01*
X218021904Y-53889878D01*
X218019781Y-53895475D01*
X218019780Y-53895477D01*
X217963763Y-54043182D01*
X217963762Y-54043183D01*
X217944722Y-54199998D01*
X217944722Y-54200001D01*
X217963762Y-54356816D01*
X217963763Y-54356818D01*
X218001963Y-54457543D01*
X218019780Y-54504523D01*
X218109515Y-54634528D01*
X218109516Y-54634529D01*
X218109517Y-54634530D01*
X218227760Y-54739283D01*
X218367635Y-54812696D01*
X218521015Y-54850500D01*
X218521018Y-54850500D01*
X218678982Y-54850500D01*
X218678985Y-54850500D01*
X218832365Y-54812696D01*
X218972240Y-54739283D01*
X219090483Y-54634530D01*
X219180220Y-54504523D01*
X219236237Y-54356818D01*
X219255278Y-54200000D01*
X219252777Y-54179405D01*
X219236237Y-54043183D01*
X219236237Y-54043182D01*
X219180220Y-53895477D01*
X219113105Y-53798244D01*
X219095611Y-53739616D01*
X219115919Y-53681899D01*
X219129295Y-53668053D01*
X219129131Y-53667875D01*
X219131273Y-53665895D01*
X219175378Y-53625124D01*
X219224088Y-53538143D01*
X219242995Y-53479952D01*
X219242996Y-53479947D01*
X219255500Y-53401003D01*
X219255500Y-45354500D01*
X219274407Y-45296309D01*
X219323907Y-45260345D01*
X219354500Y-45255500D01*
X219900994Y-45255500D01*
X219901000Y-45255500D01*
X219940965Y-45252355D01*
X219971558Y-45247510D01*
X219991239Y-45243595D01*
X220081773Y-45201859D01*
X220131273Y-45165895D01*
X220175378Y-45125124D01*
X220224088Y-45038143D01*
X220242995Y-44979952D01*
X220255500Y-44901000D01*
X220255500Y-33099000D01*
X220252355Y-33059035D01*
X220247510Y-33028442D01*
X220243595Y-33008761D01*
X220201859Y-32918227D01*
X220192868Y-32905852D01*
X220165898Y-32868730D01*
X220165895Y-32868727D01*
X220125124Y-32824622D01*
X220038143Y-32775912D01*
X220000745Y-32763761D01*
X219979947Y-32757003D01*
X219901003Y-32744500D01*
X219901000Y-32744500D01*
X208420520Y-32744500D01*
X208362329Y-32725593D01*
X208326365Y-32676093D01*
X208326365Y-32614907D01*
X208328343Y-32610215D01*
X208328096Y-32610122D01*
X208330218Y-32604524D01*
X208330220Y-32604523D01*
X208386237Y-32456818D01*
X208405278Y-32300000D01*
X208402486Y-32277009D01*
X208386237Y-32143183D01*
X208386237Y-32143182D01*
X208330220Y-31995477D01*
X208240483Y-31865470D01*
X208237081Y-31860541D01*
X208238109Y-31859830D01*
X208216207Y-31809566D01*
X208229403Y-31749821D01*
X208239927Y-31735334D01*
X208240480Y-31734532D01*
X208240483Y-31734530D01*
X208330220Y-31604523D01*
X208386237Y-31456818D01*
X208405278Y-31300000D01*
X208386237Y-31143182D01*
X208330220Y-30995477D01*
X208264316Y-30899998D01*
X208240484Y-30865471D01*
X208223019Y-30849998D01*
X208122240Y-30760717D01*
X208008889Y-30701225D01*
X207982364Y-30687303D01*
X207828987Y-30649500D01*
X207828985Y-30649500D01*
X207671015Y-30649500D01*
X207671012Y-30649500D01*
X207517635Y-30687303D01*
X207377758Y-30760718D01*
X207259515Y-30865471D01*
X207169780Y-30995476D01*
X207113763Y-31143182D01*
X207113762Y-31143183D01*
X207094722Y-31299998D01*
X207094722Y-31300001D01*
X207113762Y-31456816D01*
X207113763Y-31456817D01*
X207169780Y-31604523D01*
X207262919Y-31739459D01*
X207261892Y-31740167D01*
X207283793Y-31790447D01*
X207270589Y-31850190D01*
X207260059Y-31864684D01*
X207169780Y-31995476D01*
X207113763Y-32143182D01*
X207113762Y-32143183D01*
X207094722Y-32299998D01*
X207094722Y-32300001D01*
X207113762Y-32456816D01*
X207113763Y-32456818D01*
X207169780Y-32604523D01*
X207169781Y-32604524D01*
X207171904Y-32610122D01*
X207169122Y-32611176D01*
X207177451Y-32659736D01*
X207150373Y-32714603D01*
X207096216Y-32743075D01*
X207079480Y-32744500D01*
X206354500Y-32744500D01*
X206296309Y-32725593D01*
X206260345Y-32676093D01*
X206255500Y-32645500D01*
X206255500Y-30099006D01*
X206255500Y-30099000D01*
X206252355Y-30059035D01*
X206247510Y-30028442D01*
X206243595Y-30008761D01*
X206201859Y-29918227D01*
X206170363Y-29874876D01*
X206165898Y-29868730D01*
X206165895Y-29868727D01*
X206125124Y-29824622D01*
X206038143Y-29775912D01*
X206000745Y-29763761D01*
X205979947Y-29757003D01*
X205901003Y-29744500D01*
X205901000Y-29744500D01*
X193000000Y-29744500D01*
X193000000Y-26000500D01*
X220900500Y-26000500D01*
X220958691Y-26019407D01*
G37*
%TD.AperFunction*%
%TA.AperFunction,Conductor*%
G36*
X194964090Y-67835891D02*
G01*
X194989041Y-67842576D01*
X195036733Y-67862330D01*
X195059107Y-67875248D01*
X195100055Y-67906668D01*
X195118328Y-67924942D01*
X195149744Y-67965883D01*
X195162668Y-67988267D01*
X195182419Y-68035952D01*
X195189107Y-68060911D01*
X195195844Y-68112077D01*
X195195844Y-68137922D01*
X195189107Y-68189087D01*
X195182418Y-68214048D01*
X195162667Y-68261732D01*
X195149745Y-68284114D01*
X195118330Y-68325055D01*
X195100055Y-68343330D01*
X195059114Y-68374745D01*
X195036732Y-68387667D01*
X194989048Y-68407418D01*
X194964085Y-68414107D01*
X194912921Y-68420843D01*
X194887077Y-68420843D01*
X194835913Y-68414107D01*
X194810950Y-68407418D01*
X194763266Y-68387667D01*
X194740884Y-68374745D01*
X194699943Y-68343330D01*
X194681668Y-68325055D01*
X194650253Y-68284114D01*
X194637330Y-68261731D01*
X194617579Y-68214046D01*
X194610891Y-68189084D01*
X194604155Y-68137922D01*
X194604155Y-68137917D01*
X194604155Y-68112077D01*
X194604156Y-68112073D01*
X194610891Y-68060907D01*
X194617575Y-68035960D01*
X194637332Y-67988261D01*
X194650249Y-67965890D01*
X194653758Y-67961316D01*
X194681671Y-67924939D01*
X194699936Y-67906673D01*
X194740887Y-67875250D01*
X194763264Y-67862330D01*
X194810951Y-67842578D01*
X194835909Y-67835891D01*
X194887081Y-67829155D01*
X194912921Y-67829155D01*
X194964090Y-67835891D01*
G37*
%TD.AperFunction*%
%TA.AperFunction,Conductor*%
G36*
X197764090Y-67835891D02*
G01*
X197789041Y-67842576D01*
X197836733Y-67862330D01*
X197859107Y-67875248D01*
X197900055Y-67906668D01*
X197918328Y-67924942D01*
X197949744Y-67965883D01*
X197962668Y-67988267D01*
X197982419Y-68035952D01*
X197989107Y-68060911D01*
X197995844Y-68112077D01*
X197995844Y-68137922D01*
X197989107Y-68189087D01*
X197982418Y-68214048D01*
X197962667Y-68261732D01*
X197949745Y-68284114D01*
X197918330Y-68325055D01*
X197900055Y-68343330D01*
X197859114Y-68374745D01*
X197836732Y-68387667D01*
X197789048Y-68407418D01*
X197764085Y-68414107D01*
X197712921Y-68420843D01*
X197687077Y-68420843D01*
X197635913Y-68414107D01*
X197610950Y-68407418D01*
X197563266Y-68387667D01*
X197540884Y-68374745D01*
X197499943Y-68343330D01*
X197481668Y-68325055D01*
X197450253Y-68284114D01*
X197437330Y-68261731D01*
X197417579Y-68214046D01*
X197410891Y-68189084D01*
X197404155Y-68137922D01*
X197404155Y-68137917D01*
X197404155Y-68112077D01*
X197404156Y-68112073D01*
X197410891Y-68060907D01*
X197417575Y-68035960D01*
X197437332Y-67988261D01*
X197450249Y-67965890D01*
X197453758Y-67961316D01*
X197481671Y-67924939D01*
X197499936Y-67906673D01*
X197540887Y-67875250D01*
X197563264Y-67862330D01*
X197610951Y-67842578D01*
X197635909Y-67835891D01*
X197687081Y-67829155D01*
X197712921Y-67829155D01*
X197764090Y-67835891D01*
G37*
%TD.AperFunction*%
%TA.AperFunction,Conductor*%
G36*
X200664090Y-67835891D02*
G01*
X200689041Y-67842576D01*
X200736733Y-67862330D01*
X200759107Y-67875248D01*
X200800055Y-67906668D01*
X200818328Y-67924942D01*
X200849744Y-67965883D01*
X200862667Y-67988266D01*
X200882418Y-68035950D01*
X200889107Y-68060913D01*
X200895843Y-68112077D01*
X200895843Y-68137921D01*
X200889107Y-68189085D01*
X200882418Y-68214048D01*
X200862667Y-68261732D01*
X200849745Y-68284114D01*
X200818330Y-68325055D01*
X200800055Y-68343330D01*
X200759114Y-68374745D01*
X200736732Y-68387667D01*
X200689048Y-68407418D01*
X200664085Y-68414107D01*
X200612921Y-68420843D01*
X200587077Y-68420843D01*
X200535913Y-68414107D01*
X200510950Y-68407418D01*
X200463266Y-68387667D01*
X200440884Y-68374745D01*
X200399943Y-68343330D01*
X200381668Y-68325055D01*
X200350253Y-68284114D01*
X200337330Y-68261731D01*
X200317579Y-68214046D01*
X200310891Y-68189084D01*
X200304155Y-68137922D01*
X200304155Y-68137917D01*
X200304155Y-68112077D01*
X200304156Y-68112073D01*
X200310891Y-68060907D01*
X200317575Y-68035960D01*
X200337332Y-67988261D01*
X200350249Y-67965890D01*
X200353758Y-67961316D01*
X200381671Y-67924939D01*
X200399936Y-67906673D01*
X200440887Y-67875250D01*
X200463264Y-67862330D01*
X200510951Y-67842578D01*
X200535909Y-67835891D01*
X200587081Y-67829155D01*
X200612921Y-67829155D01*
X200664090Y-67835891D01*
G37*
%TD.AperFunction*%
%TA.AperFunction,Conductor*%
G36*
X193520504Y-49607607D02*
G01*
X193548281Y-49662124D01*
X193549500Y-49677611D01*
X193549500Y-59149200D01*
X193530593Y-59207391D01*
X193529044Y-59209465D01*
X193519139Y-59222373D01*
X193463670Y-59356290D01*
X193463669Y-59356291D01*
X193444750Y-59499999D01*
X193444750Y-59500000D01*
X193463669Y-59643708D01*
X193463670Y-59643709D01*
X193516446Y-59771125D01*
X193519139Y-59777625D01*
X193607379Y-59892621D01*
X193722375Y-59980861D01*
X193856291Y-60036330D01*
X193977950Y-60052347D01*
X193998035Y-60061927D01*
X194022050Y-60052347D01*
X194143709Y-60036330D01*
X194277625Y-59980861D01*
X194392621Y-59892621D01*
X194480861Y-59777625D01*
X194536330Y-59643709D01*
X194555250Y-59500000D01*
X194536330Y-59356291D01*
X194480861Y-59222375D01*
X194480860Y-59222374D01*
X194480860Y-59222373D01*
X194470956Y-59209465D01*
X194450534Y-59151789D01*
X194450500Y-59149200D01*
X194450500Y-59076611D01*
X194469407Y-59018420D01*
X194518907Y-58982456D01*
X194580093Y-58982456D01*
X194619501Y-59006605D01*
X194879843Y-59266946D01*
X195183397Y-59570500D01*
X195211174Y-59625017D01*
X195211546Y-59627579D01*
X195213670Y-59643710D01*
X195269137Y-59777621D01*
X195269139Y-59777625D01*
X195357379Y-59892621D01*
X195472375Y-59980861D01*
X195606291Y-60036330D01*
X195727950Y-60052347D01*
X195748035Y-60061927D01*
X195772050Y-60052347D01*
X195893709Y-60036330D01*
X196027625Y-59980861D01*
X196142621Y-59892621D01*
X196230861Y-59777625D01*
X196286330Y-59643709D01*
X196305250Y-59500000D01*
X196286330Y-59356291D01*
X196230861Y-59222375D01*
X196142621Y-59107379D01*
X196027625Y-59019139D01*
X196027621Y-59019137D01*
X195893709Y-58963670D01*
X195893710Y-58963670D01*
X195877579Y-58961546D01*
X195822354Y-58935203D01*
X195820500Y-58933397D01*
X195229496Y-58342393D01*
X195201719Y-58287876D01*
X195200500Y-58272389D01*
X195200500Y-58076611D01*
X195219407Y-58018420D01*
X195268907Y-57982456D01*
X195330093Y-57982456D01*
X195369501Y-58006605D01*
X196095949Y-58733052D01*
X196933397Y-59570500D01*
X196961174Y-59625017D01*
X196961546Y-59627579D01*
X196963670Y-59643710D01*
X197019137Y-59777621D01*
X197019139Y-59777625D01*
X197107379Y-59892621D01*
X197222375Y-59980861D01*
X197356291Y-60036330D01*
X197477950Y-60052347D01*
X197533175Y-60078688D01*
X197562370Y-60132459D01*
X197554384Y-60193121D01*
X197512266Y-60237503D01*
X197465028Y-60249500D01*
X195784972Y-60249500D01*
X195754285Y-60239529D01*
X195715028Y-60249500D01*
X194034972Y-60249500D01*
X194004285Y-60239529D01*
X193965028Y-60249500D01*
X193610454Y-60249500D01*
X193552263Y-60230593D01*
X193540450Y-60220504D01*
X193231036Y-59911090D01*
X193207222Y-59892618D01*
X193133764Y-59835638D01*
X192982926Y-59770365D01*
X192982924Y-59770364D01*
X192982919Y-59770363D01*
X192845088Y-59748532D01*
X192820595Y-59744653D01*
X192820594Y-59744653D01*
X192795719Y-59747004D01*
X192656971Y-59760121D01*
X192656969Y-59760121D01*
X192656966Y-59760122D01*
X192502330Y-59815794D01*
X192366398Y-59908174D01*
X192257709Y-60031457D01*
X192257707Y-60031460D01*
X192233643Y-60078688D01*
X192187708Y-60168839D01*
X192144445Y-60212103D01*
X192084013Y-60221674D01*
X192029496Y-60193897D01*
X192001719Y-60139380D01*
X192000500Y-60123893D01*
X192000500Y-55019787D01*
X192000527Y-55019651D01*
X192000539Y-55000002D01*
X192000541Y-55000000D01*
X193000000Y-55000000D01*
X193000000Y-49087103D01*
X193520504Y-49607607D01*
G37*
%TD.AperFunction*%
%TA.AperFunction,Conductor*%
G36*
X197203690Y-33774407D02*
G01*
X197239654Y-33823907D01*
X197244499Y-33854500D01*
X197244499Y-39900993D01*
X197244500Y-39901000D01*
X197247645Y-39940965D01*
X197252490Y-39971558D01*
X197252492Y-39971570D01*
X197256405Y-39991240D01*
X197298138Y-40081768D01*
X197298141Y-40081773D01*
X197334101Y-40131269D01*
X197334104Y-40131272D01*
X197334105Y-40131273D01*
X197374876Y-40175378D01*
X197461857Y-40224088D01*
X197520048Y-40242995D01*
X197520049Y-40242995D01*
X197520052Y-40242996D01*
X197598997Y-40255500D01*
X197599000Y-40255500D01*
X198900994Y-40255500D01*
X198901000Y-40255500D01*
X198940965Y-40252355D01*
X198971558Y-40247510D01*
X198991239Y-40243595D01*
X199081773Y-40201859D01*
X199131273Y-40165895D01*
X199175378Y-40125124D01*
X199224088Y-40038143D01*
X199236480Y-40000002D01*
X205444853Y-40000002D01*
X205465334Y-40142456D01*
X205525118Y-40273363D01*
X205525123Y-40273373D01*
X205611407Y-40372951D01*
X205619373Y-40382144D01*
X205740442Y-40459950D01*
X205740447Y-40459953D01*
X205846903Y-40491211D01*
X205878535Y-40500499D01*
X205878536Y-40500499D01*
X205878539Y-40500500D01*
X205878541Y-40500500D01*
X206022459Y-40500500D01*
X206022461Y-40500500D01*
X206160553Y-40459953D01*
X206271727Y-40388505D01*
X206330902Y-40372951D01*
X206378772Y-40388505D01*
X206489947Y-40459953D01*
X206596403Y-40491211D01*
X206628035Y-40500499D01*
X206628036Y-40500499D01*
X206628039Y-40500500D01*
X206628041Y-40500500D01*
X206771959Y-40500500D01*
X206771961Y-40500500D01*
X206910053Y-40459953D01*
X207031128Y-40382143D01*
X207125377Y-40273373D01*
X207185165Y-40142457D01*
X207205647Y-40000000D01*
X207204387Y-39991239D01*
X207185165Y-39857543D01*
X207135017Y-39747736D01*
X207125377Y-39726627D01*
X207031128Y-39617857D01*
X207031127Y-39617856D01*
X207031126Y-39617855D01*
X206910057Y-39540049D01*
X206910054Y-39540047D01*
X206910053Y-39540047D01*
X206910050Y-39540046D01*
X206771964Y-39499500D01*
X206771961Y-39499500D01*
X206628039Y-39499500D01*
X206628035Y-39499500D01*
X206489949Y-39540046D01*
X206489942Y-39540049D01*
X206378773Y-39611493D01*
X206319598Y-39627048D01*
X206271727Y-39611493D01*
X206160557Y-39540049D01*
X206160554Y-39540047D01*
X206160553Y-39540047D01*
X206160550Y-39540046D01*
X206022464Y-39499500D01*
X206022461Y-39499500D01*
X205878539Y-39499500D01*
X205878535Y-39499500D01*
X205740449Y-39540046D01*
X205740442Y-39540049D01*
X205619373Y-39617855D01*
X205525122Y-39726628D01*
X205465334Y-39857543D01*
X205444853Y-39999997D01*
X205444853Y-40000002D01*
X199236480Y-40000002D01*
X199242995Y-39979952D01*
X199244325Y-39971558D01*
X199255500Y-39901003D01*
X199255500Y-38450502D01*
X205094353Y-38450502D01*
X205114834Y-38592956D01*
X205142372Y-38653254D01*
X205174623Y-38723873D01*
X205268872Y-38832643D01*
X205268873Y-38832644D01*
X205389942Y-38910450D01*
X205389947Y-38910453D01*
X205496403Y-38941711D01*
X205528035Y-38950999D01*
X205528036Y-38950999D01*
X205528039Y-38951000D01*
X205528041Y-38951000D01*
X205671959Y-38951000D01*
X205671961Y-38951000D01*
X205810053Y-38910453D01*
X205931128Y-38832643D01*
X206025377Y-38723873D01*
X206085165Y-38592957D01*
X206099278Y-38494798D01*
X206105647Y-38450502D01*
X206105647Y-38450497D01*
X206085165Y-38308043D01*
X206056776Y-38245881D01*
X206025377Y-38177127D01*
X205931128Y-38068357D01*
X205931127Y-38068356D01*
X205931126Y-38068355D01*
X205810057Y-37990549D01*
X205810054Y-37990547D01*
X205810053Y-37990547D01*
X205810050Y-37990546D01*
X205671964Y-37950000D01*
X205671961Y-37950000D01*
X205528039Y-37950000D01*
X205528035Y-37950000D01*
X205389949Y-37990546D01*
X205389942Y-37990549D01*
X205268873Y-38068355D01*
X205174622Y-38177128D01*
X205114834Y-38308043D01*
X205094353Y-38450497D01*
X205094353Y-38450502D01*
X199255500Y-38450502D01*
X199255500Y-36354500D01*
X199274407Y-36296309D01*
X199323907Y-36260345D01*
X199354500Y-36255500D01*
X216145499Y-36255500D01*
X216203690Y-36274407D01*
X216239654Y-36323907D01*
X216244499Y-36354500D01*
X216244499Y-38613329D01*
X216225592Y-38671520D01*
X216176092Y-38707484D01*
X216114906Y-38707484D01*
X216065408Y-38671521D01*
X216031614Y-38625007D01*
X216030232Y-38623055D01*
X215990486Y-38565473D01*
X215986513Y-38560989D01*
X215986690Y-38560831D01*
X215978158Y-38551432D01*
X215977962Y-38551162D01*
X215924424Y-38506872D01*
X215921881Y-38504694D01*
X215872242Y-38460718D01*
X215872236Y-38460714D01*
X215871511Y-38460334D01*
X215854417Y-38448957D01*
X215851327Y-38446401D01*
X215851326Y-38446400D01*
X215851323Y-38446398D01*
X215851319Y-38446396D01*
X215791729Y-38418354D01*
X215787874Y-38416437D01*
X215732366Y-38387304D01*
X215728004Y-38386229D01*
X215709547Y-38379684D01*
X215702615Y-38376422D01*
X215702608Y-38376419D01*
X215641488Y-38364760D01*
X215636349Y-38363638D01*
X215578985Y-38349500D01*
X215570846Y-38349500D01*
X215552296Y-38347746D01*
X215541170Y-38345624D01*
X215482662Y-38349305D01*
X215476446Y-38349500D01*
X215421015Y-38349500D01*
X215421005Y-38349501D01*
X215409558Y-38352322D01*
X215392094Y-38355002D01*
X215377141Y-38355943D01*
X215377132Y-38355945D01*
X215324843Y-38372934D01*
X215317948Y-38374902D01*
X215267634Y-38387304D01*
X215253951Y-38394485D01*
X215238541Y-38400977D01*
X215220828Y-38406732D01*
X215177463Y-38434252D01*
X215170427Y-38438322D01*
X215127759Y-38460717D01*
X215127757Y-38460718D01*
X215113467Y-38473377D01*
X215100878Y-38482853D01*
X215082059Y-38494798D01*
X215049385Y-38529591D01*
X215042870Y-38535920D01*
X215009519Y-38565467D01*
X214996597Y-38584187D01*
X214987295Y-38595711D01*
X214969551Y-38614607D01*
X214948304Y-38653254D01*
X214943028Y-38661794D01*
X214919782Y-38695473D01*
X214910424Y-38720145D01*
X214904615Y-38732724D01*
X214890373Y-38758630D01*
X214880307Y-38797833D01*
X214876986Y-38808312D01*
X214863763Y-38843179D01*
X214860144Y-38872981D01*
X214857757Y-38885661D01*
X214849500Y-38917821D01*
X214849500Y-38954662D01*
X214848778Y-38966595D01*
X214844722Y-38999998D01*
X214844722Y-39000000D01*
X214848778Y-39033403D01*
X214849500Y-39045337D01*
X214849500Y-39689545D01*
X214830593Y-39747736D01*
X214820504Y-39759549D01*
X212729370Y-41850682D01*
X212674853Y-41878459D01*
X212614421Y-41868888D01*
X212586671Y-41847881D01*
X212565170Y-41824622D01*
X212478189Y-41775912D01*
X212440791Y-41763761D01*
X212419993Y-41757003D01*
X212341049Y-41744500D01*
X212341046Y-41744500D01*
X209099000Y-41744500D01*
X209059035Y-41747645D01*
X209030545Y-41752156D01*
X209028429Y-41752492D01*
X209008759Y-41756405D01*
X208918231Y-41798138D01*
X208918226Y-41798141D01*
X208868730Y-41834101D01*
X208868727Y-41834104D01*
X208824622Y-41874876D01*
X208824621Y-41874877D01*
X208775913Y-41961855D01*
X208757003Y-42020052D01*
X208744500Y-42098996D01*
X208744500Y-45341049D01*
X208751559Y-45400691D01*
X208762348Y-45445631D01*
X208762349Y-45445634D01*
X208774738Y-45483766D01*
X208830121Y-45566653D01*
X208830124Y-45566657D01*
X208851757Y-45588290D01*
X208879533Y-45642805D01*
X208869962Y-45703237D01*
X208851756Y-45728296D01*
X207648827Y-46931227D01*
X207594310Y-46959004D01*
X207578823Y-46960223D01*
X206991042Y-46960223D01*
X206932851Y-46941316D01*
X206896887Y-46891816D01*
X206896887Y-46830630D01*
X206926211Y-46786403D01*
X206931123Y-46782145D01*
X206931128Y-46782143D01*
X207025377Y-46673373D01*
X207085165Y-46542457D01*
X207105647Y-46400000D01*
X207102567Y-46378580D01*
X207085165Y-46257543D01*
X207025377Y-46126628D01*
X207025377Y-46126627D01*
X206931128Y-46017857D01*
X206931127Y-46017856D01*
X206931126Y-46017855D01*
X206810057Y-45940049D01*
X206810054Y-45940047D01*
X206810053Y-45940047D01*
X206781213Y-45931579D01*
X206732828Y-45917372D01*
X206682321Y-45882836D01*
X206661759Y-45825209D01*
X206670664Y-45781259D01*
X206708229Y-45699005D01*
X206749602Y-45653929D01*
X206798282Y-45641134D01*
X206865963Y-45641134D01*
X206865965Y-45641134D01*
X207004057Y-45600587D01*
X207125132Y-45522777D01*
X207219381Y-45414007D01*
X207279169Y-45283091D01*
X207290848Y-45201859D01*
X207299651Y-45140636D01*
X207299651Y-45140631D01*
X207279169Y-44998177D01*
X207270846Y-44979952D01*
X207219381Y-44867261D01*
X207182534Y-44824737D01*
X207158716Y-44768378D01*
X207172574Y-44708783D01*
X207182535Y-44695073D01*
X207182712Y-44694867D01*
X207189286Y-44687282D01*
X207249074Y-44556366D01*
X207258208Y-44492839D01*
X207269556Y-44413911D01*
X207269556Y-44413906D01*
X207249074Y-44271452D01*
X207189286Y-44140537D01*
X207189286Y-44140536D01*
X207147757Y-44092609D01*
X207123941Y-44036250D01*
X207137800Y-43976655D01*
X207147747Y-43962963D01*
X207225377Y-43873373D01*
X207285165Y-43742457D01*
X207302044Y-43625063D01*
X207305647Y-43600002D01*
X207305647Y-43599997D01*
X207285165Y-43457543D01*
X207284937Y-43457043D01*
X207225377Y-43326627D01*
X207131128Y-43217857D01*
X207131127Y-43217856D01*
X207131126Y-43217855D01*
X207010057Y-43140049D01*
X207010054Y-43140047D01*
X207010053Y-43140047D01*
X207008357Y-43139549D01*
X206871964Y-43099500D01*
X206871961Y-43099500D01*
X206728039Y-43099500D01*
X206728035Y-43099500D01*
X206589949Y-43140046D01*
X206589942Y-43140049D01*
X206468873Y-43217855D01*
X206374622Y-43326628D01*
X206314834Y-43457543D01*
X206298027Y-43574437D01*
X206288080Y-43594667D01*
X206297956Y-43625063D01*
X206314834Y-43742456D01*
X206374623Y-43873373D01*
X206416149Y-43921297D01*
X206439967Y-43977656D01*
X206426109Y-44037251D01*
X206416150Y-44050959D01*
X206338531Y-44140537D01*
X206278743Y-44271452D01*
X206258262Y-44413906D01*
X206258262Y-44413911D01*
X206278743Y-44556365D01*
X206338532Y-44687282D01*
X206375379Y-44729807D01*
X206399196Y-44786166D01*
X206385337Y-44845761D01*
X206375382Y-44859464D01*
X206368627Y-44867260D01*
X206311830Y-44991627D01*
X206270458Y-45036704D01*
X206221777Y-45049500D01*
X206154090Y-45049500D01*
X206016004Y-45090046D01*
X206015997Y-45090049D01*
X205894928Y-45167855D01*
X205800677Y-45276628D01*
X205740889Y-45407543D01*
X205720408Y-45549997D01*
X205720408Y-45550002D01*
X205740889Y-45692456D01*
X205800677Y-45823371D01*
X205800678Y-45823373D01*
X205844016Y-45873388D01*
X205894928Y-45932144D01*
X206015997Y-46009950D01*
X206016002Y-46009953D01*
X206093227Y-46032628D01*
X206143733Y-46067162D01*
X206164295Y-46124789D01*
X206155389Y-46168742D01*
X206140042Y-46202348D01*
X206098670Y-46247426D01*
X206049988Y-46260223D01*
X205928035Y-46260223D01*
X205789949Y-46300769D01*
X205789942Y-46300772D01*
X205668873Y-46378578D01*
X205574622Y-46487351D01*
X205514834Y-46618266D01*
X205494353Y-46760720D01*
X205494353Y-46760725D01*
X205514833Y-46903175D01*
X205514835Y-46903180D01*
X205516881Y-46907660D01*
X205523856Y-46968447D01*
X205493770Y-47021724D01*
X205474522Y-47035541D01*
X205473409Y-47036152D01*
X205435513Y-47063684D01*
X205427723Y-47068801D01*
X205387411Y-47092642D01*
X205387408Y-47092644D01*
X205371009Y-47109043D01*
X205359204Y-47119125D01*
X205340443Y-47132756D01*
X205340437Y-47132762D01*
X205310591Y-47168839D01*
X205304316Y-47175736D01*
X198798531Y-53681521D01*
X198785118Y-53692267D01*
X198782055Y-53694802D01*
X198733871Y-53746112D01*
X198731711Y-53748342D01*
X198711085Y-53768969D01*
X198711083Y-53768971D01*
X198707653Y-53773392D01*
X198701613Y-53780463D01*
X198669552Y-53814606D01*
X198664439Y-53823907D01*
X198658377Y-53834932D01*
X198649854Y-53847908D01*
X198635637Y-53866236D01*
X198617041Y-53909209D01*
X198612939Y-53917582D01*
X198590376Y-53958625D01*
X198590372Y-53958636D01*
X198584604Y-53981099D01*
X198579574Y-53995791D01*
X198570364Y-54017074D01*
X198563039Y-54063322D01*
X198561148Y-54072451D01*
X198549501Y-54117815D01*
X198549500Y-54117825D01*
X198549500Y-54141011D01*
X198548281Y-54156500D01*
X198544653Y-54179403D01*
X198549061Y-54226033D01*
X198549500Y-54235350D01*
X198549500Y-57150504D01*
X198530593Y-57208695D01*
X198481093Y-57244659D01*
X198419907Y-57244659D01*
X198371958Y-57210772D01*
X198324942Y-57149500D01*
X198292621Y-57107379D01*
X198177625Y-57019139D01*
X198177621Y-57019137D01*
X198043709Y-56963670D01*
X198043708Y-56963669D01*
X197900000Y-56944750D01*
X197756291Y-56963669D01*
X197756290Y-56963670D01*
X197622378Y-57019137D01*
X197622374Y-57019139D01*
X197507381Y-57107377D01*
X197507377Y-57107381D01*
X197419139Y-57222374D01*
X197419137Y-57222378D01*
X197363670Y-57356290D01*
X197363669Y-57356291D01*
X197344750Y-57499999D01*
X197344750Y-57500000D01*
X197363669Y-57643708D01*
X197363670Y-57643709D01*
X197416446Y-57771125D01*
X197419139Y-57777625D01*
X197507379Y-57892621D01*
X197622375Y-57980861D01*
X197756291Y-58036330D01*
X197900000Y-58055250D01*
X198043709Y-58036330D01*
X198177625Y-57980861D01*
X198292621Y-57892621D01*
X198371958Y-57789226D01*
X198422383Y-57754572D01*
X198483547Y-57756174D01*
X198532089Y-57793421D01*
X198549500Y-57849495D01*
X198549500Y-59289546D01*
X198530593Y-59347737D01*
X198520503Y-59359550D01*
X198212228Y-59667824D01*
X198157712Y-59695601D01*
X198097280Y-59686030D01*
X198054015Y-59642765D01*
X198044072Y-59584899D01*
X198055250Y-59500000D01*
X198036330Y-59356291D01*
X197980861Y-59222375D01*
X197892621Y-59107379D01*
X197777625Y-59019139D01*
X197777621Y-59019137D01*
X197643709Y-58963670D01*
X197643710Y-58963670D01*
X197627579Y-58961546D01*
X197572354Y-58935203D01*
X197570500Y-58933397D01*
X195979496Y-57342393D01*
X195951719Y-57287876D01*
X195950500Y-57272389D01*
X195950500Y-57099252D01*
X195969407Y-57041061D01*
X196018907Y-57005097D01*
X196080093Y-57005097D01*
X196087363Y-57007779D01*
X196156291Y-57036330D01*
X196300000Y-57055250D01*
X196443709Y-57036330D01*
X196577625Y-56980861D01*
X196692621Y-56892621D01*
X196780861Y-56777625D01*
X196836330Y-56643709D01*
X196855250Y-56500000D01*
X196849652Y-56457483D01*
X196836330Y-56356291D01*
X196780861Y-56222375D01*
X196692621Y-56107379D01*
X196577625Y-56019139D01*
X196577621Y-56019137D01*
X196443709Y-55963670D01*
X196443708Y-55963669D01*
X196300000Y-55944750D01*
X196156294Y-55963669D01*
X196156291Y-55963669D01*
X196156291Y-55963670D01*
X196087383Y-55992212D01*
X196026388Y-55997011D01*
X195974219Y-55965041D01*
X195950805Y-55908513D01*
X195950500Y-55900747D01*
X195950500Y-43599502D01*
X205094353Y-43599502D01*
X205114834Y-43741956D01*
X205144218Y-43806296D01*
X205174623Y-43872873D01*
X205252672Y-43962947D01*
X205268873Y-43981644D01*
X205290211Y-43995357D01*
X205389947Y-44059453D01*
X205496403Y-44090711D01*
X205528035Y-44099999D01*
X205528036Y-44099999D01*
X205528039Y-44100000D01*
X205528041Y-44100000D01*
X205671959Y-44100000D01*
X205671961Y-44100000D01*
X205810053Y-44059453D01*
X205931128Y-43981643D01*
X206025377Y-43872873D01*
X206085165Y-43741957D01*
X206089921Y-43708874D01*
X206101972Y-43625063D01*
X206111918Y-43604831D01*
X206102043Y-43574435D01*
X206099590Y-43557377D01*
X206085165Y-43457043D01*
X206025377Y-43326127D01*
X205931128Y-43217357D01*
X205931127Y-43217356D01*
X205931126Y-43217355D01*
X205810057Y-43139549D01*
X205810054Y-43139547D01*
X205810053Y-43139547D01*
X205810050Y-43139546D01*
X205671964Y-43099000D01*
X205671961Y-43099000D01*
X205528039Y-43099000D01*
X205528035Y-43099000D01*
X205389949Y-43139546D01*
X205389942Y-43139549D01*
X205268873Y-43217355D01*
X205174622Y-43326128D01*
X205114834Y-43457043D01*
X205094353Y-43599497D01*
X205094353Y-43599502D01*
X195950500Y-43599502D01*
X195950500Y-43530862D01*
X195951122Y-43519779D01*
X195955270Y-43482965D01*
X195944553Y-43426326D01*
X195943933Y-43422675D01*
X195935348Y-43365715D01*
X195935348Y-43365713D01*
X195935346Y-43365709D01*
X195933160Y-43358622D01*
X195933582Y-43358491D01*
X195932890Y-43356388D01*
X195932474Y-43356534D01*
X195930023Y-43349528D01*
X195903081Y-43298554D01*
X195901425Y-43295274D01*
X195876425Y-43243358D01*
X195876424Y-43243357D01*
X195876424Y-43243356D01*
X195872244Y-43237225D01*
X195872607Y-43236977D01*
X195871324Y-43235169D01*
X195870970Y-43235431D01*
X195866565Y-43229461D01*
X195825811Y-43188707D01*
X195823242Y-43186040D01*
X195784056Y-43143806D01*
X195778258Y-43139183D01*
X195778532Y-43138839D01*
X195767397Y-43130294D01*
X193837105Y-41200002D01*
X205194353Y-41200002D01*
X205214834Y-41342456D01*
X205274622Y-41473371D01*
X205274623Y-41473373D01*
X205368872Y-41582143D01*
X205368873Y-41582144D01*
X205489942Y-41659950D01*
X205489947Y-41659953D01*
X205596403Y-41691211D01*
X205628035Y-41700499D01*
X205628036Y-41700499D01*
X205628039Y-41700500D01*
X205628041Y-41700500D01*
X205771959Y-41700500D01*
X205771961Y-41700500D01*
X205910053Y-41659953D01*
X205996477Y-41604412D01*
X206055652Y-41588857D01*
X206103523Y-41604412D01*
X206167457Y-41645500D01*
X206189947Y-41659953D01*
X206296403Y-41691211D01*
X206328035Y-41700499D01*
X206328036Y-41700499D01*
X206328039Y-41700500D01*
X206328041Y-41700500D01*
X206471959Y-41700500D01*
X206471961Y-41700500D01*
X206610053Y-41659953D01*
X206731128Y-41582143D01*
X206825377Y-41473373D01*
X206885165Y-41342457D01*
X206905647Y-41200000D01*
X206885165Y-41057543D01*
X206825377Y-40926627D01*
X206731128Y-40817857D01*
X206731127Y-40817856D01*
X206731126Y-40817855D01*
X206610057Y-40740049D01*
X206610054Y-40740047D01*
X206610053Y-40740047D01*
X206610050Y-40740046D01*
X206471964Y-40699500D01*
X206471961Y-40699500D01*
X206328039Y-40699500D01*
X206328035Y-40699500D01*
X206189949Y-40740046D01*
X206189947Y-40740047D01*
X206103523Y-40795588D01*
X206044347Y-40811141D01*
X205996477Y-40795588D01*
X205943170Y-40761330D01*
X205910053Y-40740047D01*
X205910050Y-40740046D01*
X205771964Y-40699500D01*
X205771961Y-40699500D01*
X205628039Y-40699500D01*
X205628035Y-40699500D01*
X205489949Y-40740046D01*
X205489942Y-40740049D01*
X205368873Y-40817855D01*
X205274622Y-40926628D01*
X205214834Y-41057543D01*
X205194353Y-41199997D01*
X205194353Y-41200002D01*
X193837105Y-41200002D01*
X193000000Y-40362897D01*
X193000000Y-37900000D01*
X193869750Y-37900000D01*
X193888669Y-38043708D01*
X193888670Y-38043709D01*
X193943932Y-38177127D01*
X193944139Y-38177625D01*
X194032379Y-38292621D01*
X194147375Y-38380861D01*
X194281291Y-38436330D01*
X194425000Y-38455250D01*
X194514517Y-38443464D01*
X194574676Y-38454614D01*
X194616793Y-38498995D01*
X194624780Y-38559657D01*
X194620005Y-38576721D01*
X194613764Y-38593175D01*
X194613762Y-38593183D01*
X194594722Y-38749998D01*
X194594722Y-38750001D01*
X194613762Y-38906816D01*
X194613763Y-38906818D01*
X194649102Y-39000000D01*
X194669780Y-39054523D01*
X194759515Y-39184528D01*
X194759516Y-39184529D01*
X194759517Y-39184530D01*
X194877760Y-39289283D01*
X195017635Y-39362696D01*
X195171015Y-39400500D01*
X195171018Y-39400500D01*
X195328982Y-39400500D01*
X195328985Y-39400500D01*
X195482365Y-39362696D01*
X195622240Y-39289283D01*
X195634349Y-39278554D01*
X195690442Y-39254118D01*
X195750186Y-39267320D01*
X195765648Y-39278553D01*
X195777760Y-39289283D01*
X195917635Y-39362696D01*
X196071015Y-39400500D01*
X196071018Y-39400500D01*
X196228982Y-39400500D01*
X196228985Y-39400500D01*
X196382365Y-39362696D01*
X196522240Y-39289283D01*
X196640483Y-39184530D01*
X196730220Y-39054523D01*
X196786237Y-38906818D01*
X196805278Y-38750000D01*
X196803180Y-38732724D01*
X196786237Y-38593183D01*
X196786237Y-38593182D01*
X196730220Y-38445477D01*
X196668420Y-38355944D01*
X196640484Y-38315471D01*
X196632100Y-38308043D01*
X196522240Y-38210717D01*
X196452302Y-38174010D01*
X196382364Y-38137303D01*
X196228987Y-38099500D01*
X196228985Y-38099500D01*
X196071015Y-38099500D01*
X196071012Y-38099500D01*
X195917635Y-38137303D01*
X195777761Y-38210716D01*
X195777760Y-38210717D01*
X195765647Y-38221448D01*
X195709552Y-38245881D01*
X195649808Y-38232676D01*
X195634353Y-38221448D01*
X195622240Y-38210717D01*
X195608994Y-38203765D01*
X195482364Y-38137303D01*
X195328987Y-38099500D01*
X195328985Y-38099500D01*
X195171015Y-38099500D01*
X195171009Y-38099500D01*
X195087474Y-38120090D01*
X195026450Y-38115658D01*
X194979685Y-38076203D01*
X194965043Y-38016795D01*
X194965628Y-38011061D01*
X194980250Y-37900000D01*
X194961330Y-37756291D01*
X194905861Y-37622375D01*
X194817621Y-37507379D01*
X194702625Y-37419139D01*
X194702621Y-37419137D01*
X194568709Y-37363670D01*
X194568708Y-37363669D01*
X194425000Y-37344750D01*
X194281291Y-37363669D01*
X194281290Y-37363670D01*
X194147378Y-37419137D01*
X194147374Y-37419139D01*
X194032381Y-37507377D01*
X194032377Y-37507381D01*
X193944139Y-37622374D01*
X193944137Y-37622378D01*
X193888670Y-37756290D01*
X193888669Y-37756291D01*
X193869750Y-37899999D01*
X193869750Y-37900000D01*
X193000000Y-37900000D01*
X193000000Y-35000001D01*
X193344722Y-35000001D01*
X193363762Y-35156816D01*
X193363763Y-35156817D01*
X193419780Y-35304523D01*
X193509515Y-35434528D01*
X193509516Y-35434529D01*
X193509517Y-35434530D01*
X193627760Y-35539283D01*
X193767635Y-35612696D01*
X193921015Y-35650500D01*
X193921018Y-35650500D01*
X194078982Y-35650500D01*
X194078985Y-35650500D01*
X194232365Y-35612696D01*
X194372240Y-35539283D01*
X194434351Y-35484257D01*
X194490445Y-35459823D01*
X194550189Y-35473026D01*
X194565648Y-35484257D01*
X194627760Y-35539283D01*
X194767635Y-35612696D01*
X194921015Y-35650500D01*
X194921018Y-35650500D01*
X195078982Y-35650500D01*
X195078985Y-35650500D01*
X195232365Y-35612696D01*
X195372240Y-35539283D01*
X195490483Y-35434530D01*
X195580220Y-35304523D01*
X195636237Y-35156818D01*
X195655278Y-35000000D01*
X195636237Y-34843182D01*
X195580220Y-34695477D01*
X195535351Y-34630473D01*
X195490484Y-34565471D01*
X195372241Y-34460718D01*
X195372240Y-34460717D01*
X195302302Y-34424010D01*
X195232364Y-34387303D01*
X195078987Y-34349500D01*
X195078985Y-34349500D01*
X194921015Y-34349500D01*
X194921012Y-34349500D01*
X194767635Y-34387303D01*
X194627755Y-34460719D01*
X194565648Y-34515741D01*
X194509554Y-34540176D01*
X194449810Y-34526972D01*
X194434352Y-34515741D01*
X194372244Y-34460719D01*
X194232364Y-34387303D01*
X194078987Y-34349500D01*
X194078985Y-34349500D01*
X193921015Y-34349500D01*
X193921012Y-34349500D01*
X193767635Y-34387303D01*
X193627758Y-34460718D01*
X193509515Y-34565471D01*
X193419780Y-34695476D01*
X193363763Y-34843182D01*
X193363762Y-34843183D01*
X193344722Y-34999998D01*
X193344722Y-35000001D01*
X193000000Y-35000001D01*
X193000000Y-34600000D01*
X192000000Y-34600000D01*
X192000000Y-34000000D01*
X193000000Y-34000000D01*
X193000000Y-33755500D01*
X197145499Y-33755500D01*
X197203690Y-33774407D01*
G37*
%TD.AperFunction*%
%TD*%
%TA.AperFunction,Conductor*%
%TO.N,/VESC_Right/DRV8301/SH_B*%
G36*
X172459191Y-36018907D02*
G01*
X172495155Y-36068407D01*
X172500000Y-36099000D01*
X172500000Y-39500000D01*
X173201000Y-39500000D01*
X173259191Y-39518907D01*
X173295155Y-39568407D01*
X173300000Y-39599000D01*
X173300000Y-40901000D01*
X173281093Y-40959191D01*
X173231593Y-40995155D01*
X173201000Y-41000000D01*
X164099000Y-41000000D01*
X164040809Y-40981093D01*
X164004845Y-40931593D01*
X164000000Y-40901000D01*
X164000000Y-36099000D01*
X164018907Y-36040809D01*
X164068407Y-36004845D01*
X164099000Y-36000000D01*
X172401000Y-36000000D01*
X172459191Y-36018907D01*
G37*
%TD.AperFunction*%
%TD*%
%TA.AperFunction,Conductor*%
%TO.N,/VESC_Right/DRV8301/SH_C*%
G36*
X184459191Y-36018907D02*
G01*
X184495155Y-36068407D01*
X184500000Y-36099000D01*
X184500000Y-40901000D01*
X184481093Y-40959191D01*
X184431593Y-40995155D01*
X184401000Y-41000000D01*
X176099000Y-41000000D01*
X176040809Y-40981093D01*
X176004845Y-40931593D01*
X176000000Y-40901000D01*
X176000000Y-36099000D01*
X176018907Y-36040809D01*
X176068407Y-36004845D01*
X176099000Y-36000000D01*
X184401000Y-36000000D01*
X184459191Y-36018907D01*
G37*
%TD.AperFunction*%
%TD*%
%TA.AperFunction,Conductor*%
%TO.N,GND*%
G36*
X192595235Y-34659212D02*
G01*
X192614189Y-34754500D01*
X192613339Y-34775048D01*
X192602533Y-34905468D01*
X192594700Y-35000000D01*
X192613866Y-35231308D01*
X192613868Y-35231315D01*
X192670841Y-35456293D01*
X192670842Y-35456297D01*
X192764074Y-35668846D01*
X192891019Y-35863151D01*
X192891022Y-35863155D01*
X193000000Y-35981536D01*
X193000000Y-39180042D01*
X192877741Y-39094436D01*
X192877727Y-39094428D01*
X192671499Y-38998262D01*
X192671496Y-38998261D01*
X192451694Y-38939365D01*
X192451679Y-38939363D01*
X192225006Y-38919532D01*
X192224994Y-38919532D01*
X191998320Y-38939363D01*
X191998305Y-38939365D01*
X191778503Y-38998261D01*
X191778500Y-38998262D01*
X191572272Y-39094428D01*
X191572258Y-39094436D01*
X191385865Y-39224949D01*
X191224949Y-39385865D01*
X191094436Y-39572258D01*
X191094428Y-39572272D01*
X190998262Y-39778500D01*
X190998261Y-39778503D01*
X190939365Y-39998305D01*
X190939363Y-39998320D01*
X190919532Y-40224994D01*
X190919532Y-40225005D01*
X190939363Y-40451679D01*
X190939365Y-40451694D01*
X190998261Y-40671496D01*
X190998262Y-40671499D01*
X191094428Y-40877727D01*
X191094436Y-40877741D01*
X191224949Y-41064134D01*
X191224953Y-41064139D01*
X191385861Y-41225047D01*
X191572266Y-41355568D01*
X191572268Y-41355569D01*
X191572270Y-41355570D01*
X191692752Y-41411752D01*
X191763589Y-41461352D01*
X192529825Y-42227588D01*
X192583801Y-42308370D01*
X192602755Y-42403658D01*
X192583801Y-42498946D01*
X192529825Y-42579728D01*
X192449043Y-42633704D01*
X192353755Y-42652658D01*
X192332058Y-42651711D01*
X192250000Y-42644532D01*
X192249998Y-42644532D01*
X192249996Y-42644532D01*
X192249994Y-42644532D01*
X192023320Y-42664363D01*
X192023305Y-42664365D01*
X191803503Y-42723261D01*
X191803500Y-42723262D01*
X191597272Y-42819428D01*
X191597258Y-42819436D01*
X191410865Y-42949949D01*
X191249949Y-43110865D01*
X191119436Y-43297258D01*
X191119428Y-43297272D01*
X191023262Y-43503500D01*
X191023261Y-43503503D01*
X190964365Y-43723305D01*
X190964363Y-43723320D01*
X190944532Y-43949994D01*
X190944532Y-43950005D01*
X190964363Y-44176679D01*
X190964365Y-44176694D01*
X191023261Y-44396496D01*
X191023262Y-44396499D01*
X191119428Y-44602727D01*
X191119436Y-44602741D01*
X191249949Y-44789134D01*
X191249953Y-44789139D01*
X191410861Y-44950047D01*
X191597266Y-45080568D01*
X191597268Y-45080569D01*
X191597270Y-45080570D01*
X191717752Y-45136752D01*
X191788589Y-45186352D01*
X192584619Y-45982382D01*
X192638595Y-46063164D01*
X192657549Y-46158452D01*
X192638595Y-46253740D01*
X192584619Y-46334522D01*
X192503837Y-46388498D01*
X192408549Y-46407452D01*
X192386847Y-46406504D01*
X192250006Y-46394532D01*
X192249994Y-46394532D01*
X192023320Y-46414363D01*
X192023305Y-46414365D01*
X191803503Y-46473261D01*
X191803500Y-46473262D01*
X191597272Y-46569428D01*
X191597258Y-46569436D01*
X191410865Y-46699949D01*
X191249949Y-46860865D01*
X191119436Y-47047258D01*
X191119428Y-47047272D01*
X191023262Y-47253500D01*
X191023261Y-47253503D01*
X190964365Y-47473305D01*
X190964363Y-47473320D01*
X190944532Y-47699994D01*
X190944532Y-47700005D01*
X190964363Y-47926679D01*
X190964365Y-47926694D01*
X191023261Y-48146496D01*
X191023262Y-48146499D01*
X191119428Y-48352727D01*
X191119436Y-48352741D01*
X191249949Y-48539134D01*
X191249953Y-48539139D01*
X191410861Y-48700047D01*
X191597266Y-48830568D01*
X191597268Y-48830569D01*
X191597270Y-48830570D01*
X191717752Y-48886752D01*
X191788589Y-48936352D01*
X192726570Y-49874333D01*
X192780546Y-49955115D01*
X192799500Y-50050403D01*
X192799500Y-55000000D01*
X192000541Y-55000000D01*
X192000541Y-54999999D01*
X192000383Y-54999617D01*
X192000382Y-54999616D01*
X192000059Y-54999483D01*
X192000001Y-54999459D01*
X191950586Y-54999459D01*
X191950380Y-54999500D01*
X151249500Y-54999500D01*
X151154212Y-54980546D01*
X151073430Y-54926570D01*
X151019454Y-54845788D01*
X151000500Y-54750500D01*
X151000500Y-46500000D01*
X187294700Y-46500000D01*
X187313866Y-46731308D01*
X187313868Y-46731315D01*
X187370841Y-46956293D01*
X187370842Y-46956297D01*
X187464074Y-47168846D01*
X187591019Y-47363151D01*
X187591022Y-47363155D01*
X187748214Y-47533911D01*
X187748220Y-47533916D01*
X187902961Y-47654356D01*
X187931374Y-47676470D01*
X187974854Y-47700000D01*
X188135487Y-47786931D01*
X188135489Y-47786931D01*
X188135497Y-47786936D01*
X188355019Y-47862298D01*
X188583951Y-47900500D01*
X188816049Y-47900500D01*
X189044981Y-47862298D01*
X189264503Y-47786936D01*
X189468626Y-47676470D01*
X189651784Y-47533913D01*
X189808979Y-47363153D01*
X189935924Y-47168849D01*
X190029157Y-46956300D01*
X190086134Y-46731305D01*
X190105300Y-46500000D01*
X190086134Y-46268695D01*
X190029157Y-46043700D01*
X189935924Y-45831151D01*
X189876339Y-45739949D01*
X189808980Y-45636848D01*
X189808977Y-45636844D01*
X189651785Y-45466088D01*
X189651779Y-45466083D01*
X189468628Y-45323531D01*
X189264512Y-45213068D01*
X189264507Y-45213066D01*
X189264503Y-45213064D01*
X189044981Y-45137702D01*
X189044978Y-45137701D01*
X189044974Y-45137700D01*
X188816049Y-45099500D01*
X188583951Y-45099500D01*
X188355025Y-45137700D01*
X188355019Y-45137701D01*
X188355019Y-45137702D01*
X188135497Y-45213064D01*
X188135494Y-45213065D01*
X188135487Y-45213068D01*
X187931371Y-45323531D01*
X187748220Y-45466083D01*
X187748214Y-45466088D01*
X187591022Y-45636844D01*
X187591019Y-45636848D01*
X187464074Y-45831153D01*
X187370842Y-46043702D01*
X187370841Y-46043706D01*
X187313868Y-46268684D01*
X187313866Y-46268691D01*
X187294700Y-46500000D01*
X151000500Y-46500000D01*
X151000500Y-41951399D01*
X151019454Y-41856111D01*
X151073430Y-41775329D01*
X151154212Y-41721353D01*
X151249500Y-41702399D01*
X151344788Y-41721353D01*
X151393808Y-41748480D01*
X151543956Y-41855259D01*
X151543961Y-41855262D01*
X151574409Y-41868695D01*
X151730098Y-41937382D01*
X151788289Y-41956289D01*
X151896594Y-41984917D01*
X151896595Y-41984917D01*
X151896599Y-41984918D01*
X151896598Y-41984918D01*
X152098980Y-42005498D01*
X152099000Y-42005500D01*
X152099006Y-42005500D01*
X161200993Y-42005500D01*
X161201000Y-42005500D01*
X161358280Y-41993123D01*
X161388873Y-41988278D01*
X161453920Y-41975767D01*
X161646765Y-41910940D01*
X161822613Y-41808620D01*
X161872113Y-41772656D01*
X161888481Y-41760509D01*
X162037352Y-41621839D01*
X162155261Y-41456041D01*
X162237382Y-41269902D01*
X162256289Y-41211711D01*
X162284917Y-41103406D01*
X162286062Y-41092154D01*
X162305498Y-40901019D01*
X162305500Y-40900994D01*
X162305500Y-39599006D01*
X162305500Y-39599000D01*
X162293123Y-39441720D01*
X162288278Y-39411127D01*
X162281998Y-39378476D01*
X162282613Y-39281323D01*
X162320360Y-39191801D01*
X162389493Y-39123538D01*
X162479486Y-39086928D01*
X162576639Y-39087543D01*
X162607348Y-39095932D01*
X162655019Y-39112298D01*
X162786485Y-39134235D01*
X162877352Y-39168614D01*
X162948148Y-39235150D01*
X162988092Y-39323714D01*
X162994500Y-39379839D01*
X162994500Y-40901000D01*
X162998851Y-40956289D01*
X163005730Y-41043711D01*
X163006877Y-41058280D01*
X163009938Y-41077611D01*
X163011726Y-41088897D01*
X163024230Y-41153910D01*
X163024234Y-41153925D01*
X163079390Y-41318000D01*
X163089060Y-41346765D01*
X163191380Y-41522613D01*
X163227344Y-41572113D01*
X163239491Y-41588481D01*
X163371404Y-41730098D01*
X163378163Y-41737354D01*
X163543956Y-41855259D01*
X163543961Y-41855262D01*
X163574409Y-41868695D01*
X163730098Y-41937382D01*
X163788289Y-41956289D01*
X163896594Y-41984917D01*
X163896595Y-41984917D01*
X163896599Y-41984918D01*
X163896598Y-41984918D01*
X164098980Y-42005498D01*
X164099000Y-42005500D01*
X164099006Y-42005500D01*
X173200993Y-42005500D01*
X173201000Y-42005500D01*
X173358280Y-41993123D01*
X173388873Y-41988278D01*
X173453920Y-41975767D01*
X173646765Y-41910940D01*
X173822613Y-41808620D01*
X173872113Y-41772656D01*
X173888481Y-41760509D01*
X174037352Y-41621839D01*
X174155261Y-41456041D01*
X174237382Y-41269902D01*
X174256289Y-41211711D01*
X174284917Y-41103406D01*
X174286062Y-41092154D01*
X174305498Y-40901019D01*
X174305500Y-40900994D01*
X174305500Y-39599006D01*
X174305500Y-39599000D01*
X174293123Y-39441720D01*
X174288278Y-39411127D01*
X174281998Y-39378476D01*
X174282613Y-39281323D01*
X174320360Y-39191801D01*
X174389493Y-39123538D01*
X174479486Y-39086928D01*
X174576639Y-39087543D01*
X174607348Y-39095932D01*
X174655019Y-39112298D01*
X174786485Y-39134235D01*
X174877352Y-39168614D01*
X174948148Y-39235150D01*
X174988092Y-39323714D01*
X174994500Y-39379839D01*
X174994500Y-40901000D01*
X174998851Y-40956289D01*
X175005730Y-41043711D01*
X175006877Y-41058280D01*
X175009938Y-41077611D01*
X175011726Y-41088897D01*
X175024230Y-41153910D01*
X175024234Y-41153925D01*
X175079390Y-41318000D01*
X175089060Y-41346765D01*
X175191380Y-41522613D01*
X175227344Y-41572113D01*
X175239491Y-41588481D01*
X175371404Y-41730098D01*
X175378163Y-41737354D01*
X175543956Y-41855259D01*
X175543961Y-41855262D01*
X175574409Y-41868695D01*
X175730098Y-41937382D01*
X175788289Y-41956289D01*
X175896594Y-41984917D01*
X175896595Y-41984917D01*
X175896599Y-41984918D01*
X175896598Y-41984918D01*
X176098980Y-42005498D01*
X176099000Y-42005500D01*
X176099006Y-42005500D01*
X184400993Y-42005500D01*
X184401000Y-42005500D01*
X184558280Y-41993123D01*
X184588873Y-41988278D01*
X184653920Y-41975767D01*
X184846765Y-41910940D01*
X185022613Y-41808620D01*
X185072113Y-41772656D01*
X185088481Y-41760509D01*
X185088489Y-41760501D01*
X185093801Y-41756080D01*
X185094048Y-41756377D01*
X185094058Y-41756371D01*
X185094178Y-41756533D01*
X185094488Y-41756905D01*
X185170767Y-41709755D01*
X185266666Y-41694186D01*
X185361224Y-41716501D01*
X185440044Y-41773303D01*
X185491128Y-41855944D01*
X185506697Y-41951843D01*
X185506003Y-41963586D01*
X185502530Y-42005500D01*
X185494700Y-42099999D01*
X185513866Y-42331308D01*
X185513868Y-42331315D01*
X185570841Y-42556293D01*
X185570842Y-42556297D01*
X185664074Y-42768846D01*
X185791019Y-42963151D01*
X185791022Y-42963155D01*
X185926995Y-43110861D01*
X185948216Y-43133913D01*
X186131374Y-43276470D01*
X186228863Y-43329228D01*
X186335487Y-43386931D01*
X186335489Y-43386931D01*
X186335497Y-43386936D01*
X186555019Y-43462298D01*
X186783951Y-43500500D01*
X187016049Y-43500500D01*
X187244981Y-43462298D01*
X187464503Y-43386936D01*
X187525297Y-43354036D01*
X187566859Y-43331544D01*
X187659683Y-43302861D01*
X187756418Y-43311883D01*
X187838310Y-43354036D01*
X187880580Y-43386936D01*
X187931374Y-43426470D01*
X187964356Y-43444319D01*
X188135487Y-43536931D01*
X188135489Y-43536931D01*
X188135497Y-43536936D01*
X188355019Y-43612298D01*
X188583951Y-43650500D01*
X188816049Y-43650500D01*
X189044981Y-43612298D01*
X189264503Y-43536936D01*
X189468626Y-43426470D01*
X189651784Y-43283913D01*
X189808979Y-43113153D01*
X189935924Y-42918849D01*
X190029157Y-42706300D01*
X190086134Y-42481305D01*
X190105300Y-42250000D01*
X190086134Y-42018695D01*
X190029157Y-41793700D01*
X189935924Y-41581151D01*
X189868132Y-41477387D01*
X189808980Y-41386848D01*
X189808977Y-41386844D01*
X189651785Y-41216088D01*
X189651779Y-41216083D01*
X189468630Y-41073533D01*
X189468629Y-41073532D01*
X189468626Y-41073530D01*
X189408449Y-41040964D01*
X189363829Y-41016816D01*
X189289047Y-40954793D01*
X189243693Y-40868874D01*
X189234671Y-40772139D01*
X189263354Y-40679315D01*
X189325377Y-40604533D01*
X189329356Y-40601369D01*
X189351784Y-40583913D01*
X189508979Y-40413153D01*
X189635924Y-40218849D01*
X189729157Y-40006300D01*
X189786134Y-39781305D01*
X189805300Y-39550000D01*
X189786134Y-39318695D01*
X189729157Y-39093700D01*
X189635924Y-38881151D01*
X189508979Y-38686847D01*
X189508977Y-38686844D01*
X189351785Y-38516088D01*
X189351779Y-38516083D01*
X189168628Y-38373531D01*
X188964512Y-38263068D01*
X188964507Y-38263066D01*
X188964503Y-38263064D01*
X188744981Y-38187702D01*
X188744978Y-38187701D01*
X188744974Y-38187700D01*
X188516049Y-38149500D01*
X188283951Y-38149500D01*
X188055025Y-38187700D01*
X188055019Y-38187701D01*
X188055019Y-38187702D01*
X187835497Y-38263064D01*
X187835494Y-38263065D01*
X187835487Y-38263068D01*
X187631371Y-38373531D01*
X187448220Y-38516083D01*
X187448214Y-38516088D01*
X187291022Y-38686844D01*
X187291019Y-38686848D01*
X187164074Y-38881153D01*
X187070842Y-39093702D01*
X187070841Y-39093706D01*
X187013868Y-39318684D01*
X187013866Y-39318691D01*
X186994700Y-39550000D01*
X187013866Y-39781308D01*
X187013868Y-39781315D01*
X187070841Y-40006293D01*
X187070842Y-40006297D01*
X187164074Y-40218846D01*
X187226444Y-40314311D01*
X187262694Y-40404450D01*
X187261689Y-40501600D01*
X187223584Y-40590970D01*
X187154178Y-40658955D01*
X187064039Y-40695205D01*
X187017989Y-40699500D01*
X186783951Y-40699500D01*
X186555025Y-40737700D01*
X186555019Y-40737701D01*
X186555019Y-40737702D01*
X186335497Y-40813064D01*
X186335494Y-40813065D01*
X186335487Y-40813068D01*
X186131371Y-40923531D01*
X185948220Y-41066083D01*
X185948216Y-41066086D01*
X185937607Y-41077611D01*
X185859124Y-41134877D01*
X185764700Y-41157751D01*
X185668710Y-41142748D01*
X185585768Y-41092154D01*
X185528502Y-41013671D01*
X185505628Y-40919247D01*
X185505685Y-40907310D01*
X185505500Y-40907310D01*
X185505500Y-36099006D01*
X185505498Y-36098980D01*
X185493123Y-35941720D01*
X185488278Y-35911127D01*
X185479051Y-35863153D01*
X185475769Y-35846089D01*
X185475765Y-35846074D01*
X185436778Y-35730098D01*
X185410940Y-35653235D01*
X185308620Y-35477387D01*
X185291706Y-35454108D01*
X185272637Y-35427860D01*
X185260515Y-35411527D01*
X185260514Y-35411526D01*
X185260509Y-35411519D01*
X185121839Y-35262648D01*
X185121838Y-35262647D01*
X185121836Y-35262645D01*
X184956043Y-35144740D01*
X184956038Y-35144737D01*
X184802080Y-35076814D01*
X184722550Y-35021010D01*
X184670429Y-34939020D01*
X184653652Y-34843324D01*
X184674773Y-34748493D01*
X184730577Y-34668963D01*
X184812567Y-34616842D01*
X184902587Y-34600000D01*
X191999999Y-34600000D01*
X192555671Y-34600000D01*
X192595235Y-34659212D01*
G37*
%TD.AperFunction*%
%TD*%
%TA.AperFunction,Conductor*%
%TO.N,/VESC_Right/3.3V*%
G36*
X205959191Y-30018907D02*
G01*
X205995155Y-30068407D01*
X206000000Y-30099000D01*
X206000000Y-33000000D01*
X219901000Y-33000000D01*
X219959191Y-33018907D01*
X219995155Y-33068407D01*
X220000000Y-33099000D01*
X220000000Y-44901000D01*
X219981093Y-44959191D01*
X219931593Y-44995155D01*
X219901000Y-45000000D01*
X219000000Y-45000000D01*
X219000000Y-45000001D01*
X219000000Y-53401000D01*
X218981093Y-53459191D01*
X218931593Y-53495155D01*
X218901000Y-53500000D01*
X216500000Y-53500000D01*
X216500000Y-53500001D01*
X216500000Y-65401000D01*
X216481093Y-65459191D01*
X216431593Y-65495155D01*
X216401000Y-65500000D01*
X215000000Y-65500000D01*
X215000000Y-65500001D01*
X215000000Y-71401000D01*
X214981093Y-71459191D01*
X214931593Y-71495155D01*
X214901000Y-71500000D01*
X214214004Y-71500000D01*
X214155813Y-71481093D01*
X214119849Y-71431593D01*
X214119849Y-71370407D01*
X214153737Y-71322458D01*
X214159256Y-71318222D01*
X214192621Y-71292621D01*
X214280861Y-71177625D01*
X214336330Y-71043709D01*
X214355250Y-70900000D01*
X214336330Y-70756291D01*
X214280861Y-70622375D01*
X214192621Y-70507379D01*
X214077625Y-70419139D01*
X214077621Y-70419137D01*
X213943709Y-70363670D01*
X213943708Y-70363669D01*
X213800000Y-70344750D01*
X213656291Y-70363669D01*
X213656290Y-70363670D01*
X213522378Y-70419137D01*
X213522374Y-70419139D01*
X213407381Y-70507377D01*
X213407377Y-70507381D01*
X213319139Y-70622374D01*
X213319137Y-70622378D01*
X213263670Y-70756290D01*
X213263669Y-70756291D01*
X213244750Y-70899999D01*
X213244750Y-70900000D01*
X213263669Y-71043708D01*
X213263670Y-71043709D01*
X213299879Y-71131128D01*
X213319139Y-71177625D01*
X213407379Y-71292621D01*
X213407383Y-71292624D01*
X213407384Y-71292625D01*
X213446263Y-71322458D01*
X213480919Y-71372883D01*
X213479317Y-71434047D01*
X213442070Y-71482589D01*
X213385996Y-71500000D01*
X207000000Y-71500000D01*
X207000000Y-71500001D01*
X207000000Y-79401000D01*
X206981093Y-79459191D01*
X206931593Y-79495155D01*
X206901000Y-79500000D01*
X205599000Y-79500000D01*
X205540809Y-79481093D01*
X205504845Y-79431593D01*
X205500000Y-79401000D01*
X205500000Y-70250002D01*
X206094353Y-70250002D01*
X206114834Y-70392456D01*
X206170802Y-70515007D01*
X206174623Y-70523373D01*
X206176034Y-70525001D01*
X206268873Y-70632144D01*
X206335559Y-70675000D01*
X206389947Y-70709953D01*
X206496403Y-70741211D01*
X206528035Y-70750499D01*
X206528036Y-70750499D01*
X206528039Y-70750500D01*
X206528041Y-70750500D01*
X206671959Y-70750500D01*
X206671961Y-70750500D01*
X206810053Y-70709953D01*
X206931128Y-70632143D01*
X207025377Y-70523373D01*
X207085165Y-70392457D01*
X207096325Y-70314834D01*
X207105647Y-70250002D01*
X207105647Y-70249997D01*
X207085165Y-70107543D01*
X207060501Y-70053538D01*
X207025377Y-69976627D01*
X206931128Y-69867857D01*
X206931127Y-69867856D01*
X206931126Y-69867855D01*
X206810057Y-69790049D01*
X206810054Y-69790047D01*
X206810053Y-69790047D01*
X206810050Y-69790046D01*
X206671964Y-69749500D01*
X206671961Y-69749500D01*
X206528039Y-69749500D01*
X206528035Y-69749500D01*
X206389949Y-69790046D01*
X206389942Y-69790049D01*
X206268873Y-69867855D01*
X206174622Y-69976628D01*
X206114834Y-70107543D01*
X206094353Y-70249997D01*
X206094353Y-70250002D01*
X205500000Y-70250002D01*
X205500000Y-69080004D01*
X210994751Y-69080004D01*
X211013685Y-69248053D01*
X211013688Y-69248065D01*
X211069544Y-69407690D01*
X211069545Y-69407694D01*
X211134370Y-69510860D01*
X211149321Y-69570191D01*
X211126542Y-69626978D01*
X211105548Y-69645847D01*
X211069761Y-69669759D01*
X211069758Y-69669762D01*
X211014507Y-69752451D01*
X211014506Y-69752453D01*
X211000000Y-69825375D01*
X211000000Y-70174999D01*
X211000001Y-70175000D01*
X211472584Y-70175000D01*
X211464199Y-70184993D01*
X211425000Y-70292694D01*
X211425000Y-70407306D01*
X211464199Y-70515007D01*
X211472584Y-70525000D01*
X211000001Y-70525000D01*
X211000000Y-70525001D01*
X211000000Y-70874624D01*
X211014506Y-70947546D01*
X211014507Y-70947548D01*
X211069758Y-71030237D01*
X211069762Y-71030241D01*
X211152451Y-71085492D01*
X211152453Y-71085493D01*
X211225375Y-71099999D01*
X211225377Y-71100000D01*
X211574999Y-71100000D01*
X211575000Y-71099999D01*
X211575000Y-70624241D01*
X211637129Y-70660112D01*
X211721564Y-70675000D01*
X211778436Y-70675000D01*
X211862871Y-70660112D01*
X211925000Y-70624241D01*
X211925000Y-71099999D01*
X211925001Y-71100000D01*
X212274623Y-71100000D01*
X212274624Y-71099999D01*
X212347546Y-71085493D01*
X212347548Y-71085492D01*
X212430237Y-71030241D01*
X212430241Y-71030237D01*
X212485492Y-70947548D01*
X212485493Y-70947546D01*
X212499999Y-70874624D01*
X212500000Y-70874622D01*
X212500000Y-70525001D01*
X212499999Y-70525000D01*
X212027416Y-70525000D01*
X212035801Y-70515007D01*
X212075000Y-70407306D01*
X212075000Y-70292694D01*
X212035801Y-70184993D01*
X212027416Y-70175000D01*
X212499999Y-70175000D01*
X212500000Y-70174999D01*
X212500000Y-69825377D01*
X212499999Y-69825375D01*
X212485493Y-69752453D01*
X212485492Y-69752451D01*
X212430241Y-69669762D01*
X212430237Y-69669758D01*
X212394452Y-69645847D01*
X212356573Y-69597797D01*
X212354171Y-69536659D01*
X212365627Y-69510863D01*
X212430456Y-69407690D01*
X212486313Y-69248059D01*
X212491761Y-69199708D01*
X212505249Y-69080004D01*
X212505249Y-69079995D01*
X212486314Y-68911946D01*
X212486311Y-68911934D01*
X212463480Y-68846690D01*
X212430456Y-68752310D01*
X212425586Y-68744560D01*
X212340479Y-68609113D01*
X212340478Y-68609112D01*
X212340477Y-68609110D01*
X212220890Y-68489523D01*
X212220887Y-68489521D01*
X212220886Y-68489520D01*
X212077691Y-68399544D01*
X211918065Y-68343688D01*
X211918053Y-68343685D01*
X211750004Y-68324751D01*
X211749996Y-68324751D01*
X211581946Y-68343685D01*
X211581934Y-68343688D01*
X211422309Y-68399544D01*
X211422308Y-68399544D01*
X211279113Y-68489520D01*
X211159520Y-68609113D01*
X211069544Y-68752308D01*
X211069544Y-68752309D01*
X211013688Y-68911934D01*
X211013685Y-68911946D01*
X210994751Y-69079995D01*
X210994751Y-69080004D01*
X205500000Y-69080004D01*
X205500000Y-65800000D01*
X205944750Y-65800000D01*
X205963669Y-65943708D01*
X205963670Y-65943709D01*
X205999999Y-66031418D01*
X206019139Y-66077625D01*
X206107379Y-66192621D01*
X206222375Y-66280861D01*
X206356291Y-66336330D01*
X206500000Y-66355250D01*
X206643709Y-66336330D01*
X206777625Y-66280861D01*
X206892621Y-66192621D01*
X206921458Y-66155039D01*
X206971882Y-66120384D01*
X207033047Y-66121985D01*
X207078541Y-66155039D01*
X207107379Y-66192621D01*
X207222375Y-66280861D01*
X207356291Y-66336330D01*
X207500000Y-66355250D01*
X207643709Y-66336330D01*
X207777625Y-66280861D01*
X207889733Y-66194836D01*
X207947408Y-66174413D01*
X208006074Y-66191790D01*
X208010247Y-66194822D01*
X208122375Y-66280861D01*
X208256291Y-66336330D01*
X208400000Y-66355250D01*
X208543709Y-66336330D01*
X208620719Y-66304431D01*
X208681712Y-66299631D01*
X208733881Y-66331600D01*
X208757296Y-66388128D01*
X208756754Y-66408818D01*
X208744750Y-66499999D01*
X208744750Y-66500000D01*
X208763669Y-66643708D01*
X208763670Y-66643709D01*
X208818649Y-66776444D01*
X208819139Y-66777625D01*
X208899199Y-66881961D01*
X208919623Y-66939636D01*
X208902246Y-66998302D01*
X208899205Y-67002486D01*
X208886428Y-67019139D01*
X208821026Y-67104371D01*
X208821024Y-67104375D01*
X208765557Y-67238287D01*
X208765556Y-67238288D01*
X208746637Y-67381996D01*
X208746637Y-67381997D01*
X208765556Y-67525705D01*
X208765557Y-67525706D01*
X208814434Y-67643709D01*
X208821026Y-67659622D01*
X208909266Y-67774618D01*
X209024262Y-67862858D01*
X209158178Y-67918327D01*
X209301887Y-67937247D01*
X209445596Y-67918327D01*
X209579512Y-67862858D01*
X209694508Y-67774618D01*
X209782748Y-67659622D01*
X209828134Y-67550048D01*
X209867867Y-67503525D01*
X209927362Y-67489241D01*
X209932518Y-67489783D01*
X209943087Y-67491174D01*
X210050000Y-67505250D01*
X210193106Y-67486409D01*
X210253266Y-67497559D01*
X210295384Y-67541941D01*
X210304181Y-67571639D01*
X210313670Y-67643708D01*
X210313670Y-67643709D01*
X210350398Y-67732381D01*
X210369139Y-67777625D01*
X210457379Y-67892621D01*
X210572375Y-67980861D01*
X210706291Y-68036330D01*
X210850000Y-68055250D01*
X210993709Y-68036330D01*
X211127625Y-67980861D01*
X211239733Y-67894836D01*
X211297408Y-67874413D01*
X211356074Y-67891790D01*
X211360247Y-67894822D01*
X211472375Y-67980861D01*
X211606291Y-68036330D01*
X211750000Y-68055250D01*
X211893709Y-68036330D01*
X212027625Y-67980861D01*
X212142621Y-67892621D01*
X212230861Y-67777625D01*
X212286330Y-67643709D01*
X212305250Y-67500000D01*
X212286330Y-67356291D01*
X212230861Y-67222375D01*
X212142621Y-67107379D01*
X212027625Y-67019139D01*
X212027621Y-67019137D01*
X211893709Y-66963670D01*
X211893708Y-66963669D01*
X211750000Y-66944750D01*
X211606291Y-66963669D01*
X211606290Y-66963670D01*
X211472378Y-67019137D01*
X211472370Y-67019142D01*
X211360267Y-67105162D01*
X211302592Y-67125586D01*
X211243926Y-67108209D01*
X211239733Y-67105162D01*
X211127629Y-67019142D01*
X211127628Y-67019141D01*
X211127625Y-67019139D01*
X211127622Y-67019138D01*
X211127621Y-67019137D01*
X210993709Y-66963670D01*
X210993708Y-66963669D01*
X210850000Y-66944750D01*
X210849999Y-66944750D01*
X210706893Y-66963590D01*
X210646732Y-66952440D01*
X210604615Y-66908057D01*
X210595818Y-66878359D01*
X210586330Y-66806291D01*
X210530861Y-66672375D01*
X210442621Y-66557379D01*
X210327625Y-66469139D01*
X210327621Y-66469137D01*
X210193709Y-66413670D01*
X210193708Y-66413669D01*
X210050000Y-66394750D01*
X210049999Y-66394750D01*
X209937800Y-66409521D01*
X209877639Y-66398371D01*
X209835522Y-66353988D01*
X209833438Y-66349310D01*
X209780861Y-66222375D01*
X209692621Y-66107379D01*
X209577625Y-66019139D01*
X209577621Y-66019137D01*
X209443709Y-65963670D01*
X209443708Y-65963669D01*
X209300000Y-65944750D01*
X209156291Y-65963669D01*
X209156290Y-65963670D01*
X209079283Y-65995567D01*
X209018286Y-66000367D01*
X208966117Y-65968398D01*
X208942703Y-65911869D01*
X208943244Y-65891186D01*
X208955250Y-65800000D01*
X208951448Y-65771125D01*
X208936330Y-65656291D01*
X208880861Y-65522375D01*
X208792621Y-65407379D01*
X208677625Y-65319139D01*
X208677621Y-65319137D01*
X208543709Y-65263670D01*
X208543708Y-65263669D01*
X208400000Y-65244750D01*
X208256291Y-65263669D01*
X208256290Y-65263670D01*
X208122378Y-65319137D01*
X208122370Y-65319142D01*
X208010267Y-65405162D01*
X207952592Y-65425586D01*
X207893926Y-65408209D01*
X207889733Y-65405162D01*
X207777629Y-65319142D01*
X207777628Y-65319141D01*
X207777625Y-65319139D01*
X207777622Y-65319138D01*
X207777621Y-65319137D01*
X207643709Y-65263670D01*
X207643708Y-65263669D01*
X207500000Y-65244750D01*
X207356291Y-65263669D01*
X207356290Y-65263670D01*
X207222378Y-65319137D01*
X207222374Y-65319139D01*
X207107381Y-65407377D01*
X207107373Y-65407385D01*
X207078541Y-65444960D01*
X207028117Y-65479615D01*
X206966952Y-65478013D01*
X206921459Y-65444960D01*
X206892626Y-65407385D01*
X206892624Y-65407383D01*
X206892621Y-65407379D01*
X206777625Y-65319139D01*
X206777621Y-65319137D01*
X206643709Y-65263670D01*
X206643708Y-65263669D01*
X206500000Y-65244750D01*
X206356291Y-65263669D01*
X206356290Y-65263670D01*
X206222378Y-65319137D01*
X206222374Y-65319139D01*
X206107381Y-65407377D01*
X206107377Y-65407381D01*
X206019139Y-65522374D01*
X206019137Y-65522378D01*
X205963670Y-65656290D01*
X205963669Y-65656291D01*
X205944750Y-65799999D01*
X205944750Y-65800000D01*
X205500000Y-65800000D01*
X205500000Y-63572044D01*
X205518907Y-63513853D01*
X205528996Y-63502041D01*
X205748352Y-63282684D01*
X205802869Y-63254906D01*
X205805390Y-63254540D01*
X205839875Y-63250000D01*
X213444750Y-63250000D01*
X213463669Y-63393708D01*
X213463670Y-63393709D01*
X213515937Y-63519896D01*
X213519139Y-63527625D01*
X213607379Y-63642621D01*
X213722375Y-63730861D01*
X213856291Y-63786330D01*
X214000000Y-63805250D01*
X214143709Y-63786330D01*
X214277625Y-63730861D01*
X214392621Y-63642621D01*
X214480861Y-63527625D01*
X214536330Y-63393709D01*
X214555250Y-63250000D01*
X214536330Y-63106291D01*
X214480861Y-62972375D01*
X214392621Y-62857379D01*
X214277625Y-62769139D01*
X214277621Y-62769137D01*
X214143709Y-62713670D01*
X214143708Y-62713669D01*
X214000000Y-62694750D01*
X213856291Y-62713669D01*
X213856290Y-62713670D01*
X213722378Y-62769137D01*
X213722374Y-62769139D01*
X213607381Y-62857377D01*
X213607377Y-62857381D01*
X213519139Y-62972374D01*
X213519137Y-62972378D01*
X213463670Y-63106290D01*
X213463669Y-63106291D01*
X213444750Y-63249999D01*
X213444750Y-63250000D01*
X205839875Y-63250000D01*
X205943709Y-63236330D01*
X206077625Y-63180861D01*
X206192621Y-63092621D01*
X206280861Y-62977625D01*
X206336330Y-62843709D01*
X206355250Y-62700000D01*
X206353993Y-62690456D01*
X210694750Y-62690456D01*
X210713669Y-62834164D01*
X210713670Y-62834165D01*
X210764065Y-62955833D01*
X210769139Y-62968081D01*
X210857379Y-63083077D01*
X210972375Y-63171317D01*
X211106291Y-63226786D01*
X211250000Y-63245706D01*
X211393709Y-63226786D01*
X211527625Y-63171317D01*
X211642621Y-63083077D01*
X211730861Y-62968081D01*
X211786330Y-62834165D01*
X211805250Y-62690456D01*
X211804971Y-62688340D01*
X211786330Y-62546747D01*
X211730861Y-62412831D01*
X211642621Y-62297835D01*
X211636257Y-62292951D01*
X211601603Y-62242528D01*
X211603205Y-62181364D01*
X211636259Y-62135869D01*
X211692621Y-62092621D01*
X211780861Y-61977625D01*
X211836330Y-61843709D01*
X211855250Y-61700000D01*
X211852730Y-61680862D01*
X211836330Y-61556291D01*
X211780861Y-61422375D01*
X211692621Y-61307379D01*
X211577625Y-61219139D01*
X211577621Y-61219137D01*
X211443709Y-61163670D01*
X211443708Y-61163669D01*
X211300000Y-61144750D01*
X211156291Y-61163669D01*
X211156290Y-61163670D01*
X211022378Y-61219137D01*
X211022374Y-61219139D01*
X210907381Y-61307377D01*
X210907377Y-61307381D01*
X210819139Y-61422374D01*
X210819137Y-61422378D01*
X210763670Y-61556290D01*
X210763669Y-61556291D01*
X210744750Y-61699999D01*
X210744750Y-61700000D01*
X210763669Y-61843708D01*
X210763670Y-61843709D01*
X210817839Y-61974488D01*
X210819139Y-61977625D01*
X210907379Y-62092621D01*
X210913741Y-62097503D01*
X210948396Y-62147926D01*
X210946795Y-62209090D01*
X210913742Y-62254585D01*
X210857382Y-62297832D01*
X210857377Y-62297837D01*
X210769139Y-62412830D01*
X210769137Y-62412834D01*
X210713670Y-62546746D01*
X210713669Y-62546747D01*
X210694750Y-62690455D01*
X210694750Y-62690456D01*
X206353993Y-62690456D01*
X206336330Y-62556291D01*
X206280861Y-62422375D01*
X206192621Y-62307379D01*
X206077625Y-62219139D01*
X206077621Y-62219137D01*
X205943709Y-62163670D01*
X205943708Y-62163669D01*
X205800000Y-62144750D01*
X205656291Y-62163669D01*
X205656290Y-62163670D01*
X205522378Y-62219137D01*
X205522370Y-62219142D01*
X205407918Y-62306964D01*
X205350242Y-62327388D01*
X205291577Y-62310010D01*
X205269109Y-62288690D01*
X205236270Y-62245893D01*
X205121274Y-62157653D01*
X205121270Y-62157651D01*
X204987358Y-62102184D01*
X204987352Y-62102182D01*
X204980925Y-62101336D01*
X204925701Y-62074993D01*
X204896508Y-62021221D01*
X204902387Y-61965299D01*
X204911330Y-61943709D01*
X204930250Y-61800000D01*
X204926448Y-61771125D01*
X204911330Y-61656291D01*
X204855861Y-61522375D01*
X204767621Y-61407379D01*
X204652625Y-61319139D01*
X204652621Y-61319137D01*
X204518709Y-61263670D01*
X204518708Y-61263669D01*
X204375000Y-61244750D01*
X204231291Y-61263669D01*
X204231290Y-61263670D01*
X204097378Y-61319137D01*
X204097374Y-61319139D01*
X203982381Y-61407377D01*
X203982377Y-61407381D01*
X203894139Y-61522374D01*
X203894137Y-61522378D01*
X203838670Y-61656290D01*
X203838669Y-61656291D01*
X203819750Y-61799999D01*
X203819750Y-61800000D01*
X203838669Y-61943708D01*
X203838670Y-61943709D01*
X203893048Y-62074993D01*
X203894139Y-62077625D01*
X203982379Y-62192621D01*
X204097375Y-62280861D01*
X204231291Y-62336330D01*
X204237718Y-62337176D01*
X204292943Y-62363515D01*
X204322140Y-62417285D01*
X204316263Y-62473213D01*
X204307318Y-62494806D01*
X204289114Y-62633080D01*
X204264393Y-62684907D01*
X204265123Y-62685525D01*
X204262778Y-62688292D01*
X204262773Y-62688305D01*
X204262738Y-62688340D01*
X204262477Y-62688649D01*
X204250088Y-62705999D01*
X204247646Y-62709273D01*
X204215193Y-62750970D01*
X204211447Y-62757891D01*
X204207989Y-62764964D01*
X204192911Y-62815610D01*
X204191663Y-62819505D01*
X204174500Y-62869501D01*
X204173209Y-62877235D01*
X204172232Y-62885074D01*
X204172232Y-62885075D01*
X204172721Y-62896912D01*
X204156234Y-62955833D01*
X204108261Y-62993811D01*
X204073806Y-63000000D01*
X203516519Y-63000000D01*
X203458328Y-62981093D01*
X203422364Y-62931593D01*
X203422364Y-62870407D01*
X203437978Y-62840732D01*
X203478096Y-62788449D01*
X203478095Y-62788449D01*
X203478100Y-62788444D01*
X203533569Y-62654528D01*
X203552489Y-62510819D01*
X203533569Y-62367110D01*
X203478100Y-62233194D01*
X203389860Y-62118198D01*
X203274864Y-62029958D01*
X203274860Y-62029956D01*
X203140948Y-61974489D01*
X203140947Y-61974488D01*
X202997239Y-61955569D01*
X202853530Y-61974488D01*
X202853529Y-61974489D01*
X202719617Y-62029956D01*
X202719613Y-62029958D01*
X202604620Y-62118196D01*
X202604616Y-62118200D01*
X202516378Y-62233193D01*
X202516376Y-62233197D01*
X202460909Y-62367109D01*
X202460908Y-62367110D01*
X202441989Y-62510818D01*
X202441989Y-62510819D01*
X202460908Y-62654527D01*
X202460909Y-62654528D01*
X202516376Y-62788440D01*
X202516381Y-62788449D01*
X202556500Y-62840732D01*
X202576925Y-62898408D01*
X202559548Y-62957073D01*
X202511007Y-62994321D01*
X202477959Y-63000000D01*
X202000001Y-63000000D01*
X202000000Y-63000000D01*
X202000000Y-63000001D01*
X202000000Y-64153634D01*
X201999153Y-64166556D01*
X201994750Y-64199999D01*
X201999153Y-64233442D01*
X202000000Y-64246365D01*
X202000000Y-68458992D01*
X201981093Y-68517183D01*
X201971004Y-68528996D01*
X200028996Y-70471004D01*
X199974479Y-70498781D01*
X199958992Y-70500000D01*
X196354327Y-70500000D01*
X196296136Y-70481093D01*
X196287662Y-70473314D01*
X196287494Y-70473509D01*
X196282143Y-70468872D01*
X196243934Y-70435764D01*
X196238777Y-70430962D01*
X196228595Y-70420781D01*
X196228593Y-70420779D01*
X196217052Y-70412140D01*
X196211588Y-70407736D01*
X196173373Y-70374623D01*
X196166538Y-70371501D01*
X196148348Y-70360708D01*
X196147293Y-70359918D01*
X196142331Y-70356204D01*
X196142328Y-70356203D01*
X196142327Y-70356202D01*
X196094970Y-70338539D01*
X196088441Y-70335835D01*
X196042457Y-70314835D01*
X196042454Y-70314834D01*
X196035014Y-70313764D01*
X196014520Y-70308533D01*
X196007482Y-70305908D01*
X196007483Y-70305908D01*
X195957062Y-70302302D01*
X195950040Y-70301547D01*
X195935799Y-70299500D01*
X195921419Y-70299500D01*
X195914356Y-70299248D01*
X195910455Y-70298969D01*
X195863927Y-70295641D01*
X195863926Y-70295641D01*
X195863925Y-70295641D01*
X195856590Y-70297237D01*
X195835544Y-70299500D01*
X193748322Y-70299500D01*
X193690131Y-70280593D01*
X193678318Y-70270504D01*
X193528996Y-70121182D01*
X193501219Y-70066665D01*
X193500000Y-70051178D01*
X193500000Y-69425000D01*
X199444750Y-69425000D01*
X199463669Y-69568708D01*
X199463670Y-69568709D01*
X199505525Y-69669759D01*
X199519139Y-69702625D01*
X199607379Y-69817621D01*
X199722375Y-69905861D01*
X199856291Y-69961330D01*
X200000000Y-69980250D01*
X200143709Y-69961330D01*
X200277625Y-69905861D01*
X200392621Y-69817621D01*
X200480861Y-69702625D01*
X200536330Y-69568709D01*
X200555250Y-69425000D01*
X200552971Y-69407693D01*
X200536330Y-69281291D01*
X200480861Y-69147375D01*
X200392621Y-69032379D01*
X200277625Y-68944139D01*
X200277621Y-68944137D01*
X200143709Y-68888670D01*
X200143708Y-68888669D01*
X200000000Y-68869750D01*
X199856291Y-68888669D01*
X199856290Y-68888670D01*
X199722378Y-68944137D01*
X199722374Y-68944139D01*
X199607381Y-69032377D01*
X199607377Y-69032381D01*
X199519139Y-69147374D01*
X199519137Y-69147378D01*
X199463670Y-69281290D01*
X199463669Y-69281291D01*
X199444750Y-69424999D01*
X199444750Y-69425000D01*
X193500000Y-69425000D01*
X193500000Y-68125000D01*
X194344750Y-68125000D01*
X194363669Y-68268708D01*
X194363670Y-68268709D01*
X194417862Y-68399544D01*
X194419139Y-68402625D01*
X194507379Y-68517621D01*
X194622375Y-68605861D01*
X194756291Y-68661330D01*
X194900000Y-68680250D01*
X195043709Y-68661330D01*
X195177625Y-68605861D01*
X195292621Y-68517621D01*
X195380861Y-68402625D01*
X195436330Y-68268709D01*
X195455250Y-68125000D01*
X197144750Y-68125000D01*
X197163669Y-68268708D01*
X197163670Y-68268709D01*
X197217862Y-68399544D01*
X197219139Y-68402625D01*
X197307379Y-68517621D01*
X197422375Y-68605861D01*
X197556291Y-68661330D01*
X197700000Y-68680250D01*
X197843709Y-68661330D01*
X197977625Y-68605861D01*
X198092621Y-68517621D01*
X198180861Y-68402625D01*
X198236330Y-68268709D01*
X198255250Y-68125000D01*
X200044750Y-68125000D01*
X200063669Y-68268708D01*
X200063670Y-68268709D01*
X200117862Y-68399544D01*
X200119139Y-68402625D01*
X200207379Y-68517621D01*
X200322375Y-68605861D01*
X200456291Y-68661330D01*
X200600000Y-68680250D01*
X200743709Y-68661330D01*
X200877625Y-68605861D01*
X200992621Y-68517621D01*
X201080861Y-68402625D01*
X201136330Y-68268709D01*
X201155250Y-68125000D01*
X201136330Y-67981291D01*
X201080861Y-67847375D01*
X200992621Y-67732379D01*
X200877625Y-67644139D01*
X200877621Y-67644137D01*
X200743709Y-67588670D01*
X200743708Y-67588669D01*
X200600000Y-67569750D01*
X200456291Y-67588669D01*
X200456290Y-67588670D01*
X200322378Y-67644137D01*
X200322374Y-67644139D01*
X200207381Y-67732377D01*
X200207377Y-67732381D01*
X200119139Y-67847374D01*
X200119137Y-67847378D01*
X200063670Y-67981290D01*
X200063669Y-67981291D01*
X200044750Y-68124999D01*
X200044750Y-68125000D01*
X198255250Y-68125000D01*
X198236330Y-67981291D01*
X198180861Y-67847375D01*
X198092621Y-67732379D01*
X197977625Y-67644139D01*
X197977621Y-67644137D01*
X197843709Y-67588670D01*
X197843708Y-67588669D01*
X197700000Y-67569750D01*
X197556291Y-67588669D01*
X197556290Y-67588670D01*
X197422378Y-67644137D01*
X197422374Y-67644139D01*
X197307381Y-67732377D01*
X197307377Y-67732381D01*
X197219139Y-67847374D01*
X197219137Y-67847378D01*
X197163670Y-67981290D01*
X197163669Y-67981291D01*
X197144750Y-68124999D01*
X197144750Y-68125000D01*
X195455250Y-68125000D01*
X195436330Y-67981291D01*
X195380861Y-67847375D01*
X195292621Y-67732379D01*
X195177625Y-67644139D01*
X195177621Y-67644137D01*
X195043709Y-67588670D01*
X195043708Y-67588669D01*
X194900000Y-67569750D01*
X194756291Y-67588669D01*
X194756290Y-67588670D01*
X194622378Y-67644137D01*
X194622374Y-67644139D01*
X194507381Y-67732377D01*
X194507377Y-67732381D01*
X194419139Y-67847374D01*
X194419137Y-67847378D01*
X194363670Y-67981290D01*
X194363669Y-67981291D01*
X194344750Y-68124999D01*
X194344750Y-68125000D01*
X193500000Y-68125000D01*
X193500000Y-67099000D01*
X193518907Y-67040809D01*
X193568407Y-67004845D01*
X193599000Y-67000000D01*
X199999999Y-67000000D01*
X200000000Y-67000000D01*
X200000000Y-61200000D01*
X202244750Y-61200000D01*
X202263669Y-61343708D01*
X202263670Y-61343709D01*
X202317872Y-61474568D01*
X202319139Y-61477625D01*
X202407379Y-61592621D01*
X202522375Y-61680861D01*
X202656291Y-61736330D01*
X202800000Y-61755250D01*
X202943709Y-61736330D01*
X203077625Y-61680861D01*
X203192621Y-61592621D01*
X203280861Y-61477625D01*
X203316066Y-61392630D01*
X203355802Y-61346105D01*
X203415297Y-61331821D01*
X203420410Y-61332358D01*
X203484256Y-61340764D01*
X203627965Y-61321844D01*
X203761881Y-61266375D01*
X203876877Y-61178135D01*
X203965117Y-61063139D01*
X204020586Y-60929223D01*
X204039506Y-60785514D01*
X204031193Y-60722375D01*
X204020586Y-60641805D01*
X203965117Y-60507889D01*
X203882330Y-60400000D01*
X205844750Y-60400000D01*
X205863669Y-60543708D01*
X205863670Y-60543709D01*
X205912874Y-60662501D01*
X205919139Y-60677625D01*
X206007379Y-60792621D01*
X206122375Y-60880861D01*
X206256291Y-60936330D01*
X206400000Y-60955250D01*
X206543709Y-60936330D01*
X206677625Y-60880861D01*
X206792621Y-60792621D01*
X206880861Y-60677625D01*
X206936330Y-60543709D01*
X206955250Y-60400000D01*
X206936330Y-60256291D01*
X206880861Y-60122375D01*
X206880858Y-60122371D01*
X206880857Y-60122369D01*
X206833203Y-60060266D01*
X206812778Y-60002590D01*
X206830155Y-59943924D01*
X206833178Y-59939762D01*
X206880861Y-59877622D01*
X206936330Y-59743706D01*
X206955250Y-59599997D01*
X206936330Y-59456288D01*
X206880861Y-59322372D01*
X206880858Y-59322368D01*
X206880857Y-59322366D01*
X206833203Y-59260263D01*
X206812778Y-59202587D01*
X206830155Y-59143921D01*
X206833178Y-59139759D01*
X206880861Y-59077619D01*
X206936330Y-58943703D01*
X206955250Y-58799994D01*
X206936330Y-58656285D01*
X206880861Y-58522369D01*
X206792621Y-58407373D01*
X206677625Y-58319133D01*
X206677621Y-58319131D01*
X206543709Y-58263664D01*
X206543708Y-58263663D01*
X206400000Y-58244744D01*
X206256291Y-58263663D01*
X206256290Y-58263664D01*
X206122378Y-58319131D01*
X206122374Y-58319133D01*
X206007381Y-58407371D01*
X206007377Y-58407375D01*
X205919139Y-58522368D01*
X205919137Y-58522372D01*
X205863670Y-58656284D01*
X205863669Y-58656285D01*
X205844750Y-58799993D01*
X205844750Y-58799994D01*
X205863669Y-58943702D01*
X205863670Y-58943703D01*
X205919139Y-59077619D01*
X205919140Y-59077620D01*
X205919142Y-59077623D01*
X205966796Y-59139728D01*
X205987220Y-59197404D01*
X205969842Y-59256069D01*
X205966797Y-59260262D01*
X205919139Y-59322372D01*
X205919137Y-59322375D01*
X205863670Y-59456287D01*
X205863669Y-59456288D01*
X205844750Y-59599996D01*
X205844750Y-59599997D01*
X205863669Y-59743705D01*
X205863670Y-59743706D01*
X205912499Y-59861593D01*
X205919139Y-59877622D01*
X205919140Y-59877623D01*
X205919142Y-59877626D01*
X205966796Y-59939731D01*
X205987220Y-59997407D01*
X205969842Y-60056072D01*
X205966797Y-60060265D01*
X205919139Y-60122375D01*
X205919137Y-60122378D01*
X205863670Y-60256290D01*
X205863669Y-60256291D01*
X205844750Y-60399999D01*
X205844750Y-60400000D01*
X203882330Y-60400000D01*
X203876877Y-60392893D01*
X203761881Y-60304653D01*
X203761877Y-60304651D01*
X203627965Y-60249184D01*
X203627964Y-60249183D01*
X203484256Y-60230264D01*
X203484251Y-60230264D01*
X203471221Y-60231979D01*
X203411061Y-60220827D01*
X203368945Y-60176444D01*
X203362674Y-60159445D01*
X203361831Y-60156301D01*
X203361830Y-60156291D01*
X203306361Y-60022375D01*
X203218121Y-59907379D01*
X203103125Y-59819139D01*
X203103121Y-59819137D01*
X202969209Y-59763670D01*
X202969208Y-59763669D01*
X202825500Y-59744750D01*
X202681791Y-59763669D01*
X202681790Y-59763670D01*
X202547878Y-59819137D01*
X202547874Y-59819139D01*
X202432881Y-59907377D01*
X202432877Y-59907381D01*
X202344639Y-60022374D01*
X202344637Y-60022378D01*
X202289170Y-60156290D01*
X202289169Y-60156291D01*
X202270250Y-60299999D01*
X202270250Y-60300000D01*
X202289169Y-60443708D01*
X202289170Y-60443709D01*
X202330590Y-60543709D01*
X202344639Y-60577625D01*
X202408153Y-60660398D01*
X202418779Y-60674245D01*
X202439203Y-60731921D01*
X202421826Y-60790587D01*
X202410245Y-60804512D01*
X202407383Y-60807374D01*
X202319139Y-60922374D01*
X202319137Y-60922378D01*
X202263670Y-61056290D01*
X202263669Y-61056291D01*
X202244750Y-61199999D01*
X202244750Y-61200000D01*
X200000000Y-61200000D01*
X200000000Y-56099000D01*
X200018907Y-56040809D01*
X200068407Y-56004845D01*
X200099000Y-56000000D01*
X204207930Y-56000000D01*
X204266121Y-56018907D01*
X204302085Y-56068407D01*
X204306082Y-56086073D01*
X204313670Y-56143708D01*
X204313670Y-56143709D01*
X204362808Y-56262342D01*
X204369139Y-56277625D01*
X204457379Y-56392621D01*
X204572375Y-56480861D01*
X204706291Y-56536330D01*
X204850000Y-56555250D01*
X204993709Y-56536330D01*
X205127625Y-56480861D01*
X205242621Y-56392621D01*
X205317226Y-56295394D01*
X205367650Y-56260740D01*
X205428814Y-56262342D01*
X205474308Y-56295394D01*
X205528176Y-56365596D01*
X205643172Y-56453836D01*
X205777088Y-56509305D01*
X205920797Y-56528225D01*
X206064506Y-56509305D01*
X206198422Y-56453836D01*
X206313418Y-56365596D01*
X206401658Y-56250600D01*
X206457127Y-56116684D01*
X206461156Y-56086078D01*
X206487496Y-56030853D01*
X206541267Y-56001658D01*
X206559309Y-56000000D01*
X208999999Y-56000000D01*
X209000000Y-56000000D01*
X209000000Y-54182039D01*
X211635834Y-54182039D01*
X211654753Y-54325747D01*
X211654754Y-54325748D01*
X211710223Y-54459664D01*
X211798463Y-54574660D01*
X211913459Y-54662900D01*
X212047375Y-54718369D01*
X212191084Y-54737289D01*
X212334793Y-54718369D01*
X212468709Y-54662900D01*
X212583705Y-54574660D01*
X212671945Y-54459664D01*
X212727414Y-54325748D01*
X212743969Y-54200000D01*
X213044750Y-54200000D01*
X213063669Y-54343708D01*
X213063670Y-54343709D01*
X213111697Y-54459660D01*
X213119139Y-54477625D01*
X213207379Y-54592621D01*
X213322375Y-54680861D01*
X213456291Y-54736330D01*
X213600000Y-54755250D01*
X213743709Y-54736330D01*
X213877625Y-54680861D01*
X213992621Y-54592621D01*
X214080861Y-54477625D01*
X214136330Y-54343709D01*
X214155250Y-54200000D01*
X214394748Y-54200000D01*
X214413667Y-54343708D01*
X214413668Y-54343709D01*
X214461695Y-54459660D01*
X214469137Y-54477625D01*
X214557377Y-54592621D01*
X214672373Y-54680861D01*
X214806289Y-54736330D01*
X214949998Y-54755250D01*
X215093707Y-54736330D01*
X215227623Y-54680861D01*
X215342619Y-54592621D01*
X215430859Y-54477625D01*
X215486328Y-54343709D01*
X215505248Y-54200000D01*
X215486328Y-54056291D01*
X215430859Y-53922375D01*
X215342619Y-53807379D01*
X215227623Y-53719139D01*
X215227619Y-53719137D01*
X215093707Y-53663670D01*
X215093706Y-53663669D01*
X214949998Y-53644750D01*
X214806289Y-53663669D01*
X214806288Y-53663670D01*
X214672376Y-53719137D01*
X214672372Y-53719139D01*
X214557379Y-53807377D01*
X214557375Y-53807381D01*
X214469137Y-53922374D01*
X214469135Y-53922378D01*
X214413668Y-54056290D01*
X214413667Y-54056291D01*
X214394748Y-54199999D01*
X214394748Y-54200000D01*
X214155250Y-54200000D01*
X214136330Y-54056291D01*
X214080861Y-53922375D01*
X213992621Y-53807379D01*
X213877625Y-53719139D01*
X213877621Y-53719137D01*
X213743709Y-53663670D01*
X213743708Y-53663669D01*
X213600000Y-53644750D01*
X213456291Y-53663669D01*
X213456290Y-53663670D01*
X213322378Y-53719137D01*
X213322374Y-53719139D01*
X213207381Y-53807377D01*
X213207377Y-53807381D01*
X213119139Y-53922374D01*
X213119137Y-53922378D01*
X213063670Y-54056290D01*
X213063669Y-54056291D01*
X213044750Y-54199999D01*
X213044750Y-54200000D01*
X212743969Y-54200000D01*
X212746334Y-54182039D01*
X212727414Y-54038330D01*
X212671945Y-53904414D01*
X212583705Y-53789418D01*
X212468709Y-53701178D01*
X212468705Y-53701176D01*
X212334793Y-53645709D01*
X212334792Y-53645708D01*
X212191084Y-53626789D01*
X212047375Y-53645708D01*
X212047374Y-53645709D01*
X211913462Y-53701176D01*
X211913458Y-53701178D01*
X211798465Y-53789416D01*
X211798461Y-53789420D01*
X211710223Y-53904413D01*
X211710221Y-53904417D01*
X211654754Y-54038329D01*
X211654753Y-54038330D01*
X211635834Y-54182038D01*
X211635834Y-54182039D01*
X209000000Y-54182039D01*
X209000000Y-52600001D01*
X212944722Y-52600001D01*
X212963762Y-52756816D01*
X212963763Y-52756817D01*
X213019780Y-52904523D01*
X213109515Y-53034528D01*
X213109516Y-53034529D01*
X213109517Y-53034530D01*
X213227760Y-53139283D01*
X213367635Y-53212696D01*
X213521015Y-53250500D01*
X213521018Y-53250500D01*
X213678982Y-53250500D01*
X213678985Y-53250500D01*
X213832365Y-53212696D01*
X213972240Y-53139283D01*
X214090483Y-53034530D01*
X214180220Y-52904523D01*
X214236237Y-52756818D01*
X214255278Y-52600000D01*
X214236237Y-52443182D01*
X214224550Y-52412365D01*
X214221593Y-52351252D01*
X214255123Y-52300072D01*
X214312332Y-52278375D01*
X214349954Y-52284918D01*
X214350026Y-52284651D01*
X214353000Y-52285447D01*
X214355002Y-52285796D01*
X214356291Y-52286330D01*
X214500000Y-52305250D01*
X214643709Y-52286330D01*
X214777625Y-52230861D01*
X214892621Y-52142621D01*
X214980861Y-52027625D01*
X215036330Y-51893709D01*
X215055250Y-51750000D01*
X217194750Y-51750000D01*
X217213669Y-51893708D01*
X217213670Y-51893709D01*
X217253833Y-51990674D01*
X217269139Y-52027625D01*
X217357379Y-52142621D01*
X217472375Y-52230861D01*
X217606291Y-52286330D01*
X217750000Y-52305250D01*
X217893709Y-52286330D01*
X218027625Y-52230861D01*
X218142621Y-52142621D01*
X218230861Y-52027625D01*
X218286330Y-51893709D01*
X218305250Y-51750000D01*
X218286330Y-51606291D01*
X218230861Y-51472375D01*
X218142621Y-51357379D01*
X218027625Y-51269139D01*
X218027621Y-51269137D01*
X217893709Y-51213670D01*
X217893708Y-51213669D01*
X217750000Y-51194750D01*
X217606291Y-51213669D01*
X217606290Y-51213670D01*
X217472378Y-51269137D01*
X217472374Y-51269139D01*
X217357381Y-51357377D01*
X217357377Y-51357381D01*
X217269139Y-51472374D01*
X217269137Y-51472378D01*
X217213670Y-51606290D01*
X217213669Y-51606291D01*
X217194750Y-51749999D01*
X217194750Y-51750000D01*
X215055250Y-51750000D01*
X215036330Y-51606291D01*
X214980861Y-51472375D01*
X214892621Y-51357379D01*
X214777625Y-51269139D01*
X214777621Y-51269137D01*
X214643709Y-51213670D01*
X214643708Y-51213669D01*
X214500000Y-51194750D01*
X214356291Y-51213669D01*
X214356290Y-51213670D01*
X214222378Y-51269137D01*
X214222374Y-51269139D01*
X214107381Y-51357377D01*
X214107377Y-51357381D01*
X214019139Y-51472374D01*
X214019137Y-51472378D01*
X213963670Y-51606290D01*
X213963669Y-51606291D01*
X213944750Y-51749999D01*
X213944750Y-51750000D01*
X213961919Y-51880410D01*
X213950769Y-51940571D01*
X213906387Y-51982688D01*
X213845725Y-51990674D01*
X213838218Y-51988574D01*
X213838179Y-51988737D01*
X213678987Y-51949500D01*
X213678985Y-51949500D01*
X213521015Y-51949500D01*
X213521012Y-51949500D01*
X213367635Y-51987303D01*
X213227758Y-52060718D01*
X213109515Y-52165471D01*
X213019780Y-52295476D01*
X212963763Y-52443182D01*
X212963762Y-52443183D01*
X212944722Y-52599998D01*
X212944722Y-52600001D01*
X209000000Y-52600001D01*
X209000000Y-51750000D01*
X210694750Y-51750000D01*
X210713669Y-51893708D01*
X210713670Y-51893709D01*
X210753833Y-51990674D01*
X210769139Y-52027625D01*
X210857379Y-52142621D01*
X210972375Y-52230861D01*
X211106291Y-52286330D01*
X211250000Y-52305250D01*
X211393709Y-52286330D01*
X211527625Y-52230861D01*
X211642621Y-52142621D01*
X211730861Y-52027625D01*
X211786330Y-51893709D01*
X211805250Y-51750000D01*
X211786330Y-51606291D01*
X211730861Y-51472375D01*
X211642621Y-51357379D01*
X211527625Y-51269139D01*
X211527621Y-51269137D01*
X211393709Y-51213670D01*
X211393708Y-51213669D01*
X211250000Y-51194750D01*
X211106291Y-51213669D01*
X211106290Y-51213670D01*
X210972378Y-51269137D01*
X210972374Y-51269139D01*
X210857381Y-51357377D01*
X210857377Y-51357381D01*
X210769139Y-51472374D01*
X210769137Y-51472378D01*
X210713670Y-51606290D01*
X210713669Y-51606291D01*
X210694750Y-51749999D01*
X210694750Y-51750000D01*
X209000000Y-51750000D01*
X209000000Y-47460953D01*
X209018907Y-47402762D01*
X209028996Y-47390949D01*
X209919945Y-46500000D01*
X210694750Y-46500000D01*
X210713669Y-46643708D01*
X210713670Y-46643709D01*
X210769139Y-46777625D01*
X210857379Y-46892621D01*
X210972375Y-46980861D01*
X211106291Y-47036330D01*
X211250000Y-47055250D01*
X211393709Y-47036330D01*
X211527625Y-46980861D01*
X211642621Y-46892621D01*
X211730861Y-46777625D01*
X211786330Y-46643709D01*
X211805250Y-46500000D01*
X213944750Y-46500000D01*
X213963669Y-46643708D01*
X213963670Y-46643709D01*
X214019139Y-46777625D01*
X214107379Y-46892621D01*
X214222375Y-46980861D01*
X214356291Y-47036330D01*
X214500000Y-47055250D01*
X214643709Y-47036330D01*
X214777625Y-46980861D01*
X214892621Y-46892621D01*
X214980861Y-46777625D01*
X215036330Y-46643709D01*
X215055250Y-46500000D01*
X217194750Y-46500000D01*
X217213669Y-46643708D01*
X217213670Y-46643709D01*
X217269139Y-46777625D01*
X217357379Y-46892621D01*
X217472375Y-46980861D01*
X217606291Y-47036330D01*
X217750000Y-47055250D01*
X217893709Y-47036330D01*
X218027625Y-46980861D01*
X218142621Y-46892621D01*
X218230861Y-46777625D01*
X218286330Y-46643709D01*
X218305250Y-46500000D01*
X218286330Y-46356291D01*
X218230861Y-46222375D01*
X218142621Y-46107379D01*
X218027625Y-46019139D01*
X218027621Y-46019137D01*
X217893709Y-45963670D01*
X217893708Y-45963669D01*
X217750000Y-45944750D01*
X217606291Y-45963669D01*
X217606290Y-45963670D01*
X217472378Y-46019137D01*
X217472374Y-46019139D01*
X217357381Y-46107377D01*
X217357377Y-46107381D01*
X217269139Y-46222374D01*
X217269137Y-46222378D01*
X217213670Y-46356290D01*
X217213669Y-46356291D01*
X217194750Y-46499999D01*
X217194750Y-46500000D01*
X215055250Y-46500000D01*
X215036330Y-46356291D01*
X214980861Y-46222375D01*
X214892621Y-46107379D01*
X214777625Y-46019139D01*
X214777621Y-46019137D01*
X214643709Y-45963670D01*
X214643708Y-45963669D01*
X214500000Y-45944750D01*
X214356291Y-45963669D01*
X214356290Y-45963670D01*
X214222378Y-46019137D01*
X214222374Y-46019139D01*
X214107381Y-46107377D01*
X214107377Y-46107381D01*
X214019139Y-46222374D01*
X214019137Y-46222378D01*
X213963670Y-46356290D01*
X213963669Y-46356291D01*
X213944750Y-46499999D01*
X213944750Y-46500000D01*
X211805250Y-46500000D01*
X211786330Y-46356291D01*
X211730861Y-46222375D01*
X211642621Y-46107379D01*
X211527625Y-46019139D01*
X211527621Y-46019137D01*
X211393709Y-45963670D01*
X211393708Y-45963669D01*
X211250000Y-45944750D01*
X211106291Y-45963669D01*
X211106290Y-45963670D01*
X210972378Y-46019137D01*
X210972374Y-46019139D01*
X210857381Y-46107377D01*
X210857377Y-46107381D01*
X210769139Y-46222374D01*
X210769137Y-46222378D01*
X210713670Y-46356290D01*
X210713669Y-46356291D01*
X210694750Y-46499999D01*
X210694750Y-46500000D01*
X209919945Y-46500000D01*
X214390949Y-42028996D01*
X214445466Y-42001219D01*
X214460953Y-42000000D01*
X216499999Y-42000000D01*
X216500000Y-42000000D01*
X216500000Y-36000000D01*
X216499999Y-36000000D01*
X199000001Y-36000000D01*
X199000000Y-36000000D01*
X199000000Y-36000001D01*
X199000000Y-39901000D01*
X198981093Y-39959191D01*
X198931593Y-39995155D01*
X198901000Y-40000000D01*
X197599000Y-40000000D01*
X197540809Y-39981093D01*
X197504845Y-39931593D01*
X197500000Y-39901000D01*
X197500000Y-33500001D01*
X197500000Y-33500000D01*
X197499999Y-33500000D01*
X172020585Y-33500000D01*
X171962394Y-33481093D01*
X171929121Y-33438886D01*
X171880861Y-33322375D01*
X171880860Y-33322374D01*
X171792621Y-33207379D01*
X171677625Y-33119139D01*
X171677621Y-33119137D01*
X171543709Y-33063670D01*
X171543708Y-33063669D01*
X171400000Y-33044750D01*
X171256291Y-33063669D01*
X171256290Y-33063670D01*
X171122378Y-33119137D01*
X171122374Y-33119139D01*
X171007381Y-33207377D01*
X171007377Y-33207381D01*
X170919139Y-33322374D01*
X170919138Y-33322375D01*
X170870879Y-33438886D01*
X170831142Y-33485411D01*
X170779415Y-33500000D01*
X163020585Y-33500000D01*
X162962394Y-33481093D01*
X162929121Y-33438886D01*
X162880861Y-33322375D01*
X162880860Y-33322374D01*
X162792621Y-33207379D01*
X162677625Y-33119139D01*
X162677621Y-33119137D01*
X162543709Y-33063670D01*
X162543708Y-33063669D01*
X162400000Y-33044750D01*
X162256291Y-33063669D01*
X162256290Y-33063670D01*
X162122378Y-33119137D01*
X162122374Y-33119139D01*
X162007381Y-33207377D01*
X162007377Y-33207381D01*
X161919139Y-33322374D01*
X161919138Y-33322375D01*
X161870879Y-33438886D01*
X161831142Y-33485411D01*
X161779415Y-33500000D01*
X154020585Y-33500000D01*
X153962394Y-33481093D01*
X153929121Y-33438886D01*
X153880861Y-33322375D01*
X153880860Y-33322374D01*
X153792621Y-33207379D01*
X153677625Y-33119139D01*
X153677621Y-33119137D01*
X153543709Y-33063670D01*
X153543708Y-33063669D01*
X153400000Y-33044750D01*
X153256291Y-33063669D01*
X153256290Y-33063670D01*
X153122378Y-33119137D01*
X153122374Y-33119139D01*
X153007381Y-33207377D01*
X153007377Y-33207381D01*
X152919139Y-33322374D01*
X152919138Y-33322375D01*
X152870879Y-33438886D01*
X152831142Y-33485411D01*
X152779415Y-33500000D01*
X151599000Y-33500000D01*
X151540809Y-33481093D01*
X151504845Y-33431593D01*
X151500000Y-33401000D01*
X151500000Y-32200000D01*
X155444750Y-32200000D01*
X155463669Y-32343708D01*
X155463670Y-32343709D01*
X155510520Y-32456818D01*
X155519139Y-32477625D01*
X155607379Y-32592621D01*
X155722375Y-32680861D01*
X155856291Y-32736330D01*
X156000000Y-32755250D01*
X156143709Y-32736330D01*
X156277625Y-32680861D01*
X156392621Y-32592621D01*
X156480861Y-32477625D01*
X156536330Y-32343709D01*
X156555250Y-32200000D01*
X156548667Y-32150000D01*
X164469750Y-32150000D01*
X164488669Y-32293708D01*
X164488670Y-32293709D01*
X164530090Y-32393709D01*
X164544139Y-32427625D01*
X164632379Y-32542621D01*
X164747375Y-32630861D01*
X164881291Y-32686330D01*
X165025000Y-32705250D01*
X165168709Y-32686330D01*
X165302625Y-32630861D01*
X165417621Y-32542621D01*
X165505861Y-32427625D01*
X165561330Y-32293709D01*
X165567085Y-32250000D01*
X173469750Y-32250000D01*
X173488669Y-32393708D01*
X173488670Y-32393709D01*
X173523428Y-32477625D01*
X173544139Y-32527625D01*
X173632379Y-32642621D01*
X173747375Y-32730861D01*
X173881291Y-32786330D01*
X174025000Y-32805250D01*
X174168709Y-32786330D01*
X174302625Y-32730861D01*
X174417621Y-32642621D01*
X174505861Y-32527625D01*
X174561330Y-32393709D01*
X174580250Y-32250000D01*
X174561330Y-32106291D01*
X174505861Y-31972375D01*
X174417621Y-31857379D01*
X174302625Y-31769139D01*
X174302621Y-31769137D01*
X174168709Y-31713670D01*
X174168708Y-31713669D01*
X174050848Y-31698153D01*
X174029900Y-31688161D01*
X173999151Y-31698153D01*
X173881291Y-31713669D01*
X173881290Y-31713670D01*
X173747378Y-31769137D01*
X173747374Y-31769139D01*
X173632381Y-31857377D01*
X173632377Y-31857381D01*
X173544139Y-31972374D01*
X173544137Y-31972378D01*
X173488670Y-32106290D01*
X173488669Y-32106291D01*
X173469750Y-32249999D01*
X173469750Y-32250000D01*
X165567085Y-32250000D01*
X165580250Y-32150000D01*
X165579352Y-32143182D01*
X165561330Y-32006291D01*
X165505861Y-31872375D01*
X165417621Y-31757379D01*
X165302625Y-31669139D01*
X165302621Y-31669137D01*
X165168709Y-31613670D01*
X165168708Y-31613669D01*
X165050848Y-31598153D01*
X165029900Y-31588161D01*
X164999151Y-31598153D01*
X164881291Y-31613669D01*
X164881290Y-31613670D01*
X164747378Y-31669137D01*
X164747374Y-31669139D01*
X164632381Y-31757377D01*
X164632377Y-31757381D01*
X164544139Y-31872374D01*
X164544137Y-31872378D01*
X164488670Y-32006290D01*
X164488669Y-32006291D01*
X164469750Y-32149999D01*
X164469750Y-32150000D01*
X156548667Y-32150000D01*
X156536330Y-32056291D01*
X156480861Y-31922375D01*
X156392621Y-31807379D01*
X156277625Y-31719139D01*
X156277621Y-31719137D01*
X156143709Y-31663670D01*
X156143708Y-31663669D01*
X156025848Y-31648153D01*
X156004900Y-31638161D01*
X155974151Y-31648153D01*
X155856291Y-31663669D01*
X155856290Y-31663670D01*
X155722378Y-31719137D01*
X155722374Y-31719139D01*
X155607381Y-31807377D01*
X155607377Y-31807381D01*
X155519139Y-31922374D01*
X155519137Y-31922378D01*
X155463670Y-32056290D01*
X155463669Y-32056291D01*
X155444750Y-32199999D01*
X155444750Y-32200000D01*
X151500000Y-32200000D01*
X151500000Y-30900000D01*
X155444750Y-30900000D01*
X155463669Y-31043708D01*
X155463670Y-31043709D01*
X155498428Y-31127625D01*
X155519139Y-31177625D01*
X155607379Y-31292621D01*
X155722375Y-31380861D01*
X155856291Y-31436330D01*
X155974151Y-31451847D01*
X155995098Y-31461838D01*
X156025848Y-31451847D01*
X156039277Y-31450078D01*
X156143709Y-31436330D01*
X156277625Y-31380861D01*
X156392621Y-31292621D01*
X156480861Y-31177625D01*
X156536330Y-31043709D01*
X156555250Y-30900000D01*
X156548667Y-30850000D01*
X164469750Y-30850000D01*
X164488669Y-30993708D01*
X164488670Y-30993709D01*
X164530090Y-31093709D01*
X164544139Y-31127625D01*
X164632379Y-31242621D01*
X164747375Y-31330861D01*
X164881291Y-31386330D01*
X164999151Y-31401847D01*
X165020098Y-31411838D01*
X165050848Y-31401847D01*
X165064277Y-31400078D01*
X165168709Y-31386330D01*
X165302625Y-31330861D01*
X165417621Y-31242621D01*
X165505861Y-31127625D01*
X165561330Y-30993709D01*
X165567085Y-30950000D01*
X173469750Y-30950000D01*
X173488669Y-31093708D01*
X173488670Y-31093709D01*
X173523428Y-31177625D01*
X173544139Y-31227625D01*
X173632379Y-31342621D01*
X173747375Y-31430861D01*
X173881291Y-31486330D01*
X173999151Y-31501847D01*
X174020098Y-31511838D01*
X174050848Y-31501847D01*
X174064277Y-31500078D01*
X174168709Y-31486330D01*
X174302625Y-31430861D01*
X174417621Y-31342621D01*
X174505861Y-31227625D01*
X174561330Y-31093709D01*
X174580250Y-30950000D01*
X174561330Y-30806291D01*
X174505861Y-30672375D01*
X174417621Y-30557379D01*
X174302625Y-30469139D01*
X174302621Y-30469137D01*
X174168709Y-30413670D01*
X174168708Y-30413669D01*
X174025000Y-30394750D01*
X173881291Y-30413669D01*
X173881290Y-30413670D01*
X173747378Y-30469137D01*
X173747374Y-30469139D01*
X173632381Y-30557377D01*
X173632377Y-30557381D01*
X173544139Y-30672374D01*
X173544137Y-30672378D01*
X173488670Y-30806290D01*
X173488669Y-30806291D01*
X173469750Y-30949999D01*
X173469750Y-30950000D01*
X165567085Y-30950000D01*
X165580250Y-30850000D01*
X165574495Y-30806291D01*
X165561330Y-30706291D01*
X165505861Y-30572375D01*
X165417621Y-30457379D01*
X165302625Y-30369139D01*
X165302621Y-30369137D01*
X165168709Y-30313670D01*
X165168708Y-30313669D01*
X165025000Y-30294750D01*
X164881291Y-30313669D01*
X164881290Y-30313670D01*
X164747378Y-30369137D01*
X164747374Y-30369139D01*
X164632381Y-30457377D01*
X164632377Y-30457381D01*
X164544139Y-30572374D01*
X164544137Y-30572378D01*
X164488670Y-30706290D01*
X164488669Y-30706291D01*
X164469750Y-30849999D01*
X164469750Y-30850000D01*
X156548667Y-30850000D01*
X156536330Y-30756291D01*
X156480861Y-30622375D01*
X156392621Y-30507379D01*
X156277625Y-30419139D01*
X156277621Y-30419137D01*
X156143709Y-30363670D01*
X156143708Y-30363669D01*
X156000000Y-30344750D01*
X155856291Y-30363669D01*
X155856290Y-30363670D01*
X155722378Y-30419137D01*
X155722374Y-30419139D01*
X155607381Y-30507377D01*
X155607377Y-30507381D01*
X155519139Y-30622374D01*
X155519137Y-30622378D01*
X155463670Y-30756290D01*
X155463669Y-30756291D01*
X155444750Y-30899999D01*
X155444750Y-30900000D01*
X151500000Y-30900000D01*
X151500000Y-30099000D01*
X151518907Y-30040809D01*
X151568407Y-30004845D01*
X151599000Y-30000000D01*
X205901000Y-30000000D01*
X205959191Y-30018907D01*
G37*
%TD.AperFunction*%
%TD*%
M02*
